<svg width="145" height="149" viewBox="0 0 145 149" fill="none" xmlns="http://www.w3.org/2000/svg">
<g id="Capa_1" clip-path="url(#clip0_11_134)">
<path id="Vector" d="M36.2253 79.8582C35.5416 80.5563 34.7253 81.1109 33.8245 81.4895C32.9237 81.8681 31.9563 82.0632 30.9792 82.0632C30.002 82.0632 29.0347 81.8681 28.1339 81.4895C27.233 81.1109 26.4168 80.5563 25.7331 79.8582C24.3401 78.4324 23.5603 76.5182 23.5603 74.5249C23.5603 72.5316 24.3401 70.6175 25.7331 69.1917C26.4168 68.4936 27.233 67.939 28.1339 67.5604C29.0347 67.1818 30.002 66.9868 30.9792 66.9868C31.9563 66.9868 32.9237 67.1818 33.8245 67.5604C34.7253 67.939 35.5416 68.4936 36.2253 69.1917C37.6183 70.6175 38.3981 72.5316 38.3981 74.5249C38.3981 76.5182 37.6183 78.4324 36.2253 79.8582ZM50.7077 79.6418L48.1898 77.0759L38.3286 67.0584C37.3711 66.0798 36.2278 65.3022 34.9658 64.7713C33.7037 64.2405 32.3483 63.9671 30.9792 63.9671C29.61 63.9671 28.2547 64.2405 26.9927 64.7713C25.7306 65.3022 24.5873 66.0798 23.6298 67.0584C21.6825 69.056 20.5927 71.7353 20.5927 74.5249C20.5927 77.3146 21.6825 79.9939 23.6298 81.9915C24.5873 82.9701 25.7306 83.7477 26.9927 84.2785C28.2547 84.8094 29.61 85.0829 30.9792 85.0829C32.3483 85.0829 33.7037 84.8094 34.9658 84.2785C36.2278 83.7477 37.3711 82.9701 38.3286 81.9915C39.3054 80.9885 40.0738 79.8019 40.5896 78.5002C41.1053 77.1986 41.3581 75.8077 41.3332 74.4078L47.3425 80.4952C46.4833 82.9466 45.0918 85.1774 43.2682 87.0273C41.6647 88.6637 39.7507 89.9636 37.6385 90.8511C35.5263 91.7386 33.2583 92.1957 30.9672 92.1957C28.6761 92.1957 26.408 91.7386 24.2958 90.8511C22.1836 89.9636 20.2697 88.6637 18.6661 87.0273C15.4034 83.6836 13.577 79.1968 13.577 74.5249C13.577 69.8531 15.4034 65.3664 18.6661 62.0226C20.2697 60.3863 22.1836 59.0863 24.2958 58.1988C26.408 57.3114 28.6761 56.8542 30.9672 56.8542C33.2583 56.8542 35.5263 57.3114 37.6385 58.1988C39.7507 59.0863 41.6647 60.3863 43.2682 62.0226L43.4004 62.1608L50.7558 69.6364L58.688 77.6948L61.3021 80.357L66.8066 85.9516L69.4207 88.6077L77.3529 96.6662L84.7083 104.148L84.9727 104.412C88.1764 107.767 89.9535 112.235 89.9299 116.874C89.9064 121.513 88.084 125.962 84.8465 129.285C83.2419 130.926 81.3257 132.23 79.2102 133.12C77.0947 134.01 74.8226 134.469 72.5274 134.469C70.2322 134.469 67.9602 134.01 65.8447 133.12C63.7292 132.23 61.8129 130.926 60.2084 129.285C56.948 125.938 55.1235 121.451 55.1235 116.779C55.1235 112.107 56.948 107.62 60.2084 104.274C62.0171 102.434 64.2139 101.022 66.6384 100.14L72.6476 106.227L77.7616 111.419C79.1666 112.833 79.9626 114.741 79.9795 116.734C79.9963 118.727 79.2326 120.648 77.8516 122.085C77.1739 122.789 76.3625 123.351 75.4649 123.738C74.5674 124.124 73.6016 124.327 72.6245 124.336C71.6473 124.344 70.6783 124.157 69.7742 123.786C68.8701 123.415 68.0492 122.868 67.3594 122.176C65.9544 120.762 65.1583 118.854 65.1415 116.861C65.1246 114.867 65.8883 112.947 67.2693 111.509C67.947 110.805 68.7585 110.243 69.6561 109.857C70.5536 109.471 71.5193 109.267 72.4965 109.259C73.4736 109.251 74.4427 109.437 75.3468 109.808C76.2508 110.179 77.0718 110.727 77.7616 111.419L72.5815 106.245C71.1939 106.24 69.8197 106.516 68.542 107.057C67.2643 107.599 66.1096 108.393 65.148 109.394C63.2171 111.409 62.1497 114.098 62.1733 116.889C62.1968 119.68 63.3096 122.351 65.2742 124.333C66.2413 125.302 67.3919 126.068 68.6586 126.586C69.9253 127.105 71.2826 127.366 72.6513 127.353C74.02 127.341 75.3725 127.056 76.6297 126.514C77.8868 125.973 79.0234 125.187 79.9729 124.201C81.8027 122.289 82.859 119.768 82.9378 117.123C83.0166 114.478 82.1123 111.898 80.3996 109.881V109.851L79.8828 109.328L70.0456 99.2682L67.5217 96.7082L61.5905 90.699L59.3431 88.4095L58.8924 87.9527L56.6389 85.6692L50.7077 79.6418ZM82.9535 87.2316L92.292 96.7203C97.5248 102.086 100.454 109.284 100.454 116.779C100.454 124.274 97.5248 131.472 92.292 136.838C89.7184 139.463 86.6473 141.548 83.2582 142.971C79.8692 144.395 76.2303 145.128 72.5545 145.128C68.8787 145.128 65.2398 144.395 61.8507 142.971C58.4617 141.548 55.3905 139.463 52.817 136.838C47.5841 131.472 44.6553 124.274 44.6553 116.779C44.6553 109.284 47.5841 102.086 52.817 96.7203C54.5883 94.9234 56.5933 93.3731 58.7781 92.1111L64.3909 97.8139C62.0587 98.8521 59.9426 100.32 58.1532 102.141C54.3329 106.056 52.1944 111.309 52.1944 116.779C52.1944 122.249 54.3329 127.503 58.1532 131.418C60.0309 133.334 62.272 134.856 64.7454 135.896C67.2188 136.935 69.8747 137.47 72.5575 137.47C75.2403 137.47 77.8961 136.935 80.3695 135.896C82.8429 134.856 85.084 133.334 86.9617 131.418C90.6896 127.593 92.8169 122.489 92.9096 117.149C93.0023 111.808 91.0533 106.634 87.4605 102.682L87.076 102.291L86.9497 102.153C86.9016 102.105 86.8536 102.069 86.8115 102.02L73.4769 88.4515L70.5563 85.4829L61.7768 76.5591L58.8563 73.5905L45.5097 60.0275L45.3835 59.8893C43.5058 57.9731 41.2646 56.4508 38.7912 55.4116C36.3179 54.3724 33.662 53.8371 30.9792 53.8371C28.2963 53.8371 25.6405 54.3724 23.1672 55.4116C20.6938 56.4508 18.4526 57.9731 16.5749 59.8893C12.7542 63.8054 10.6156 69.0598 10.6156 74.5309C10.6156 80.0021 12.7542 85.2565 16.5749 89.1726C18.4526 91.0888 20.6938 92.611 23.1672 93.6503C25.6405 94.6895 28.2963 95.2248 30.9792 95.2248C33.662 95.2248 36.3179 94.6895 38.7912 93.6503C41.2646 92.611 43.5058 91.0888 45.3835 89.1726C47.1819 87.3386 48.6245 85.187 49.638 82.8268L55.2507 88.5296C54.0196 90.7448 52.4933 92.7825 50.7137 94.5869C48.1403 97.2106 45.0695 99.2948 41.681 100.718C38.2925 102.14 34.6543 102.873 30.9792 102.873C27.3041 102.873 23.6659 102.14 20.2774 100.718C16.8889 99.2948 13.8181 97.2106 11.2447 94.5869C6.01185 89.2211 3.08299 82.0229 3.08299 74.5279C3.08299 67.033 6.01185 59.8347 11.2447 54.4689C13.8181 51.8452 16.8889 49.761 20.2774 48.3382C23.6659 46.9154 27.3041 46.1826 30.9792 46.1826C34.6543 46.1826 38.2925 46.9154 41.681 48.3382C45.0695 49.761 48.1403 51.8452 50.7137 54.4689L60.0521 63.9636L82.9535 87.2316ZM9.14143 52.3297C3.35104 58.2668 0.110107 66.2317 0.110107 74.5249C0.110107 82.8182 3.35104 90.7831 9.14143 96.7203C13.7273 101.401 19.6959 104.484 26.1671 105.515C32.6383 106.546 39.2695 105.471 45.083 102.447C42.1077 108.365 41.0516 115.064 42.062 121.611C43.0723 128.157 46.0987 134.226 50.7197 138.972C53.5657 141.878 56.9631 144.187 60.713 145.764C64.4629 147.34 68.4897 148.152 72.5575 148.152C76.6253 148.152 80.6521 147.34 84.402 145.764C88.1519 144.187 91.5493 141.878 94.3952 138.972C100.099 133.125 103.334 125.307 103.428 117.139C103.522 108.971 100.468 101.08 94.9 95.1037L94.3832 94.5749L52.805 52.3236C49.9586 49.4179 46.561 47.1094 42.8112 45.5335C39.0614 43.9575 35.0347 43.1458 30.9672 43.1458C26.8997 43.1458 22.873 43.9575 19.1231 45.5335C15.3733 47.1094 11.9757 49.4179 9.1294 52.3236" fill="#EDECE5"/>
<path id="Vector_2" d="M67.2873 37.6071C65.8968 36.1788 65.1188 34.2642 65.1188 32.2709C65.1188 30.2775 65.8968 28.3629 67.2873 26.9346C67.972 26.2371 68.7889 25.683 69.6902 25.3048C70.5914 24.9266 71.559 24.7318 72.5364 24.7318C73.5138 24.7318 74.4815 24.9266 75.3828 25.3048C76.284 25.683 77.1008 26.2371 77.7855 26.9346C79.176 28.3629 79.9541 30.2775 79.9541 32.2709C79.9541 34.2642 79.176 36.1788 77.7855 37.6071C77.1008 38.3047 76.284 38.8587 75.3828 39.2369C74.4815 39.6152 73.5138 39.81 72.5364 39.81C71.559 39.81 70.5914 39.6152 69.6902 39.2369C68.7889 38.8587 67.972 38.3047 67.2873 37.6071ZM83.5124 58.3512L85.7599 60.6407L86.2106 61.0974L88.4641 63.381L94.3952 69.3903L96.9132 71.9562L106.774 81.9737L107.291 82.5025L107.321 82.4725C109.282 84.2092 111.832 85.1315 114.45 85.0511C117.068 84.9707 119.557 83.8935 121.407 82.0398C123.374 80.0592 124.489 77.3884 124.513 74.5972C124.538 71.806 123.471 69.1158 121.539 67.1007C120.59 66.1145 119.453 65.3278 118.196 64.7865C116.938 64.2453 115.585 63.9604 114.216 63.9487C112.847 63.9369 111.49 64.1985 110.223 64.7181C108.957 65.2377 107.807 66.0048 106.84 66.9745C105.85 67.9663 105.066 69.1445 104.534 70.441C104.002 71.7375 103.732 73.1267 103.74 74.5282L108.83 79.7923C107.451 78.3533 106.69 76.4332 106.706 74.4408C106.723 72.4484 107.517 70.5413 108.92 69.1258C109.61 68.4338 110.432 67.8865 111.337 67.516C112.242 67.1456 113.211 66.9594 114.189 66.9684C115.167 66.9773 116.133 67.1812 117.031 67.5682C117.928 67.9552 118.74 68.5174 119.418 69.222C120.796 70.661 121.558 72.5812 121.541 74.5736C121.524 76.566 120.73 78.473 119.328 79.8885C118.637 80.5805 117.815 81.1278 116.911 81.4983C116.006 81.8687 115.036 82.055 114.058 82.046C113.081 82.0371 112.115 81.8331 111.217 81.4461C110.319 81.0591 109.507 80.4969 108.83 79.7923L103.716 74.5943L97.7063 68.5129C98.5633 66.0617 99.9527 63.8309 101.775 61.9808C103.378 60.3444 105.292 59.0444 107.404 58.157C109.517 57.2695 111.785 56.8124 114.076 56.8124C116.367 56.8124 118.635 57.2695 120.747 58.157C122.859 59.0444 124.773 60.3444 126.377 61.9808C129.639 65.3245 131.466 69.8113 131.466 74.4831C131.466 79.155 129.639 83.6418 126.377 86.9855C124.785 88.6112 122.886 89.9052 120.791 90.7926C118.695 91.68 116.445 92.1432 114.169 92.1555C111.894 92.1678 109.639 91.7289 107.534 90.8642C105.429 89.9994 103.516 88.7261 101.907 87.1177L101.648 86.8472L94.3291 79.4378L86.3969 71.3793L83.7828 68.7172L78.2783 63.1225L75.6642 60.4665L67.732 52.408L60.3766 44.9264L60.2445 44.7942C56.9827 41.4487 55.1572 36.9613 55.1572 32.2889C55.1572 27.6165 56.9827 23.129 60.2445 19.7835C61.849 18.1424 63.7652 16.8384 65.8807 15.9482C67.9962 15.0579 70.2683 14.5993 72.5635 14.5993C74.8587 14.5993 77.1307 15.0579 79.2462 15.9482C81.3617 16.8384 83.278 18.1424 84.8825 19.7835C88.1443 23.129 89.9698 27.6165 89.9698 32.2889C89.9698 36.9613 88.1443 41.4487 84.8825 44.7942C83.076 46.6338 80.8812 48.0464 78.4586 48.9286L72.4493 42.8412C73.8369 42.8573 75.2135 42.5925 76.4962 42.0627C77.7788 41.533 78.941 40.7491 79.9128 39.7584C81.8605 37.7598 82.9505 35.0796 82.9505 32.2889C82.9505 29.4983 81.8605 26.8179 79.9128 24.8193C78.9545 23.8422 77.8109 23.0659 76.549 22.536C75.2871 22.0061 73.9322 21.7332 72.5635 21.7332C71.1948 21.7332 69.8399 22.0061 68.5779 22.536C67.316 23.0659 66.1725 23.8422 65.2141 24.8193C63.2637 26.8165 62.1717 29.4973 62.1717 32.2889C62.1717 35.0805 63.2637 37.7613 65.2141 39.7584L75.0693 49.782L77.5933 52.3419L83.5124 58.3512ZM62.1494 61.8186L52.811 52.3299C47.5781 46.9641 44.6493 39.7658 44.6493 32.2709C44.6493 24.7759 47.5781 17.5777 52.811 12.2119C55.3845 9.58724 58.4556 7.50223 61.8447 6.07889C65.2338 4.65554 68.8726 3.92246 72.5485 3.92246C76.2243 3.92246 79.8632 4.65554 83.2522 6.07889C86.6413 7.50223 89.7124 9.58724 92.286 12.2119C97.5188 17.5777 100.448 24.7759 100.448 32.2709C100.448 39.7658 97.5188 46.9641 92.286 52.3299C90.5159 54.1281 88.5107 55.6786 86.3248 56.939L80.7121 51.2302C83.0463 50.1951 85.1645 48.7293 86.9557 46.9095C90.7732 42.993 92.9097 37.7401 92.9097 32.2709C92.9097 26.8016 90.7732 21.5488 86.9557 17.6322C85.078 15.7161 82.8369 14.1938 80.3635 13.1546C77.8902 12.1153 75.2343 11.58 72.5515 11.58C69.8686 11.58 67.2128 12.1153 64.7394 13.1546C62.266 14.1938 60.0249 15.7161 58.1472 17.6322C54.3269 21.5473 52.1884 26.8007 52.1884 32.2709C52.1884 37.741 54.3269 42.9944 58.1472 46.9095L58.2794 47.0417L71.626 60.6047L74.5465 63.5732L83.3261 72.497L86.2467 75.4657L99.5933 89.0286L99.7194 89.1609C99.7625 89.2079 99.8087 89.2521 99.8576 89.293L100.242 89.6837C104.081 93.3252 109.197 95.3125 114.487 95.2169C119.777 95.1214 124.818 92.9506 128.522 89.1728C132.343 85.2567 134.481 80.0023 134.481 74.5312C134.481 69.06 132.343 63.8056 128.522 59.8895C126.644 57.9734 124.403 56.4511 121.93 55.4118C119.456 54.3726 116.801 53.8373 114.118 53.8373C111.435 53.8373 108.779 54.3726 106.306 55.4118C103.832 56.4511 101.591 57.9734 99.7134 59.8895C97.915 61.7235 96.4724 63.8752 95.4589 66.2354L89.8462 60.5326C91.0808 58.3178 92.6067 56.2784 94.3832 54.4692C96.9566 51.8455 100.027 49.7613 103.416 48.3385C106.804 46.9157 110.443 46.1828 114.118 46.1828C117.793 46.1828 121.431 46.9157 124.82 48.3385C128.208 49.7613 131.279 51.8455 133.852 54.4692C139.086 59.8332 142.016 67.0307 142.016 74.5252C142.016 82.0196 139.086 89.2171 133.852 94.5812C131.279 97.2058 128.208 99.2908 124.819 100.714C121.429 102.137 117.791 102.871 114.115 102.871C110.439 102.871 106.8 102.137 103.411 100.714C100.022 99.2908 96.9507 97.2058 94.3772 94.5812L85.0388 85.0925L62.1494 61.8186ZM50.7317 54.4631L92.31 96.7205L92.8268 97.2433C98.622 102.886 106.418 106.001 114.506 105.905C122.594 105.809 130.314 102.511 135.974 96.7325C141.764 90.7954 145.005 82.8305 145.005 74.5372C145.005 66.2439 141.764 58.279 135.974 52.3419C131.388 47.6612 125.419 44.578 118.948 43.5469C112.477 42.5158 105.845 43.5913 100.032 46.615C103.014 40.6989 104.075 33.9992 103.065 27.4512C102.056 20.9032 99.0268 14.8338 94.4012 10.0906C91.5548 7.18392 88.1568 4.8747 84.4065 3.2982C80.6561 1.7217 76.6287 0.909668 72.5605 0.909668C68.4922 0.909668 64.4649 1.7217 60.7145 3.2982C56.9641 4.8747 53.5662 7.18392 50.7197 10.0906C44.9312 16.0274 41.6913 23.9911 41.6913 32.2829C41.6913 40.5747 44.9312 48.5383 50.7197 54.4752" fill="#EDECE5"/>
<path id="Vector_3" d="M108.884 69.2218C109.567 68.5237 110.384 67.9691 111.284 67.5905C112.185 67.2119 113.153 67.0168 114.13 67.0168C115.107 67.0168 116.074 67.2119 116.975 67.5905C117.876 67.9691 118.692 68.5237 119.376 69.2218C120.769 70.6476 121.549 72.5617 121.549 74.555C121.549 76.5483 120.769 78.4625 119.376 79.8883C118.692 80.5863 117.876 81.1409 116.975 81.5195C116.074 81.8982 115.107 82.0932 114.13 82.0932C113.153 82.0932 112.185 81.8982 111.284 81.5195C110.384 81.1409 109.567 80.5863 108.884 79.8883C107.491 78.4625 106.711 76.5483 106.711 74.555C106.711 72.5617 107.491 70.6476 108.884 69.2218ZM88.452 85.6993L86.2045 87.9827L85.7538 88.4395L83.5064 90.729L77.5752 96.7383L75.0513 99.2983L65.1901 109.322L64.6733 109.851C62.9606 111.868 62.0563 114.448 62.1351 117.093C62.2139 119.737 63.2702 122.259 65.0999 124.171C66.0494 125.157 67.186 125.943 68.4432 126.484C69.7003 127.026 71.0528 127.311 72.4215 127.323C73.7902 127.335 75.1476 127.075 76.4143 126.556C77.681 126.038 78.8315 125.272 79.7986 124.303C81.7632 122.321 82.876 119.65 82.8996 116.859C82.9231 114.068 81.8557 111.379 79.9249 109.364C78.9632 108.363 77.8086 107.569 76.5309 107.027C75.2532 106.486 73.879 106.21 72.4914 106.215L67.3114 111.389C68.0011 110.697 68.822 110.149 69.7261 109.778C70.6302 109.407 71.5992 109.221 72.5764 109.229C73.5536 109.237 74.5192 109.441 75.4168 109.827C76.3144 110.213 77.1258 110.775 77.8036 111.479C79.1831 112.917 79.9458 114.838 79.929 116.831C79.9121 118.823 79.1171 120.731 77.7134 122.146C77.0227 122.837 76.2012 123.384 75.2966 123.755C74.3921 124.125 73.4228 124.312 72.4454 124.304C71.4679 124.295 70.502 124.092 69.604 123.706C68.706 123.32 67.8939 122.759 67.2152 122.055C65.8365 120.616 65.0748 118.695 65.0927 116.703C65.1107 114.71 65.9069 112.803 67.3114 111.389L72.4253 106.197L78.4346 100.11C80.8579 100.99 83.053 102.403 84.8585 104.244C88.1202 107.589 89.9457 112.077 89.9457 116.749C89.9457 121.422 88.1202 125.909 84.8585 129.255C83.2549 130.891 81.341 132.191 79.2288 133.078C77.1166 133.966 74.8485 134.423 72.5575 134.423C70.2664 134.423 67.9983 133.966 65.8861 133.078C63.7738 132.191 61.86 130.891 60.2565 129.255C57.0175 125.933 55.1942 121.483 55.1706 116.844C55.1471 112.204 56.9251 107.737 60.1302 104.382L60.3947 104.118L67.75 96.6361L75.6823 88.5777L78.2963 85.9216L83.8008 80.3269L86.4149 77.6648L94.3472 69.6064L101.703 62.1308L101.835 61.9926C103.438 60.3562 105.352 59.0562 107.464 58.1688C109.577 57.2813 111.845 56.8242 114.136 56.8242C116.427 56.8242 118.695 57.2813 120.807 58.1688C122.919 59.0562 124.833 60.3562 126.437 61.9926C129.7 65.3363 131.526 69.8231 131.526 74.4949C131.526 79.1668 129.7 83.6535 126.437 86.9972C124.833 88.6336 122.919 89.9336 120.807 90.8211C118.695 91.7086 116.427 92.1656 114.136 92.1656C111.845 92.1656 109.577 91.7086 107.464 90.8211C105.352 89.9336 103.438 88.6336 101.835 86.9972C100.011 85.1473 98.6197 82.9165 97.7604 80.4651L103.77 74.3837C103.746 75.7826 103.999 77.1724 104.515 78.4729C105.03 79.7735 105.798 80.9591 106.774 81.9614C107.732 82.9401 108.875 83.7177 110.137 84.2485C111.399 84.7794 112.755 85.0528 114.124 85.0528C115.493 85.0528 116.848 84.7794 118.11 84.2485C119.372 83.7177 120.516 82.9401 121.473 81.9614C123.42 79.9638 124.51 77.2846 124.51 74.4949C124.51 71.7053 123.42 69.0259 121.473 67.0284C120.516 66.0497 119.372 65.2722 118.11 64.7414C116.848 64.2105 115.493 63.9371 114.124 63.9371C112.755 63.9371 111.399 64.2105 110.137 64.7414C108.875 65.2722 107.732 66.0497 106.774 67.0284L96.9131 77.0459L94.3892 79.6118L88.452 85.6993ZM85.0448 63.9877L94.3772 54.493C96.9507 51.8684 100.022 49.7834 103.411 48.36C106.8 46.9367 110.439 46.2036 114.115 46.2036C117.791 46.2036 121.429 46.9367 124.818 48.36C128.208 49.7834 131.279 51.8684 133.852 54.493C139.085 59.8588 142.014 67.057 142.014 74.552C142.014 82.047 139.085 89.2452 133.852 94.611C131.279 97.2356 128.208 99.3206 124.818 100.744C121.429 102.167 117.791 102.9 114.115 102.9C110.439 102.9 106.8 102.167 103.411 100.744C100.022 99.3206 96.9507 97.2356 94.3772 94.611C92.6025 92.8016 91.0786 90.7623 89.8462 88.5477L95.4589 82.8448C96.4702 85.2062 97.913 87.3583 99.7134 89.1906C101.591 91.1068 103.832 92.6291 106.306 93.6683C108.779 94.7076 111.435 95.2428 114.118 95.2428C116.801 95.2428 119.456 94.7076 121.93 93.6683C124.403 92.6291 126.644 91.1068 128.522 89.1906C132.34 85.2731 134.477 80.0192 134.477 74.549C134.477 69.0788 132.34 63.8249 128.522 59.9074C126.644 57.9912 124.403 56.4689 121.93 55.4297C119.456 54.3904 116.801 53.8552 114.118 53.8552C111.435 53.8552 108.779 54.3904 106.306 55.4297C103.832 56.4689 101.591 57.9912 99.7134 59.9074L99.5872 60.0456L86.2406 73.6086L83.3201 76.5771L74.5405 85.5009L71.62 88.4695L58.2734 102.008L58.1352 102.141L58.009 102.279L57.6244 102.669C54.0337 106.623 52.0866 111.798 52.1804 117.138C52.2743 122.478 54.4018 127.581 58.1291 131.406C60.0069 133.322 62.248 134.844 64.7214 135.884C67.1948 136.923 69.8506 137.458 72.5334 137.458C75.2162 137.458 77.8721 136.923 80.3455 135.884C82.8188 134.844 85.06 133.322 86.9377 131.406C90.758 127.491 92.8965 122.237 92.8965 116.767C92.8965 111.297 90.758 106.044 86.9377 102.129C85.1483 100.308 83.0322 98.8401 80.7 97.802L86.3127 92.0991C88.4976 93.361 90.5026 94.9114 92.2739 96.7082C97.5067 102.074 100.436 109.272 100.436 116.767C100.436 124.262 97.5067 131.46 92.2739 136.826C89.7004 139.451 86.6292 141.536 83.2402 142.959C79.8511 144.383 76.2122 145.116 72.5364 145.116C68.8606 145.116 65.2217 144.383 61.8327 142.959C58.4436 141.536 55.3724 139.451 52.7989 136.826C47.5661 131.46 44.6372 124.262 44.6372 116.767C44.6372 109.272 47.5661 102.074 52.7989 96.7082L62.1374 87.2196L85.0448 63.9877ZM92.2559 52.3597L50.6776 94.611L50.1608 95.1398C44.5928 101.116 41.5391 109.007 41.6331 117.175C41.7271 125.343 44.9616 133.161 50.6656 139.008C53.5115 141.914 56.909 144.223 60.6589 145.8C64.4088 147.376 68.4356 148.188 72.5034 148.188C76.5712 148.188 80.598 147.376 84.3478 145.8C88.0977 144.223 91.4952 141.914 94.3411 139.008C98.9622 134.262 101.989 128.193 102.999 121.647C104.009 115.1 102.953 108.401 99.9779 102.483C105.791 105.507 112.423 106.583 118.894 105.551C125.365 104.52 131.334 101.437 135.919 96.7563C141.71 90.8192 144.951 82.8543 144.951 74.561C144.951 66.2678 141.71 58.3028 135.919 52.3657C133.073 49.4607 129.675 47.1529 125.925 45.5774C122.175 44.0019 118.149 43.1904 114.082 43.1904C110.014 43.1904 105.988 44.0019 102.238 45.5774C98.4884 47.1529 95.0907 49.4607 92.2439 52.3657" fill="#EDECE5"/>
<path id="Vector_4" d="M36.2254 79.8584C35.5416 80.5565 34.7253 81.1111 33.8245 81.4897C32.9237 81.8684 31.9563 82.0634 30.9792 82.0634C30.002 82.0634 29.0347 81.8684 28.1339 81.4897C27.233 81.1111 26.4168 80.5565 25.7331 79.8584C24.3401 78.4326 23.5603 76.5184 23.5603 74.5251C23.5603 72.5319 24.3401 70.6177 25.7331 69.1919C26.4168 68.4938 27.233 67.9392 28.1339 67.5606C29.0347 67.182 30.002 66.987 30.9792 66.987C31.9563 66.987 32.9237 67.182 33.8245 67.5606C34.7253 67.9392 35.5416 68.4938 36.2254 69.1919C37.6183 70.6177 38.3981 72.5319 38.3981 74.5251C38.3981 76.5184 37.6183 78.4326 36.2254 79.8584ZM56.6569 63.381L58.9104 61.0974L59.3611 60.6407L61.6086 58.3512L67.5398 52.3419L70.0636 49.7819L79.9249 39.7584L80.4417 39.2296C82.154 37.2136 83.0581 34.6344 82.9793 31.9906C82.9005 29.3467 81.8444 26.8259 80.0151 24.9155C79.0655 23.9296 77.9289 23.1431 76.6717 22.6018C75.4146 22.0605 74.0621 21.7753 72.6934 21.763C71.3247 21.7507 69.9673 22.0115 68.7006 22.5301C67.4339 23.0487 66.2834 23.8147 65.3163 24.7833C63.3516 26.7654 62.239 29.4364 62.2154 32.2271C62.1918 35.0178 63.2592 37.7074 65.1901 39.7224C66.1517 40.7227 67.3063 41.5176 68.584 42.0588C69.8617 42.6001 71.236 42.8764 72.6236 42.8712L77.8036 37.6973C77.1139 38.3895 76.2929 38.9371 75.3888 39.308C74.4847 39.6789 73.5157 39.8656 72.5386 39.8572C71.5614 39.8488 70.5957 39.6455 69.6981 39.2591C68.8005 38.8728 67.9891 38.3111 67.3114 37.6071C65.9304 36.1696 65.1667 34.2488 65.1836 32.2555C65.2004 30.2622 65.9964 28.3546 67.4015 26.9406C68.0912 26.2484 68.9122 25.7008 69.8163 25.3299C70.7204 24.959 71.6894 24.7722 72.6666 24.7806C73.6438 24.789 74.6094 24.9923 75.507 25.3787C76.4046 25.7651 77.216 26.3268 77.8938 27.0308C79.2747 28.4683 80.0384 30.3891 80.0216 32.3824C80.0047 34.3757 79.2086 36.2833 77.8036 37.6973L72.6897 42.8893L66.6804 48.9767C64.256 48.0945 62.0592 46.682 60.2505 44.8423C56.9888 41.4968 55.1632 37.0093 55.1632 32.3369C55.1632 27.6646 56.9888 23.1771 60.2505 19.8316C61.855 18.1905 63.7713 16.8865 65.8868 15.9963C68.0023 15.106 70.2743 14.6474 72.5695 14.6474C74.8647 14.6474 77.1367 15.106 79.2522 15.9963C81.3677 16.8865 83.284 18.1905 84.8886 19.8316C88.1262 23.1543 89.9484 27.6033 89.972 32.2424C89.9955 36.8815 88.2184 41.3487 85.0147 44.704L84.7504 44.9685L77.3649 52.396L69.4326 60.4544L66.8186 63.1105L61.3141 68.7052L58.7 71.3673L50.7678 79.4257L43.4124 86.9013L43.2803 87.0395C41.6767 88.6759 39.7628 89.9759 37.6506 90.8633C35.5384 91.7508 33.2703 92.2079 30.9792 92.2079C28.6881 92.2079 26.4201 91.7508 24.3079 90.8633C22.1956 89.9759 20.2817 88.6759 18.6782 87.0395C15.4154 83.6958 13.5891 79.209 13.5891 74.5372C13.5891 69.8653 15.4154 65.3786 18.6782 62.0349C20.2817 60.3985 22.1956 59.0985 24.3079 58.211C26.4201 57.3235 28.6881 56.8665 30.9792 56.8665C33.2703 56.8665 35.5384 57.3235 37.6506 58.211C39.7628 59.0985 41.6767 60.3985 43.2803 62.0349C45.1022 63.885 46.4915 66.1158 47.3485 68.567L41.3392 74.6484C41.3627 73.2487 41.1094 71.8581 40.5938 70.5567C40.0781 69.2552 39.3103 68.0685 38.3345 67.0647C37.3762 66.0875 36.2327 65.3112 34.9708 64.7813C33.7088 64.2514 32.3539 63.9784 30.9852 63.9784C29.6165 63.9784 28.2616 64.2514 26.9997 64.7813C25.7378 65.3112 24.5942 66.0875 23.6358 67.0647C21.6882 69.0632 20.5982 71.7435 20.5982 74.5342C20.5982 77.3248 21.6882 80.0051 23.6358 82.0037C24.5933 82.9824 25.7367 83.7599 26.9987 84.2907C28.2607 84.8216 29.6161 85.0951 30.9852 85.0951C32.3543 85.0951 33.7097 84.8216 34.9717 84.2907C36.2337 83.7599 37.3771 82.9824 38.3345 82.0037L48.1958 71.9862L50.7137 69.4202L56.6569 63.381ZM60.0702 85.0925L50.7317 94.5811C48.1583 97.2048 45.0876 99.2891 41.6991 100.712C38.3106 102.135 34.6723 102.868 30.9972 102.868C27.3221 102.868 23.684 102.135 20.2955 100.712C16.9069 99.2891 13.8362 97.2048 11.2627 94.5811C6.02991 89.2153 3.10105 82.0171 3.10105 74.5221C3.10105 67.0272 6.02991 59.8289 11.2627 54.4631C13.8362 51.8394 16.9069 49.7552 20.2955 48.3324C23.684 46.9096 27.3221 46.1768 30.9972 46.1768C34.6723 46.1768 38.3106 46.9096 41.6991 48.3324C45.0876 49.7552 48.1583 51.8394 50.7317 54.4631C52.5101 56.2708 54.0362 58.3104 55.2688 60.5265L49.6561 66.2294C48.6425 63.8692 47.1999 61.7175 45.4015 59.8835C43.5238 57.9673 41.2827 56.445 38.8093 55.4058C36.3359 54.3666 33.68 53.8313 30.9972 53.8313C28.3144 53.8313 25.6586 54.3666 23.1852 55.4058C20.7119 56.445 18.4707 57.9673 16.593 59.8835C12.7723 63.7996 10.6336 69.054 10.6336 74.5251C10.6336 79.9963 12.7723 85.2507 16.593 89.1668C18.4707 91.083 20.7119 92.6052 23.1852 93.6445C25.6586 94.6837 28.3144 95.219 30.9972 95.219C33.68 95.219 36.3359 94.6837 38.8093 93.6445C41.2827 92.6052 43.5238 91.083 45.4015 89.1668L45.5277 89.0286L58.8743 75.4656L61.7948 72.497L70.5744 63.5732L73.4949 60.6047L86.8416 47.0417L86.9738 46.9095C87.0219 46.8674 87.0579 46.8193 87.106 46.7713L87.4906 46.3807C91.0834 42.4284 93.0324 37.254 92.9397 31.9135C92.847 26.5731 90.7196 21.4694 86.9918 17.6443C85.1141 15.7281 82.8729 14.2058 80.3996 13.1666C77.9262 12.1273 75.2703 11.592 72.5875 11.592C69.9047 11.592 67.2489 12.1273 64.7755 13.1666C62.3021 14.2058 60.061 15.7281 58.1833 17.6443C54.3629 21.5593 52.2245 26.8127 52.2245 32.2829C52.2245 37.753 54.3629 43.0064 58.1833 46.9215C59.9712 48.7424 62.0877 50.2084 64.4209 51.2421L58.8082 56.951C56.6234 55.689 54.6183 54.1388 52.847 52.3419C47.6142 46.9761 44.6853 39.7778 44.6853 32.2829C44.6853 24.7879 47.6142 17.5897 52.847 12.2239C55.4205 9.59925 58.4917 7.51424 61.8807 6.0909C65.2698 4.66755 68.9087 3.93446 72.5845 3.93446C76.2603 3.93446 79.8993 4.66755 83.2883 6.0909C86.6774 7.51424 89.7485 9.59925 92.3221 12.2239C97.5549 17.5897 100.484 24.7879 100.484 32.2829C100.484 39.7778 97.5549 46.9761 92.3221 52.3419L82.9836 61.8305L60.0702 85.0925ZM52.859 96.7205L94.4373 54.4631L94.9541 53.9403C100.522 47.9637 103.576 40.0732 103.482 31.9054C103.388 23.7376 100.153 15.9194 94.4493 10.0725C91.6029 7.16585 88.2049 4.85663 84.4545 3.28013C80.7041 1.70363 76.6768 0.891602 72.6086 0.891602C68.5403 0.891602 64.513 1.70363 60.7626 3.28013C57.0122 4.85663 53.6142 7.16585 50.7678 10.0725C46.1477 14.8191 43.1225 20.8881 42.1132 27.4346C41.104 33.9811 42.161 40.6794 45.1371 46.597C39.3236 43.5733 32.6924 42.4977 26.2212 43.5288C19.75 44.5599 13.7814 47.6431 9.19551 52.3238C3.40512 58.261 0.164185 66.2259 0.164185 74.5191C0.164185 82.8124 3.40512 90.7773 9.19551 96.7145C12.0423 99.6195 15.44 101.927 19.1898 103.503C22.9395 105.078 26.966 105.89 31.0333 105.89C35.1006 105.89 39.127 105.078 42.8768 103.503C46.6266 101.927 50.0243 99.6195 52.8711 96.7145" fill="#EDECE5"/>
</g>
<defs>
<clipPath id="clip0_11_134">
<rect width="144.89" height="147.258" fill="white" transform="translate(0.109497 0.89624)"/>
</clipPath>
</defs>
</svg>
