<svg xmlns="http://www.w3.org/2000/svg" width="158" height="155" viewBox="0 0 158 155" fill="none">
    <g clip-path="url(#clip0_3_152)">
      <path d="M8.20883 132.487C7.38022 132.831 6.48881 132.991 5.59447 132.956C4.90721 133.015 4.21548 132.922 3.56673 132.684C2.91798 132.446 2.32757 132.068 1.83602 131.576C1.34446 131.085 0.963387 130.491 0.718954 129.835C0.474521 129.179 0.372501 128.478 0.419908 127.778C0.382022 127.048 0.496787 126.318 0.756614 125.636C1.01644 124.954 1.41544 124.336 1.92735 123.822C2.43927 123.308 3.05247 122.91 3.72657 122.655C4.40067 122.399 5.12038 122.292 5.83829 122.34C6.67815 122.311 7.51431 122.466 8.29012 122.794L7.88374 124.295C7.26005 124.02 6.58573 123.884 5.90602 123.895C5.41726 123.867 4.92819 123.946 4.47278 124.129C4.01737 124.312 3.60655 124.593 3.26885 124.953C2.93114 125.314 2.67464 125.744 2.51718 126.215C2.35971 126.687 2.30505 127.187 2.35699 127.682C2.30841 128.171 2.3656 128.665 2.52454 129.129C2.68347 129.594 2.94031 130.017 3.27709 130.37C3.61387 130.723 4.02246 130.996 4.47423 131.172C4.926 131.347 5.41005 131.42 5.89248 131.386C6.58242 131.394 7.26748 131.268 7.91084 131.014L8.20883 132.487Z" fill="#B68401"/>
      <path d="M27.4712 127.544C27.4712 131 25.4122 132.969 22.6217 132.969C19.8313 132.969 17.9619 130.752 17.9619 127.723C17.9619 124.694 19.9125 122.339 22.7707 122.339C25.6289 122.339 27.4712 124.611 27.4712 127.544ZM19.9125 127.696C19.9125 129.789 20.9556 131.455 22.7301 131.455C24.5046 131.455 25.5206 129.775 25.5206 127.627C25.5206 125.685 24.5724 123.854 22.7301 123.854C20.8879 123.854 19.9125 125.575 19.9125 127.696Z" fill="#B68401"/>
      <path d="M46.7606 128.604C46.7606 127.227 46.6252 125.672 46.6387 124.281C46.3136 125.534 45.8937 126.924 45.4331 128.219L43.9702 132.68H42.5343L41.1797 128.274C40.7869 126.966 40.4347 125.52 40.1638 124.281C40.1638 125.658 40.0554 127.255 39.9741 128.659L39.7574 132.79H38.0235L38.7008 122.505H41.1391L42.4937 126.635C42.8594 127.833 43.171 129.059 43.4283 130.202C43.6993 129.086 44.0515 127.82 44.4443 126.622L45.7989 122.491H48.1152L48.7113 132.776H46.9096L46.7606 128.604Z" fill="#B68401"/>
      <path d="M61.5122 122.505V128.508C61.5122 130.518 62.3385 131.455 63.5847 131.455C64.831 131.455 65.7114 130.518 65.7114 128.508V122.505H67.5672V128.384C67.5672 131.565 65.9552 132.969 63.5034 132.969C61.0516 132.969 59.6429 131.592 59.6429 128.398V122.505H61.5122Z" fill="#B68401"/>
      <path d="M78.7833 132.79V122.505H80.8829L83.4972 126.925C84.1507 128.029 84.7256 129.179 85.2176 130.367C85.0957 128.99 85.055 127.613 85.055 126.098V122.505H86.7618V132.79H84.8518L82.2104 128.274C81.5363 127.128 80.9302 125.941 80.3952 124.721C80.4765 126.098 80.49 127.406 80.49 129.1V132.776L78.7833 132.79Z" fill="#B68401"/>
      <path d="M99.8743 122.505V132.79H98.0321V122.505H99.8743Z" fill="#B68401"/>
      <path d="M111.09 122.642C112.067 122.49 113.055 122.416 114.043 122.422C115.495 122.315 116.937 122.74 118.107 123.62C118.643 124.082 119.066 124.665 119.341 125.322C119.616 125.98 119.736 126.693 119.692 127.406C119.736 128.17 119.617 128.935 119.344 129.648C119.07 130.361 118.648 131.005 118.107 131.537C116.796 132.546 115.169 133.035 113.529 132.914C112.696 132.924 111.863 132.878 111.036 132.776L111.09 122.642ZM112.946 131.358C113.284 131.39 113.624 131.39 113.962 131.358C114.484 131.416 115.012 131.353 115.507 131.175C116.002 130.996 116.451 130.705 116.819 130.325C117.188 129.945 117.468 129.485 117.637 128.98C117.806 128.474 117.86 127.936 117.796 127.406C117.844 126.919 117.784 126.426 117.619 125.965C117.455 125.505 117.19 125.088 116.845 124.745C116.501 124.402 116.084 124.143 115.627 123.986C115.17 123.83 114.684 123.78 114.206 123.84C113.783 123.826 113.36 123.863 112.946 123.95V131.358Z" fill="#B68401"/>
      <path d="M132.249 129.885L131.382 132.79H129.472L132.723 122.505H135.08L138.372 132.79H136.381L135.473 129.885H132.249ZM135.148 128.508L134.349 125.961C134.159 125.341 133.997 124.584 133.848 124.047C133.712 124.639 133.55 125.424 133.373 125.961L132.588 128.508H135.148Z" fill="#B68401"/>
      <path d="M148.87 122.642C149.847 122.49 150.834 122.416 151.823 122.422C153.297 122.305 154.763 122.73 155.955 123.62C156.487 124.085 156.905 124.669 157.178 125.326C157.451 125.983 157.57 126.695 157.526 127.407C157.572 128.169 157.455 128.933 157.184 129.646C156.912 130.359 156.493 131.004 155.955 131.537C154.64 132.549 153.007 133.039 151.362 132.914C150.53 132.923 149.697 132.877 148.87 132.776V122.642ZM150.726 131.358C151.064 131.39 151.404 131.39 151.742 131.358C152.264 131.419 152.794 131.358 153.29 131.18C153.786 131.002 154.236 130.712 154.605 130.331C154.974 129.95 155.254 129.489 155.422 128.982C155.59 128.476 155.642 127.937 155.575 127.407C155.624 126.919 155.563 126.426 155.399 125.965C155.234 125.505 154.97 125.088 154.625 124.745C154.28 124.402 153.864 124.143 153.407 123.986C152.95 123.83 152.464 123.78 151.986 123.84C151.563 123.826 151.14 123.863 150.726 123.95V131.358Z" fill="#B68401"/>
      <path d="M0.406387 152.783C1.1579 153.205 1.99995 153.432 2.8582 153.444C4.05024 153.444 4.70045 152.88 4.70045 152.067C4.70045 151.255 4.19925 150.828 2.89884 150.346C1.23268 149.74 0.189646 148.845 0.189646 147.358C0.189646 145.871 1.54424 144.398 3.76578 144.398C4.60781 144.374 5.44347 144.553 6.20405 144.921L5.75703 146.422C5.13141 146.101 4.43957 145.935 3.7387 145.94C2.57375 145.94 2.05899 146.587 2.05899 147.179C2.05899 147.771 2.64146 148.336 3.99606 148.873C5.75703 149.547 6.61044 150.442 6.61044 151.929C6.61044 153.417 5.37776 155.014 2.76339 155.014C1.8225 155.02 0.893656 154.799 0.0541992 154.367L0.406387 152.783Z" fill="#B68401"/>
      <path d="M16.8512 144.535V150.539C16.8512 152.563 17.6775 153.485 18.9237 153.485C20.1699 153.485 21.0504 152.563 21.0504 150.539V144.535H22.9062V150.415C22.9062 153.595 21.2942 155 18.8424 155C16.3906 155 14.9818 153.623 14.9818 150.429V144.535H16.8512Z" fill="#B68401"/>
      <path d="M31.7382 152.783C32.4897 153.205 33.3317 153.432 34.19 153.444C35.382 153.444 36.0458 152.88 36.0458 152.067C36.0458 151.255 35.531 150.828 34.2442 150.346C32.5645 149.74 31.535 148.845 31.535 147.358C31.535 145.871 32.8896 144.398 35.1111 144.398C35.9487 144.375 36.7797 144.554 37.5358 144.921L37.0888 146.422C36.4632 146.101 35.7713 145.935 35.0705 145.94C33.9055 145.94 33.3908 146.587 33.3908 147.179C33.3908 147.771 33.9732 148.336 35.3278 148.873C37.0888 149.547 37.9422 150.442 37.9422 151.93C37.9422 153.417 36.7095 155.014 34.0951 155.014C33.1544 155.019 32.2259 154.797 31.386 154.367L31.7382 152.783Z" fill="#B68401"/>
      <path d="M48.2913 146.119H45.406V144.535H53.046V146.119H50.1336V154.835H48.2913V146.119Z" fill="#B68401"/>
      <path d="M66.6732 150.263H62.8532V153.293H67.0796V154.835H60.9703V144.535H66.8493V146.078H62.7855V148.735H66.6055L66.6732 150.263Z" fill="#B68401"/>
      <path d="M75.5051 154.835V144.535H77.6047L80.2191 148.955C80.8715 150.062 81.4507 151.212 81.953 152.398C81.8311 151.021 81.7904 149.644 81.7904 148.129V144.535H83.4972V154.835H81.5872L78.8781 150.305C78.2145 149.152 77.6087 147.967 77.0629 146.752C77.0629 148.129 77.1442 149.437 77.1442 151.145V154.821L75.5051 154.835Z" fill="#B68401"/>
      <path d="M94.3611 146.119H91.4623V144.535H99.1157V146.119H96.2034V154.835H94.3476L94.3611 146.119Z" fill="#B68401"/>
      <path d="M108.015 151.916L107.135 154.835H105.225L108.476 144.535H110.833L114.125 154.835H112.147L111.226 151.916H108.015ZM110.914 150.539L110.115 148.005C109.925 147.372 109.749 146.628 109.6 146.078C109.451 146.67 109.302 147.454 109.113 148.005L108.341 150.539H110.914Z" fill="#B68401"/>
      <path d="M122.306 144.673C123.202 144.523 124.108 144.454 125.016 144.467C126.025 144.369 127.038 144.595 127.914 145.114C128.244 145.31 128.515 145.592 128.701 145.931C128.887 146.27 128.98 146.654 128.971 147.041C128.958 147.546 128.788 148.033 128.487 148.433C128.185 148.834 127.767 149.127 127.291 149.272C127.867 149.393 128.384 149.713 128.755 150.177C129.125 150.641 129.326 151.222 129.323 151.819C129.333 152.227 129.25 152.632 129.081 153.002C128.912 153.372 128.661 153.698 128.348 153.954C127.246 154.709 125.917 155.045 124.596 154.904C123.839 154.911 123.084 154.865 122.334 154.766L122.306 144.673ZM124.135 148.804H125.083C126.357 148.804 127.075 148.198 127.075 147.331C127.075 146.463 126.357 145.954 125.192 145.954C124.838 145.943 124.484 145.966 124.135 146.022V148.804ZM124.135 153.54C124.46 153.558 124.786 153.558 125.11 153.54C126.302 153.54 127.345 153.086 127.345 151.819C127.345 150.553 126.33 150.14 125.056 150.14H124.135V153.54Z" fill="#B68401"/>
      <path d="M137.722 144.535H139.564V153.251H143.723V154.835H137.722V144.535Z" fill="#B68401"/>
      <path d="M157.553 150.263H153.774V153.293H158.041V154.835H151.918V144.535H157.837V146.078H153.774V148.735H157.58L157.553 150.263Z" fill="#B68401"/>
      <path d="M79.0135 108.35C68.4706 108.353 58.1636 105.177 49.3961 99.2254C40.6287 93.2734 33.7945 84.8123 29.758 74.9121C25.7216 65.0119 24.664 54.1173 26.7192 43.6062C28.7744 33.095 33.85 23.4394 41.3041 15.8606C48.7581 8.28172 58.2558 3.12006 68.596 1.02833C78.9362 -1.06341 89.6545 0.00876603 99.3952 4.10926C109.136 8.20975 117.462 15.1544 123.319 24.0648C129.177 32.9753 132.303 43.4513 132.303 54.1681C132.289 68.5311 126.67 82.3019 116.68 92.4594C106.69 102.617 93.1437 108.332 79.0135 108.35ZM79.0135 2.42336C68.9454 2.42336 59.1033 5.45814 50.7319 11.1439C42.3605 16.8297 35.8358 24.9111 31.9828 34.3662C28.1299 43.8213 27.1218 54.2255 29.086 64.263C31.0502 74.3004 35.8985 83.5205 43.0178 90.7571C50.1371 97.9937 59.2076 102.922 69.0824 104.919C78.9571 106.915 89.1925 105.89 98.4943 101.974C107.796 98.0575 115.747 91.4252 121.34 82.9158C126.934 74.4065 129.919 64.4022 129.919 54.1681C129.901 40.4501 124.532 27.2992 114.99 17.5992C105.447 7.89909 92.5091 2.44158 79.0135 2.42336Z" fill="#B68401"/>
      <path d="M100.43 63.1869H94.5914H92.0989L93.8192 61.6861C94.4017 61.1491 94.9436 60.5846 95.4719 60.0063C96.5175 58.8211 97.4944 57.5752 98.3978 56.2748C99.1469 55.2224 100.137 54.3717 101.283 53.7963C102.391 53.2405 103.598 52.9174 104.832 52.8463C106.063 52.7824 107.293 52.9939 108.435 53.4659L108.937 53.6862C108.937 53.6862 109.993 51.5107 109.993 51.4969C108.553 50.7834 106.975 50.4035 105.373 50.3844C103.77 50.3654 102.184 50.7077 100.728 51.3867C101.752 48.5794 102.279 45.6099 102.285 42.6157H99.9014C99.9053 47.1573 98.5931 51.5994 96.1287 55.3876C93.6642 59.1758 90.1567 62.1423 86.0439 63.9168C85.6511 64.082 84.1204 64.6603 83.3347 64.9357C83.3032 64.9455 83.2696 64.9462 83.2378 64.9377C83.206 64.9291 83.1771 64.9116 83.1545 64.8873C83.132 64.8629 83.1166 64.8326 83.1101 64.7998C83.1036 64.7669 83.1064 64.7329 83.118 64.7015C83.7546 63.1731 86.0981 57.335 86.2742 53.8927C86.5894 50.0926 88.2945 46.5507 91.053 43.9659C93.8115 41.3812 97.423 39.9414 101.175 39.9307H104.453C107.407 39.9248 110.273 38.9006 112.58 37.0254C112.58 37.0254 111.09 35.1253 111.077 35.1253C109.197 36.6563 106.861 37.4915 104.453 37.4936H101.175C98.1029 37.4855 95.0839 38.3059 92.4258 39.8709C89.7676 41.436 87.5654 43.6897 86.0439 46.4023C86.0134 46.456 85.9681 46.4995 85.9136 46.5273C85.859 46.5551 85.7977 46.566 85.7371 46.5587C85.6765 46.5514 85.6193 46.5261 85.5727 46.4861C85.5261 46.446 85.4921 46.393 85.4749 46.3334C84.5889 43.1056 83.0529 40.1001 80.9642 37.5074C80.7744 37.278 80.6809 36.9821 80.7037 36.6834C80.7265 36.3847 80.8638 36.107 81.0861 35.9101C85.1057 32.513 90.1631 30.6437 95.3906 30.6228H100.145V28.1994H95.3906C93.9051 28.2058 92.423 28.3441 90.9611 28.6125C92.733 26.2362 93.6852 23.3326 93.6703 20.351H91.2862C91.2962 22.4507 90.7314 24.5119 89.6548 26.3041C88.5783 28.0962 87.0326 29.5486 85.1905 30.4989C83.0607 31.4785 81.0771 32.7577 79.298 34.2991C79.0933 34.4803 78.8311 34.58 78.5598 34.58C78.2884 34.58 78.0262 34.4803 77.8215 34.2991C76.0218 32.7408 74.0154 31.4477 71.8613 30.4575C70.0198 29.5161 68.4729 28.0718 67.3938 26.2867C66.3147 24.5016 65.7462 22.4461 65.752 20.351H63.4221C63.4221 23.3302 64.3728 26.2291 66.1313 28.6125C64.7009 28.3493 63.2503 28.2157 61.7966 28.2132H57.0556V30.6503H61.8102C67.0384 30.6666 72.0973 32.5365 76.1147 35.9377C76.337 36.1345 76.4743 36.4122 76.4971 36.7109C76.5199 37.0097 76.4264 37.3056 76.2366 37.5349C74.1524 40.1182 72.6207 43.1148 71.7394 46.3334C71.729 46.3984 71.6982 46.4581 71.6514 46.5036C71.6047 46.5492 71.5447 46.578 71.4804 46.5858C71.4162 46.5936 71.3511 46.5798 71.2952 46.5467C71.2393 46.5136 71.1955 46.4629 71.1704 46.4023C69.6444 43.6988 67.4424 41.4534 64.7876 39.8937C62.1328 38.3341 59.1195 37.5155 56.0531 37.5211H52.775C50.3625 37.5189 48.0222 36.6839 46.1375 35.1529L44.6475 37.053C46.9532 38.932 49.8198 39.9567 52.775 39.9583H56.0531C59.7759 39.9614 63.3641 41.3732 66.1187 43.9187C68.8733 46.4641 70.5969 49.9608 70.9537 53.7275C71.1255 56.0702 71.5804 58.3825 72.3083 60.6121C72.8156 61.9491 73.3899 63.2588 74.0286 64.5363C74.0424 64.567 74.0474 64.601 74.0429 64.6344C74.0385 64.6678 74.0249 64.6992 74.0037 64.7251C73.9824 64.751 73.9545 64.7703 73.9229 64.7808C73.8914 64.7912 73.8576 64.7924 73.8255 64.7841C71.8351 64.1169 69.9263 63.2207 68.1361 62.1129C66.5032 61.0859 65.0211 59.8297 63.7337 58.3815L63.368 57.9684C61.4509 55.7592 59.9577 53.2045 58.9655 50.4366C58.0767 47.9325 57.6185 45.2916 57.6109 42.6295H55.2268C55.2334 45.8554 55.8401 49.0509 57.0149 52.0477C55.1228 51.1944 53.0352 50.8906 50.9836 51.1701C48.932 51.4497 46.9967 52.3015 45.3925 53.6311C45.3925 53.6311 46.8961 55.5175 46.9096 55.5175C48.4944 54.2186 50.4683 53.5093 52.5041 53.5072C53.9106 53.5024 55.2986 53.8324 56.5571 54.4708C57.8155 55.1092 58.9094 56.0382 59.7512 57.1836C61.3109 59.463 63.2177 61.4755 65.3999 63.1456H57.5974C52.8868 63.1561 48.3024 64.6949 44.512 67.538L45.9343 69.4795C45.9343 69.4106 47.9256 68.1026 48.1017 68.1026C48.8711 67.6735 49.6676 67.2963 50.4858 66.9735C52.1324 66.3032 53.8665 65.8811 55.6332 65.7205C57.2723 65.5691 58.9249 65.5828 60.564 65.5828C62.5552 65.5828 64.56 65.5828 66.5512 65.5828C68.2983 65.6795 70.0249 66.0129 71.6852 66.5742C72.6246 66.859 73.5325 67.242 74.3944 67.717C75.3257 68.2186 76.1037 68.9706 76.6436 69.8908C77.1834 70.811 77.4643 71.8642 77.4558 72.9356C77.4572 73.3289 77.3757 73.7179 77.2169 74.0766C77.058 74.4352 76.8253 74.7551 76.5346 75.0147C72.7752 78.2184 70.001 82.453 68.5425 87.2142L70.8318 87.9302C71.977 84.2877 73.9922 80.9905 76.6972 78.3331C77.2225 77.8174 77.9243 77.5291 78.6546 77.5291C79.3849 77.5291 80.0866 77.8174 80.6119 78.3331C83.3693 81.0225 85.4146 84.3755 86.5586 88.0817L88.8344 87.3519C87.3724 82.6016 84.5754 78.3897 80.7881 75.235C80.5034 75.0095 80.2676 74.7269 80.0951 74.4048C79.9227 74.0826 79.8173 73.7278 79.7857 73.3624C79.7396 72.1798 80.0393 71.0098 80.6468 70.0002C81.2543 68.9905 82.1425 68.1865 83.1992 67.6895C86.1517 66.3261 89.3573 65.6218 92.6001 65.6241H100.43C104.627 65.6375 108.711 67.0069 112.093 69.5345L113.447 67.5793C109.673 64.7553 105.116 63.2178 100.43 63.1869ZM79.7585 65.7067C79.627 65.8943 79.4533 66.0472 79.2518 66.1527C79.0504 66.2582 78.827 66.3133 78.6004 66.3133C78.3738 66.3133 78.1504 66.2582 77.949 66.1527C77.7475 66.0472 77.5737 65.8943 77.4422 65.7067L77.0223 65.0733C76.5193 64.3298 76.0667 63.5524 75.6677 62.7463C74.8579 61.1405 74.2481 59.4384 73.8525 57.6793C73.1316 54.5695 73.1054 51.335 73.7758 48.2135C74.4462 45.0921 75.7962 42.163 77.7267 39.6416C77.833 39.5016 77.9695 39.3882 78.1256 39.3102C78.2818 39.2322 78.4535 39.1916 78.6275 39.1916C78.8015 39.1916 78.9732 39.2322 79.1293 39.3102C79.2855 39.3882 79.422 39.5016 79.5283 39.6416C82.4774 43.4889 84.045 48.2449 83.9714 53.1217C83.8832 57.6505 82.4108 62.0392 79.7585 65.6792V65.7067Z" fill="#B68401"/>
    </g>
    <defs>
      <clipPath id="clip0_3_152">
        <rect width="158" height="155" fill="white"/>
      </clipPath>
    </defs>
  </svg>