<?xml version="1.0" encoding="utf-8"?>
<!-- Generator: Adobe Illustrator 27.9.0, SVG Export Plug-In . SVG Version: 6.00 Build 0)  -->
<svg version="1.1" xmlns="http://www.w3.org/2000/svg" xmlns:xlink="http://www.w3.org/1999/xlink" x="0px" y="0px"
	 viewBox="0 0 1127 2008" style="enable-background:new 0 0 1127 2008;" xml:space="preserve">
<style type="text/css">
	.st0{fill:#606060;}
</style>
<g id="_x32_87">
	<polygon class="st0" points="404.09,1202.67 402.31,1237.33 284.59,1239 286.38,1204.37 	"/>
</g>
<g id="_x35_5">
	<polygon class="st0" points="749.58,545.1 746.17,620.98 709.94,621.83 713.78,545.62 	"/>
</g>
<g id="_x35_4">
	<polygon class="st0" points="790.28,544.52 786.9,620 750.9,620.85 754.3,545.04 	"/>
</g>
<g id="_x35_3">
	<polygon class="st0" points="831.5,543.94 827.76,619.04 791.6,619.89 795,544.46 	"/>
</g>
<g id="_x35_2">
	<polygon class="st0" points="833.56,502.66 831.73,539.2 714.01,540.89 715.87,504.36 	"/>
</g>
<g id="_x35_1">
	<polygon class="st0" points="835.57,462.15 833.79,497.94 716.1,499.64 717.91,463.81 	"/>
</g>
<g id="_x35_0">
	<polygon class="st0" points="837.55,422.6 835.81,457.41 718.15,459.1 719.89,424.28 	"/>
</g>
<g id="_x34_9">
	<polygon class="st0" points="839.57,382.29 837.79,417.86 720.13,419.56 721.92,383.99 	"/>
</g>
<g id="_x34_8">
	<polygon class="st0" points="841.58,341.67 839.8,377.57 722.17,379.27 723.98,343.37 	"/>
</g>
<g id="_x34_7">
	<polygon class="st0" points="843.54,302.31 841.64,340.51 841.59,336.95 724.22,338.64 725.96,304.01 	"/>
</g>
<g id="_x34_6">
	<polygon class="st0" points="767.37,222.28 763.92,298.74 726.2,299.29 730.04,223.18 	"/>
</g>
<g id="_x34_5">
	<polygon class="st0" points="807.53,221.31 804.09,298.17 768.66,298.68 772.1,222.16 	"/>
</g>
<g id="_x34_4">
	<polygon class="st0" points="846.82,220.33 842.96,297.59 808,298.1 811.45,221.18 	"/>
</g>
<g id="_x37_5">
	<polygon class="st0" points="700.97,1432.55 697.56,1508.43 661.35,1509.28 665.18,1433.07 	"/>
</g>
<g id="_x37_4">
	<polygon class="st0" points="741.67,1431.97 738.29,1507.46 702.3,1508.3 705.69,1432.47 	"/>
</g>
<g id="_x37_3">
	<polygon class="st0" points="782.89,1431.37 779.15,1506.5 743.01,1507.35 746.41,1431.89 	"/>
</g>
<g id="_x37_2">
	<polygon class="st0" points="784.95,1390.11 783.13,1426.64 665.42,1428.34 667.26,1391.81 	"/>
</g>
<g id="_x37_1">
	<polygon class="st0" points="786.98,1349.58 785.19,1385.39 667.49,1387.09 669.3,1351.27 	"/>
</g>
<g id="_x37_0">
	<polygon class="st0" points="788.94,1310.03 787.21,1344.85 669.54,1346.55 671.3,1311.72 	"/>
</g>
<g id="_x36_9">
	<polygon class="st0" points="790.96,1269.73 789.18,1305.3 671.54,1307 673.33,1271.43 	"/>
</g>
<g id="_x36_8">
	<polygon class="st0" points="792.99,1229.12 791.19,1265.01 673.56,1266.71 675.37,1230.82 	"/>
</g>
<g id="_x36_7">
	<polygon class="st0" points="794.95,1189.76 793.05,1227.88 793,1224.41 675.61,1226.09 677.35,1191.46 	"/>
</g>
<g id="_x36_6">
	<polygon class="st0" points="795.19,1185.05 677.59,1186.74 681.43,1110.62 799.04,1107.78 	"/>
</g>
<g id="_x31_86_00000067931243657462995160000016474146141703262366_">
	<polygon class="st0" points="631.12,1234.83 629.34,1270.74 512,1272.42 513.85,1236.52 	"/>
</g>
<g id="_x31_87_00000111173136153185080230000000467940809451073925_">
	<polygon class="st0" points="629.11,1275.45 627.33,1311.01 509.92,1312.71 511.75,1277.14 	"/>
</g>
<g id="_x31_88_00000124124492616989817260000006201101696947588785_">
	<polygon class="st0" points="627.09,1315.74 625.35,1350.56 507.88,1352.26 509.67,1317.43 	"/>
</g>
<g id="_x31_89">
	<polygon class="st0" points="625.11,1355.29 623.34,1391.1 505.79,1392.8 507.63,1356.98 	"/>
</g>
<g id="_x31_90">
	<polygon class="st0" points="623.1,1395.82 621.28,1432.35 503.66,1434.05 505.53,1397.52 	"/>
</g>
<g id="_x31_93">
	<polygon class="st0" points="539.12,1438.26 535.71,1514.14 499.48,1514.99 503.41,1438.77 	"/>
</g>
<g id="_x31_92">
	<polygon class="st0" points="579.82,1437.66 576.43,1513.16 540.43,1514.01 543.84,1438.18 	"/>
</g>
<g id="_x31_91">
	<polygon class="st0" points="621.04,1437.08 617.3,1512.2 581.14,1513.05 584.54,1437.6 	"/>
</g>
<g id="_x31_85_00000144321013514407506640000003559647956706549645_">
	<polygon class="st0" points="633.09,1195.47 631.18,1233.67 631.14,1230.12 514.09,1231.8 515.88,1197.17 	"/>
</g>
<g id="_x31_84">
	<polygon class="st0" points="637.18,1113.49 633.32,1190.88 516.12,1192.44 519.67,1123.62 528.6,1116.12 	"/>
</g>
<g id="_x32_88">
	<polygon class="st0" points="402.06,1242.07 400.22,1277.94 282.5,1279.64 284.35,1243.73 	"/>
</g>
<g id="_x32_89">
	<polygon class="st0" points="399.97,1282.66 398.14,1318.23 280.42,1319.93 282.24,1284.35 	"/>
</g>
<g id="_x32_90">
	<polygon class="st0" points="397.91,1322.94 396.11,1357.78 278.38,1359.48 280.17,1324.64 	"/>
</g>
<g id="_x32_91">
	<polygon class="st0" points="395.86,1362.5 394.02,1398.3 276.28,1400 278.12,1364.19 	"/>
</g>
<g id="_x32_92">
	<polygon class="st0" points="393.79,1403.02 391.9,1439.57 274.15,1441.27 276.03,1404.72 	"/>
</g>
<g id="_x32_93">
	<polygon class="st0" points="391.66,1444.3 387.8,1519.41 269.98,1522.19 273.91,1445.98 	"/>
</g>
<g id="_x32_86">
	<polyline class="st0" points="323.96,1199.1 286.62,1199.64 290.17,1130.84 299.09,1123.32 327.39,1122.88 401.46,1121.7 
		407.89,1128.72 404.34,1197.96 368.86,1198.46 	"/>
	<path class="st0" d="M372.29,1122.16"/>
	<path class="st0" d="M368.86,1198.46"/>
</g>
<g id="_x38_3">
	<polygon class="st0" points="763.36,1793.27 761.58,1829.08 643.89,1830.76 645.68,1794.95 	"/>
</g>
<g id="_x38_4">
	<polygon class="st0" points="761.08,1833.8 757.23,1911.06 722.27,1911.56 725.71,1834.65 	"/>
</g>
<g id="_x38_5">
	<polygon class="st0" points="720.38,1834.95 716.53,1912.21 681.57,1912.72 685.01,1835.8 	"/>
</g>
<g id="_x38_6">
	<polygon class="st0" points="679.42,1836.06 675.57,1913.32 640.61,1913.83 644.05,1836.91 	"/>
</g>
<g id="_x38_2">
	<polygon class="st0" points="765.34,1753.72 763.59,1788.54 645.93,1790.24 647.68,1755.4 	"/>
</g>
<g id="_x38_1">
	<polygon class="st0" points="767.35,1713.42 765.58,1748.99 647.92,1750.69 649.71,1715.11 	"/>
</g>
<g id="_x38_0">
	<polygon class="st0" points="769.37,1672.81 767.59,1708.7 649.96,1710.4 651.77,1674.51 	"/>
</g>
<g id="_x37_9">
	<polygon class="st0" points="771.33,1633.45 769.43,1671.65 769.38,1668.09 652,1669.78 653.75,1635.13 	"/>
</g>
<g id="_x37_8">
	<polygon class="st0" points="695.16,1553.41 691.71,1629.88 653.99,1630.42 657.82,1554.3 	"/>
</g>
<g id="_x37_7">
	<polygon class="st0" points="735.32,1552.43 731.88,1629.3 696.43,1629.8 699.89,1553.3 	"/>
</g>
<g id="_x37_6">
	<polygon class="st0" points="775.42,1551.47 771.57,1628.73 736.61,1629.24 740.05,1552.32 	"/>
</g>
<g id="_x31_64">
	<polygon class="st0" points="604.58,227.06 601.13,303.54 563.39,304.07 567.23,227.96 	"/>
</g>
<g id="_x31_63">
	<polygon class="st0" points="644.74,226.09 641.3,302.96 605.85,303.46 609.31,226.95 	"/>
</g>
<g id="_x31_62">
	<polygon class="st0" points="684.84,225.13 680.99,302.39 646.03,302.89 649.47,225.98 	"/>
</g>
<g id="_x31_65">
	<polygon class="st0" points="680.75,307.11 678.85,345.3 678.8,341.75 561.41,343.43 563.15,308.79 	"/>
</g>
<g id="_x31_66">
	<polygon class="st0" points="678.79,346.47 677.01,382.35 559.36,384.05 561.17,348.17 	"/>
</g>
<g id="_x31_67">
	<polygon class="st0" points="676.77,387.07 675,422.64 557.34,424.34 559.13,388.77 	"/>
</g>
<g id="_x31_68">
	<polygon class="st0" points="674.76,427.38 673.01,462.19 555.34,463.89 557.1,429.06 	"/>
</g>
<g id="_x31_69">
	<polygon class="st0" points="672.78,466.93 671,502.74 553.29,504.43 555.1,468.61 	"/>
</g>
<g id="_x31_70">
	<polygon class="st0" points="670.77,507.45 668.94,543.98 551.22,545.68 553.06,509.15 	"/>
</g>
<g id="_x31_73">
	<polygon class="st0" points="586.79,549.9 583.38,625.76 547.15,626.61 550.98,550.42 	"/>
</g>
<g id="_x31_72">
	<polygon class="st0" points="627.47,549.31 624.09,624.78 588.1,625.63 591.49,549.82 	"/>
</g>
<g id="_x31_71">
	<polygon class="st0" points="668.71,548.72 664.96,623.82 628.81,624.67 632.21,549.24 	"/>
</g>
<g id="_x32_85">
	<polygon class="st0" points="417.56,1000.96 414.31,1066.3 402.67,1076.24 296.02,1078.87 299.86,1002.66 	"/>
</g>
<g id="_x32_84">
	<polygon class="st0" points="419.62,959.7 417.8,996.23 300.09,997.92 301.93,961.39 	"/>
</g>
<g id="_x32_83">
	<polygon class="st0" points="421.64,919.17 419.86,954.98 302.17,956.68 303.98,920.85 	"/>
</g>
<g id="_x32_82">
	<polygon class="st0" points="423.62,879.62 421.87,914.44 304.21,916.13 305.97,881.3 	"/>
</g>
<g id="_x32_81">
	<polygon class="st0" points="425.63,839.33 423.86,874.89 306.21,876.58 308,841.01 	"/>
</g>
<g id="_x32_80">
	<polygon class="st0" points="427.64,798.71 425.87,834.61 308.24,836.3 310.05,800.41 	"/>
</g>
<g id="_x32_79">
	<polygon class="st0" points="429.61,759.35 427.72,797.37 427.66,793.99 310.28,795.68 312.03,761.05 	"/>
</g>
<g id="_x32_78">
	<polygon class="st0" points="433.7,677.37 429.85,754.63 312.26,756.33 316.1,680.2 	"/>
</g>
<g id="_x36_5">
	<polygon class="st0" points="806.31,987.01 802.56,1062.13 684.75,1064.92 688.58,988.71 	"/>
</g>
<g id="_x36_4">
	<polygon class="st0" points="808.37,945.75 806.54,982.28 688.82,983.98 690.66,947.44 	"/>
</g>
<g id="_x36_3">
	<polygon class="st0" points="810.38,905.22 808.6,941.03 690.89,942.73 692.7,906.9 	"/>
</g>
<g id="_x36_2">
	<polygon class="st0" points="812.36,865.69 810.61,900.49 692.94,902.19 694.7,867.35 	"/>
</g>
<g id="_x36_1">
	<polygon class="st0" points="814.37,825.38 812.6,860.95 694.94,862.64 696.73,827.08 	"/>
</g>
<g id="_x36_0">
	<polygon class="st0" points="816.39,784.76 814.61,820.66 696.96,822.36 698.77,786.46 	"/>
</g>
<g id="_x35_9">
	<polygon class="st0" points="818.35,745.4 816.45,783.6 816.4,780.04 699.01,781.73 700.75,747.1 	"/>
</g>
<g id="_x35_8">
	<polygon class="st0" points="742.18,665.36 738.73,741.83 700.99,742.38 704.83,666.25 	"/>
</g>
<g id="_x35_7">
	<polygon class="st0" points="782.34,664.38 778.9,741.25 743.45,741.77 746.91,665.25 	"/>
</g>
<g id="_x35_6">
	<polygon class="st0" points="822.44,663.42 818.59,740.68 783.63,741.19 787.07,664.27 	"/>
</g>
<g id="_x31_76">
	<polygon class="st0" points="580.94,672.9 577.5,749.38 539.77,749.91 543.61,673.8 	"/>
</g>
<g id="_x31_75">
	<polygon class="st0" points="621.1,671.93 617.66,748.8 582.23,749.3 585.67,672.79 	"/>
</g>
<g id="_x31_74">
	<polygon class="st0" points="661.2,670.97 657.35,748.23 622.39,748.73 625.84,671.82 	"/>
</g>
<g id="_x31_77">
	<polygon class="st0" points="657.12,752.95 655.23,790.96 655.17,787.59 537.79,789.27 539.53,754.63 	"/>
</g>
<g id="_x31_78">
	<polygon class="st0" points="655.15,792.31 653.37,828.2 535.74,829.89 537.55,794.01 	"/>
</g>
<g id="_x31_79">
	<polygon class="st0" points="653.14,832.91 651.36,868.49 533.72,870.18 535.51,834.61 	"/>
</g>
<g id="_x31_80">
	<polygon class="st0" points="651.12,873.22 649.38,908.04 531.72,909.73 533.48,874.9 	"/>
</g>
<g id="_x31_81">
	<polygon class="st0" points="649.14,912.77 647.37,948.58 529.67,950.26 531.48,914.45 	"/>
</g>
<g id="_x31_82">
	<polygon class="st0" points="647.13,953.29 645.31,989.83 527.6,991.52 529.44,954.98 	"/>
</g>
<g id="_x31_83">
	<polygon class="st0" points="645.07,994.56 641.33,1069.65 531.36,1071.35 523.9,1064.9 527.36,996.26 	"/>
</g>
</svg>
