<svg
            className="absolute top-0 left-0"
            xmlns="http://www.w3.org/2000/svg"
            x="0px"
            y="0px"
            viewBox="0 0 1127 2008"
            xmlSpace="preserve"
        >
            <g id="L287">
                <polygon
                    class="path"
                    points="504.38,1074.85 503.27,1096.66 429.19,1097.7 430.32,1075.92 	"
                />
            </g>
            <g id="L55">
                <polygon
                    class="path"
                    points="721.77,661.09 719.63,708.83 696.83,709.37 699.24,661.42 	"
                />
            </g>
            <g id="L54">
                <polygon
                    class="path"
                    points="747.38,660.73 745.26,708.22 722.61,708.75 724.74,661.05 	"
                />
            </g>
            <g id="L53">
                <polygon
                    class="path"
                    points="773.32,660.36 770.96,707.62 748.21,708.15 750.35,660.69 	"
                />
            </g>
            <g id="L52">
                <polygon
                    class="path"
                    points="774.61,634.38 773.47,657.38 699.39,658.44 700.56,635.45 	"
                />
            </g>
            <g id="L51">
                <polygon
                    class="path"
                    points="775.88,608.9 774.76,631.42 700.71,632.48 701.85,609.94 	"
                />
            </g>
            <g id="L50">
                <polygon
                    class="path"
                    points="777.13,584.01 776.03,605.92 701.99,606.98 703.09,585.07 	"
                />
            </g>
            <g id="L49">
                <polygon
                    class="path"
                    points="778.39,558.65 777.28,581.03 703.24,582.1 704.37,559.72 	"
                />
            </g>
            <g id="L48">
                <polygon
                    class="path"
                    points="779.66,533.09 778.54,555.68 704.53,556.75 705.67,534.16 	"
                />
            </g>
            <g id="L47">
                <polygon
                    class="path"
                    points="780.9,508.32 779.7,532.36 779.67,530.12 705.81,531.18 706.91,509.39 	"
                />
            </g>
            <g id="L46">
                <polygon
                    class="path"
                    points="732.97,457.97 730.8,506.08 707.06,506.42 709.48,458.53 	"
                />
            </g>
            <g id="L45">
                <polygon
                    class="path"
                    points="758.24,457.35 756.07,505.72 733.78,506.04 735.94,457.89 	"
                />
            </g>
            <g id="L44">
                <polygon
                    class="path"
                    points="782.96,456.74 780.53,505.36 758.53,505.67 760.7,457.28 	"
                />
            </g>
            <g id="L75">
                <polygon
                    class="path"
                    points="691.19,1219.49 689.04,1267.23 666.25,1267.77 668.67,1219.82 	"
                />
            </g>
            <g id="L74">
                <polygon
                    class="path"
                    points="716.8,1219.12 714.67,1266.62 692.02,1267.15 694.16,1219.44 	"
                />
            </g>
            <g id="L73">
                <polygon
                    class="path"
                    points="742.73,1218.75 740.38,1266.02 717.64,1266.55 719.78,1219.07 	"
                />
            </g>
            <g id="L72">
                <polygon
                    class="path"
                    points="744.03,1192.78 742.88,1215.77 668.82,1216.84 669.98,1193.85 	"
                />
            </g>
            <g id="L71">
                <polygon
                    class="path"
                    points="745.31,1167.29 744.18,1189.82 670.12,1190.88 671.26,1168.34 	"
                />
            </g>
            <g id="L70">
                <polygon
                    class="path"
                    points="746.54,1142.4 745.45,1164.31 671.41,1165.38 672.52,1143.46 	"
                />
            </g>
            <g id="L69">
                <polygon
                    class="path"
                    points="747.81,1117.04 746.69,1139.42 672.67,1140.49 673.79,1118.11 	"
                />
            </g>
            <g id="L68">
                <polygon
                    class="path"
                    points="749.08,1091.49 747.96,1114.07 673.94,1115.14 675.08,1092.56 	"
                />
            </g>
            <g id="L67">
                <polygon
                    class="path"
                    points="750.32,1066.72 749.12,1090.71 749.09,1088.52 675.23,1089.58 676.33,1067.79 	"
                />
            </g>
            <g id="L66">
                <polygon
                    class="path"
                    points="750.47,1063.75 676.48,1064.82 678.89,1016.92 752.89,1015.14 	"
                />
            </g>
            <g id="L186">
                <polygon
                    class="path"
                    points="647.24,1095.08 646.12,1117.67 572.28,1118.73 573.45,1096.14 	"
                />
            </g>
            <g id="L187">
                <polygon
                    class="path"
                    points="645.97,1120.64 644.85,1143.01 570.98,1144.08 572.12,1121.7 	"
                />
            </g>
            <g id="L188">
                <polygon
                    class="path"
                    points="644.7,1145.99 643.61,1167.9 569.69,1168.97 570.82,1147.05 	"
                />
            </g>
            <g id="L189">
                <polygon
                    class="path"
                    points="643.46,1170.88 642.34,1193.41 568.37,1194.48 569.53,1171.94 	"
                />
            </g>
            <g id="L190">
                <polygon
                    class="path"
                    points="642.19,1196.38 641.04,1219.36 567.04,1220.43 568.22,1197.44 	"
                />
            </g>
            <g id="L193">
                <polygon
                    class="path"
                    points="589.35,1223.08 587.2,1270.83 564.41,1271.36 566.88,1223.4 	"
                />
            </g>
            <g id="L192">
                <polygon
                    class="path"
                    points="614.96,1222.71 612.82,1270.21 590.17,1270.75 592.32,1223.03 	"
                />
            </g>
            <g id="L191">
                <polygon
                    class="path"
                    points="640.89,1222.34 638.54,1269.61 615.79,1270.14 617.93,1222.67 	"
                />
            </g>
            <g id="L185">
                <polygon
                    class="path"
                    points="648.47,1070.31 647.28,1094.35 647.25,1092.11 573.6,1093.17 574.73,1071.38 	"
                />
            </g>
            <g id="L184">
                <polygon
                    class="path"
                    points="651.05,1018.73 648.62,1067.42 574.88,1068.41 577.11,1025.11 582.73,1020.39 	"
                />
            </g>
            <g id="L288">
                <polygon
                    class="path"
                    points="503.11,1099.63 501.95,1122.2 427.88,1123.27 429.04,1100.68 	"
                />
            </g>
            <g id="L289">
                <polygon
                    class="path"
                    points="501.79,1125.17 500.64,1147.55 426.57,1148.62 427.72,1126.24 	"
                />
            </g>
            <g id="L290">
                <polygon
                    class="path"
                    points="500.5,1150.52 499.37,1172.44 425.28,1173.51 426.41,1151.59 	"
                />
            </g>
            <g id="L291">
                <polygon
                    class="path"
                    points="499.21,1175.41 498.05,1197.94 423.97,1199.01 425.13,1176.48 	"
                />
            </g>
            <g id="L292">
                <polygon
                    class="path"
                    points="497.9,1200.91 496.72,1223.9 422.62,1224.97 423.81,1201.98 	"
                />
            </g>
            <g id="L293">
                <polygon
                    class="path"
                    points="496.57,1226.88 494.13,1274.14 420,1275.89 422.47,1227.94 	"
                />
            </g>
            <g id="L286">
                <polyline
                    class="path"
                    points="453.97,1072.6 430.47,1072.94 432.71,1029.65 438.32,1024.92 456.13,1024.64 502.73,1023.9 
	   506.78,1028.31 504.54,1071.88 482.22,1072.19 	"
                />
            </g>
            <g id="L83">
                <polygon
                    class="path"
                    points="730.44,1446.46 729.32,1468.99 655.27,1470.05 656.4,1447.52 	"
                />
            </g>
            <g id="L84">
                <polygon
                    class="path"
                    points="729.26,1470.64 728.14,1493.17 654.09,1494.22 655.22,1471.69 	"
                />
            </g>
            <g id="L85">
                <polygon
                    class="path"
                    points="728.01,1494.81 725.58,1543.42 703.59,1543.74 705.75,1495.35 	"
                />
            </g>
            <g id="L86">
                <polygon
                    class="path"
                    points="702.4,1495.54 699.98,1544.15 677.98,1544.47 680.15,1496.07 	"
                />
            </g>
            <g id="L87">
                <polygon
                    class="path"
                    points="676.63,1496.24 674.2,1544.85 652.2,1545.17 654.37,1496.77 	"
                />
            </g>
            <g id="L82">
                <polygon
                    class="path"
                    points="731.69,1421.57 730.59,1443.48 656.56,1444.55 657.66,1422.63 	"
                />
            </g>
            <g id="L81">
                <polygon
                    class="path"
                    points="732.96,1396.21 731.84,1418.6 657.8,1419.66 658.93,1397.28 	"
                />
            </g>
            <g id="L80">
                <polygon
                    class="path"
                    points="734.22,1370.67 733.1,1393.24 659.09,1394.31 660.23,1371.73 	"
                />
            </g>
            <g id="L79">
                <polygon
                    class="path"
                    points="735.46,1345.9 734.26,1369.93 734.23,1367.7 660.38,1368.76 661.48,1346.96 	"
                />
            </g>
            <g id="L78">
                <polygon
                    class="path"
                    points="687.53,1295.53 685.36,1343.65 661.62,1343.99 664.04,1296.1 	"
                />
            </g>
            <g id="L77">
                <polygon
                    class="path"
                    points="712.8,1294.92 710.63,1343.29 688.33,1343.6 690.51,1295.46 	"
                />
            </g>
            <g id="L76">
                <polygon
                    class="path"
                    points="738.03,1294.32 735.61,1342.93 713.61,1343.25 715.78,1294.85 	"
                />
            </g>
            <g id="L164">
                <polygon
                    class="path"
                    points="630.53,460.98 628.37,509.1 604.62,509.43 607.03,461.54 	"
                />
            </g>
            <g id="L163">
                <polygon
                    class="path"
                    points="655.81,460.36 653.64,508.73 631.34,509.05 633.51,460.91 	"
                />
            </g>
            <g id="L162">
                <polygon
                    class="path"
                    points="681.04,459.76 678.61,508.37 656.62,508.69 658.78,460.29 	"
                />
            </g>
            <g id="L165">
                <polygon
                    class="path"
                    points="678.46,511.34 677.27,535.38 677.24,533.14 603.37,534.2 604.47,512.4 	"
                />
            </g>
            <g id="L166">
                <polygon
                    class="path"
                    points="677.23,536.11 676.11,558.69 602.09,559.76 603.22,537.18 	"
                />
            </g>
            <g id="L167">
                <polygon
                    class="path"
                    points="675.96,561.66 674.84,584.04 600.81,585.11 601.94,562.73 	"
                />
            </g>
            <g id="L168">
                <polygon
                    class="path"
                    points="674.69,587.02 673.6,608.93 599.55,609.99 600.66,588.08 	"
                />
            </g>
            <g id="L169">
                <polygon
                    class="path"
                    points="673.45,611.9 672.33,634.43 598.27,635.5 599.4,612.96 	"
                />
            </g>
            <g id="L170">
                <polygon
                    class="path"
                    points="672.18,637.4 671.03,660.39 596.96,661.46 598.12,638.47 	"
                />
            </g>
            <g id="L173">
                <polygon
                    class="path"
                    points="619.34,664.11 617.2,711.84 594.4,712.38 596.81,664.44 	"
                />
            </g>
            <g id="L172">
                <polygon
                    class="path"
                    points="644.94,663.74 642.81,711.23 620.16,711.76 622.3,664.06 	"
                />
            </g>
            <g id="L171">
                <polygon
                    class="path"
                    points="670.89,663.37 668.53,710.62 645.78,711.16 647.92,663.69 	"
                />
            </g>
            <g id="L285">
                <polygon
                    class="path"
                    points="512.86,947.92 510.82,989.04 503.49,995.29 436.39,996.94 438.8,948.99 	"
                />
            </g>
            <g id="L284">
                <polygon
                    class="path"
                    points="514.16,921.96 513.01,944.95 438.95,946.01 440.11,923.03 	"
                />
            </g>
            <g id="L283">
                <polygon
                    class="path"
                    points="515.43,896.46 514.31,918.99 440.25,920.06 441.39,897.52 	"
                />
            </g>
            <g id="L282">
                <polygon
                    class="path"
                    points="516.67,871.58 515.57,893.48 441.54,894.55 442.65,872.63 	"
                />
            </g>
            <g id="L281">
                <polygon
                    class="path"
                    points="517.94,846.22 516.82,868.6 442.8,869.67 443.93,847.28 	"
                />
            </g>
            <g id="L280">
                <polygon
                    class="path"
                    points="519.21,820.67 518.09,843.26 444.07,844.32 445.21,821.73 	"
                />
            </g>
            <g id="L279">
                <polygon
                    class="path"
                    points="520.44,795.9 519.26,819.83 519.22,817.7 445.36,818.76 446.46,796.97 	"
                />
            </g>
            <g id="L278">
                <polygon
                    class="path"
                    points="523.02,744.32 520.59,792.93 446.61,794 449.02,746.1 	"
                />
            </g>
            <g id="L65">
                <polygon
                    class="path"
                    points="757.47,939.15 755.11,986.42 680.98,988.17 683.39,940.22 	"
                />
            </g>
            <g id="L64">
                <polygon
                    class="path"
                    points="758.76,913.18 757.61,936.17 683.54,937.24 684.7,914.25 	"
                />
            </g>
            <g id="L63">
                <polygon
                    class="path"
                    points="760.03,887.68 758.91,910.22 684.85,911.28 685.99,888.74 	"
                />
            </g>
            <g id="L62">
                <polygon
                    class="path"
                    points="761.28,862.81 760.18,884.71 686.13,885.77 687.24,863.86 	"
                />
            </g>
            <g id="L61">
                <polygon
                    class="path"
                    points="762.54,837.45 761.42,859.83 687.39,860.89 688.52,838.52 	"
                />
            </g>
            <g id="L60">
                <polygon
                    class="path"
                    points="763.81,811.89 762.69,834.48 688.67,835.55 689.8,812.96 	"
                />
            </g>
            <g id="L59">
                <polygon
                    class="path"
                    points="765.05,787.12 763.85,811.16 763.82,808.92 689.95,809.98 691.05,788.19 	"
                />
            </g>
            <g id="L58">
                <polygon
                    class="path"
                    points="717.11,736.76 714.95,784.88 691.2,785.22 693.61,737.32 	"
                />
            </g>
            <g id="L57">
                <polygon
                    class="path"
                    points="742.39,736.14 740.22,784.51 717.92,784.84 720.09,736.69 	"
                />
            </g>
            <g id="L56">
                <polygon
                    class="path"
                    points="767.62,735.54 765.19,784.15 743.2,784.47 745.36,736.07 	"
                />
            </g>
            <g id="L176">
                <polygon
                    class="path"
                    points="615.66,741.51 613.49,789.63 589.76,789.96 592.17,742.07 	"
                />
            </g>
            <g id="L175">
                <polygon
                    class="path"
                    points="640.93,740.89 638.77,789.26 616.47,789.58 618.64,741.44 	"
                />
            </g>
            <g id="L174">
                <polygon
                    class="path"
                    points="666.17,740.29 663.74,788.9 641.74,789.22 643.91,740.82 	"
                />
            </g>
            <g id="L177">
                <polygon
                    class="path"
                    points="663.59,791.87 662.41,815.79 662.37,813.67 588.51,814.73 589.61,792.93 	"
                />
            </g>
            <g id="L178">
                <polygon
                    class="path"
                    points="662.36,816.64 661.24,839.22 587.22,840.29 588.36,817.71 	"
                />
            </g>
            <g id="L179">
                <polygon
                    class="path"
                    points="661.09,842.19 659.97,864.57 585.95,865.64 587.08,843.26 	"
                />
            </g>
            <g id="L180">
                <polygon
                    class="path"
                    points="659.82,867.55 658.72,889.46 584.69,890.52 585.8,868.61 	"
                />
            </g>
            <g id="L181">
                <polygon
                    class="path"
                    points="658.58,892.43 657.46,914.96 583.4,916.02 584.54,893.49 	"
                />
            </g>
            <g id="L182">
                <polygon
                    class="path"
                    points="657.31,917.93 656.16,940.92 582.1,941.99 583.26,918.99 	"
                />
            </g>
            <g id="L183">
                <polygon
                    class="path"
                    points="656.01,943.9 653.66,991.15 584.46,992.21 579.77,988.16 581.95,944.97 	"
                />
            </g>
        </svg>