<?xml version="1.0" encoding="UTF-8"?>
<svg xmlns="http://www.w3.org/2000/svg" version="1.1" viewBox="0 0 1920 1080">
  <g id="_287" data-name="287">
    <g id="_287-2" data-name="287">
      <polygon class="cls-1" points="1133.35 615.25 1132.34 635.04 1065.11 635.98 1066.14 616.22 1133.35 615.25"/>
    </g>
  </g>
  <g id="_55" data-name="55">
    <g id="_55-2" data-name="55">
      <polygon class="cls-1" points="1330.62 239.77 1328.68 283.09 1307.99 283.58 1310.18 240.07 1330.62 239.77"/>
    </g>
  </g>
  <g id="_54" data-name="54">
    <g id="_54-2" data-name="54">
      <polygon class="cls-1" points="1353.86 239.44 1351.94 282.54 1331.39 283.02 1333.32 239.73 1353.86 239.44"/>
    </g>
  </g>
  <g id="_53" data-name="53">
    <g id="_53-2" data-name="53">
      <polygon class="cls-1" points="1377.4 239.11 1375.26 281.99 1354.62 282.47 1356.56 239.41 1377.4 239.11"/>
    </g>
  </g>
  <g id="_52" data-name="52">
    <g id="_52-2" data-name="52">
      <polygon class="cls-1" points="1378.57 215.53 1377.54 236.4 1310.31 237.36 1311.38 216.5 1378.57 215.53"/>
    </g>
  </g>
  <g id="_51" data-name="51">
    <g id="_51-2" data-name="51">
      <polygon class="cls-1" points="1379.73 192.41 1378.71 212.84 1311.51 213.8 1312.55 193.35 1379.73 192.41"/>
    </g>
  </g>
  <g id="_50" data-name="50">
    <g id="_50-2" data-name="50">
      <polygon class="cls-1" points="1380.86 169.82 1379.86 189.7 1312.67 190.66 1313.67 170.78 1380.86 169.82"/>
    </g>
  </g>
  <g id="_49" data-name="49">
    <g id="_49-2" data-name="49">
      <polygon class="cls-1" points="1382 146.81 1381 167.12 1313.81 168.09 1314.83 147.78 1382 146.81"/>
    </g>
  </g>
  <g id="_48" data-name="48">
    <g id="_48-2" data-name="48">
      <polygon class="cls-1" points="1383.16 123.61 1382.14 144.11 1314.98 145.08 1316.01 124.58 1383.16 123.61"/>
    </g>
  </g>
  <g id="_47" data-name="47">
    <g id="_47-2" data-name="47">
      <polygon class="cls-1" points="1384.28 101.13 1383.19 122.95 1383.17 120.92 1316.14 121.88 1317.14 102.1 1384.28 101.13"/>
    </g>
  </g>
  <g id="_46" data-name="46">
    <g id="_46-2" data-name="46">
      <polygon class="cls-1" points="1340.79 55.44 1338.82 99.1 1317.27 99.41 1319.47 55.95 1340.79 55.44"/>
    </g>
  </g>
  <g id="_45" data-name="45">
    <g id="_45-2" data-name="45">
      <polygon class="cls-1" points="1363.72 54.88 1361.75 98.77 1341.52 99.06 1343.48 55.37 1363.72 54.88"/>
    </g>
  </g>
  <g id="_44" data-name="44">
    <g id="_44-2" data-name="44">
      <polygon class="cls-1" points="1386.15 54.32 1383.95 98.45 1363.98 98.73 1365.95 54.81 1386.15 54.32"/>
    </g>
  </g>
  <g id="_75" data-name="75">
    <g id="_75-2" data-name="75">
      <polygon class="cls-1" points="1302.87 746.51 1300.92 789.83 1280.24 790.32 1282.44 746.81 1302.87 746.51"/>
    </g>
  </g>
  <g id="_74" data-name="74">
    <g id="_74-2" data-name="74">
      <polygon class="cls-1" points="1326.11 746.17 1324.18 789.28 1303.63 789.76 1305.57 746.46 1326.11 746.17"/>
    </g>
  </g>
  <g id="_73" data-name="73">
    <g id="_73-2" data-name="73">
      <polygon class="cls-1" points="1349.64 745.83 1347.51 788.73 1326.88 789.21 1328.82 746.12 1349.64 745.83"/>
    </g>
  </g>
  <g id="_72" data-name="72">
    <g id="_72-2" data-name="72">
      <polygon class="cls-1" points="1350.82 722.27 1349.78 743.13 1282.57 744.1 1283.62 723.24 1350.82 722.27"/>
    </g>
  </g>
  <g id="_71" data-name="71">
    <g id="_71-2" data-name="71">
      <polygon class="cls-1" points="1351.99 699.14 1350.96 719.58 1283.75 720.54 1284.79 700.09 1351.99 699.14"/>
    </g>
  </g>
  <g id="_70" data-name="70">
    <g id="_70-2" data-name="70">
      <polygon class="cls-1" points="1353.1 676.55 1352.11 696.43 1284.92 697.4 1285.93 677.51 1353.1 676.55"/>
    </g>
  </g>
  <g id="_69" data-name="69">
    <g id="_69-2" data-name="69">
      <polygon class="cls-1" points="1354.25 653.53 1353.24 673.84 1286.07 674.81 1287.08 654.51 1354.25 653.53"/>
    </g>
  </g>
  <g id="_68" data-name="68">
    <g id="_68-2" data-name="68">
      <polygon class="cls-1" points="1355.41 630.35 1354.39 650.84 1287.22 651.81 1288.25 631.32 1355.41 630.35"/>
    </g>
  </g>
  <g id="_67" data-name="67">
    <g id="_67-2" data-name="67">
      <polygon class="cls-1" points="1356.53 607.87 1355.44 629.64 1355.42 627.65 1288.39 628.61 1289.39 608.84 1356.53 607.87"/>
    </g>
  </g>
  <g id="_66" data-name="66">
    <g id="_66-2" data-name="66">
      <polygon class="cls-1" points="1356.67 605.17 1289.52 606.15 1291.71 562.68 1358.86 561.06 1356.67 605.17"/>
    </g>
  </g>
  <g id="_186" data-name="186">
    <g id="_186-2" data-name="186">
      <polygon class="cls-1" points="1262.99 633.61 1261.97 654.11 1194.96 655.07 1196.03 634.57 1262.99 633.61"/>
    </g>
  </g>
  <g id="_187" data-name="187">
    <g id="_187-2" data-name="187">
      <polygon class="cls-1" points="1261.84 656.8 1260.82 677.1 1193.78 678.07 1194.82 657.76 1261.84 656.8"/>
    </g>
  </g>
  <g id="_188" data-name="188">
    <g id="_188-2" data-name="188">
      <polygon class="cls-1" points="1260.68 679.81 1259.69 699.69 1192.61 700.66 1193.64 680.77 1260.68 679.81"/>
    </g>
  </g>
  <g id="_189" data-name="189">
    <g id="_189-2" data-name="189">
      <polygon class="cls-1" points="1259.56 702.39 1258.54 722.84 1191.42 723.81 1192.47 703.35 1259.56 702.39"/>
    </g>
  </g>
  <g id="_190" data-name="190">
    <g id="_190-2" data-name="190">
      <polygon class="cls-1" points="1258.41 725.53 1257.36 746.39 1190.21 747.36 1191.28 726.5 1258.41 725.53"/>
    </g>
  </g>
  <g id="_193" data-name="193">
    <g id="_193-2" data-name="193">
      <polygon class="cls-1" points="1210.45 749.76 1208.5 793.1 1187.82 793.58 1190.06 750.05 1210.45 749.76"/>
    </g>
  </g>
  <g id="_192" data-name="192">
    <g id="_192-2" data-name="192">
      <polygon class="cls-1" points="1233.7 749.43 1231.75 792.53 1211.2 793.02 1213.15 749.72 1233.7 749.43"/>
    </g>
  </g>
  <g id="_191" data-name="191">
    <g id="_191-2" data-name="191">
      <polygon class="cls-1" points="1257.23 749.09 1255.09 791.99 1234.45 792.47 1236.39 749.39 1257.23 749.09"/>
    </g>
  </g>
  <g id="_185" data-name="185">
    <g id="_185-2" data-name="185">
      <polygon class="cls-1" points="1264.1 611.13 1263.03 632.94 1263 630.91 1196.16 631.87 1197.19 612.1 1264.1 611.13"/>
    </g>
  </g>
  <g id="_184" data-name="184">
    <g id="_184-2" data-name="184">
      <polygon class="cls-1" points="1266.45 564.32 1264.24 608.51 1197.32 609.4 1199.35 570.11 1204.45 565.83 1266.45 564.32"/>
    </g>
  </g>
  <g id="_288" data-name="288">
    <g id="_288-2" data-name="288">
      <polygon class="cls-1" points="1132.19 637.73 1131.14 658.22 1063.92 659.19 1064.98 638.69 1132.19 637.73"/>
    </g>
  </g>
  <g id="_289" data-name="289">
    <g id="_289-2" data-name="289">
      <polygon class="cls-1" points="1131 660.91 1129.95 681.22 1062.73 682.19 1063.78 661.88 1131 660.91"/>
    </g>
  </g>
  <g id="_290" data-name="290">
    <g id="_290-2" data-name="290">
      <polygon class="cls-1" points="1129.82 683.92 1128.8 703.81 1061.56 704.78 1062.59 684.89 1129.82 683.92"/>
    </g>
  </g>
  <g id="_291" data-name="291">
    <g id="_291-2" data-name="291">
      <polygon class="cls-1" points="1128.65 706.5 1127.6 726.95 1060.38 727.92 1061.43 707.47 1128.65 706.5"/>
    </g>
  </g>
  <g id="_292" data-name="292">
    <g id="_292-2" data-name="292">
      <polygon class="cls-1" points="1127.47 729.64 1126.39 750.51 1059.15 751.48 1060.23 730.62 1127.47 729.64"/>
    </g>
  </g>
  <g id="_293" data-name="293">
    <g id="_293-2" data-name="293">
      <polygon class="cls-1" points="1126.26 753.21 1124.04 796.1 1056.77 797.69 1059.01 754.17 1126.26 753.21"/>
    </g>
  </g>
  <g id="_286" data-name="286">
    <g id="_286-2" data-name="286">
      <polyline class="cls-1" points="1087.6 613.21 1066.27 613.51 1068.31 574.23 1073.4 569.94 1089.56 569.68 1131.85 569.01 1135.52 573.01 1133.49 612.55 1113.24 612.83"/>
    </g>
  </g>
  <g id="_83" data-name="83">
    <g id="_83-2" data-name="83">
      <polygon class="cls-1" points="1338.49 952.48 1337.47 972.92 1270.28 973.88 1271.3 953.44 1338.49 952.48"/>
    </g>
  </g>
  <g id="_84" data-name="84">
    <g id="_84-2" data-name="84">
      <polygon class="cls-1" points="1337.42 974.42 1336.4 994.87 1269.2 995.82 1270.23 975.37 1337.42 974.42"/>
    </g>
  </g>
  <g id="_85" data-name="85">
    <g id="_85-2" data-name="85">
      <polygon class="cls-1" points="1336.29 996.35 1334.08 1040.47 1314.13 1040.76 1316.09 996.84 1336.29 996.35"/>
    </g>
  </g>
  <g id="_86" data-name="86">
    <g id="_86-2" data-name="86">
      <polygon class="cls-1" points="1313.05 997.02 1310.85 1041.13 1290.88 1041.42 1292.85 997.5 1313.05 997.02"/>
    </g>
  </g>
  <g id="_87" data-name="87">
    <g id="_87-2" data-name="87">
      <polygon class="cls-1" points="1289.66 997.65 1287.45 1041.76 1267.49 1042.05 1269.46 998.13 1289.66 997.65"/>
    </g>
  </g>
  <g id="_82" data-name="82">
    <g id="_82-2" data-name="82">
      <polygon class="cls-1" points="1339.63 929.89 1338.63 949.77 1271.45 950.74 1272.44 930.85 1339.63 929.89"/>
    </g>
  </g>
  <g id="_81" data-name="81">
    <g id="_81-2" data-name="81">
      <polygon class="cls-1" points="1340.78 906.88 1339.76 927.19 1272.57 928.16 1273.6 907.85 1340.78 906.88"/>
    </g>
  </g>
  <g id="_80" data-name="80">
    <g id="_80-2" data-name="80">
      <polygon class="cls-1" points="1341.92 883.7 1340.91 904.18 1273.74 905.15 1274.78 884.66 1341.92 883.7"/>
    </g>
  </g>
  <g id="_79" data-name="79">
    <g id="_79-2" data-name="79">
      <polygon class="cls-1" points="1343.05 861.22 1341.96 883.03 1341.93 881 1274.91 881.97 1275.91 862.18 1343.05 861.22"/>
    </g>
  </g>
  <g id="_78" data-name="78">
    <g id="_78-2" data-name="78">
      <polygon class="cls-1" points="1299.55 815.51 1297.58 859.18 1276.04 859.49 1278.23 816.03 1299.55 815.51"/>
    </g>
  </g>
  <g id="_77" data-name="77">
    <g id="_77-2" data-name="77">
      <polygon class="cls-1" points="1322.48 814.96 1320.51 858.85 1300.28 859.13 1302.26 815.45 1322.48 814.96"/>
    </g>
  </g>
  <g id="_76" data-name="76">
    <g id="_76-2" data-name="76">
      <polygon class="cls-1" points="1345.38 814.41 1343.18 858.53 1323.22 858.82 1325.19 814.89 1345.38 814.41"/>
    </g>
  </g>
  <g id="_164" data-name="164">
    <g id="_164-2" data-name="164">
      <polygon class="cls-1" points="1247.82 58.17 1245.86 101.84 1224.31 102.14 1226.5 58.68 1247.82 58.17"/>
    </g>
  </g>
  <g id="_163" data-name="163">
    <g id="_163-2" data-name="163">
      <polygon class="cls-1" points="1270.77 57.61 1268.8 101.5 1248.56 101.79 1250.53 58.11 1270.77 57.61"/>
    </g>
  </g>
  <g id="_162" data-name="162">
    <g id="_162-2" data-name="162">
      <polygon class="cls-1" points="1293.66 57.06 1291.46 101.18 1271.5 101.47 1273.46 57.55 1293.66 57.06"/>
    </g>
  </g>
  <g id="_165" data-name="165">
    <g id="_165-2" data-name="165">
      <polygon class="cls-1" points="1291.32 103.87 1290.24 125.69 1290.21 123.66 1223.18 124.62 1224.18 104.83 1291.32 103.87"/>
    </g>
  </g>
  <g id="_166" data-name="166">
    <g id="_166-2" data-name="166">
      <polygon class="cls-1" points="1290.2 126.35 1289.19 146.84 1222.02 147.81 1223.04 127.32 1290.2 126.35"/>
    </g>
  </g>
  <g id="_167" data-name="167">
    <g id="_167-2" data-name="167">
      <polygon class="cls-1" points="1289.05 149.54 1288.04 169.85 1220.85 170.82 1221.88 150.51 1289.05 149.54"/>
    </g>
  </g>
  <g id="_168" data-name="168">
    <g id="_168-2" data-name="168">
      <polygon class="cls-1" points="1287.9 172.55 1286.91 192.43 1219.71 193.4 1220.72 173.51 1287.9 172.55"/>
    </g>
  </g>
  <g id="_169" data-name="169">
    <g id="_169-2" data-name="169">
      <polygon class="cls-1" points="1286.77 195.13 1285.76 215.57 1218.55 216.55 1219.57 196.09 1286.77 195.13"/>
    </g>
  </g>
  <g id="_170" data-name="170">
    <g id="_170-2" data-name="170">
      <polygon class="cls-1" points="1285.62 218.27 1284.58 239.13 1217.36 240.1 1218.41 219.24 1285.62 218.27"/>
    </g>
  </g>
  <g id="_173" data-name="173">
    <g id="_173-2" data-name="173">
      <polygon class="cls-1" points="1237.67 242.51 1235.73 285.82 1215.04 286.31 1217.22 242.81 1237.67 242.51"/>
    </g>
  </g>
  <g id="_172" data-name="172">
    <g id="_172-2" data-name="172">
      <polygon class="cls-1" points="1260.9 242.17 1258.97 285.27 1238.41 285.75 1240.36 242.46 1260.9 242.17"/>
    </g>
  </g>
  <g id="_171" data-name="171">
    <g id="_171-2" data-name="171">
      <polygon class="cls-1" points="1284.45 241.84 1282.31 284.72 1261.66 285.21 1263.61 242.13 1284.45 241.84"/>
    </g>
  </g>
  <g id="_285" data-name="285">
    <g id="_285-2" data-name="285">
      <polygon class="cls-1" points="1141.04 500.06 1139.19 537.38 1132.54 543.05 1071.65 544.55 1073.83 501.03 1141.04 500.06"/>
    </g>
  </g>
  <g id="_284" data-name="284">
    <g id="_284-2" data-name="284">
      <polygon class="cls-1" points="1142.22 476.5 1141.18 497.37 1073.97 498.33 1075.02 477.47 1142.22 476.5"/>
    </g>
  </g>
  <g id="_283" data-name="283">
    <g id="_283-2" data-name="283">
      <polygon class="cls-1" points="1143.37 453.36 1142.36 473.81 1075.15 474.78 1076.18 454.32 1143.37 453.36"/>
    </g>
  </g>
  <g id="_282" data-name="282">
    <g id="_282-2" data-name="282">
      <polygon class="cls-1" points="1144.5 430.78 1143.5 450.66 1076.32 451.63 1077.33 431.74 1144.5 430.78"/>
    </g>
  </g>
  <g id="_281" data-name="281">
    <g id="_281-2" data-name="281">
      <polygon class="cls-1" points="1145.65 407.77 1144.63 428.08 1077.46 429.05 1078.49 408.73 1145.65 407.77"/>
    </g>
  </g>
  <g id="_280" data-name="280">
    <g id="_280-2" data-name="280">
      <polygon class="cls-1" points="1146.8 384.58 1145.79 405.08 1078.62 406.05 1079.65 385.55 1146.8 384.58"/>
    </g>
  </g>
  <g id="_279" data-name="279">
    <g id="_279-2" data-name="279">
      <polygon class="cls-1" points="1147.92 362.11 1146.85 383.82 1146.81 381.89 1079.79 382.85 1080.78 363.08 1147.92 362.11"/>
    </g>
  </g>
  <g id="_278" data-name="278">
    <g id="_278-2" data-name="278">
      <polygon class="cls-1" points="1150.26 315.3 1148.06 359.41 1080.92 360.38 1083.11 316.91 1150.26 315.3"/>
    </g>
  </g>
  <g id="_65" data-name="65">
    <g id="_65-2" data-name="65">
      <polygon class="cls-1" points="1363.02 492.1 1360.88 535 1293.61 536.59 1295.79 493.07 1363.02 492.1"/>
    </g>
  </g>
  <g id="_64" data-name="64">
    <g id="_64-2" data-name="64">
      <polygon class="cls-1" points="1364.19 468.54 1363.15 489.4 1295.93 490.37 1296.98 469.51 1364.19 468.54"/>
    </g>
  </g>
  <g id="_63" data-name="63">
    <g id="_63-2" data-name="63">
      <polygon class="cls-1" points="1365.34 445.39 1364.33 465.85 1297.12 466.81 1298.15 446.36 1365.34 445.39"/>
    </g>
  </g>
  <g id="_62" data-name="62">
    <g id="_62-2" data-name="62">
      <polygon class="cls-1" points="1366.48 422.83 1365.48 442.7 1298.28 443.66 1299.29 423.78 1366.48 422.83"/>
    </g>
  </g>
  <g id="_61" data-name="61">
    <g id="_61-2" data-name="61">
      <polygon class="cls-1" points="1367.62 399.81 1366.6 420.12 1299.42 421.08 1300.45 400.78 1367.62 399.81"/>
    </g>
  </g>
  <g id="_60" data-name="60">
    <g id="_60-2" data-name="60">
      <polygon class="cls-1" points="1368.77 376.62 1367.76 397.12 1300.59 398.09 1301.61 377.59 1368.77 376.62"/>
    </g>
  </g>
  <g id="_59" data-name="59">
    <g id="_59-2" data-name="59">
      <polygon class="cls-1" points="1369.9 354.14 1368.81 375.95 1368.78 373.92 1301.75 374.88 1302.75 355.11 1369.9 354.14"/>
    </g>
  </g>
  <g id="_58" data-name="58">
    <g id="_58-2" data-name="58">
      <polygon class="cls-1" points="1326.39 308.44 1324.43 352.11 1302.88 352.41 1305.07 308.95 1326.39 308.44"/>
    </g>
  </g>
  <g id="_57" data-name="57">
    <g id="_57-2" data-name="57">
      <polygon class="cls-1" points="1349.34 307.87 1347.37 351.77 1327.13 352.07 1329.1 308.37 1349.34 307.87"/>
    </g>
  </g>
  <g id="_56" data-name="56">
    <g id="_56-2" data-name="56">
      <polygon class="cls-1" points="1372.23 307.33 1370.03 351.44 1350.07 351.73 1352.03 307.81 1372.23 307.33"/>
    </g>
  </g>
  <g id="_176" data-name="176">
    <g id="_176-2" data-name="176">
      <polygon class="cls-1" points="1234.33 312.75 1232.36 356.42 1210.83 356.72 1213.01 313.26 1234.33 312.75"/>
    </g>
  </g>
  <g id="_175" data-name="175">
    <g id="_175-2" data-name="175">
      <polygon class="cls-1" points="1257.26 312.19 1255.3 356.08 1235.07 356.37 1237.03 312.68 1257.26 312.19"/>
    </g>
  </g>
  <g id="_174" data-name="174">
    <g id="_174-2" data-name="174">
      <polygon class="cls-1" points="1280.17 311.64 1277.96 355.75 1258 356.04 1259.97 312.12 1280.17 311.64"/>
    </g>
  </g>
  <g id="_177" data-name="177">
    <g id="_177-2" data-name="177">
      <polygon class="cls-1" points="1277.83 358.45 1276.76 380.16 1276.72 378.23 1209.69 379.19 1210.69 359.41 1277.83 358.45"/>
    </g>
  </g>
  <g id="_178" data-name="178">
    <g id="_178-2" data-name="178">
      <polygon class="cls-1" points="1276.71 380.93 1275.69 401.42 1208.52 402.39 1209.56 381.9 1276.71 380.93"/>
    </g>
  </g>
  <g id="_179" data-name="179">
    <g id="_179-2" data-name="179">
      <polygon class="cls-1" points="1275.56 404.11 1274.54 424.42 1207.37 425.39 1208.39 405.08 1275.56 404.11"/>
    </g>
  </g>
  <g id="_180" data-name="180">
    <g id="_180-2" data-name="180">
      <polygon class="cls-1" points="1274.4 427.13 1273.41 447.01 1206.23 447.97 1207.23 428.09 1274.4 427.13"/>
    </g>
  </g>
  <g id="_181" data-name="181">
    <g id="_181-2" data-name="181">
      <polygon class="cls-1" points="1273.28 449.7 1272.26 470.15 1205.06 471.11 1206.09 450.67 1273.28 449.7"/>
    </g>
  </g>
  <g id="_182" data-name="182">
    <g id="_182-2" data-name="182">
      <polygon class="cls-1" points="1272.13 472.85 1271.08 493.71 1203.88 494.68 1204.93 473.81 1272.13 472.85"/>
    </g>
  </g>
  <g id="_183" data-name="183">
    <g id="_183-2" data-name="183">
      <polygon class="cls-1" points="1270.95 496.41 1268.81 539.29 1206.02 540.25 1201.76 536.58 1203.74 497.38 1270.95 496.41"/>
    </g>
  </g>
</svg>