<svg width="28" height="25" viewBox="0 0 28 25" fill="none" xmlns="http://www.w3.org/2000/svg">
<g id="Capa_1" clip-path="url(#clip0_13_444)">
<path id="Vector" d="M1.35647 21.9553C1.35647 21.4891 1.35647 21.0318 1.35647 20.574C1.35647 20.1348 1.49451 19.9997 1.9428 19.9952C2.16597 19.9952 2.38979 19.9952 2.64651 19.9952C2.64651 19.5149 2.64651 19.0667 2.64651 18.6185C2.64651 18.1317 2.76778 18.0101 3.25089 18.0082C3.69209 18.0082 4.13328 18.0082 4.59383 18.0082V5.66599H4.34162C3.81787 5.66599 3.29411 5.66084 2.77036 5.66599C2.53105 5.6692 2.33432 5.6094 2.25434 5.36632C2.17436 5.12325 2.30272 4.95798 2.49235 4.8178C3.93333 3.74903 5.37387 2.67834 6.81398 1.60572C7.2655 1.27262 7.70862 0.934372 8.16143 0.606413C9.16508 -0.120885 10.39 -0.125386 11.3865 0.610915C13.2721 2.00421 15.1539 3.40286 17.0317 4.80686C17.0679 4.83387 17.1046 4.86024 17.1395 4.88853C17.2131 4.94286 17.267 5.01968 17.2928 5.10732C17.3187 5.19496 17.3151 5.28861 17.2826 5.37404C17.2567 5.46172 17.2017 5.53802 17.1265 5.59047C17.0514 5.64291 16.9607 5.66841 16.8692 5.66277H15.2431H14.938V11.6612C15.2534 11.6914 15.5746 11.7152 15.8933 11.7551C17.6819 11.9795 19.2835 12.5981 20.5213 13.9691C21.2779 14.8051 21.7468 15.8031 22.1229 16.8533C22.3854 17.5902 22.6473 18.3278 22.9356 19.0544C23.4852 20.437 24.5017 21.1309 26.0111 21.1122C26.8199 21.1039 27.3559 21.8273 27.0915 22.5585C27.0141 22.7713 26.8044 22.9347 26.6651 23.1276C26.6006 23.2182 26.5161 23.3205 26.509 23.4253C26.4884 23.7301 26.509 24.0369 26.5 24.3429C26.4929 24.6818 26.3387 24.8432 25.9994 24.8439C23.9496 24.8477 21.8995 24.8477 19.8492 24.8439C19.4886 24.8439 19.3448 24.6908 19.3441 24.3294C19.3441 23.2671 19.3499 22.2041 19.3441 21.1418C19.3364 20.2357 18.6275 19.6911 17.7606 19.9097C17.2052 20.0505 16.8737 20.4885 16.8705 21.1103C16.866 22.1553 16.8705 23.1996 16.8705 24.2446C16.8705 24.7133 16.7415 24.8458 16.2842 24.8465C14.8651 24.8465 13.4471 24.8465 12.0303 24.8465C11.5891 24.8465 11.4497 24.7043 11.4497 24.2613C11.4497 23.334 11.453 22.4061 11.4497 21.4788C11.4426 20.201 10.2932 19.4332 9.09993 19.9046C8.46846 20.1534 8.10531 20.6923 8.09822 21.4286C8.08919 22.3745 8.09822 23.3198 8.09822 24.2658C8.09822 24.7114 7.96534 24.8445 7.5177 24.8445C5.23261 24.8445 2.94774 24.8445 0.663077 24.8445C0.201243 24.8445 0.0722393 24.7108 0.0715942 24.2458C0.0715942 23.6671 0.0715942 23.0928 0.0715942 22.5167C0.0715942 22.145 0.225754 21.9913 0.59535 21.9823C0.821106 21.9771 1.04686 21.9784 1.27262 21.9759C1.30114 21.9715 1.32921 21.9647 1.35647 21.9553ZM14.9412 13.9016V23.9623H15.9984V23.6536C15.9984 22.7803 15.9926 21.907 16.0023 21.0338C16.0087 20.4203 16.2119 19.8763 16.7073 19.4904C17.4355 18.9233 18.2463 18.8474 19.0764 19.221C19.8685 19.5785 20.2052 20.2499 20.2162 21.091C20.2278 21.9553 20.2162 22.8195 20.2162 23.6838V23.9558H25.6273C25.621 23.8509 25.621 23.7457 25.6273 23.6407C25.6608 23.3796 25.5853 23.28 25.2893 23.2549C23.9405 23.1314 22.793 22.59 21.9126 21.5366C21.3508 20.864 20.9664 20.0936 20.6548 19.2859C20.3052 18.3805 20.0162 17.4481 19.6137 16.5677C18.83 14.8476 16.7724 13.7016 14.9412 13.9016ZM5.50524 16.7703V23.968H7.21905V23.6915C7.21905 22.9443 7.2126 22.1971 7.21905 21.4492C7.23518 19.9631 8.22141 18.967 9.7127 18.9213C11.0672 18.8802 12.1438 19.7573 12.2928 21.0691C12.3534 21.6125 12.3147 22.1668 12.3186 22.716C12.3186 23.1276 12.3186 23.5391 12.3186 23.961H14.0395V16.7703H5.50524ZM5.50524 8.73659V15.8533H14.0317V8.73659H5.50524ZM4.01847 4.776H15.4708C15.4547 4.74192 15.4514 4.72198 15.4392 4.71169C13.884 3.55419 12.3347 2.39025 10.7699 1.2469C10.1707 0.808976 9.376 0.83277 8.76259 1.25269C8.55424 1.3948 8.35493 1.55042 8.1524 1.70283L4.01847 4.776ZM4.59899 23.9674V18.8995H3.52309C3.52309 19.3837 3.52309 19.8499 3.52309 20.3142C3.52309 20.7148 3.36764 20.864 2.96193 20.8692C2.72327 20.8724 2.48526 20.8692 2.23112 20.8692C2.23112 21.3804 2.23112 21.8472 2.23112 22.3135C2.23112 22.6993 2.08083 22.8517 1.69253 22.8613C1.45129 22.8671 1.21005 22.8613 0.954625 22.8613V23.968L4.59899 23.9674ZM12.1019 7.84081V5.68914H7.44675V7.84081H12.1019ZM14.9341 12.9853C15.3018 13.0284 15.6591 13.0599 16.0132 13.1139C17.1936 13.2952 18.2805 13.6926 19.1835 14.5061C19.9408 15.1865 20.4039 16.0533 20.7593 16.9883C21.1199 17.9368 21.4398 18.904 21.8558 19.8274C22.4957 21.2486 23.5748 22.1604 25.1661 22.3778C25.4421 22.4204 25.7214 22.4391 26.0007 22.4337C26.0975 22.4299 26.1891 22.2942 26.2832 22.2189C26.1966 22.1355 26.1032 22.0593 26.004 21.9913C25.9491 21.9598 25.8627 21.9823 25.7905 21.9804C24.2392 21.9398 23.053 21.273 22.3789 19.8666C21.961 18.9946 21.6462 18.0725 21.3076 17.1658C20.9728 16.2655 20.5942 15.398 19.9614 14.6617C18.9597 13.4959 17.6458 12.9255 16.161 12.6837C15.7585 12.6194 15.3502 12.5904 14.9354 12.5448L14.9341 12.9853ZM6.53146 7.84081V5.68785H5.50588V7.84081H6.53146ZM14.035 7.84081V5.68142H13.0229V7.84274L14.035 7.84081Z" fill="#B68401"/>
<path id="Vector_2" d="M14.1353 24.9172H12.0261C11.5514 24.9172 11.3811 24.7468 11.3811 24.2677C11.3811 23.9275 11.3811 23.5873 11.3811 23.2465C11.3811 22.6678 11.3811 22.0723 11.3811 21.4858C11.3811 20.8994 11.1231 20.3926 10.6832 20.0981C10.2433 19.8036 9.67051 19.7534 9.11966 19.9695C8.50625 20.2113 8.16503 20.7315 8.15858 21.4344C8.15213 22.0594 8.15342 22.6954 8.15471 23.3102C8.15471 23.6304 8.15471 23.9507 8.15471 24.2709C8.15471 24.7526 7.99152 24.914 7.50969 24.914C5.2246 24.914 2.93951 24.914 0.654424 24.914C0.15905 24.914 -0.000270508 24.7526 -0.000915527 24.251V23.968C-0.000915527 23.487 -0.000915527 23.0064 -0.000915527 22.5263C-0.000915527 22.1225 0.181625 21.9379 0.586052 21.9283C0.725376 21.925 0.864701 21.9244 1.00402 21.9238C1.09046 21.9238 1.17754 21.9238 1.26203 21.9238C1.26885 21.9218 1.27553 21.9195 1.28203 21.9167H1.29041V21.5418C1.29041 21.2202 1.29041 20.8987 1.29041 20.5817C1.29041 20.1058 1.45618 19.9438 1.94059 19.9386C2.09217 19.9386 2.24375 19.9386 2.4063 19.9386H2.58174V19.5669C2.58174 19.2454 2.58174 18.9368 2.58174 18.6268C2.58174 18.1053 2.73268 17.9542 3.25063 17.9522H4.52906V5.73028H4.34136H3.88533C3.5196 5.73028 3.14226 5.73028 2.77073 5.73028C2.57271 5.73028 2.29664 5.70006 2.19022 5.38625C2.08895 5.08337 2.276 4.89559 2.44822 4.76634C3.51036 3.97881 4.57206 3.18978 5.63333 2.39925L6.77437 1.5562L7.17299 1.25846C7.4826 1.02696 7.80318 0.787744 8.12181 0.556244C9.14804 -0.187131 10.4129 -0.185844 11.4224 0.560745C12.7576 1.5472 14.1108 2.55422 15.4215 3.53038L17.0702 4.75734L17.0869 4.76956C17.1179 4.79271 17.1514 4.8165 17.1798 4.84094C17.2639 4.90331 17.3253 4.99123 17.3549 5.09145C17.3844 5.19166 17.3805 5.29874 17.3437 5.39654C17.3136 5.49714 17.2504 5.5847 17.1643 5.64503C17.0781 5.70537 16.974 5.73495 16.8689 5.729H15.0022V11.6046L15.2428 11.6265C15.4583 11.6458 15.6814 11.6657 15.9008 11.6908C17.9119 11.9429 19.4387 12.674 20.5688 13.9254C21.2299 14.6578 21.7298 15.5536 22.1813 16.8314L22.211 16.915C22.4593 17.6114 22.716 18.3297 22.9934 19.03C23.5339 20.3888 24.5034 21.0498 25.9566 21.0498H26.0211C26.2142 21.0454 26.4056 21.0877 26.5787 21.1732C26.7518 21.2586 26.9015 21.3847 27.0151 21.5405C27.121 21.6901 27.1885 21.8633 27.2116 22.0449C27.2348 22.2265 27.2129 22.411 27.148 22.5822C27.0938 22.7314 26.9815 22.8555 26.8738 22.9758C26.8168 23.0372 26.7632 23.1016 26.7132 23.1687L26.6945 23.1938C26.6384 23.271 26.5745 23.3578 26.5694 23.4324C26.5565 23.6169 26.5584 23.8073 26.5603 23.9905C26.5603 24.1076 26.5603 24.2285 26.5603 24.3474C26.5526 24.7262 26.3668 24.9108 25.9953 24.9114C24.0209 24.9153 21.9517 24.9153 19.845 24.9114C19.4522 24.9114 19.2761 24.732 19.2755 24.3326C19.2748 23.9333 19.2755 23.5218 19.2755 23.116C19.2755 22.4729 19.2755 21.8016 19.2723 21.145C19.2684 20.7257 19.1097 20.3733 18.8246 20.1547C18.5395 19.9361 18.168 19.8743 17.7694 19.9746C17.2372 20.109 16.9308 20.5245 16.9308 21.1135C16.9276 21.808 16.9308 22.5141 16.9308 23.1977C16.9308 23.5475 16.9308 23.8973 16.9308 24.2471C16.9308 24.7506 16.7722 24.9127 16.28 24.9133L14.1353 24.9172ZM9.80596 19.7052C10.1438 19.703 10.4744 19.8023 10.7548 19.9901C11.2315 20.3116 11.5062 20.855 11.5095 21.4833C11.5095 22.071 11.5095 22.6678 11.5095 23.2452C11.5095 23.5861 11.5095 23.9262 11.5095 24.2664C11.5095 24.6748 11.6204 24.7866 12.0255 24.7873C13.38 24.7873 14.81 24.7873 16.2794 24.7873C16.7032 24.7873 16.8006 24.6863 16.8012 24.2497C16.8012 23.8999 16.8012 23.55 16.8012 23.2002C16.8012 22.5167 16.8012 21.8106 16.8012 21.1154C16.8012 20.4724 17.1553 20.0004 17.7397 19.8525C18.1777 19.7419 18.5918 19.8139 18.9059 20.0557C19.22 20.2975 19.4 20.6872 19.4039 21.1489C19.409 21.8067 19.4077 22.4749 19.4071 23.1218C19.4071 23.5269 19.4071 23.932 19.4071 24.3371C19.4071 24.6658 19.5271 24.7873 19.8476 24.7873C21.9543 24.7873 24.0235 24.7873 25.9979 24.7873C26.2972 24.7873 26.4275 24.6587 26.4339 24.3494C26.4339 24.2323 26.4339 24.1121 26.4339 23.9963C26.4339 23.8105 26.43 23.6182 26.4429 23.4285C26.4507 23.3166 26.5262 23.2137 26.5926 23.1224L26.6107 23.098C26.6635 23.0277 26.7201 22.9603 26.7803 22.8961C26.8845 22.7952 26.9689 22.676 27.0293 22.5443C27.087 22.3926 27.1066 22.2291 27.0862 22.0681C27.0659 21.9071 27.0062 21.7535 26.9125 21.6209C26.8108 21.4819 26.6768 21.3696 26.522 21.2935C26.3672 21.2175 26.1962 21.18 26.0237 21.1842H26.0101C24.4918 21.2016 23.4346 20.4936 22.8741 19.0834C22.5961 18.3831 22.3393 17.6616 22.0904 16.9613L22.0607 16.8777C21.6092 15.6166 21.1209 14.7337 20.4714 14.0148C19.3632 12.7872 17.8623 12.0695 15.8833 11.8213C15.666 11.7943 15.4447 11.7744 15.2299 11.757L14.93 11.7294L14.8719 11.7236V5.60167H16.8689C16.9469 5.60711 17.0243 5.58576 17.0884 5.54118C17.1525 5.4966 17.1993 5.43148 17.2211 5.35667C17.2491 5.2837 17.2523 5.20357 17.2302 5.12862C17.208 5.05368 17.1618 4.98807 17.0986 4.9419C17.0695 4.9181 17.0399 4.89624 17.0095 4.87373L16.9928 4.86151L15.3447 3.63456C14.036 2.65968 12.6827 1.65201 11.3456 0.665563C10.3826 -0.0463012 9.17642 -0.0475871 8.19793 0.661705C7.87993 0.892563 7.56 1.13178 7.25039 1.36264C7.11752 1.46253 6.98443 1.56199 6.85113 1.66102L5.71589 2.50535C4.65548 3.29417 3.59421 4.08213 2.53208 4.86923C2.31922 5.02678 2.25665 5.16504 2.31728 5.34509C2.37792 5.52515 2.51079 5.60231 2.7688 5.60231C3.14097 5.59717 3.51896 5.59846 3.88468 5.60231H4.34071H4.65741V18.0725H3.25321C2.80492 18.0725 2.71462 18.1657 2.71333 18.6184C2.71333 18.9284 2.71333 19.2383 2.71333 19.5586V20.0595H2.40952C2.24827 20.0595 2.09669 20.0595 1.94575 20.0595C1.5323 20.064 1.42458 20.1701 1.42329 20.574C1.42329 20.8955 1.42329 21.2112 1.42329 21.5328V22.0016L1.37814 22.0157C1.35685 22.0221 1.34073 22.0279 1.32911 22.0324C1.30871 22.0412 1.28682 22.046 1.26461 22.0466C1.17818 22.0466 1.0911 22.0466 1.00661 22.0466C0.867926 22.0466 0.729247 22.0466 0.591212 22.0511C0.256447 22.0588 0.131313 22.1868 0.130023 22.5212C0.130023 23.0013 0.130023 23.4815 0.130023 23.9616V24.2497C0.130023 24.6799 0.233872 24.7847 0.657005 24.7847C2.94166 24.7847 5.22654 24.7847 7.51163 24.7847C7.91992 24.7847 8.02764 24.678 8.02764 24.2703C8.02764 23.95 8.02764 23.63 8.02764 23.3102C8.02764 22.6948 8.02764 22.0588 8.03151 21.4325C8.03861 20.6743 8.40885 20.1116 9.07386 19.8493C9.30667 19.7559 9.55502 19.707 9.80596 19.7052ZM4.66387 24.0323H0.888566V22.8009H1.19044C1.36266 22.8009 1.5252 22.8009 1.68968 22.8009C2.04315 22.7925 2.16313 22.6723 2.16506 22.3173C2.16506 21.9958 2.16506 21.6742 2.16506 21.3366V20.8087H2.46499C2.63334 20.8087 2.79653 20.8087 2.95972 20.8087C3.32868 20.8042 3.45445 20.6801 3.45703 20.3174C3.45703 19.9959 3.45703 19.6743 3.45703 19.34C3.45703 19.1953 3.45703 19.0493 3.45703 18.9014V18.8371H4.66258L4.66387 24.0323ZM1.01757 23.9037H4.53486V18.9638H3.58733C3.58733 19.0892 3.58733 19.2139 3.58733 19.3374C3.58733 19.6743 3.58733 19.992 3.58733 20.3168C3.5841 20.7508 3.4035 20.9296 2.9623 20.9354C2.79911 20.9354 2.63463 20.9354 2.46564 20.9354H2.29535V21.3347C2.29535 21.6717 2.29535 21.9938 2.29535 22.316C2.29535 22.7398 2.11862 22.9173 1.69355 22.9276C1.52778 22.9321 1.36395 22.9308 1.19108 22.9276H1.01886L1.01757 23.9037ZM7.28329 24.0323H5.44047V16.706H14.1037V24.0233H12.257V23.5681C12.257 23.2812 12.257 22.9977 12.257 22.7141C12.257 22.5501 12.257 22.3829 12.2616 22.2208C12.2755 21.8384 12.2656 21.4555 12.2319 21.0743C12.09 19.803 11.0567 18.9425 9.72082 18.9837C8.2592 19.0281 7.30457 19.9959 7.28909 21.4485C7.28329 21.963 7.28458 22.4871 7.28909 22.9919C7.28909 23.2238 7.28909 23.4557 7.28909 23.6877L7.28329 24.0323ZM5.56947 23.9037H7.15429V23.6915C7.15429 23.46 7.15429 23.2281 7.15429 22.9957C7.15429 22.489 7.15429 21.9668 7.15429 21.4485C7.17106 19.9213 8.17406 18.904 9.7105 18.857C11.1173 18.8152 12.2041 19.7213 12.3551 21.0621C12.3899 21.4488 12.4001 21.8373 12.3854 22.2253C12.3854 22.3861 12.3802 22.5527 12.3815 22.7154C12.3815 22.9989 12.3815 23.2832 12.3815 23.57V23.8967H13.9734V16.8346H5.56947V23.9037ZM16.0627 24.0266H14.8765V13.8444L14.9339 13.838C16.8044 13.6335 18.8878 14.8199 19.6748 16.5388C19.9399 17.1175 20.1585 17.7284 20.3707 18.3188C20.4817 18.6287 20.5971 18.949 20.7171 19.2609C21.0796 20.1997 21.4757 20.9097 21.9646 21.4948C22.7992 22.4935 23.9209 23.0645 25.2974 23.1906C25.4715 23.206 25.576 23.2472 25.638 23.3243C25.6999 23.4015 25.7134 23.4967 25.6941 23.6497C25.6879 23.7138 25.6866 23.7783 25.6902 23.8426C25.6902 23.8786 25.6902 23.9166 25.6902 23.9565V24.0208H20.1521V23.6851C20.1521 23.4214 20.1521 23.158 20.1521 22.8948C20.1521 22.3044 20.1559 21.6935 20.1476 21.0942C20.1359 20.2158 19.7651 19.6062 19.0459 19.2814C18.2196 18.9085 17.4449 18.9966 16.7431 19.5432C16.2987 19.8891 16.0691 20.3913 16.0627 21.035C16.0556 21.6472 16.0568 22.2697 16.0581 22.8716C16.0581 23.1327 16.0581 23.3936 16.0581 23.6542L16.0627 24.0266ZM15.008 23.8979H15.9336V23.6536C15.9336 23.3925 15.9336 23.1316 15.9336 22.871C15.9336 22.2691 15.9336 21.646 15.9382 21.0331C15.9453 20.3483 16.191 19.8113 16.6683 19.4409C17.3998 18.8712 18.2422 18.7747 19.1033 19.1638C19.8721 19.511 20.2688 20.1592 20.2811 21.0929C20.2895 21.6942 20.2875 22.3051 20.2856 22.8967C20.2856 23.1599 20.2856 23.4231 20.2856 23.6864V23.8941H25.567C25.567 23.8786 25.567 23.8632 25.567 23.8484C25.563 23.7773 25.5645 23.7059 25.5715 23.6349C25.5864 23.5192 25.5773 23.4491 25.5431 23.406C25.509 23.3629 25.4258 23.3321 25.2916 23.3198C23.8796 23.1912 22.7283 22.6048 21.873 21.5784C21.375 20.9823 20.97 20.2608 20.6042 19.3084C20.4836 18.9953 20.3682 18.6737 20.2566 18.3631C20.0456 17.7754 19.8276 17.1683 19.5651 16.5935C18.8079 14.9395 16.818 13.7929 15.0132 13.9614L15.008 23.8979ZM25.8798 22.4974C25.6378 22.4942 25.3962 22.4747 25.1568 22.4388C23.6049 22.2266 22.4748 21.3559 21.7969 19.8512C21.504 19.2017 21.2551 18.5207 21.0145 17.8616C20.9126 17.5812 20.8068 17.2918 20.6991 17.0082C20.2766 15.8983 19.796 15.1434 19.14 14.5511C18.3325 13.8251 17.3069 13.3749 16.0033 13.175C15.7627 13.1377 15.5253 13.1107 15.2738 13.0849C15.159 13.0721 15.0435 13.0599 14.9268 13.0457L14.8694 13.0393V12.4682L14.941 12.476C15.07 12.4907 15.2028 12.5036 15.3325 12.5158C15.6086 12.5428 15.8937 12.5705 16.171 12.6155C17.8268 12.8824 19.0826 13.5364 20.0102 14.6148C20.6552 15.3678 21.0422 16.2732 21.3679 17.1394C21.4329 17.3143 21.4974 17.4899 21.5614 17.6661C21.8265 18.3882 22.1 19.1355 22.4361 19.8364C23.0766 21.1733 24.2054 21.8723 25.7902 21.9135C25.8115 21.9135 25.8321 21.9135 25.8547 21.9135C25.9158 21.9028 25.9787 21.9107 26.0353 21.936C26.1113 21.9831 26.1819 22.0385 26.2456 22.1012C26.2714 22.1244 26.2972 22.1475 26.3236 22.17L26.3836 22.2202L26.3223 22.2691C26.2936 22.2934 26.2662 22.3194 26.2404 22.3469C26.1688 22.4196 26.0946 22.4941 26.0024 22.498L25.8798 22.4974ZM14.9984 12.9248L15.288 12.957C15.5408 12.9846 15.7795 13.0103 16.0227 13.0476C17.352 13.2521 18.3996 13.7126 19.2265 14.4553C19.8986 15.0598 20.3875 15.8327 20.8197 16.9632C20.9274 17.2474 21.0332 17.5375 21.1357 17.8185C21.3757 18.475 21.624 19.1541 21.9143 19.7997C22.5728 21.2608 23.6694 22.1064 25.1742 22.3122C25.4469 22.3542 25.7227 22.3727 25.9985 22.3675C26.0392 22.3675 26.0972 22.307 26.1488 22.2549L26.1856 22.2176L26.1598 22.1945C26.1025 22.1382 26.0394 22.0882 25.9714 22.0453C25.9375 22.0358 25.9018 22.0336 25.8669 22.0389C25.8405 22.0389 25.8147 22.0427 25.7902 22.0421C24.1525 21.999 22.9856 21.2756 22.3226 19.8917C21.9839 19.1843 21.7085 18.4352 21.4428 17.7104C21.3783 17.5349 21.3138 17.3587 21.2493 17.1838C20.9306 16.3292 20.5481 15.4359 19.9147 14.699C19.0078 13.6444 17.7778 13.0045 16.1536 12.7422C15.8801 12.6985 15.6092 12.6721 15.3228 12.6438C15.2157 12.6335 15.1087 12.6232 15.0003 12.6116L14.9984 12.9248ZM14.0953 15.9176H5.44111V8.67227H14.096L14.0953 15.9176ZM5.56947 15.789H13.967V8.80088H5.57012L5.56947 15.789ZM14.0992 7.90703H12.9582V5.61711H14.0992V7.90703ZM13.0872 7.77842H13.9702V5.74572H13.0872V7.77842ZM6.5957 7.90703H5.44111V5.62354H6.5957V7.90703ZM5.57012 7.77842H6.46669V5.75215H5.57012V7.77842ZM12.1661 7.90703H7.38198V5.62482H12.1661V7.90703ZM7.51098 7.77842H12.0371V5.75343H7.51098V7.77842ZM15.5737 4.84222H3.8247L8.11343 1.65394L8.27662 1.53176C8.42239 1.4218 8.57268 1.30862 8.72813 1.2038C9.38347 0.753662 10.2007 0.753662 10.8103 1.1993C11.9616 2.04106 13.1239 2.9079 14.2482 3.74645C14.6593 4.05255 15.07 4.35864 15.4802 4.66474C15.4985 4.67983 15.512 4.69996 15.5189 4.72261C15.5221 4.73033 15.526 4.73998 15.5312 4.75091L15.5737 4.84222ZM4.213 4.71361H15.3293L14.1682 3.84805C13.0446 3.01208 11.8823 2.14267 10.7316 1.30155C10.1665 0.889347 9.40798 0.89192 8.79651 1.30862C8.64557 1.41215 8.49593 1.52405 8.35209 1.63015L8.19341 1.75362L4.213 4.71361Z" fill="#B68401"/>
<path id="Vector_3" d="M9.78172 9.52935C10.333 9.53118 10.8713 9.69623 11.3283 10.0036C11.7853 10.3109 12.1404 10.7467 12.3485 11.2556C12.5567 11.7645 12.6085 12.3235 12.4974 12.8619C12.3863 13.4002 12.1172 13.8934 11.7245 14.279C11.3317 14.6646 10.8328 14.9252 10.2913 15.0277C9.74967 15.1302 9.18976 15.0699 8.68257 14.8546C8.17538 14.6393 7.74379 14.2786 7.44257 13.8184C7.14135 13.3581 6.98408 12.819 6.99073 12.2694C6.99737 11.5374 7.29491 10.8379 7.81811 10.3242C8.3413 9.81057 9.04745 9.52473 9.78172 9.52935ZM9.73464 14.2018C9.98546 14.2082 10.2351 14.1649 10.469 14.0743C10.7028 13.9838 10.9164 13.8478 11.0971 13.6743C11.2778 13.5008 11.4222 13.2932 11.5218 13.0637C11.6215 12.8341 11.6744 12.5871 11.6774 12.3369C11.6949 11.2875 10.8705 10.42 9.83526 10.4001C8.76259 10.3788 7.88666 11.1955 7.86473 12.2373C7.84151 13.3202 8.66262 14.1825 9.73464 14.2018Z" fill="#B68401"/>
<path id="Vector_4" d="M9.78816 15.1401H9.77462C9.39749 15.1415 9.02387 15.068 8.67558 14.9238C8.32729 14.7796 8.01131 14.5677 7.74612 14.3003C7.48092 14.033 7.27183 13.7157 7.13105 13.3669C6.99028 13.0181 6.92064 12.6448 6.92621 12.2689C6.92674 11.8987 7.00115 11.5324 7.14512 11.1913C7.28908 10.8501 7.49971 10.541 7.76474 10.2818C8.30184 9.75491 9.02626 9.4613 9.77978 9.46512C10.5307 9.46883 11.2498 9.7676 11.7811 10.2966C12.3125 10.8256 12.6131 11.5421 12.6179 12.2907C12.621 13.0429 12.3244 13.7656 11.7933 14.2998C11.2622 14.8341 10.5401 15.1364 9.78558 15.1401H9.78816ZM9.78042 9.59374C8.28527 9.59374 7.06296 10.7937 7.05522 12.2695C7.04973 12.6285 7.11611 12.9851 7.25048 13.3183C7.38485 13.6514 7.58451 13.9545 7.83779 14.2098C8.09106 14.4652 8.39286 14.6676 8.72554 14.8052C9.05821 14.9429 9.41508 15.013 9.77526 15.0115H9.78816C10.5083 15.0078 11.1975 14.7192 11.7044 14.2091C12.2113 13.6991 12.4944 13.0093 12.4914 12.2914C12.4879 11.5761 12.2013 10.8912 11.694 10.3855C11.1868 9.87976 10.4998 9.59407 9.78236 9.59052L9.78042 9.59374ZM9.77139 14.2668H9.73334C9.47478 14.2641 9.21934 14.2101 8.98192 14.108C8.7445 14.0058 8.52983 13.8576 8.35042 13.672C8.1681 13.481 8.0256 13.2559 7.93116 13.0096C7.83671 12.7634 7.79221 12.5009 7.80021 12.2373C7.82279 11.1679 8.73936 10.3152 9.83654 10.3371C10.9053 10.3577 11.76 11.256 11.7419 12.3396C11.7355 12.8554 11.5247 13.3477 11.1555 13.7091C10.7863 14.0705 10.2888 14.2717 9.77139 14.2688V14.2668ZM9.7959 10.4644C8.78387 10.4644 7.94986 11.2535 7.92922 12.2393C7.92173 12.4861 7.9635 12.7319 8.05208 12.9625C8.14066 13.1931 8.27429 13.4039 8.44523 13.5826C8.61268 13.7557 8.81294 13.8939 9.0344 13.9891C9.25586 14.0844 9.49409 14.1349 9.73527 14.1376C9.9775 14.1437 10.2185 14.1019 10.4444 14.0144C10.6703 13.927 10.8765 13.7957 11.0511 13.6283C11.2257 13.4608 11.3652 13.2604 11.4615 13.0387C11.5579 12.8171 11.6091 12.5786 11.6123 12.337C11.629 11.3248 10.8312 10.485 9.83332 10.4657L9.7959 10.4644Z" fill="#B68401"/>
</g>
<defs>
<clipPath id="clip0_13_444">
<rect width="27.2243" height="24.9172" fill="white"/>
</clipPath>
</defs>
</svg>
