<svg width="30" height="26" viewBox="0 0 30 26" fill="none" xmlns="http://www.w3.org/2000/svg">
<g id="Capa_1" clip-path="url(#clip0_13_409)">
<path id="Vector" d="M0 8.4969C0.0474138 8.31383 0.0908768 8.12944 0.142242 7.94703C0.371823 7.11649 0.871696 6.38618 1.56283 5.87156C2.25396 5.35694 3.09691 5.08738 3.9584 5.10549C4.17374 5.10549 4.25473 5.03635 4.32256 4.84603C4.83555 3.4111 5.35908 1.98013 5.87997 0.547834C6.0479 0.0868665 6.16709 0.00257526 6.67021 0.00257526C9.52382 0.00257526 12.3759 0.00257526 15.2264 0.00257526C15.3319 -9.82365e-05 15.4374 0.00584805 15.5419 0.0203552C15.6681 0.0441015 15.7824 0.11022 15.8659 0.207769C15.9494 0.305319 15.997 0.428453 16.001 0.556797C16.005 0.685141 15.9651 0.811002 15.8878 0.913555C15.8105 1.01611 15.7006 1.0892 15.5761 1.12075C15.4345 1.14671 15.2906 1.15753 15.1467 1.15302C12.4964 1.15302 9.84606 1.15302 7.19571 1.15302C6.97379 1.15302 6.8625 1.20438 6.78281 1.43223C6.32185 2.7427 5.83849 4.04526 5.35645 5.36758L6.03144 5.72846C6.61318 5.21159 7.31945 4.85506 8.08077 4.69391C8.11297 4.68139 8.1421 4.66209 8.16619 4.63732C8.19027 4.61255 8.20875 4.58289 8.22038 4.55035C8.41398 3.96822 8.59376 3.38213 8.78737 2.79999C8.91907 2.40093 9.21607 2.22971 9.55257 2.33902C9.87788 2.4457 10.005 2.76772 9.87459 3.1714C9.72181 3.64488 9.56311 4.1177 9.39914 4.61489C9.59669 4.65835 9.7903 4.69589 9.97996 4.74264C10.8854 4.96588 11.6263 5.44858 12.2433 6.14464C12.3406 6.25257 12.4747 6.32022 12.6193 6.3343C17.229 6.34352 21.8387 6.34593 26.4484 6.34154C26.5142 6.34154 26.5801 6.33364 26.6716 6.32771C26.6459 6.2342 26.6295 6.15386 26.6011 6.07747C26.0381 4.52796 25.4685 2.9824 24.9153 1.42762C24.8409 1.22019 24.7487 1.14973 24.5301 1.1517C23.2723 1.16158 22.0139 1.15829 20.7561 1.1517C20.3359 1.1517 20.0942 0.976535 20.0514 0.663735C20.0368 0.585531 20.0392 0.505088 20.0585 0.427897C20.0778 0.350706 20.1135 0.278584 20.1632 0.216449C20.2129 0.154315 20.2754 0.103632 20.3465 0.0678591C20.4175 0.0320859 20.4955 0.0120643 20.575 0.00916042C20.8041 -0.00796125 21.0359 0.00125793 21.2658 0.00125793C22.5236 0.00125793 23.7813 0.00125793 25.0391 0.00125793C25.5304 0.00125793 25.6502 0.0881837 25.8201 0.555737C26.541 2.5379 27.2619 4.51962 27.9827 6.50091C28.2237 7.16338 27.9952 7.48869 27.2827 7.48869H26.962C26.9548 7.59537 26.9442 7.68625 26.9436 7.77779C26.9436 8.80575 26.9436 9.83305 26.9396 10.8603C26.9396 11.0329 26.9798 11.129 27.1536 11.2067C28.9422 12.0088 29.6001 14.0595 28.6136 15.7506C28.5339 15.8875 28.5267 15.9679 28.632 16.0976C29.5704 17.2619 29.7917 18.5539 29.176 19.921C28.5477 21.3171 27.4052 21.9875 25.8833 22.0349C25.855 22.0349 25.8267 22.0401 25.7516 22.0474V22.3733C25.7516 23.0167 25.7516 23.6601 25.7516 24.3035C25.7516 24.8527 25.5488 25.0634 25.0108 25.0634C18.2794 25.0634 11.5481 25.0634 4.81711 25.0634C4.26593 25.0634 4.07035 24.8659 4.06969 24.3173C4.06969 22.8027 4.06442 21.2828 4.06969 19.7656C4.06969 19.543 4.02293 19.4581 3.77796 19.4311C1.91828 19.2263 0.356921 17.7149 0.0612429 15.8599C0.0457954 15.7858 0.026452 15.7126 0.00329283 15.6406V14.662C0.0533408 14.4487 0.0981204 14.234 0.153437 14.0219C0.362848 13.2245 0.784962 12.5508 1.38949 11.9726C0.834352 11.4833 0.4287 10.9091 0.204143 10.2189C0.12512 9.97529 0.0724377 9.72439 0.00658516 9.47678L0 8.4969ZM7.80814 19.8235C7.95236 19.7893 8.04521 19.7722 8.1374 19.7445C8.72542 19.5642 9.23413 19.1883 9.57909 18.6791C9.92406 18.1699 10.0846 17.5581 10.034 16.9451C10.005 16.5691 10.1044 16.3169 10.4291 16.1022C11.779 15.2172 12.0583 13.4549 11.0836 12.1418C10.8025 11.7645 10.8202 11.5228 11.1574 11.185C11.4792 10.8668 11.7292 10.4833 11.8904 10.0604C12.0516 9.63754 12.1203 9.185 12.0919 8.73331C12.0635 8.28162 11.9387 7.84126 11.7258 7.44186C11.5129 7.04247 11.2169 6.69333 10.8578 6.41793C9.66781 5.496 7.83316 5.56185 6.92571 6.49893C7.02449 7.02114 7.145 7.49265 7.19373 7.97073C7.20539 8.05004 7.19966 8.13093 7.17696 8.2078C7.15426 8.28467 7.11512 8.3557 7.06226 8.41595C7.0094 8.4762 6.94407 8.52425 6.87081 8.55676C6.79754 8.58927 6.71808 8.60547 6.63794 8.60424C6.29155 8.61346 6.05383 8.36848 6.05448 7.96744C6.05448 7.28258 5.71073 6.82951 5.12069 6.53778C4.48488 6.22163 3.75114 6.16477 3.07421 6.3792C2.39729 6.59362 1.8301 7.06257 1.49228 7.68714C1.15445 8.31171 1.0724 9.04306 1.26344 9.72696C1.45447 10.4109 1.90364 10.9938 2.51623 11.3529C3.1089 11.7026 3.12536 12.1432 2.56035 12.5205C2.13749 12.8025 1.78887 13.1823 1.54405 13.6277C1.29923 14.0731 1.16542 14.571 1.15398 15.0791C1.14255 15.5873 1.25381 16.0907 1.47834 16.5466C1.70287 17.0026 2.03405 17.3977 2.44379 17.6985C2.91128 18.0542 3.47514 18.2607 4.06179 18.2911V17.9553C4.06179 17.466 4.06179 16.9761 4.06771 16.4868C4.07166 16.2148 4.21917 16.0344 4.47336 15.9534C4.58289 15.9132 4.70253 15.9099 4.81413 15.9439C4.92572 15.9778 5.02318 16.0473 5.09172 16.1417C5.14045 16.201 5.18721 16.2622 5.23725 16.3202C5.46223 16.5902 5.73866 16.8128 6.05046 16.9751C6.36226 17.1373 6.70321 17.2359 7.05347 17.2652C7.66853 17.3218 7.80682 17.4746 7.80748 18.1054C7.80814 18.6606 7.80814 19.2157 7.80814 19.8235ZM24.7467 12.4586C24.9351 12.6489 25.0931 12.8023 25.2439 12.9624C25.5212 13.2567 25.5383 13.5899 25.2946 13.829C25.051 14.068 24.702 14.0265 24.4036 13.7493C24.1244 13.4859 23.8472 13.2139 23.5304 13.0038C23.1627 12.7612 22.7249 12.6475 22.2856 12.6805C21.8463 12.7135 21.4304 12.8914 21.1031 13.1863C20.771 13.4828 20.5458 13.8805 20.4625 14.3178C20.3792 14.7552 20.4423 15.2078 20.6421 15.6057C20.8759 16.0798 20.8397 16.2445 20.4406 16.5684C20.0252 16.897 19.756 17.3761 19.6914 17.9019C19.6268 18.4276 19.772 18.9577 20.0956 19.3771C20.7541 20.2397 22.0053 20.4096 22.9015 19.757C23.3507 19.4278 23.5969 19.4646 23.942 19.9091C24.4115 20.5124 25.0306 20.8443 25.7918 20.8798C26.3014 20.9018 26.8052 20.7639 27.2325 20.4855C27.6599 20.207 27.9895 19.8019 28.1752 19.3268C28.361 18.8517 28.3935 18.3305 28.2683 17.836C28.1431 17.3415 27.8664 16.8986 27.477 16.5691C27.0028 16.1602 26.9903 15.9284 27.4111 15.445C27.7235 15.0995 27.8995 14.6522 27.9063 14.1866C27.9182 13.3515 27.5586 12.7154 26.8211 12.3308C26.1316 11.9713 25.4408 12.0266 24.7467 12.4586ZM19.2066 14.4065H18.9333C18.1654 14.4065 17.3969 14.4124 16.6284 14.4065C16.1905 14.4012 15.9633 14.1885 15.962 13.7855C15.9576 12.2788 15.9576 10.7717 15.962 9.26408C15.962 8.87687 16.1806 8.65231 16.5711 8.65099C18.3373 8.64529 20.1035 8.64529 21.8696 8.65099C22.2562 8.65099 22.4656 8.88148 22.4689 9.27396C22.4748 9.92721 22.4689 10.5798 22.4689 11.2324C22.4689 11.3246 22.4788 11.4168 22.4821 11.4807C22.8469 11.5643 23.1867 11.6229 23.5127 11.725C23.5808 11.7536 23.6558 11.7614 23.7283 11.7474C23.8008 11.7335 23.8676 11.6984 23.9203 11.6466C24.3711 11.2641 24.9295 11.0308 25.5185 10.9789C25.7339 10.9604 25.7898 10.886 25.7879 10.6806C25.7786 9.702 25.7846 8.72277 25.7826 7.74354C25.7826 7.66979 25.7688 7.59603 25.7609 7.51701H13.0395C13.1191 7.90422 13.1942 8.26641 13.2726 8.64638C13.5907 8.64638 13.8975 8.63848 14.2037 8.64638C14.591 8.65889 14.805 8.87621 14.8063 9.26671C14.8102 10.7642 14.8102 12.2617 14.8063 13.7592C14.8063 14.1661 14.5989 14.3788 14.1892 14.3999C13.9502 14.4124 13.7092 14.4045 13.4695 14.4045C12.8228 14.4045 12.8353 14.4091 12.6272 14.9972C12.5159 15.3113 12.3513 15.6063 12.2097 15.9093C12.1794 15.9751 12.1439 16.0337 12.0899 16.1345H18.9511C19.0179 16.1421 19.0854 16.1408 19.1519 16.1305C19.3363 16.0772 19.4943 15.9804 19.4575 15.7571C19.3863 15.3258 19.302 14.8971 19.2066 14.4065ZM11.2516 23.8965H14.8155V21.1729C14.6232 21.1729 14.452 21.1781 14.2814 21.1729C13.9278 21.1584 13.6888 20.9253 13.6921 20.5973C13.6954 20.2694 13.9278 20.0369 14.2847 20.0237C14.4625 20.0171 14.6417 20.0237 14.8168 20.0237V17.3027H11.2516V23.8965ZM16.0134 17.3073V20.0211H16.4085C16.8774 20.0211 17.1394 20.2331 17.1329 20.6039C17.1263 20.9746 16.8695 21.1715 16.3927 21.1729H16.0094V23.888H19.5892C19.5892 22.7889 19.5925 21.7148 19.5826 20.6414C19.5826 20.5532 19.5101 20.4498 19.443 20.3813C19.0037 19.9276 18.685 19.3994 18.6066 18.7758C18.5474 18.2997 18.5948 17.8104 18.5948 17.3073H16.0134ZM21.3184 9.82053H17.1289V13.2534C17.9277 13.2534 18.7094 13.2574 19.4956 13.2462C19.5674 13.2462 19.6629 13.1632 19.7057 13.0934C20.0492 12.5227 20.5562 12.0684 21.1611 11.7895C21.1994 11.77 21.2329 11.7421 21.2591 11.7079C21.2854 11.6737 21.3036 11.6341 21.3125 11.592C21.3237 11.0085 21.3184 10.4257 21.3184 9.82053ZM6.6083 23.8945C6.62608 23.8649 6.64386 23.8484 6.64386 23.832C6.64782 22.0671 6.65001 20.3018 6.65045 18.5361C6.65045 18.4795 6.61357 18.3873 6.57209 18.3721C6.12956 18.2115 5.68242 18.0626 5.23199 17.9112V23.8965L6.6083 23.8945ZM7.80814 23.8945H10.059V19.8993C9.44787 20.4682 8.77354 20.8337 7.98528 20.9654C7.81472 20.9937 7.8055 21.0971 7.80616 21.2288C7.81077 21.7273 7.80616 22.2258 7.80616 22.7243L7.80814 23.8945ZM22.2687 23.8945V21.3263L20.7607 21.2367V23.8959L22.2687 23.8945ZM13.6341 13.2304V9.74019C13.4398 9.81066 13.1791 9.83436 13.1527 9.9259C12.9723 10.5789 12.6611 11.1885 12.238 11.7177C12.3776 12.047 12.5212 12.3394 12.6266 12.645C12.8465 13.2864 12.8386 13.2896 13.5327 13.2534C13.567 13.248 13.6009 13.2403 13.6341 13.2304ZM23.4508 21.1412V23.8932H24.5907C24.5907 23.2228 24.594 22.5722 24.5861 21.9223C24.5805 21.8874 24.5678 21.8541 24.5486 21.8245C24.5295 21.7949 24.5043 21.7697 24.4748 21.7504C24.1462 21.5456 23.8083 21.3513 23.4508 21.1412Z" fill="#B68401"/>
<path id="Vector_2" d="M21.4515 2.30957C21.7208 2.31352 21.9124 2.44128 22.0027 2.69152C22.2042 3.26904 22.4017 3.84854 22.5822 4.43332C22.627 4.577 22.6139 4.73249 22.5457 4.86668C22.4776 5.00087 22.3598 5.10316 22.2173 5.15177C22.1467 5.17654 22.0719 5.18691 21.9972 5.18226C21.9226 5.17761 21.8496 5.15804 21.7826 5.1247C21.7156 5.09137 21.656 5.04494 21.6073 4.98817C21.5585 4.93141 21.5217 4.86544 21.4989 4.79419C21.2961 4.22654 21.1038 3.65625 20.926 3.08202C20.8009 2.67242 21.0577 2.31681 21.4515 2.30957Z" fill="#B68401"/>
<path id="Vector_3" d="M15.987 3.71859C15.987 4.00636 15.9969 4.29414 15.987 4.58126C15.9712 4.94806 15.746 5.17393 15.4187 5.17722C15.0914 5.18052 14.853 4.95201 14.8445 4.5885C14.8322 4.02305 14.8322 3.45715 14.8445 2.89082C14.8537 2.52929 15.0954 2.30473 15.4253 2.31066C15.7427 2.31593 15.9581 2.53588 15.9877 2.88358C15.9877 2.90268 15.9877 2.92177 15.9877 2.94153V3.71859H15.987Z" fill="#B68401"/>
<path id="Vector_4" d="M13.0974 3.00541C13.0072 3.52828 12.913 4.14334 12.7905 4.75248C12.7319 5.04618 12.4501 5.20949 12.1584 5.16932C11.8666 5.12915 11.6421 4.88813 11.6816 4.58719C11.7641 3.96159 11.8677 3.3395 11.9924 2.72092C12.051 2.42459 12.3316 2.27444 12.6318 2.32186C12.919 2.36532 13.106 2.60239 13.0974 3.00541Z" fill="#B68401"/>
<path id="Vector_5" d="M19.1433 4.46219C19.1618 4.86784 18.9649 5.12401 18.6725 5.16878C18.3643 5.21554 18.0923 5.05091 18.0304 4.7335C17.9158 4.14214 17.8171 3.54771 17.7341 2.95021C17.7211 2.87906 17.7227 2.80602 17.7386 2.73548C17.7546 2.66493 17.7846 2.59833 17.8269 2.53967C17.8692 2.48101 17.9229 2.43149 17.9848 2.39409C18.0467 2.35668 18.1156 2.33215 18.1872 2.32198C18.5085 2.266 18.7798 2.43195 18.8457 2.76582C18.9649 3.35652 19.0564 3.95249 19.1433 4.46219Z" fill="#B68401"/>
<path id="Vector_6" d="M17.4463 0.562502C17.4466 0.488068 17.4618 0.414448 17.491 0.345961C17.5201 0.277474 17.5627 0.215499 17.6161 0.163669C17.6695 0.111839 17.7328 0.0711994 17.8021 0.0441328C17.8714 0.0170663 17.9455 0.00411774 18.0199 0.00604726C18.0959 0.00574688 18.1711 0.0206601 18.2412 0.0499066C18.3113 0.0791532 18.3749 0.122141 18.4281 0.176336C18.4813 0.23053 18.5231 0.294834 18.5511 0.365455C18.5791 0.436076 18.5926 0.511584 18.591 0.587526C18.5893 0.663468 18.5724 0.738306 18.5414 0.807628C18.5103 0.87695 18.4657 0.939351 18.4101 0.991152C18.3546 1.04295 18.2892 1.0831 18.2179 1.10924C18.1466 1.13537 18.0707 1.14696 17.9949 1.14332C17.9205 1.14198 17.8471 1.12579 17.779 1.09572C17.711 1.06565 17.6496 1.0223 17.5985 0.968208C17.5474 0.914113 17.5076 0.850365 17.4815 0.780699C17.4554 0.711033 17.4434 0.636852 17.4463 0.562502Z" fill="#B68401"/>
<path id="Vector_7" d="M6.13154 11.3825C5.34855 11.349 4.77695 11.2186 4.28766 10.8327C3.94194 10.5587 3.8695 10.1965 4.09472 9.91074C4.31993 9.62494 4.66105 9.60519 5.01073 9.8607C5.50791 10.2249 6.04198 10.2749 6.62082 10.0997C7.04359 9.97198 7.40776 10.2314 7.39459 10.641C7.38603 10.8972 7.25893 11.0921 7.01791 11.1679C6.67285 11.268 6.31724 11.3378 6.13154 11.3825Z" fill="#B68401"/>
<path id="Vector_8" d="M7.172 14.0681C7.58226 14.0918 8.04257 13.9074 8.4232 13.5031C8.52145 13.3872 8.64308 13.2934 8.78012 13.2278C9.02839 13.129 9.25887 13.2068 9.41494 13.4254C9.57101 13.644 9.5664 13.8982 9.40111 14.1214C8.94607 14.7352 8.32837 15.098 7.58358 15.2344C7.34829 15.2757 7.10817 15.2819 6.87106 15.2528C6.43906 15.2008 6.20397 14.9235 6.24875 14.5778C6.29485 14.2071 6.58394 14.0148 7.172 14.0681Z" fill="#B68401"/>
<path id="Vector_9" d="M25.2821 18.5875C24.426 18.5809 23.7708 18.33 23.2407 17.7874C22.9569 17.4983 22.9417 17.1453 23.19 16.8924C23.4382 16.6396 23.7859 16.6514 24.0843 16.9293C24.5294 17.3442 25.0391 17.5036 25.6436 17.3844C26.0276 17.3086 26.3265 17.5068 26.3838 17.8394C26.4411 18.172 26.2133 18.4538 25.8346 18.5183C25.618 18.5559 25.398 18.5737 25.2821 18.5875Z" fill="#B68401"/>
</g>
<defs>
<clipPath id="clip0_13_409">
<rect width="29.5158" height="25.0661" fill="white"/>
</clipPath>
</defs>
</svg>
