<svg width="22" height="27" viewBox="0 0 22 27" fill="none" xmlns="http://www.w3.org/2000/svg">
<g id="Capa_1" clip-path="url(#clip0_13_450)">
<path id="Vector" d="M16.3022 26.6024C15.8009 26.4734 15.3195 26.3066 14.9024 25.9818C13.7253 25.0591 13.4543 23.3269 14.3045 22.1002C14.5334 21.7692 14.8279 21.6823 15.0906 21.8685C15.3533 22.0546 15.3664 22.3339 15.1534 22.6649C14.4183 23.791 14.9934 25.2391 16.2946 25.5391C17.2986 25.7708 18.3392 25.0826 18.5233 24.0654C18.7074 23.0483 17.9965 22.0436 16.9952 21.8926C16.9316 21.8886 16.8678 21.8886 16.8042 21.8926C16.8511 22.116 16.8932 22.3305 16.9421 22.5429C17.0166 22.8711 17.0993 23.1966 17.171 23.5255C17.2476 23.8806 17.0986 24.153 16.8035 24.2151C16.5084 24.2771 16.2581 24.1068 16.1753 23.751C15.8698 22.4408 15.5705 21.1306 15.2692 19.8204C15.2533 19.7515 15.2333 19.6887 15.2113 19.6067H14.9479C11.9776 19.6067 9.0072 19.6046 6.03652 19.6005C5.81654 19.6005 5.74758 19.6694 5.70138 19.8763C5.3035 21.6512 4.89251 23.4228 4.48567 25.1957C4.46843 25.2708 4.45395 25.3474 4.43188 25.4218C4.3512 25.6977 4.10433 25.8652 3.84712 25.8156C3.78043 25.8057 3.71651 25.7821 3.65939 25.7463C3.60227 25.7105 3.55318 25.6633 3.51522 25.6075C3.47726 25.5518 3.45124 25.4889 3.43882 25.4226C3.4264 25.3563 3.42783 25.2882 3.44303 25.2225C3.54302 24.7061 3.66714 24.1951 3.78437 23.6827C4.46429 20.7258 5.1449 17.7689 5.8262 14.8121C5.86067 14.661 5.86619 14.5542 5.70621 14.4459C3.50578 12.9502 2.15905 10.8698 1.53085 8.30318C1.51292 8.22802 1.49085 8.15355 1.46189 8.05701C1.18606 8.05701 0.910231 8.05701 0.63854 8.05701C0.288237 8.05287 0.0730899 7.86255 0.0675734 7.55845C0.0613672 7.24331 0.278582 7.04333 0.641297 7.03368C0.839894 7.02885 1.03849 7.02816 1.2364 7.02541C1.25507 7.02002 1.27311 7.01262 1.29019 7.00334C1.27846 6.82129 1.2695 6.62683 1.25364 6.43375C1.19158 5.69867 1.59842 5.24976 2.34454 5.24976C6.51554 5.24976 10.6863 5.24976 14.8568 5.24976C16.1523 5.24976 17.4476 5.24976 18.7426 5.24976C19.5115 5.24976 19.9224 5.70625 19.8459 6.4703C19.8294 6.64131 19.8204 6.81509 19.8052 7.03299C20.019 7.03299 20.219 7.03299 20.4258 7.03299C20.812 7.03851 21.0333 7.23159 21.0285 7.55569C21.023 7.86806 20.8044 8.05356 20.4327 8.05701C20.1748 8.05701 19.9162 8.05701 19.6804 8.05701C19.4639 8.70314 19.2887 9.34306 19.0384 9.95264C18.262 11.8462 17.0387 13.3853 15.3147 14.51C15.1658 14.6079 15.1292 14.6969 15.1685 14.8658C15.6172 16.7879 16.0615 18.7111 16.5015 20.6355C16.5318 20.7665 16.5587 20.8507 16.7249 20.8479C18.0627 20.8217 19.4142 21.8692 19.5577 23.449C19.7156 25.1763 18.4261 26.4024 17.1442 26.5672C17.1221 26.5672 17.1021 26.5934 17.0814 26.6072L16.3022 26.6024ZM2.51969 8.06252C2.52069 8.10875 2.52507 8.15485 2.5328 8.20044C3.03963 10.1416 4.00779 11.8055 5.56692 13.0833C7.48807 14.6555 9.68505 15.2713 12.1282 14.7445C14.801 14.1673 16.6373 12.5034 17.8558 10.1064C18.1831 9.45877 18.4262 8.77189 18.5792 8.06252H2.51969ZM14.1949 15.1362C11.7124 16.2291 9.25751 16.205 6.80332 15.0886C6.5337 16.2671 6.27166 17.4104 6.00824 18.5647H14.981C14.7189 17.4221 14.4617 16.2988 14.1949 15.1362ZM2.30937 7.01161H18.7729C18.7978 6.76061 18.8205 6.52409 18.8419 6.27653H2.24111C2.26524 6.53236 2.28662 6.76268 2.30937 7.01161Z" fill="#B68401"/>
<path id="Vector_2" d="M17.1007 26.6712H16.2856C15.8333 26.5554 15.3106 26.3892 14.8603 26.0361C13.657 25.0935 13.3825 23.3102 14.2486 22.0607C14.3866 21.8621 14.55 21.7414 14.7231 21.7111C14.7944 21.6994 14.8673 21.7023 14.9375 21.7196C15.0077 21.7369 15.0736 21.7683 15.1313 21.8118C15.4188 22.0145 15.4485 22.3393 15.2113 22.702C15.0453 22.9478 14.9418 23.2305 14.91 23.5255C14.8781 23.8204 14.9188 24.1186 15.0285 24.3942C15.1753 24.7523 15.4338 25.0533 15.7655 25.2527C16.0971 25.452 16.4843 25.539 16.8693 25.5007C17.2544 25.4623 17.6168 25.3007 17.9026 25.0398C18.1884 24.779 18.3824 24.4328 18.4557 24.0529C18.4967 23.8149 18.4898 23.5711 18.4353 23.3358C18.3808 23.1005 18.2799 22.8785 18.1385 22.6827C18.0049 22.4908 17.8339 22.3279 17.6358 22.2037C17.4377 22.0795 17.2165 21.9966 16.9855 21.96C16.9537 21.9575 16.9216 21.9575 16.8897 21.96C16.8987 22.0014 16.9069 22.0428 16.9152 22.0835C16.9462 22.2345 16.9766 22.3814 17.0104 22.5276C17.0442 22.6737 17.0745 22.8034 17.1076 22.9413C17.1517 23.1275 17.1973 23.3199 17.2386 23.5095C17.287 23.692 17.2609 23.8862 17.1662 24.0494C17.1272 24.1094 17.0766 24.161 17.0174 24.2011C16.9582 24.2413 16.8916 24.2692 16.8214 24.2832C16.4808 24.3563 16.2008 24.1543 16.1112 23.7674C15.9043 22.8779 15.699 21.9885 15.4954 21.0995C15.3988 20.6779 15.3021 20.2568 15.2051 19.8362C15.1954 19.7927 15.183 19.75 15.1699 19.7024C15.1699 19.6934 15.1651 19.6844 15.1623 19.6755H13.1695C10.8325 19.6755 8.41623 19.6755 6.03996 19.6693C5.86343 19.6693 5.81654 19.7093 5.77586 19.8893C5.46693 21.2649 5.14559 22.6613 4.83528 24.0122L4.54635 25.2707C4.53394 25.3258 4.52152 25.3831 4.50497 25.4389C4.41464 25.752 4.13467 25.9375 3.84091 25.881C3.6911 25.8544 3.55739 25.7709 3.46786 25.6479C3.42435 25.5841 3.39427 25.5122 3.37945 25.4364C3.36463 25.3607 3.36538 25.2827 3.38166 25.2072C3.46165 24.7935 3.55819 24.3798 3.65197 23.9777L3.72093 23.6647C4.40039 20.7078 5.08077 17.7511 5.76206 14.7947C5.79447 14.6568 5.79585 14.5878 5.67104 14.5009C3.52923 13.0452 2.11491 10.9648 1.46465 8.31753C1.45292 8.26857 1.43913 8.21961 1.42396 8.16514L1.41293 8.12376H1.21295C1.02539 8.12376 0.832308 8.12376 0.641297 8.12376C0.253757 8.11824 0.00826862 7.90103 0.00206247 7.55693C-0.00552283 7.20042 0.240655 6.97217 0.643365 6.96183C0.770247 6.95838 0.897128 6.957 1.02401 6.95631H1.22192C1.22192 6.91632 1.21709 6.87563 1.21433 6.83426C1.20675 6.70531 1.19916 6.57153 1.18813 6.43913C1.15641 6.05849 1.24674 5.7406 1.44948 5.51924C1.65221 5.29789 1.9639 5.18066 2.34592 5.18066H15.9974C16.9122 5.18066 17.8271 5.18066 18.7419 5.18066C19.1384 5.18066 19.4563 5.30065 19.6611 5.52545C19.8659 5.75025 19.9548 6.07711 19.9169 6.47568C19.9059 6.58946 19.8983 6.70255 19.89 6.83357C19.89 6.87494 19.8838 6.91839 19.8811 6.96321H20.0059C20.1486 6.96321 20.2872 6.96321 20.4258 6.96321C20.652 6.96321 20.8334 7.03217 20.9499 7.15146C21.0002 7.20556 21.0391 7.2692 21.0643 7.33861C21.0896 7.40802 21.1006 7.4818 21.0968 7.55555C21.0906 7.90861 20.8423 8.12169 20.4327 8.12514C20.2527 8.12514 20.0721 8.12514 19.899 8.12514H19.73C19.6673 8.31339 19.6073 8.50303 19.5494 8.68645C19.4073 9.13467 19.2736 9.55807 19.1018 9.97802C18.3068 11.9157 17.0449 13.4604 15.3513 14.5671C15.2265 14.6485 15.2016 14.7092 15.234 14.8492C15.6402 16.5876 16.0767 18.4749 16.5677 20.6188C16.5959 20.7436 16.6118 20.7802 16.7221 20.7781H16.7704C17.4922 20.7882 18.1844 21.0666 18.712 21.5592C19.2397 22.0518 19.565 22.7232 19.6245 23.4426C19.6641 23.8358 19.624 24.233 19.5066 24.6104C19.3892 24.9877 19.1969 25.3376 18.9412 25.6389C18.4872 26.1768 17.8523 26.5302 17.1559 26.6326L17.1428 26.6429C17.1347 26.65 17.1262 26.6564 17.1173 26.6622L17.1007 26.6712ZM16.3111 26.5333H17.0566C17.0779 26.5129 17.1048 26.4992 17.1338 26.494C18.7426 26.2871 19.6101 24.7528 19.4908 23.4502C19.4348 22.7647 19.1255 22.1247 18.6232 21.6549C18.1208 21.185 17.4616 20.9192 16.7739 20.9091H16.718C16.4966 20.9091 16.4629 20.7616 16.436 20.643C15.945 18.4991 15.5085 16.6117 15.103 14.8733C15.0568 14.6775 15.1065 14.5575 15.2789 14.4451C16.9483 13.3535 18.193 11.8302 18.977 9.91872C19.1467 9.50497 19.2798 9.08365 19.4204 8.63818C19.4839 8.43821 19.5487 8.23202 19.6176 8.02722L19.6328 7.98033H19.9024C20.0741 7.98033 20.2548 7.98033 20.4341 7.98033C20.7699 7.98033 20.9568 7.82311 20.9616 7.54659C20.9652 7.49089 20.9574 7.43505 20.9388 7.38244C20.9202 7.32982 20.8911 7.28151 20.8534 7.24042C20.763 7.14733 20.6155 7.09699 20.4272 7.09423C20.2893 7.09423 20.1514 7.09423 20.0093 7.09423H19.7335L19.739 7.02044C19.7438 6.94804 19.7487 6.88253 19.7528 6.81771C19.7611 6.68531 19.7687 6.57153 19.7804 6.45568C19.8142 6.09986 19.7383 5.80818 19.5597 5.61165C19.3811 5.41512 19.0991 5.31099 18.7426 5.31099C17.8282 5.31099 16.9134 5.31099 15.9981 5.31099H2.34385C1.99907 5.31099 1.72324 5.41305 1.54671 5.60475C1.37018 5.79645 1.29294 6.07849 1.32122 6.41983C1.33294 6.55429 1.34052 6.68876 1.34811 6.8184C1.35156 6.87701 1.35501 6.93494 1.35845 6.99148V7.04044L1.31294 7.05906L1.28191 7.07285C1.26726 7.08091 1.25101 7.08562 1.23433 7.08664H1.01849C0.892301 7.08664 0.766109 7.08664 0.639917 7.09216C0.317197 7.10043 0.127565 7.27076 0.133082 7.54659C0.138599 7.82242 0.326163 7.97412 0.63647 7.97826C0.826103 7.97826 1.01849 7.97826 1.20537 7.97826H1.51636L1.55498 8.12031C1.57084 8.17686 1.58463 8.22651 1.59636 8.27685C2.23628 10.8903 3.63128 12.9432 5.74345 14.3789C5.94273 14.5168 5.92756 14.6637 5.8917 14.8181C5.21087 17.7755 4.53072 20.7337 3.85126 23.6929L3.77885 24.006C3.68576 24.4066 3.58922 24.8211 3.50992 25.2307C3.49672 25.2879 3.49554 25.3472 3.50646 25.4049C3.51738 25.4626 3.54016 25.5174 3.57336 25.5658C3.64238 25.6602 3.74559 25.7238 3.86091 25.743C4.08295 25.7851 4.29603 25.641 4.36637 25.3983C4.38154 25.3465 4.39326 25.2948 4.40498 25.2396L4.41947 25.1755L4.6953 23.9791C5.00629 22.6282 5.32694 21.2318 5.63587 19.8568C5.69035 19.6127 5.79172 19.5293 6.03514 19.5293C8.4114 19.5362 10.8277 19.5362 13.1646 19.5355H15.263L15.2768 19.5865C15.2837 19.6134 15.2913 19.6389 15.2982 19.6631C15.312 19.7127 15.3244 19.7575 15.3347 19.801C15.4322 20.2216 15.5289 20.6427 15.625 21.0643C15.8296 21.9538 16.0349 22.8429 16.2408 23.7316C16.3146 24.0481 16.5166 24.2025 16.7876 24.1453C16.8405 24.1352 16.8908 24.1146 16.9355 24.0847C16.9803 24.0549 17.0186 24.0164 17.0483 23.9715C17.1227 23.8389 17.1421 23.6824 17.1021 23.5357C17.0607 23.3468 17.0152 23.1551 16.9711 22.9703C16.938 22.8323 16.9021 22.6944 16.8738 22.5565C16.8456 22.4186 16.8097 22.2614 16.7787 22.1104C16.7642 22.0414 16.7504 21.9725 16.7359 21.9035L16.718 21.8201H16.8035H16.8842C16.9244 21.8173 16.9648 21.8184 17.0049 21.8235C17.2541 21.8628 17.4928 21.9519 17.7067 22.0857C17.9205 22.2195 18.1052 22.3951 18.2495 22.602C18.4016 22.8129 18.51 23.0519 18.5685 23.3052C18.627 23.5585 18.6344 23.8209 18.5902 24.077C18.5144 24.4886 18.3069 24.8645 17.999 25.1479C17.6911 25.4314 17.2994 25.6071 16.883 25.6487C16.4665 25.6902 16.0478 25.5953 15.69 25.3783C15.3321 25.1612 15.0545 24.8338 14.8989 24.4453C14.7808 24.149 14.7369 23.8285 14.7711 23.5114C14.8052 23.1944 14.9163 22.8905 15.0947 22.6262C15.2327 22.4193 15.3347 22.1242 15.0499 21.9235C15.0072 21.8906 14.9582 21.8667 14.9059 21.8533C14.8536 21.8399 14.7991 21.8373 14.7458 21.8456C14.6079 21.8697 14.4762 21.9711 14.3603 22.1386C13.5329 23.3288 13.7977 25.0279 14.9444 25.9272C15.372 26.2602 15.8747 26.4209 16.3105 26.5333H16.3111ZM15.0672 18.6335H5.92136L6.75712 14.9905L6.83366 15.0257C9.29612 16.1456 11.6951 16.1614 14.1693 15.0726L14.2459 15.0395L15.0672 18.6335ZM6.09444 18.4956H14.8941L14.1466 15.2326C11.722 16.2773 9.26647 16.2614 6.85159 15.1857L6.09444 18.4956ZM10.4477 14.9981C8.68861 14.9981 7.03915 14.3775 5.52554 13.1363C4.02779 11.9102 2.99826 10.2552 2.46591 8.21685C2.45823 8.18384 2.4543 8.15007 2.45418 8.11618C2.45418 8.101 2.45418 8.08514 2.45418 8.06791L2.44729 7.99274H18.6674L18.6495 8.07687C18.4956 8.79189 18.2504 9.48415 17.9199 10.1366C16.6215 12.688 14.6789 14.2644 12.1454 14.8112C11.5878 14.9335 11.0186 14.9962 10.4477 14.9981ZM2.59279 8.13135C2.5934 8.14854 2.59571 8.16563 2.59968 8.18237C3.12445 10.1918 4.13812 11.8226 5.61312 13.0301C7.57012 14.6319 9.75814 15.1857 12.1158 14.6768C14.6072 14.1396 16.518 12.5908 17.7972 10.0753C18.1094 9.45861 18.344 8.80567 18.4957 8.13135H2.59279ZM18.8357 7.08044H2.24662L2.16525 6.20744H18.9219L18.8357 7.08044ZM2.37212 6.94252H18.7102L18.7688 6.34535H2.31696L2.37212 6.94252Z" fill="#B68401"/>
<path id="Vector_3" d="M15.1603 3.69754C14.7072 3.68927 14.4431 3.22449 14.7031 2.9135C14.9934 2.56871 14.9465 2.33839 14.6996 1.98051C14.2286 1.29783 14.5741 0.608256 15.0803 0.168998C15.2602 0.0131541 15.5209 0.049701 15.7009 0.208992C15.8809 0.368284 15.9588 0.657905 15.7892 0.837883C15.4554 1.19163 15.5471 1.45436 15.805 1.81432C16.1946 2.35839 15.9636 3.23691 15.3975 3.60721C15.3224 3.6469 15.2427 3.67724 15.1603 3.69754Z" fill="#B68401"/>
<path id="Vector_4" d="M15.1699 3.76725H15.1561C15.0354 3.76721 14.917 3.73326 14.8146 3.66925C14.7122 3.60524 14.6298 3.51376 14.5769 3.40523C14.5355 3.3189 14.52 3.22243 14.5322 3.12747C14.5444 3.03251 14.5839 2.94313 14.6458 2.87012C14.9168 2.54602 14.8624 2.34604 14.6383 2.02056C14.1411 1.29996 14.5148 0.564876 15.0306 0.118033C15.2265 -0.0522918 15.5244 -0.0350522 15.7395 0.158718C15.86 0.264234 15.9342 0.412784 15.9464 0.572462C15.9497 0.62911 15.9415 0.685847 15.9222 0.739203C15.9028 0.792558 15.8728 0.84141 15.834 0.882769C15.5368 1.1979 15.6037 1.42064 15.8554 1.77163C15.9482 1.90889 16.0121 2.06364 16.0432 2.22642C16.0742 2.3892 16.0718 2.5566 16.036 2.71841C16.0025 2.90768 15.9317 3.08839 15.8276 3.24999C15.7235 3.4116 15.5883 3.55087 15.4299 3.65968C15.3654 3.69821 15.2958 3.72724 15.223 3.74588C15.2058 3.75139 15.1913 3.75553 15.1796 3.76036L15.1699 3.76725ZM15.3464 0.13803C15.2642 0.137246 15.1846 0.166974 15.123 0.221469C14.8948 0.419376 14.1935 1.12895 14.7534 1.94126C15.003 2.3026 15.0768 2.57222 14.7534 2.95769C14.7078 3.01058 14.6787 3.07564 14.6696 3.14487C14.6606 3.2141 14.672 3.28446 14.7024 3.3473C14.7437 3.43043 14.807 3.50062 14.8854 3.55023C14.9638 3.59984 15.0544 3.62697 15.1472 3.62865L15.1858 3.61624C15.2449 3.60088 15.3017 3.57769 15.3547 3.54728C15.4977 3.44861 15.6195 3.32251 15.7133 3.17631C15.8071 3.03011 15.8708 2.86672 15.9009 2.69566C15.9328 2.55215 15.9353 2.40365 15.9082 2.25915C15.881 2.11466 15.8248 1.97718 15.743 1.85507C15.4671 1.46822 15.3761 1.17032 15.7333 0.791056C15.759 0.763351 15.7789 0.730768 15.7918 0.695235C15.8047 0.659702 15.8104 0.62194 15.8085 0.584184C15.7989 0.461087 15.7418 0.346555 15.6492 0.264912C15.5678 0.187716 15.4613 0.142635 15.3492 0.13803H15.3464Z" fill="#B68401"/>
<path id="Vector_5" d="M6.6923 0.549498C6.58265 0.744648 6.51852 0.904629 6.41647 1.0322C6.25993 1.2239 6.24476 1.38457 6.41095 1.58386C6.94951 2.21482 6.8378 2.95197 6.21649 3.56431C6.13234 3.64714 6.02074 3.69626 5.90281 3.70236C5.78489 3.70846 5.66882 3.67112 5.57657 3.59741C5.3697 3.44501 5.26833 3.14091 5.43865 2.95887C5.79861 2.5796 5.66414 2.30584 5.42348 1.91554C5.0056 1.23976 5.35452 0.588114 5.84757 0.179198C5.95445 0.0902428 6.20615 0.093001 6.34751 0.154373C6.48887 0.215745 6.56955 0.398482 6.6923 0.549498Z" fill="#B68401"/>
<path id="Vector_6" d="M5.88137 3.76789C5.75523 3.76689 5.6328 3.72504 5.53245 3.64859C5.46378 3.59813 5.40624 3.53407 5.36341 3.46039C5.32058 3.38672 5.29338 3.30501 5.28351 3.22037C5.27738 3.16371 5.28356 3.1064 5.30166 3.05236C5.31975 2.99832 5.34931 2.94884 5.38833 2.9073C5.71725 2.56252 5.60003 2.32875 5.36488 1.94811C4.98976 1.34128 5.15387 0.658604 5.80345 0.121427C5.93171 0.0159226 6.21099 0.0159226 6.37442 0.0869486C6.4882 0.136598 6.56336 0.24624 6.64266 0.362778C6.67576 0.411048 6.71162 0.461387 6.7461 0.506209L6.77575 0.542756L6.75299 0.583441C6.71714 0.646882 6.68404 0.706185 6.65714 0.76204C6.60492 0.872884 6.54137 0.978028 6.46751 1.0758C6.32546 1.24888 6.32339 1.37369 6.46061 1.53505C7.00607 2.17428 6.93159 2.95005 6.26202 3.60929C6.21217 3.65952 6.15287 3.6994 6.08754 3.72662C6.02221 3.75384 5.95215 3.76787 5.88137 3.76789ZM6.10755 0.175214C6.03184 0.170121 5.95642 0.188675 5.89172 0.228311C5.66967 0.411047 4.98493 1.07097 5.48211 1.8757C5.73036 2.27772 5.87655 2.59355 5.48832 3.00246C5.46261 3.02995 5.44313 3.06266 5.43123 3.09836C5.41933 3.13407 5.41528 3.17192 5.41936 3.20933C5.4279 3.27454 5.44953 3.33735 5.48295 3.39399C5.51636 3.45063 5.56088 3.49994 5.61382 3.53895C5.69294 3.6032 5.79299 3.63599 5.89479 3.63103C5.99659 3.62607 6.09298 3.5837 6.16548 3.51206C6.78609 2.89972 6.85505 2.21221 6.3558 1.62539C6.17375 1.41162 6.17513 1.21164 6.36063 0.98891C6.42835 0.89847 6.4868 0.80144 6.53509 0.699289C6.55853 0.653777 6.58267 0.606886 6.61025 0.556548C6.58129 0.518621 6.5544 0.479315 6.52888 0.441389C6.45992 0.341401 6.39648 0.247619 6.32201 0.214519C6.25385 0.187281 6.18094 0.173918 6.10755 0.175214Z" fill="#B68401"/>
<path id="Vector_7" d="M10.6877 0.0751953C11.1249 0.0834702 11.3593 0.477906 11.1842 0.820623C11.1293 0.919045 11.0644 1.01149 10.9904 1.09645C10.869 1.24747 10.8663 1.39366 10.9966 1.53778C11.4959 2.08944 11.5448 2.82383 10.8739 3.52582C10.7912 3.6219 10.6748 3.68261 10.5487 3.69544C10.4226 3.70827 10.2964 3.67224 10.196 3.59478C9.98294 3.43686 9.8864 3.12862 10.0678 2.93485C10.4091 2.57145 10.2967 2.31424 10.0547 1.93704C9.61816 1.25436 9.97053 0.607545 10.4587 0.169666C10.5298 0.106226 10.6449 0.0924346 10.6877 0.0751953Z" fill="#B68401"/>
<path id="Vector_8" d="M10.4939 3.76577C10.3715 3.76487 10.2527 3.72422 10.1553 3.64992C10.0864 3.60017 10.0285 3.53657 9.98555 3.46319C9.94256 3.38981 9.91537 3.30826 9.90572 3.22376C9.89887 3.16304 9.90531 3.10154 9.9246 3.04355C9.94389 2.98557 9.97556 2.93247 10.0174 2.88794C10.3195 2.56591 10.2388 2.35283 9.99674 1.97426C9.61403 1.37571 9.76573 0.699237 10.4105 0.117927C10.4723 0.0697783 10.5446 0.0369333 10.6215 0.0220766C10.6374 0.0179392 10.6505 0.0144916 10.6601 0.0110437L10.6725 0.00621674H10.6863C10.7945 0.00416093 10.9014 0.0301311 10.9967 0.0816046C11.0919 0.133078 11.1721 0.208304 11.2297 0.299974C11.2789 0.383128 11.3059 0.47751 11.3082 0.574095C11.3105 0.67068 11.288 0.766238 11.2428 0.851633C11.19 0.947107 11.1274 1.03678 11.0559 1.11919L11.0414 1.13712C10.9387 1.264 10.9401 1.37295 11.0449 1.4888C11.6138 2.11562 11.5676 2.89415 10.9208 3.57062C10.8666 3.63045 10.8008 3.67861 10.7274 3.71216C10.6541 3.74571 10.5746 3.76395 10.4939 3.76577ZM10.7008 0.144821L10.6608 0.155854C10.6054 0.165753 10.5528 0.187898 10.507 0.220674C10.1622 0.53305 9.64575 1.16608 10.1153 1.89978C10.3574 2.27905 10.4994 2.57832 10.1202 2.98241C10.0919 3.01289 10.0705 3.04913 10.0575 3.08865C10.0445 3.12817 10.0403 3.17003 10.045 3.21135C10.0534 3.27641 10.075 3.33906 10.1084 3.3955C10.1419 3.45193 10.1865 3.50096 10.2395 3.53959C10.3268 3.60639 10.4364 3.637 10.5457 3.62506C10.655 3.61312 10.7555 3.55954 10.8263 3.47546C11.4262 2.84726 11.4704 2.157 10.9477 1.5812C10.7966 1.41432 10.7932 1.2309 10.9387 1.05092L10.9539 1.0323C11.019 0.957167 11.0763 0.875608 11.1249 0.788882C11.1598 0.724339 11.1773 0.65186 11.1759 0.578506C11.1744 0.505152 11.154 0.433425 11.1166 0.370311C11.0718 0.300316 11.01 0.242881 10.9369 0.203428C10.8638 0.163974 10.7818 0.143804 10.6987 0.144821H10.7008Z" fill="#B68401"/>
<path id="Vector_9" d="M13.0874 13.8128C12.7888 13.8128 12.5923 13.6604 12.5357 13.4314C12.4792 13.2025 12.5847 12.9736 12.8164 12.8508C13.1508 12.6729 13.4984 12.5164 13.8211 12.3198C14.4524 11.9265 15.0103 11.4262 15.4699 10.8414C15.6078 10.6725 15.7664 10.5083 15.9871 10.5656C16.1532 10.6185 16.2982 10.7231 16.4008 10.8642C16.5298 11.0434 16.4649 11.2586 16.3181 11.4103C15.8878 11.8565 15.4823 12.3398 14.9955 12.715C14.481 13.1115 13.8852 13.4045 13.3212 13.7328C13.2472 13.7698 13.1686 13.7967 13.0874 13.8128Z" fill="#B68401"/>
<path id="Vector_10" d="M13.1012 13.8819H13.0902C12.7709 13.8819 12.5385 13.7198 12.4695 13.4488C12.4006 13.1778 12.5254 12.9275 12.7847 12.7896C12.9012 12.7275 13.0219 12.6676 13.1384 12.6089C13.3543 12.5 13.5777 12.3876 13.7859 12.2607C14.4118 11.873 14.9645 11.3781 15.4188 10.7988C15.5244 10.6685 15.7202 10.4251 16.0071 10.5009C16.1893 10.5576 16.3484 10.6715 16.4608 10.8257C16.5987 11.0146 16.5615 11.2636 16.3718 11.4608C16.2663 11.5698 16.165 11.6815 16.0588 11.7932C15.7416 12.1331 15.4133 12.4827 15.0417 12.7717C14.67 13.0606 14.239 13.2999 13.828 13.5302C13.6742 13.6164 13.5142 13.7054 13.3605 13.7957C13.2944 13.8309 13.2236 13.8562 13.1502 13.8709L13.1115 13.8798L13.1012 13.8819ZM15.8988 10.6244C15.7657 10.6244 15.6547 10.7264 15.5264 10.8857C15.062 11.4774 14.4972 11.9827 13.8577 12.3786C13.6446 12.509 13.4184 12.622 13.1998 12.7324C13.0826 12.791 12.9653 12.8503 12.8495 12.9117C12.6481 13.0185 12.5516 13.2158 12.6026 13.4144C12.6537 13.613 12.8302 13.7405 13.0812 13.744L13.1184 13.735C13.1785 13.7235 13.2366 13.7033 13.2908 13.675C13.446 13.584 13.606 13.495 13.7611 13.4088C14.1774 13.1893 14.5772 12.9399 14.9575 12.6627C15.3202 12.3828 15.6471 12.0352 15.9574 11.6973C16.0622 11.5849 16.1643 11.4725 16.2725 11.3629C16.3808 11.2532 16.4642 11.065 16.3484 10.9043C16.2551 10.7759 16.1232 10.6807 15.9719 10.6326C15.9471 10.6264 15.9216 10.6236 15.896 10.6244H15.8988Z" fill="#B68401"/>
</g>
<defs>
<clipPath id="clip0_13_450">
<rect width="21.0989" height="26.6713" fill="white"/>
</clipPath>
</defs>
</svg>
