<svg width="96" height="96" viewBox="0 0 96 96" fill="none" xmlns="http://www.w3.org/2000/svg">
<g id="Capa_1" clip-path="url(#clip0_13_304)">
<path id="Vector" d="M48.4303 95.9808C39.0241 95.9808 29.8291 93.1915 22.0081 87.9657C14.1871 82.7399 8.09143 75.3123 4.49183 66.622C0.892224 57.9318 -0.0496035 48.3694 1.78546 39.1439C3.62052 29.9184 8.15004 21.4443 14.8012 14.7931C21.4524 8.14185 29.9265 3.61231 39.152 1.77725C48.3775 -0.0578128 57.9401 0.884014 66.6303 4.48362C75.3205 8.08322 82.7481 14.179 87.974 21.9999C93.1998 29.8209 95.989 39.0159 95.989 48.4221C95.9763 61.0316 90.9616 73.1209 82.0453 82.0372C73.1291 90.9534 61.0397 95.9681 48.4303 95.9808ZM48.4303 3.00047C39.4467 3.00047 30.6649 5.66439 23.1954 10.6554C15.7258 15.6464 9.90397 22.7403 6.46611 31.04C3.02825 39.3397 2.12878 48.4725 3.88138 57.2835C5.63399 66.0944 9.95998 74.1878 16.3123 80.5401C22.6646 86.8924 30.7581 91.2184 39.569 92.971C48.38 94.7236 57.5127 93.8242 65.8124 90.3863C74.1121 86.9484 81.206 81.1266 86.197 73.6571C91.188 66.1875 93.852 57.4057 93.852 48.4221C93.8371 36.3801 89.0469 24.8355 80.5319 16.3205C72.0169 7.80551 60.4723 3.01529 48.4303 3.00047Z" fill="#B68401"/>
<path id="Vector_2" d="M67.5434 56.3059H62.3329C61.6045 56.3059 60.1079 56.3059 60.1079 56.3059C60.1079 56.3059 61.3965 55.2254 61.6526 54.9933C62.1568 54.5211 62.653 54.0329 63.1172 53.5206C64.055 52.4854 64.9265 51.3921 65.7265 50.247C66.3985 49.3221 67.286 48.5749 68.3118 48.07C69.2971 47.5901 70.3704 47.3177 71.4653 47.2696C72.5587 47.2136 73.6513 47.3965 74.6668 47.8059L75.1071 48.006C75.1071 48.006 76.0514 46.093 76.0434 46.085C74.7605 45.4555 73.3533 45.1203 71.9244 45.1037C70.4954 45.087 69.0808 45.3895 67.7835 45.989C68.6991 43.5249 69.1706 40.918 69.1762 38.2893H67.0391C67.0353 40.8268 66.5547 43.3409 65.6224 45.7009C64.6999 48.038 63.3572 50.1865 61.6606 52.0399C59.713 54.161 57.333 55.8396 54.6813 56.9622C54.3371 57.1063 52.9605 57.6185 52.2801 57.8507C52.2525 57.8605 52.2227 57.8622 52.1942 57.8554C52.1656 57.8487 52.1397 57.8339 52.1194 57.8128C52.0991 57.7916 52.0853 57.7651 52.0798 57.7363C52.0742 57.7075 52.0771 57.6777 52.0881 57.6506C52.6483 56.3139 54.7373 51.1835 54.8974 48.1661C55.176 44.829 56.6962 41.7177 59.1577 39.4473C61.6193 37.177 64.843 35.9126 68.1917 35.9042H71.1211C73.7419 35.8927 76.2814 34.9926 78.3245 33.351C78.3245 33.351 76.9959 31.6942 76.9879 31.6942C75.3107 33.0343 73.228 33.7652 71.0811 33.7672H68.1517C65.4107 33.7606 62.717 34.4809 60.345 35.8546C57.9731 37.2282 56.0077 39.2062 54.6492 41.5869C54.6217 41.6346 54.5807 41.6732 54.5314 41.6977C54.4821 41.7222 54.4265 41.7317 54.3719 41.7249C54.3172 41.718 54.2658 41.6952 54.224 41.6593C54.1823 41.6234 54.1519 41.5759 54.137 41.5229C53.3556 38.6928 51.9926 36.0568 50.1351 33.7832C50.0494 33.6849 49.9839 33.5708 49.9423 33.4472C49.9008 33.3236 49.884 33.193 49.893 33.063C49.9019 32.9329 49.9364 32.8058 49.9944 32.6891C50.0524 32.5723 50.1328 32.4682 50.2311 32.3825C53.8272 29.3869 58.3569 27.7421 63.0372 27.7323H67.2793C67.2793 27.7323 67.2793 25.6113 67.2793 25.6033H63.0452C61.7188 25.6056 60.3954 25.7288 59.0914 25.9715C60.6665 23.8714 61.51 21.313 61.4925 18.688H59.3635C59.3708 20.5293 58.8665 22.3364 57.9069 23.908C56.9474 25.4795 55.5702 26.7536 53.9289 27.5882C52.0281 28.4485 50.258 29.5721 48.6704 30.9258C48.4871 31.0846 48.2526 31.1721 48.01 31.1721C47.7675 31.1721 47.5331 31.0846 47.3498 30.9258C45.745 29.555 43.9527 28.4204 42.0272 27.5562C40.386 26.7263 39.0075 25.4571 38.0451 23.8899C37.0828 22.3227 36.5744 20.5191 36.5767 18.68H34.5517C34.5476 21.298 35.3899 23.8472 36.9528 25.9474C35.6777 25.7111 34.3838 25.5905 33.087 25.5873H28.8449C28.8449 25.5873 28.8449 27.7083 28.8449 27.7163H33.079C37.7593 27.726 42.289 29.3709 45.8851 32.3665C46.0829 32.5395 46.2048 32.7834 46.2242 33.0455C46.2437 33.3076 46.1593 33.5668 45.9892 33.7672C44.1353 36.0372 42.7726 38.6672 41.9872 41.4909C41.9742 41.5444 41.9452 41.5927 41.9041 41.6293C41.863 41.666 41.8118 41.6894 41.7572 41.6963C41.7025 41.7033 41.647 41.6935 41.5981 41.6682C41.5491 41.643 41.509 41.6034 41.483 41.5549C40.1238 39.1778 38.1589 37.2034 35.7885 35.8326C33.4181 34.4618 30.7268 33.7436 27.9886 33.7512H25.0672C22.9156 33.7478 20.8284 33.0173 19.1443 31.6782L17.8156 33.343C19.8752 34.9875 22.4316 35.8848 25.0672 35.8882H27.9886C31.3151 35.8976 34.5189 37.1456 36.9753 39.3889C39.4317 41.6322 40.9645 44.7099 41.2749 48.022C41.4047 50.0713 41.7919 52.0962 42.4274 54.0488C42.8762 55.2259 43.3893 56.3776 43.9642 57.4985C43.9777 57.5248 43.9833 57.5545 43.9802 57.5839C43.9771 57.6134 43.9656 57.6413 43.9469 57.6642C43.9282 57.6871 43.9032 57.7041 43.875 57.7131C43.8468 57.722 43.8166 57.7226 43.7881 57.7146C42.0088 57.1325 40.3031 56.3455 38.7056 55.3695C37.2457 54.4721 35.9223 53.3696 34.7758 52.0959L34.4476 51.7358C32.7357 49.7973 31.4026 47.5547 30.5177 45.1246C29.722 42.9279 29.3131 40.6098 29.3091 38.2733H27.1722C27.1841 41.1026 27.7271 43.9044 28.7729 46.5333C27.0797 45.7771 25.2092 45.5075 23.3713 45.7549C21.5335 46.0023 19.801 46.7569 18.368 47.934C18.368 47.934 19.7126 49.5828 19.7206 49.5828C20.5601 48.9059 21.5278 48.4056 22.5656 48.1121C23.6033 47.8185 24.6896 47.7377 25.7594 47.8745C26.8291 48.0113 27.8602 48.3629 28.7907 48.9082C29.7212 49.4534 30.5319 50.181 31.1741 51.0474C32.5677 53.048 34.2727 54.8126 36.2244 56.2739H29.3332C25.1289 56.2823 21.0374 57.634 17.6556 60.1318L18.9282 61.8446C18.9282 61.7805 20.6971 60.692 20.8571 60.604C21.5413 60.2265 22.2499 59.8949 22.9782 59.6115C24.4506 59.0325 25.9971 58.6634 27.5724 58.515C29.0371 58.3869 30.5098 58.3949 31.9825 58.3949C33.7593 58.3949 35.5361 58.3949 37.3129 58.4509C38.8731 58.5408 40.415 58.8341 41.8992 59.3234C42.7285 59.5827 43.5323 59.9176 44.3004 60.3239C45.1308 60.7668 45.8246 61.428 46.307 62.2362C46.7894 63.0443 47.042 63.9688 47.0376 64.91V64.9581C47.0446 65.3009 46.9766 65.6412 46.8384 65.9551C46.7001 66.2689 46.495 66.5487 46.2372 66.7749C42.8908 69.5963 40.4195 73.3144 39.1138 77.4921L41.1468 78.1163C42.1686 74.8679 43.9906 71.9285 46.4453 69.5683C46.9142 69.114 47.5414 68.86 48.1942 68.86C48.847 68.86 49.4742 69.114 49.943 69.5683C52.4001 71.928 54.2248 74.8674 55.2495 78.1163L57.2825 77.4841C55.9645 73.3144 53.4616 69.6185 50.0791 66.8469C49.8235 66.6493 49.6117 66.4007 49.4574 66.1169C49.3031 65.833 49.2096 65.5201 49.1827 65.1982C49.1396 64.1604 49.4066 63.1334 49.9497 62.2482C50.4929 61.3629 51.2874 60.6595 52.2321 60.2278C54.8619 59.0257 57.7206 58.4059 60.6121 58.4109H67.5995C71.3447 58.4198 74.9895 59.6226 78.0044 61.8446L79.269 60.1318C75.8703 57.6351 71.7605 56.2942 67.5434 56.3059ZM49.1346 58.523C49.0129 58.684 48.8548 58.8137 48.6731 58.9015C48.4915 58.9892 48.2916 59.0326 48.0899 59.0279C47.8882 59.0232 47.6904 58.9706 47.513 58.8744C47.3356 58.7783 47.1837 58.6414 47.0696 58.475L46.6855 57.9227C46.2428 57.264 45.8392 56.5799 45.4769 55.8737C44.7611 54.4624 44.2234 52.9675 43.8761 51.4236C43.1165 48.1816 43.2269 44.7965 44.1963 41.6109C44.88 39.4357 45.9421 37.3982 47.3337 35.592C47.4288 35.4706 47.5503 35.3724 47.689 35.3048C47.8277 35.2373 47.9799 35.2022 48.1341 35.2022C48.2884 35.2022 48.4406 35.2373 48.5793 35.3048C48.7179 35.3724 48.8394 35.4706 48.9345 35.592C51.5665 38.9706 52.9645 43.1475 52.8965 47.4297C52.8208 51.4304 51.4942 55.3069 49.1026 58.515L49.1346 58.523Z" fill="#B68401"/>
</g>
<defs>
<clipPath id="clip0_13_304">
<rect width="95.1174" height="95.1174" fill="white" transform="translate(0.871582 0.87146)"/>
</clipPath>
</defs>
</svg>
