<svg width="24" height="23" viewBox="0 0 24 23" fill="none" xmlns="http://www.w3.org/2000/svg">
<g id="Capa_1" clip-path="url(#clip0_13_476)">
<path id="Vector" d="M0 12.2125V10.8188C0.0456298 10.4718 0.084382 10.1235 0.138763 9.77764C0.49505 7.53613 1.4289 5.54021 3.02094 3.86853C5.80748 0.943088 9.27972 -0.343703 13.392 0.07902C16.1561 0.363638 18.5613 1.46548 20.4734 3.39716C23.8344 6.79216 24.8488 10.8074 23.2743 15.2376C21.7785 19.4408 18.5863 21.9412 14.0452 22.8214C13.597 22.9085 13.137 22.9415 12.6826 23.0016H11.2318C10.9243 22.9643 10.6161 22.9313 10.3092 22.8899C8.57561 22.6533 6.91653 22.0566 5.44744 21.1414C5.39223 21.1024 5.32699 21.0788 5.25878 21.0729C5.19057 21.0671 5.12201 21.0794 5.06052 21.1083C4.23606 21.4235 3.40723 21.7274 2.5809 22.0384C1.73372 22.3587 0.887387 22.6789 0.0418821 22.9992C0.0565053 22.9118 0.0773905 22.8255 0.104389 22.741C0.714452 21.2308 1.32264 19.7201 1.94333 18.2141C2.02333 18.0202 2.01458 17.8796 1.89645 17.7019C1.01626 16.3928 0.42682 14.9232 0.165018 13.3852C0.0987612 12.9967 0.0543807 12.6034 0 12.2125ZM14.9647 9.32369C14.9647 8.96762 14.9691 8.65479 14.9647 8.34195C14.9528 7.72288 14.4928 7.25091 13.8039 7.25631C11.332 7.27673 8.85989 7.27673 6.38754 7.25631C5.64872 7.24971 5.20617 7.7667 5.20805 8.39358C5.21305 10.4612 5.21305 12.5285 5.20805 14.5957C5.20805 15.2142 5.64559 15.7366 6.39004 15.7312C8.84571 15.7084 11.3022 15.7084 13.7596 15.7312C14.5684 15.7396 14.9809 15.1824 14.9684 14.5747C14.9622 14.2847 14.9684 13.9947 14.9684 13.6698C15.0847 13.7125 15.1635 13.7389 15.2403 13.7695C16.235 14.1598 17.2293 14.5505 18.2232 14.9416C18.5857 15.0839 18.7545 14.974 18.7545 14.5927C18.7545 12.5256 18.7545 10.4582 18.7545 8.39059C18.7545 8.0099 18.5863 7.90242 18.2206 8.04533C17.4635 8.34195 16.707 8.63957 15.951 8.9382C15.6348 9.0619 15.3197 9.18438 14.9647 9.32369Z" fill="#FFF6EF"/>
</g>
<defs>
<clipPath id="clip0_13_476">
<rect width="24" height="23" fill="white"/>
</clipPath>
</defs>
</svg>
