<?xml version="1.0" encoding="utf-8"?>
<!-- Generator: Adobe Illustrator 25.4.1, SVG Export Plug-In . SVG Version: 6.00 Build 0)  -->
<svg version="1.1" xmlns="http://www.w3.org/2000/svg" xmlns:xlink="http://www.w3.org/1999/xlink" x="0px" y="0px"
	 viewBox="0 0 1920 1080" style="enable-background:new 0 0 1920 1080;" xml:space="preserve">
<style type="text/css">
	.st0{fill:#CECECE;}
</style>
<g id="Lote_68">
	<path class="st0" d="M1408.6,754.9v159.6l50.9-0.1l-0.1-183l-15.2-12.7c0,0-5.6,11.3-15.8,21.5
		C1418.2,750.4,1408.6,754.9,1408.6,754.9z"/>
</g>
<g id="Lote_01">
	<polygon class="st0" points="1317.4,169.3 1369.1,169.4 1368.8,319.5 1317.1,319.5 	"/>
</g>
<g id="Lote_02">
	<polygon class="st0" points="1264.4,169.5 1315.9,169.6 1315.6,319.5 1264.1,319.5 	"/>
</g>
<g id="Lote_03">
	<polygon class="st0" points="1210.6,168.6 1262.2,168.7 1261.9,319.6 1210.3,319.6 	"/>
</g>
<g id="Lote_04">
	<polygon class="st0" points="1157.5,168.6 1209,168.7 1208.7,319.6 1157.2,319.6 	"/>
</g>
<g id="Lote_05">
	<polygon class="st0" points="1104.7,168.5 1156,168.8 1155.7,319.5 1104.4,319.5 	"/>
</g>
<g id="Lote_06">
	<polygon class="st0" points="1051.7,168.5 1103.1,168.5 1102.8,319.5 1051.4,319.5 	"/>
</g>
<g id="Lote_07">
	<polygon class="st0" points="998.4,168.2 1050.1,168.3 1049.8,319.2 998.1,319.2 	"/>
</g>
<g id="Lote_08">
	<polygon class="st0" points="945.3,168.2 997,168.3 996.7,319.2 945,319.2 	"/>
</g>
<g id="Lote_09">
	<polygon class="st0" points="892.4,168.2 944,168.3 943.7,319.2 892.1,319.2 	"/>
</g>
<g id="Lote_10">
	<polygon class="st0" points="839.3,167.9 890.8,168 890.5,319 839,319 	"/>
</g>
<g id="Lote_11">
	<polygon class="st0" points="786.5,167.9 837.7,168 837.4,319 786.2,319 	"/>
</g>
<g id="Lote_12">
	<polygon class="st0" points="734,167.9 784.6,168 784.3,319 733.7,319 	"/>
</g>
<g id="Lote_13">
	<polygon class="st0" points="680.9,167.9 731.4,168 731.1,319 680.6,319 	"/>
</g>
<g id="Lote_14">
	<polygon class="st0" points="627.6,167.9 678.3,168 678,319 627.3,319 	"/>
</g>
<g id="Lote_15">
	<path class="st0" d="M574.8,315.2c0,0,6.4,3.5,11.5,3.5c5.1,0,38.6,0,38.6,0l0.2-150.8l-50.3-0.5V315.2z"/>
</g>
<g id="Lote_16">
	<path class="st0" d="M572.2,167.8l-53.1-0.3l0.2,161.4c0,0,5.2-9.3,20.5-15.4c15.4-6,31.9,0.5,31.9,0.5L572.2,167.8z"/>
</g>
<g id="Lote_17">
	<path class="st0" d="M466.2,166.7l-4.9,230.1l34.9,0.1c8,0,14.5-6.4,14.6-14.4l0.3-30c0,0,0.5-6.6,2.1-11.9
		c1.1-3.7,3.5-8.2,3.5-8.2l0-165.9L466.2,166.7z"/>
</g>
<g id="Lote_18">
	<path class="st0" d="M675.8,391.8l36.5,0.1l-0.3,149.4h-51.2l0.3-134.7C661,398.4,667.6,391.8,675.8,391.8z"/>
</g>
<g id="Lote_19">
	<polygon class="st0" points="713.7,391.7 756.5,391.7 756.2,541.1 713.4,541.1 	"/>
</g>
<g id="Lote_20">
	<polygon class="st0" points="758.5,391.7 801.2,391.7 801,541.1 758.2,541.1 	"/>
</g>
<g id="Lote_21">
	<polygon class="st0" points="802.7,391.7 845.5,391.7 845.2,541.1 802.4,541.1 	"/>
</g>
<g id="Lote_22">
	<polygon class="st0" points="846.6,391.9 889.4,391.9 889.1,541.3 846.3,541.3 	"/>
</g>
<g id="Lote_23">
	<polygon class="st0" points="890.8,391.9 933.6,391.9 933.3,541.3 890.6,541.3 	"/>
</g>
<g id="Lote_24">
	<polygon class="st0" points="935.3,391.9 978.1,391.9 977.8,541.3 935.1,541.3 	"/>
</g>
<g id="Lote_25">
	<polygon class="st0" points="979.8,391.9 1022.6,391.9 1022.3,541.3 979.6,541.3 	"/>
</g>
<g id="Lote_26">
	<polygon class="st0" points="1024.2,392.1 1066.6,392.1 1066.4,541.5 1024,541.5 	"/>
</g>
<g id="Lote_27">
	<polygon class="st0" points="1068.3,392.1 1110.7,392.1 1110.5,541.5 1068.1,541.5 	"/>
</g>
<g id="Lote_28">
	<polygon class="st0" points="1112.6,392.1 1154.6,392.1 1154.4,541.5 1112.3,541.5 	"/>
</g>
<g id="Lote_29">
	<polygon class="st0" points="1156.8,392.1 1198.9,392.1 1198.6,541.5 1156.5,541.5 	"/>
</g>
<g id="Lote_30">
	<polygon class="st0" points="1201.3,392.1 1243.4,392.1 1243.1,541.7 1201.1,541.7 	"/>
</g>
<g id="Lote_31">
	<polygon class="st0" points="1201.3,690.9 1243.4,690.8 1243.1,541.3 1201.1,541.3 	"/>
</g>
<g id="Lote_32">
	<polygon class="st0" points="1156.8,690.9 1198.9,690.8 1198.6,541.4 1156.5,541.4 	"/>
</g>
<g id="Lote_33">
	<polygon class="st0" points="1112.6,690.9 1154.6,690.8 1154.4,541.4 1112.3,541.4 	"/>
</g>
<g id="Lote_34">
	<polygon class="st0" points="1068.3,690.9 1110.7,690.8 1110.5,541.4 1068.1,541.4 	"/>
</g>
<g id="Lote_35">
	<polygon class="st0" points="1024.2,690.9 1066.6,690.8 1066.4,541.4 1024,541.4 	"/>
</g>
<g id="Lote_36">
	<polygon class="st0" points="979.8,691.1 1022.6,691 1022.3,541.6 979.6,541.6 	"/>
</g>
<g id="Lote_37">
	<polygon class="st0" points="935.3,691.1 978.1,691 977.8,541.6 935.1,541.6 	"/>
</g>
<g id="Lote_38">
	<polygon class="st0" points="890.8,691.1 933.6,691 933.3,541.6 890.6,541.6 	"/>
</g>
<g id="Lote_39">
	<polygon class="st0" points="846.6,691.1 889.4,691 889.1,541.6 846.3,541.6 	"/>
</g>
<g id="Lote_40">
	<polygon class="st0" points="802.7,691.3 845.5,691.2 845.2,541.8 802.4,541.8 	"/>
</g>
<g id="Lote_41">
	<polygon class="st0" points="758.5,691.3 801.2,691.2 801,541.8 758.2,541.8 	"/>
</g>
<g id="Lote_42">
	<polygon class="st0" points="713.7,691.3 756.5,691.2 756.2,541.8 713.4,541.8 	"/>
</g>
<g id="Lote_43">
	<path class="st0" d="M675.8,691.1l36.5-0.1l-0.3-149.4h-51.2l0.3,134.7C661,684.6,667.6,691.1,675.8,691.1z"/>
</g>
<g id="Lote_44">
	<polygon class="st0" points="587.9,530.9 458.2,529.1 459.9,460.6 588,460.8 	"/>
</g>
<g id="Lote_45">
	<polygon class="st0" points="587.8,601.4 456.7,599.7 458.4,531 587.9,531.9 	"/>
</g>
<g id="Lote_46">
	<polygon class="st0" points="587.8,602.3 587.7,670.8 455.2,671.2 456.6,601.7 	"/>
</g>
<g id="Lote_47">
	<path class="st0" d="M510,703.9l-55.8,0.1l-4.4,209.6l53.7,0.4l2.4-168.3c0,0-3.9-10.5-3-20.5C504.4,709.4,510,703.9,510,703.9z"/>
</g>
<g id="Lote_48">
	<path class="st0" d="M506.5,913.4l50.2,0.2l0.5-142.7c0,0-13.6,3.4-29.6-3.4c-13.9-5.9-20.8-20.2-20.8-20.2L506.5,913.4z"/>
</g>
<g id="Lote_49">
	<polygon class="st0" points="559.6,770.2 572.4,764.6 610.1,764.2 609.8,913.5 559.5,913.7 	"/>
</g>
<g id="Lote_50">
	<polygon class="st0" points="612.3,764.2 654.8,764.5 654.2,913.7 612.3,914 	"/>
</g>
<g id="Lote_51">
	<polygon class="st0" points="656.5,764.2 698.8,764.5 698.2,913.7 656.5,914 	"/>
</g>
<g id="Lote_52">
	<polygon class="st0" points="700.7,764 743.4,764.4 742.8,913.6 700.7,913.8 	"/>
</g>
<g id="Lote_53">
	<polygon class="st0" points="744.9,764.4 787.6,764.8 787,914 744.9,914.3 	"/>
</g>
<g id="Lote_54">
	<polygon class="st0" points="788.5,764.5 831.8,764.8 831.2,914 788.5,914.3 	"/>
</g>
<g id="Lote_55">
	<polygon class="st0" points="832.8,764.4 876,764.8 875.3,914 832.8,914.3 	"/>
</g>
<g id="Lote_56">
	<polygon class="st0" points="876.7,764.3 920.5,764.6 919.9,913.8 876.7,914.2 	"/>
</g>
<g id="Lote_57">
	<polygon class="st0" points="921.5,764.4 964.7,764.8 964,914 921.5,914.3 	"/>
</g>
<g id="Lote_58">
	<polygon class="st0" points="966,764.5 1009.1,764.8 1008.5,914 966,914.3 	"/>
</g>
<g id="Lote_59">
	<polygon class="st0" points="1009.9,764.4 1053,764.7 1052.4,913.9 1009.9,914.2 	"/>
</g>
<g id="Lote_60">
	<polygon class="st0" points="1054.2,764.5 1097.3,764.8 1096.7,914 1054.2,914.3 	"/>
</g>
<g id="Lote_61">
	<polygon class="st0" points="1098.2,764.6 1141.4,764.9 1140.8,914.1 1098.2,914.4 	"/>
</g>
<g id="Lote_62">
	<polygon class="st0" points="1142.9,764.6 1185.2,764.9 1184.6,914.1 1142.9,914.4 	"/>
</g>
<g id="Lote_63">
	<polygon class="st0" points="1187.3,764.8 1229.4,765.1 1228.8,914.3 1187.3,914.6 	"/>
</g>
<g id="Lote_64">
	<polygon class="st0" points="1231.5,764.8 1273.5,765.1 1272.9,914.3 1231.5,914.6 	"/>
</g>
<g id="Lote_65">
	<polygon class="st0" points="1275.8,764.8 1317.6,765.1 1317,914.3 1275.8,914.6 	"/>
</g>
<g id="Lote_66">
	<polygon class="st0" points="1320.4,765 1362.1,765.3 1361.5,914.5 1320.4,914.8 	"/>
</g>
<g id="Lote_67">
	<path class="st0" d="M1364.5,765c0,0,7.5,0,20.1-1.8c14.5-2.1,21.2-7,21.2-7l-0.6,158.3l-40.7,0.3V765z"/>
</g>
</svg>
