<svg width="170" height="151" viewBox="0 0 170 151" fill="none" xmlns="http://www.w3.org/2000/svg">
<g id="Capa_1" clip-path="url(#clip0_273_29)">
<path id="Vector" d="M41.8183 34.113C38.3193 37.6224 36.1869 42.2649 35.8046 47.2059C35.4223 52.1469 36.8152 57.0622 39.7327 61.0681C42.6503 65.074 46.9012 67.9077 51.7212 69.0597C56.5412 70.2118 61.614 69.6066 66.0277 67.353C64.2817 70.7524 63.505 74.5667 63.7828 78.3782C64.0607 82.1896 65.3823 85.8511 67.6028 88.9613C69.8233 92.0715 72.8571 94.5105 76.3718 96.011C79.8864 97.5115 83.7463 98.0157 87.5284 97.4682C91.3105 96.9207 94.869 95.3427 97.8139 92.9072C100.759 90.4716 102.976 87.2724 104.224 83.6602C105.471 80.048 105.7 76.1621 104.886 72.4283C104.072 68.6946 102.245 65.257 99.6069 62.4923L99.2615 62.1406L71.259 34.113C67.3508 30.2167 62.0572 28.0288 56.5386 28.0288C51.02 28.0288 45.7265 30.2167 41.8183 34.113ZM91.5685 57.2611L97.8485 63.5411C100.627 66.3246 102.462 69.9093 103.097 73.7906C103.731 77.6719 103.133 81.6545 101.385 85.1778C99.6379 88.7011 96.8297 91.5878 93.3559 93.4317C89.8821 95.2755 85.9175 95.9837 82.0202 95.4564C78.1229 94.9292 74.4889 93.1932 71.6299 90.4926C68.7708 87.7921 66.8305 84.263 66.0821 80.4021C65.3336 76.5411 65.8147 72.5427 67.4576 68.9694C69.1005 65.3962 71.8225 62.428 75.2405 60.4827L79.0085 64.2507C76.34 65.4182 74.112 67.4042 72.6467 69.9214C71.1814 72.4387 70.5547 75.3568 70.8572 78.2537C71.1598 81.1506 72.3759 83.8763 74.3297 86.0365C76.2835 88.1967 78.8738 89.6794 81.7259 90.2703C84.578 90.8613 87.5442 90.5297 90.1954 89.3237C92.8467 88.1176 95.0457 86.0995 96.4743 83.5613C97.903 81.023 98.4873 78.0962 98.1428 75.2039C97.7982 72.3117 96.5427 69.604 94.5578 67.4723L94.3003 67.2149L94.2124 67.1207L94.1182 67.0327L85.1817 58.0649L83.2161 56.0993L77.294 50.1772L75.3284 48.2116L66.3292 39.1935L66.2475 39.1056C64.1718 37.0229 61.4832 35.6603 58.5762 35.2177C55.6693 34.7752 52.697 35.2759 50.0955 36.6466C47.494 38.0172 45.4003 40.1855 44.1216 42.8334C42.8429 45.4813 42.4465 48.4692 42.9905 51.3589C43.5346 54.2486 44.9905 56.8879 47.1445 58.8894C49.2986 60.891 52.0375 62.1494 54.9593 62.4802C57.8811 62.8109 60.832 62.1965 63.379 60.7271C65.926 59.2577 67.935 57.0107 69.1112 54.3157L72.8792 58.0837C70.934 61.5137 67.9616 64.2469 64.3809 65.8982C60.8001 67.5495 56.7915 68.0357 52.9198 67.2882C49.0482 66.5408 45.5086 64.5974 42.7999 61.7318C40.0911 58.8663 38.3498 55.223 37.8212 51.3154C37.2926 47.4079 38.0034 43.4329 39.8534 39.9507C41.7034 36.4684 44.5994 33.6544 48.1333 31.9051C51.6672 30.1559 55.6609 29.5595 59.5517 30.2001C63.4425 30.8406 67.0342 32.6859 69.8208 35.4757L76.1008 41.7557L91.5685 57.2611ZM69.8334 52.2371L68.1378 50.5352L61.4873 43.8784C60.3422 42.7204 58.8303 41.9965 57.2102 41.8306C55.5902 41.6647 53.9629 42.0671 52.6069 42.9689C51.2509 43.8707 50.2505 45.2158 49.7771 46.774C49.3037 48.3322 49.3866 50.0064 50.0117 51.5102C50.6368 53.0139 51.7652 54.2536 53.2037 55.017C54.6422 55.7803 56.3013 56.0199 57.897 55.6947C59.4927 55.3695 60.9258 54.4997 61.9508 53.2343C62.9757 51.9688 63.529 50.3864 63.5157 48.7579L67.5538 52.796C66.9722 54.4245 66.0346 55.9027 64.8094 57.1229C63.1694 58.7621 61.0803 59.8781 58.806 60.3301C56.5318 60.782 54.1747 60.5495 52.0326 59.6619C49.8905 58.7743 48.0597 57.2715 46.7716 55.3435C45.4836 53.4155 44.7961 51.1489 44.7961 48.8302C44.7961 46.5115 45.4836 44.2448 46.7716 42.3168C48.0597 40.3888 49.8905 38.8861 52.0326 37.9985C54.1747 37.1109 56.5318 36.8783 58.806 37.3303C61.0803 37.7822 63.1694 38.8983 64.8094 40.5374L64.8973 40.6253L69.8585 45.5865L75.2028 50.9308L76.9612 52.6892L80.6727 56.4007L82.4374 58.1654L87.7817 63.5097L92.7428 68.4709L92.9187 68.6467C94.5375 70.2998 95.6311 72.395 96.0616 74.6683C96.4922 76.9416 96.2405 79.2915 95.3382 81.4221C94.436 83.5527 92.9235 85.3687 90.9913 86.6415C89.0591 87.9142 86.7935 88.5869 84.4798 88.5746C82.1661 88.5624 79.9077 87.866 77.989 86.5729C76.0703 85.2798 74.5771 83.4479 73.6974 81.3079C72.8177 79.168 72.5908 76.8155 73.0453 74.5469C73.4998 72.2782 74.6154 70.1947 76.2516 68.5588C77.4707 67.3322 78.9493 66.3945 80.5785 65.8144L84.6165 69.8525L88.0642 73.2939C88.7778 73.9883 89.2689 74.8791 89.4752 75.8531C89.6816 76.8272 89.5938 77.8406 89.2232 78.7647C88.8525 79.6888 88.2156 80.4819 87.3934 81.0433C86.5711 81.6048 85.6005 81.9093 84.6049 81.9181C83.6093 81.927 82.6335 81.6398 81.8014 81.093C80.9693 80.5462 80.3184 79.7646 79.9314 78.8472C79.5444 77.9298 79.4387 76.9182 79.6277 75.9406C79.8167 74.963 80.2919 74.0637 80.993 73.3567C81.9254 72.4164 83.1915 71.8823 84.5157 71.8705C85.8399 71.8588 87.1152 72.3703 88.0642 73.2939L84.5726 69.865C82.9713 69.8601 81.4166 70.4038 80.1672 71.4054C78.9179 72.4071 78.0492 73.8064 77.7058 75.3704C77.3624 76.9345 77.5649 78.569 78.2797 80.0019C78.9945 81.4348 80.1784 82.5798 81.6345 83.2462C83.0905 83.9126 84.7309 84.0603 86.2826 83.6647C87.8343 83.2691 89.2037 82.3541 90.163 81.0719C91.1222 79.7898 91.6135 78.2177 91.555 76.6175C91.4965 75.0172 90.8918 73.4853 89.8415 72.2765L89.4961 71.9249L82.8644 65.2555L81.1688 63.5536L77.1684 59.5595L75.655 58.0335L75.3472 57.7321L73.8338 56.2186L69.8334 52.2371ZM60.0743 52.3815C59.3736 53.0889 58.4785 53.5721 57.5026 53.7698C56.5268 53.9675 55.5142 53.8708 54.5934 53.492C53.6726 53.1131 52.8851 52.4692 52.331 51.642C51.7768 50.8148 51.481 49.8415 51.481 48.8459C51.481 47.8502 51.7768 46.877 52.331 46.0497C52.8851 45.2225 53.6726 44.5786 54.5934 44.1997C55.5142 43.8209 56.5268 43.7242 57.5026 43.9219C58.4785 44.1196 59.3736 44.6028 60.0743 45.3102C61.0062 46.251 61.529 47.5217 61.529 48.8459C61.529 50.1701 61.0062 51.4407 60.0743 52.3815Z" fill="#435148"/>
<path id="Vector_2" d="M69.8396 35.5261L97.861 63.5538L98.2127 63.8992C100.977 66.5343 104.413 68.3579 108.145 69.1703C111.877 69.9827 115.76 69.7527 119.37 68.5053C122.979 67.2579 126.176 65.0413 128.61 62.0983C131.044 59.1552 132.621 55.5991 133.169 51.8195C133.717 48.0398 133.214 44.1824 131.716 40.6694C130.217 37.1565 127.781 34.1236 124.674 31.9029C121.567 29.6822 117.909 28.3592 114.1 28.0789C110.291 27.7986 106.478 28.5718 103.08 30.3137C104.835 26.8958 105.609 23.0589 105.318 19.2279C105.027 15.3968 103.682 11.721 101.431 8.60746C99.1794 5.49391 96.1105 3.06405 92.5637 1.5869C89.0169 0.109754 85.1305 -0.357055 81.3348 0.238156C77.5391 0.833366 73.9821 2.46738 71.0577 4.95928C68.1333 7.45119 65.9555 10.7038 64.7655 14.3569C63.5754 18.0101 63.4196 21.9213 64.3151 25.6576C65.2107 29.3939 67.1228 32.8094 69.8396 35.5261ZM77.5515 40.4057L71.2715 34.1257C68.4932 31.3422 66.6576 27.7575 66.0232 23.8762C65.3887 19.9949 65.9873 16.0123 67.7347 12.489C69.482 8.96563 72.2903 6.07892 75.7641 4.23509C79.2379 2.39125 83.2024 1.68311 87.0998 2.21033C90.9971 2.73756 94.631 4.47359 97.4901 7.17413C100.349 9.87467 102.289 13.4037 103.038 17.2647C103.786 21.1257 103.305 25.1241 101.662 28.6974C100.02 32.2706 97.2975 35.2388 93.8795 37.1841L90.1115 33.4161C92.7987 32.2392 95.0383 30.2325 96.5019 27.6901C97.9655 25.1476 98.5762 22.2032 98.2444 19.2884C97.9126 16.3736 96.6558 13.6417 94.6582 11.4932C92.6606 9.34479 90.0274 7.89274 87.1444 7.34995C84.2614 6.80716 81.2804 7.20218 78.6383 8.47711C75.9962 9.75204 73.832 11.8398 72.4629 14.4344C71.0938 17.029 70.5919 19.9939 71.0307 22.8945C71.4696 25.7951 72.826 28.4789 74.9013 30.5524L74.9892 30.634L83.9885 39.6333L85.9541 41.5989L91.8762 47.521L93.8418 49.4866L102.841 58.4796L102.923 58.5738L103.017 58.6554L103.274 58.9192C105.408 60.9097 108.119 62.1697 111.016 62.517C113.913 62.8642 116.846 62.2807 119.389 60.8507C121.933 59.4208 123.955 57.2186 125.164 54.563C126.373 51.9073 126.705 48.9359 126.113 46.0788C125.521 43.2216 124.036 40.6269 121.871 38.6702C119.707 36.7134 116.976 35.4962 114.074 35.1945C111.171 34.8928 108.249 35.5224 105.728 36.9922C103.207 38.4619 101.22 40.6955 100.053 43.3699L96.2847 39.6019C98.2299 36.1719 101.202 33.4387 104.783 31.7874C108.364 30.1361 112.372 29.6499 116.244 30.3974C120.116 31.1448 123.655 33.0883 126.364 35.9538C129.073 38.8194 130.814 42.4626 131.343 46.3702C131.871 50.2777 131.161 54.2527 129.311 57.7349C127.461 61.2172 124.565 64.0312 121.031 65.7805C117.497 67.5297 113.503 68.1261 109.612 67.4855C105.721 66.845 102.13 64.9998 99.3431 62.2099L93.0631 55.9299L77.5515 40.4057ZM91.9515 38.1072L93.465 39.6207L93.7727 39.9284L95.2862 41.4419L99.3117 45.4737L101.007 47.1693L107.652 53.8198L108.003 54.1652C109.21 55.2141 110.74 55.8186 112.338 55.8785C113.936 55.9383 115.506 55.4498 116.789 54.4941C118.071 53.5384 118.987 52.173 119.387 50.6245C119.786 49.076 119.644 47.4375 118.983 45.981C118.323 44.5245 117.184 43.3377 115.757 42.6175C114.329 41.8972 112.698 41.6869 111.134 42.0215C109.57 42.3561 108.168 43.2153 107.16 44.4567C106.152 45.6981 105.598 47.2469 105.592 48.846L109.021 52.3377C108.32 51.6304 107.846 50.731 107.658 49.7537C107.469 48.7764 107.576 47.7652 107.963 46.8483C108.35 45.9315 109.001 45.1503 109.833 44.6039C110.665 44.0576 111.64 43.7706 112.636 43.7794C113.631 43.7882 114.601 44.0925 115.423 44.6535C116.245 45.2146 116.882 46.0072 117.253 46.9308C117.624 47.8543 117.712 48.8673 117.507 49.8411C117.301 50.8149 116.811 51.7057 116.098 52.4005C115.149 53.326 113.872 53.8388 112.546 53.827C111.221 53.8153 109.953 53.2799 109.021 52.3377L105.592 48.9088L101.547 44.8457C102.404 42.4607 104.01 40.4173 106.125 39.0217C108.24 37.626 110.751 36.9533 113.28 37.1041C115.81 37.255 118.223 38.2214 120.157 39.8585C122.091 41.4956 123.443 43.7154 124.01 46.1853C124.577 48.6552 124.328 51.2423 123.301 53.559C122.275 55.8758 120.525 57.7975 118.314 59.0363C116.103 60.2752 113.551 60.7644 111.039 60.4308C108.527 60.0972 106.19 58.9587 104.38 57.1859L104.204 57.01L99.2426 52.0488L93.8983 46.7297L92.1399 44.965L88.4284 41.2535L86.6638 39.4951L81.3195 34.1697L76.3583 29.2147L76.2704 29.1268C74.4765 27.3318 73.3138 25.0029 72.9571 22.4903C72.6004 19.9778 73.069 17.4173 74.2924 15.194C75.5158 12.9706 77.428 11.2044 79.7413 10.161C82.0547 9.11767 84.6442 8.85347 87.1206 9.40815C89.597 9.96283 91.8264 11.3064 93.4736 13.2369C95.1209 15.1674 96.0969 17.5805 96.255 20.1133C96.4131 22.6461 95.7447 25.1618 94.3503 27.2822C92.9559 29.4025 90.9108 31.0129 88.5226 31.8712L84.4846 27.8331C86.1077 27.849 87.6858 27.3005 88.9492 26.2815C90.2126 25.2625 91.0827 23.8362 91.4107 22.2465C91.7388 20.6569 91.5044 19.0027 90.7477 17.5667C89.9909 16.1308 88.7589 15.0023 87.2621 14.3744C85.7654 13.7464 84.097 13.6579 82.5422 14.124C80.9875 14.5901 79.6429 15.5819 78.7385 16.9297C77.8341 18.2776 77.4261 19.8977 77.5841 21.5131C77.7422 23.1286 78.4565 24.6389 79.605 25.7859L86.2493 32.4113L87.9512 34.1069L91.9515 38.1072ZM81.0243 24.3477C80.3169 23.647 79.8337 22.7519 79.636 21.7761C79.4383 20.8002 79.535 19.7876 79.9138 18.8668C80.2927 17.9461 80.9366 17.1586 81.7638 16.6045C82.5911 16.0503 83.5643 15.7545 84.56 15.7545C85.5556 15.7545 86.5289 16.0503 87.3561 16.6045C88.1833 17.1586 88.8272 17.9461 89.2061 18.8668C89.5849 19.7876 89.6816 20.8002 89.4839 21.7761C89.2862 22.7519 88.803 23.647 88.0956 24.3477C87.1548 25.2797 85.8842 25.8025 84.56 25.8025C83.2357 25.8025 81.9651 25.2797 81.0243 24.3477Z" fill="#435148"/>
<path id="Vector_3" d="M97.8611 34.1131L69.8397 62.1344L69.488 62.4861C66.854 65.251 65.0315 68.6872 64.22 72.4187C63.4085 76.1501 63.6393 80.0329 64.8871 83.642C66.1348 87.251 68.3516 90.4472 71.2945 92.8806C74.2374 95.314 77.7931 96.8907 81.5723 97.4383C85.3516 97.9859 89.2086 97.4831 92.7211 95.985C96.2337 94.4869 99.2663 92.0513 101.487 88.9448C103.708 85.8383 105.031 82.1807 105.312 78.3724C105.593 74.564 104.821 70.7518 103.08 67.3531C106.498 69.108 110.335 69.8828 114.166 69.5917C117.997 69.3007 121.672 67.9551 124.786 65.7039C127.9 63.4528 130.329 60.384 131.807 56.8372C133.284 53.2904 133.751 49.404 133.155 45.6082C132.56 41.8125 130.926 38.2555 128.434 35.3311C125.942 32.4067 122.69 30.2289 119.037 29.0389C115.383 27.8489 111.472 27.693 107.736 28.5886C104 29.4842 100.584 31.3962 97.8673 34.1131H97.8611ZM92.9878 41.8249L99.2678 35.5449C102.054 32.755 105.646 30.9098 109.537 30.2692C113.428 29.6287 117.421 30.225 120.955 31.9743C124.489 33.7236 127.385 36.5376 129.235 40.0199C131.085 43.5021 131.796 47.477 131.267 51.3846C130.739 55.2922 128.997 58.9354 126.289 61.801C123.58 64.6665 120.04 66.6099 116.169 67.3574C112.297 68.1049 108.288 67.6187 104.708 65.9674C101.127 64.3161 98.1546 61.5829 96.2094 58.1529L99.9774 54.3849C101.154 57.0721 103.161 59.3117 105.703 60.7753C108.246 62.2389 111.19 62.8496 114.105 62.5178C117.02 62.186 119.752 60.9292 121.9 58.9317C124.049 56.9341 125.501 54.3008 126.044 51.4178C126.586 48.5349 126.191 45.5538 124.916 42.9117C123.641 40.2696 121.554 38.1054 118.959 36.7363C116.365 35.3673 113.4 34.8654 110.499 35.3042C107.598 35.743 104.915 37.0995 102.841 39.1748C102.813 39.2056 102.784 39.235 102.753 39.2627L93.7916 48.2117L91.826 50.1773L85.9039 56.0994L83.9383 58.065L74.9391 67.058L74.8511 67.1459L74.7632 67.2401L74.5057 67.4976C72.5099 69.6261 71.2431 72.3346 70.8888 75.2309C70.5344 78.1272 71.1108 81.0611 72.5346 83.6081C73.9584 86.1551 76.1557 88.1829 78.8085 89.3982C81.4612 90.6135 84.4319 90.9532 87.2906 90.3681C90.1492 89.7829 92.7475 88.3034 94.7095 86.1436C96.6714 83.9837 97.8952 81.2556 98.2038 78.3541C98.5124 75.4525 97.8897 72.528 96.4258 70.0039C94.962 67.4797 92.7329 65.4868 90.0613 64.3136L93.8293 60.5456C97.2593 62.4908 99.9925 65.4632 101.644 69.0439C103.295 72.6247 103.781 76.6333 103.034 80.505C102.286 84.3766 100.343 87.9162 97.4774 90.6249C94.6118 93.3337 90.9686 95.075 87.061 95.6036C83.1534 96.1322 79.1785 95.4214 75.6962 93.5714C72.214 91.7214 69.4 88.8254 67.6507 85.2915C65.9014 81.7576 65.3051 77.7639 65.9456 73.8731C66.5862 69.9823 68.4314 66.3906 71.2213 63.604L77.5013 57.324L92.9878 41.8249ZM95.2863 56.225L93.7665 57.7384L93.4651 58.0399L91.9453 59.5596L87.9512 63.5537L86.2493 65.2556L79.6051 71.8998L79.2534 72.2515C78.2045 73.4596 77.601 74.9905 77.5432 76.5894C77.4854 78.1882 77.9769 79.7586 78.9359 81.0393C79.8949 82.3199 81.2635 83.2335 82.814 83.6281C84.3645 84.0227 86.0033 83.8743 87.4578 83.2079C88.9123 82.5414 90.0947 81.3969 90.8082 79.9649C91.5217 78.5329 91.7233 76.8998 91.3794 75.3372C91.0356 73.7747 90.167 72.3771 88.9183 71.3769C87.6695 70.3767 86.1159 69.8343 84.5161 69.84L81.0244 73.2689C81.7307 72.5672 82.6297 72.0911 83.607 71.9013C84.5844 71.7114 85.5962 71.8162 86.5139 72.2024C87.4316 72.5886 88.2139 73.2388 88.7614 74.0704C89.3089 74.902 89.597 75.8776 89.589 76.8732C89.5811 77.8688 89.2774 78.8397 88.7167 79.6624C88.156 80.4852 87.3634 81.1228 86.4397 81.4943C85.5159 81.8658 84.5026 81.9544 83.5283 81.7489C82.5541 81.5434 81.6629 81.0531 80.9678 80.3402C80.0434 79.392 79.5308 78.1171 79.5413 76.7929C79.5519 75.4687 80.0849 74.2022 81.0244 73.2689L84.4721 69.8274L88.5038 65.7894C90.135 66.3692 91.6157 67.3069 92.8371 68.5338C94.4732 70.1697 95.5888 72.2532 96.0433 74.5218C96.4978 76.7905 96.2709 79.1429 95.3912 81.2829C94.5115 83.4229 93.0183 85.2548 91.0996 86.5478C89.1809 87.8409 86.9226 88.5374 84.6088 88.5496C82.2951 88.5618 80.0295 87.8892 78.0973 86.6164C76.1651 85.3437 74.6526 83.5277 73.7504 81.3971C72.8482 79.2665 72.5965 76.9166 73.027 74.6433C73.4576 72.3699 74.5511 70.2748 76.1699 68.6217L76.3458 68.4458L81.307 63.4846L86.6512 58.1404L88.4097 56.3757L92.1211 52.6642L93.8858 50.9058L99.2301 45.5615L104.191 40.6003L104.279 40.5124C105.919 38.8732 108.008 37.7572 110.283 37.3052C112.557 36.8533 114.914 37.0858 117.056 37.9734C119.198 38.861 121.029 40.3638 122.317 42.2918C123.605 44.2198 124.293 46.4864 124.293 48.8051C124.293 51.1238 123.605 53.3905 122.317 55.3185C121.029 57.2465 119.198 58.7492 117.056 59.6368C114.914 60.5244 112.557 60.757 110.283 60.305C108.008 59.8531 105.919 58.737 104.279 57.0979C103.053 55.8787 102.115 54.4002 101.535 52.771L105.592 48.758C105.578 50.3796 106.128 51.9555 107.147 53.2164C108.167 54.4773 109.593 55.3449 111.182 55.6707C112.77 55.9966 114.422 55.7605 115.856 55.0029C117.29 54.2452 118.416 53.0131 119.041 51.5171C119.667 50.0211 119.754 48.3542 119.287 46.8015C118.819 45.2487 117.827 43.9065 116.48 43.0043C115.132 42.1021 113.513 41.6961 111.899 41.8555C110.286 42.015 108.778 42.73 107.633 43.8785L100.982 50.4976L99.3117 52.2246L95.2863 56.225ZM109.046 45.2978C109.746 44.5904 110.642 44.1072 111.617 43.9094C112.593 43.7117 113.606 43.8084 114.527 44.1873C115.447 44.5661 116.235 45.21 116.789 46.0373C117.343 46.8645 117.639 47.8377 117.639 48.8334C117.639 49.8291 117.343 50.8023 116.789 51.6295C116.235 52.4567 115.447 53.1007 114.527 53.4795C113.606 53.8584 112.593 53.9551 111.617 53.7573C110.642 53.5596 109.746 53.0764 109.046 52.369C108.114 51.4283 107.591 50.1576 107.591 48.8334C107.591 47.5092 108.114 46.2385 109.046 45.2978Z" fill="#435148"/>
<path id="Vector_4" d="M71.259 63.5536L99.3117 35.5322L99.6571 35.1805C102.285 32.4132 104.1 28.9767 104.906 25.2469C105.712 21.5171 105.477 17.6374 104.227 14.0321C102.977 10.4268 100.76 7.23466 97.8174 4.80462C94.8752 2.37459 91.3216 0.800226 87.545 0.253662C83.7684 -0.292903 79.9143 0.209368 76.4039 1.70556C72.8935 3.20176 69.8621 5.63428 67.641 8.73719C65.4199 11.8401 64.0946 15.4939 63.8101 19.2992C63.5256 23.1046 64.2927 26.9148 66.0277 30.3135C62.6095 28.5595 58.7725 27.7855 54.9416 28.0774C51.1106 28.3693 47.4352 29.7156 44.3222 31.9673C41.2091 34.2191 38.7799 37.2883 37.3035 40.8354C35.8271 44.3824 35.361 48.2688 35.9569 52.0644C36.5528 55.8599 38.1874 59.4165 40.6798 62.3404C43.1721 65.2644 46.425 67.4415 50.0783 68.6309C53.7316 69.8204 57.6428 69.9756 61.3789 69.0795C65.1149 68.1833 68.5302 66.2708 71.2464 63.5536H71.259ZM76.1323 55.8418L69.8523 62.1218C67.0656 64.9116 63.4739 66.7568 59.5831 67.3974C55.6923 68.038 51.6986 67.4416 48.1647 65.6923C44.6308 63.9431 41.7348 61.1291 39.8848 57.6468C38.0348 54.1646 37.324 50.1896 37.8526 46.282C38.3812 42.3745 40.1226 38.7312 42.8313 35.8657C45.54 33.0001 49.0796 31.0567 52.9512 30.3092C56.8229 29.5618 60.8315 30.048 64.4123 31.6993C67.993 33.3506 70.9654 36.0838 72.9106 39.5137L69.1426 43.2817C67.9658 40.5945 65.959 38.3549 63.4166 36.8913C60.8742 35.4277 57.9297 34.8171 55.0149 35.1488C52.1001 35.4806 49.3683 36.7374 47.2198 38.735C45.0713 40.7326 43.6193 43.3659 43.0765 46.2488C42.5337 49.1318 42.9287 52.1128 44.2037 54.755C45.4786 57.3971 47.5664 59.5613 50.1609 60.9303C52.7555 62.2994 55.7204 62.8013 58.621 62.3625C61.5217 61.9237 64.2054 60.5672 66.2789 58.4919L66.3606 58.3977L75.3598 49.4048L77.3255 47.4391L83.2475 41.5171L85.2131 39.5514L94.2061 30.5522L94.3003 30.4705L94.3882 30.3763L94.6457 30.1189C96.6362 27.9854 97.8963 25.274 98.2435 22.3769C98.5908 19.4798 98.0072 16.5473 96.5773 14.0039C95.1473 11.4605 92.9452 9.438 90.2895 8.22917C87.6339 7.02033 84.6625 6.68784 81.8053 7.27982C78.9482 7.87179 76.3535 9.35751 74.3967 11.522C72.44 13.6864 71.2227 16.4174 70.921 19.3196C70.6194 22.2218 71.249 25.1447 72.7187 27.6653C74.1884 30.186 76.4221 32.1736 79.0964 33.3405L75.3284 37.1085C71.8984 35.1633 69.1652 32.1909 67.5139 28.6102C65.8626 25.0294 65.3765 21.0208 66.1239 17.1491C66.8714 13.2775 68.8148 9.7379 71.6804 7.02917C74.5459 4.32044 78.1891 2.5791 82.0967 2.05049C86.0043 1.52188 89.9792 2.23266 93.4615 4.08267C96.9437 5.93268 99.7577 8.82867 101.507 12.3626C103.256 15.8965 103.853 19.8902 103.212 23.781C102.572 27.6718 100.726 31.2635 97.9364 34.0501L91.6564 40.3301L76.1323 55.8418ZM73.8338 41.4417L75.3473 39.9282L75.655 39.6205L77.1685 38.107L81.1688 34.1067L82.8644 32.4111L89.5149 25.7605L89.8603 25.4151C90.9107 24.2064 91.5154 22.6744 91.5739 21.0742C91.6324 19.474 91.1411 17.9019 90.1818 16.6198C89.2225 15.3376 87.8531 14.4225 86.3014 14.027C84.7498 13.6314 83.1094 13.7791 81.6533 14.4455C80.1973 15.1119 79.0134 16.2568 78.2986 17.6898C77.5838 19.1227 77.3812 20.7572 77.7246 22.3212C78.0681 23.8853 78.9367 25.2846 80.1861 26.2863C81.4354 27.2879 82.9901 27.8315 84.5914 27.8267L88.0831 24.3978C87.3758 25.098 86.4764 25.5723 85.4991 25.7606C84.5218 25.9489 83.5106 25.8427 82.5937 25.4554C81.6769 25.0682 80.8957 24.4173 80.3493 23.5854C79.8029 22.7535 79.516 21.778 79.5248 20.7828C79.5336 19.7875 79.8379 18.8173 80.3989 17.9953C80.96 17.1732 81.7526 16.5363 82.6761 16.1653C83.5997 15.7944 84.6127 15.7061 85.5865 15.9117C86.5603 16.1173 87.4511 16.6076 88.1459 17.3202C89.0714 18.2695 89.5842 19.5462 89.5724 20.8719C89.5606 22.1977 89.0253 23.465 88.0831 24.3978L84.6354 27.8455L80.5973 31.8459C78.2123 30.9894 76.169 29.3834 74.7733 27.2682C73.3777 25.153 72.7049 22.6426 72.8558 20.113C73.0067 17.5833 73.973 15.1707 75.6102 13.2364C77.2473 11.302 79.467 9.9502 81.9369 9.38332C84.4068 8.81644 86.9939 9.06503 89.3107 10.0919C91.6274 11.1187 93.5492 12.8685 94.788 15.0792C96.0268 17.2898 96.5161 19.8424 96.1825 22.3544C95.8489 24.8665 94.7104 27.2029 92.9375 29.0136L92.7617 29.1894L87.8005 34.1695L82.4562 39.52L80.6915 41.2784L76.9801 44.9899L75.2217 46.7295L69.8774 52.0737L64.9162 57.035L64.8282 57.1229C63.0315 58.9181 60.7006 60.0816 58.1859 60.4386C55.6712 60.7957 53.1085 60.3269 50.8831 59.1028C48.6576 57.8787 46.8895 55.9654 45.8446 53.6504C44.7996 51.3354 44.5343 48.7437 45.0883 46.265C45.6424 43.7863 46.986 41.5543 48.9172 39.9045C50.8484 38.2548 53.2628 37.2764 55.7977 37.1163C58.3326 36.9563 60.8509 37.6233 62.9742 39.0171C65.0976 40.4108 66.7112 42.4561 67.5726 44.8455L63.5157 48.9086C63.5316 47.2856 62.9831 45.7074 61.9641 44.444C60.945 43.1807 59.5187 42.3105 57.9291 41.9825C56.3395 41.6544 54.6852 41.8888 53.2493 42.6455C51.8134 43.4023 50.6849 44.6344 50.0569 46.1311C49.429 47.6278 49.3405 49.2962 49.8066 50.851C50.2727 52.4058 51.2645 53.7503 52.6123 54.6547C53.9601 55.5591 55.5803 55.9672 57.1957 55.8091C58.8111 55.651 60.3215 54.9367 61.4685 53.7882L68.119 47.1377L69.8146 45.4421L73.8338 41.4417ZM60.0743 52.3815C59.3736 53.0888 58.4785 53.5721 57.5026 53.7698C56.5268 53.9675 55.5142 53.8708 54.5934 53.4919C53.6726 53.1131 52.8852 52.4692 52.331 51.642C51.7769 50.8147 51.481 49.8415 51.481 48.8458C51.481 47.8502 51.7769 46.8769 52.331 46.0497C52.8852 45.2225 53.6726 44.5786 54.5934 44.1997C55.5142 43.8209 56.5268 43.7242 57.5026 43.9219C58.4785 44.1196 59.3736 44.6028 60.0743 45.3102C61.0062 46.251 61.529 47.5216 61.529 48.8458C61.529 50.17 61.0062 51.4407 60.0743 52.3815Z" fill="#435148"/>
<path id="Vector_5" d="M55.2638 112.324C54.4096 111.44 53.3599 110.769 52.1992 110.365C50.7501 109.874 49.2261 109.64 47.6964 109.674C46.9344 109.674 46.1808 109.699 45.4356 109.75C44.6904 109.8 43.9368 109.825 43.1748 109.825C42.4149 109.825 41.6613 109.825 40.914 109.781C40.1667 109.737 39.4131 109.718 38.6532 109.674C38.716 110.993 38.7725 112.287 38.8228 113.555C38.873 114.824 38.8981 116.115 38.8981 117.43V122.573C38.8981 123.892 38.873 125.19 38.8228 126.467C38.7725 127.723 38.716 128.979 38.6532 130.235C39.3314 130.191 40.0034 130.172 40.6628 130.172H42.6661C43.3444 130.172 44.01 130.172 44.6694 130.204C45.3288 130.235 46.0008 130.204 46.679 130.204C47.9279 130.193 49.1698 130.016 50.3717 129.676C51.6585 129.329 52.8614 128.725 53.9073 127.899C55.0178 127.003 55.9164 125.873 56.5386 124.589C57.2693 123.018 57.622 121.297 57.5686 119.565C57.5883 118.164 57.4021 116.767 57.0159 115.42C56.6814 114.266 56.0813 113.206 55.2638 112.324ZM53.8131 124.42C53.3465 125.554 52.6193 126.563 51.6905 127.365C50.8345 128.074 49.8267 128.577 48.7452 128.834C47.6648 129.091 46.5585 129.221 45.4482 129.224C44.6883 129.224 43.9535 129.224 43.2376 129.148C42.6631 129.118 42.092 129.043 41.5294 128.922C41.4101 126.844 41.3473 124.734 41.3473 122.573V117.43C41.3473 116.35 41.3473 115.289 41.3913 114.24C41.4352 113.191 41.4666 112.192 41.5294 111.232C42.1574 111.156 42.8482 111.081 43.627 111.024C44.4057 110.968 45.2409 110.936 46.139 110.936C47.2862 110.928 48.4305 111.052 49.549 111.307C50.534 111.539 51.4478 112.006 52.2117 112.67C53.0095 113.392 53.6158 114.3 53.9764 115.314C54.8887 118.295 54.8249 121.49 53.7943 124.432L53.8131 124.42Z" fill="#435148"/>
<path id="Vector_6" d="M129.104 109.674C129.198 111.432 129.267 113.304 129.299 115.288C129.33 117.273 129.343 119.314 129.343 121.411V125.481C128.426 124.564 127.352 123.45 126.121 122.14L122.234 117.983C120.865 116.517 119.487 115.031 118.102 113.524C116.716 112.017 115.414 110.606 114.195 109.291H113.718C113.756 109.969 113.781 110.993 113.793 112.368C113.806 113.744 113.793 115.395 113.793 117.311C113.793 117.97 113.793 118.717 113.793 119.553C113.793 120.388 113.743 121.248 113.718 122.127C113.693 123.007 113.643 123.886 113.599 124.759C113.555 125.632 113.505 126.454 113.461 127.202C113.417 127.949 113.379 128.589 113.329 129.13C113.301 129.502 113.255 129.873 113.191 130.241C113.559 130.196 113.931 130.175 114.302 130.178C114.651 130.175 114.999 130.196 115.345 130.241C115.345 130.078 115.307 129.776 115.288 129.324C115.269 128.872 115.244 128.351 115.225 127.754C115.206 127.158 115.188 126.498 115.169 125.807C115.15 125.117 115.131 124.42 115.125 123.741C115.119 123.063 115.125 122.416 115.125 121.801C115.125 121.185 115.125 120.664 115.125 120.243C115.125 118.623 115.125 117.346 115.125 116.413C115.125 115.471 115.169 114.723 115.188 114.164C117.783 116.923 120.377 119.693 122.969 122.473C125.56 125.253 128.003 127.974 130.297 130.637H130.712V129.626C130.712 129.148 130.712 128.583 130.712 127.936C130.712 127.29 130.712 126.592 130.68 125.839C130.649 125.085 130.68 124.35 130.68 123.609C130.68 122.868 130.68 122.165 130.68 121.487V119.703C130.68 119.125 130.68 118.359 130.737 117.399C130.793 116.438 130.825 115.464 130.875 114.466C130.925 113.467 130.976 112.532 131.026 111.652C131.076 110.773 131.12 110.114 131.158 109.674C130.846 109.761 130.526 109.812 130.203 109.825C129.832 109.823 129.462 109.772 129.104 109.674Z" fill="#435148"/>
<path id="Vector_7" d="M16.5538 124.978C16.0451 123.817 15.5051 122.554 14.9273 121.21L13.2003 117.128C12.6225 115.755 12.0573 114.399 11.5047 113.059L9.95353 109.291H9.38833C7.83926 112.85 6.29857 116.348 4.76625 119.785C3.23393 123.222 1.67439 126.687 0.0876465 130.178C0.820475 130.103 1.5591 130.103 2.29193 130.178C2.5515 129.261 2.93877 128.104 3.45373 126.705C3.87239 125.621 4.3099 124.487 4.76625 123.302C6.86377 117.97 8.99897 113.335 8.99897 113.335C9.88445 115.163 10.883 117.468 11.8187 119.791L12.3085 120.909H12.2709C13.0684 122.894 13.8095 124.828 14.4061 126.41V126.498C14.6949 127.202 14.9587 127.88 15.1973 128.527C15.436 129.174 15.6244 129.72 15.7625 130.178C16.0248 130.142 16.2891 130.123 16.5538 130.122H18.1364C18.4011 130.123 18.6654 130.142 18.9277 130.178C18.6639 129.701 18.2997 129.004 17.9291 128.093C17.5586 127.183 17.0437 126.14 16.5538 124.978Z" fill="#435148"/>
<path id="Vector_8" d="M91.0598 124.978C90.5511 123.817 90.011 122.554 89.4332 121.21C88.8555 119.867 88.2777 118.498 87.6999 117.128C87.1222 115.759 86.557 114.397 86.0043 113.059L84.4532 109.291H83.888C82.3389 112.85 80.7982 116.348 79.2659 119.785C77.7336 123.222 76.1636 126.68 74.5559 130.159C75.2887 130.084 76.0274 130.084 76.7602 130.159C77.0156 129.243 77.4049 128.085 77.9283 126.687C78.326 125.602 78.7635 124.468 79.2408 123.283C81.332 117.951 83.4672 113.316 83.4672 113.316C84.359 115.144 85.3512 117.449 86.2869 119.772L86.7768 120.89H86.7517C87.5492 122.875 88.2903 124.809 88.8869 126.391L88.9246 126.479C89.2134 127.183 89.4772 127.861 89.7158 128.508C89.9545 129.155 90.1429 129.701 90.281 130.159C90.5432 130.123 90.8076 130.104 91.0723 130.103H92.6486C92.9133 130.104 93.1777 130.123 93.4399 130.159C93.1824 129.682 92.8496 128.985 92.4414 128.075C92.0332 127.164 91.5622 126.14 91.0598 124.978Z" fill="#435148"/>
<path id="Vector_9" d="M168.065 128.093C167.657 127.176 167.205 126.14 166.696 124.953C166.187 123.766 165.647 122.529 165.07 121.185C164.492 119.841 163.92 118.472 163.343 117.103L161.641 113.034C161.088 111.69 160.567 110.446 160.09 109.266H159.524C157.975 112.824 156.435 116.322 154.902 119.76C153.37 123.197 151.796 126.67 150.18 130.178C150.915 130.103 151.655 130.103 152.39 130.178C152.646 129.261 153.033 128.104 153.552 126.705C153.971 125.621 154.408 124.486 154.865 123.301C156.956 117.97 159.097 113.335 159.097 113.335C159.983 115.163 160.981 117.467 161.917 119.791L162.407 120.909H162.369C163.16 122.893 163.908 124.827 164.504 126.41L164.536 126.498C164.825 127.201 165.088 127.88 165.327 128.526C165.566 129.173 165.754 129.72 165.892 130.178C166.154 130.141 166.419 130.122 166.684 130.122H168.26C168.525 130.122 168.789 130.141 169.051 130.178C168.806 129.701 168.473 128.997 168.065 128.093Z" fill="#435148"/>
<path id="Vector_10" d="M28.0211 144.924C28.0211 143.234 28.0211 142.927 28.0211 142.569C28.0211 142.211 27.9081 142.016 27.5438 141.941C27.4012 141.913 27.2559 141.9 27.1105 141.903C26.9912 141.903 26.9221 141.903 26.9221 141.809C26.9221 141.715 27.0038 141.708 27.167 141.708C27.7574 141.708 28.423 141.708 28.6868 141.708C29.0636 141.708 29.9051 141.708 30.2505 141.708C30.9635 141.657 31.6754 141.823 32.2915 142.186C32.5264 142.362 32.7168 142.59 32.8476 142.853C32.9785 143.116 33.0461 143.406 33.0451 143.699C33.0451 144.522 32.6997 145.275 31.5819 146.211C32.5678 147.467 33.334 148.441 33.9871 149.125C34.3056 149.514 34.7497 149.781 35.2431 149.879C35.3441 149.902 35.4473 149.914 35.5508 149.916C35.6388 149.916 35.6827 149.948 35.6827 150.004C35.6827 150.061 35.6074 150.111 35.4755 150.111H34.3828C33.9758 150.148 33.5662 150.077 33.1958 149.904C32.581 149.471 32.0634 148.915 31.6761 148.271C31.2365 147.643 30.7215 146.908 30.5771 146.745C30.5545 146.716 30.5247 146.693 30.4905 146.678C30.4564 146.664 30.4191 146.659 30.3824 146.663H29.4153C29.3588 146.663 29.3274 146.663 29.3274 146.751V146.908C29.3274 147.938 29.3274 148.792 29.3839 149.276C29.3839 149.602 29.4844 149.841 29.8172 149.904C29.9805 149.904 30.2254 149.948 30.3573 149.948C30.4892 149.948 30.4892 149.979 30.4892 150.036C30.4892 150.092 30.4138 150.142 30.2694 150.142C29.6414 150.142 28.8061 150.111 28.6428 150.111C28.4796 150.111 27.7322 150.142 27.2864 150.142C27.1419 150.142 27.0666 150.111 27.0666 150.036C27.0666 149.96 27.1105 149.948 27.2424 149.948C27.3775 149.946 27.5121 149.932 27.6443 149.904C27.8641 149.854 27.9206 149.615 27.9646 149.276C28.0211 148.811 28.0211 147.938 28.0211 146.915V144.924ZM29.3274 145.797C29.3274 145.922 29.3274 145.966 29.4278 145.998C29.7019 146.073 29.9852 146.109 30.2694 146.104C30.5445 146.143 30.8242 146.078 31.0544 145.922C31.2825 145.714 31.4583 145.454 31.5674 145.165C31.6765 144.876 31.7159 144.565 31.6824 144.258C31.6824 142.682 30.6399 142.23 29.9805 142.23C29.7847 142.218 29.5883 142.233 29.3964 142.274C29.3148 142.274 29.296 142.336 29.296 142.424L29.3274 145.797Z" fill="#435148"/>
<path id="Vector_11" d="M39.7208 144.924C39.7208 143.234 39.7208 142.927 39.7208 142.569C39.7208 142.211 39.614 142.016 39.2435 141.941C39.1029 141.913 38.9597 141.9 38.8164 141.903C38.6908 141.903 38.6281 141.903 38.6281 141.809C38.6281 141.715 38.7034 141.708 38.8667 141.708H39.7647H40.4681C40.8198 141.708 43.0241 141.708 43.2376 141.708C43.3977 141.696 43.557 141.675 43.7149 141.646C43.7718 141.625 43.8307 141.61 43.8907 141.602C43.9472 141.602 43.9598 141.646 43.9598 141.696C43.9179 141.935 43.8885 142.176 43.8719 142.418C43.8719 142.531 43.8342 143.046 43.8153 143.153C43.7965 143.259 43.8153 143.272 43.7023 143.272C43.5892 143.272 43.6018 143.216 43.6018 143.115C43.6046 142.98 43.5833 142.846 43.539 142.719C43.4574 142.518 43.3506 142.387 42.7917 142.317C42.6033 142.317 41.4415 142.274 41.2217 142.274C41.1652 142.274 41.1401 142.311 41.1401 142.387V145.194C41.1401 145.269 41.1401 145.313 41.2217 145.313C41.4666 145.313 42.7415 145.313 42.9927 145.313C43.2439 145.313 43.426 145.263 43.5265 145.15C43.6269 145.037 43.6458 145.005 43.7023 145.005C43.7138 145.004 43.7255 145.006 43.7364 145.01C43.7472 145.014 43.757 145.021 43.7649 145.029C43.7728 145.038 43.7786 145.048 43.7819 145.059C43.7852 145.07 43.7859 145.082 43.7839 145.093C43.7839 145.162 43.7337 145.338 43.6897 145.903C43.6897 146.123 43.6458 146.569 43.6458 146.644C43.6458 146.72 43.6458 146.858 43.5453 146.858C43.4448 146.858 43.4511 146.814 43.4511 146.757C43.4448 146.622 43.4281 146.488 43.4009 146.356C43.3506 146.136 43.1936 145.972 42.7729 145.928C42.5593 145.928 41.4603 145.891 41.1966 145.891C41.1401 145.891 41.1275 145.935 41.1275 146.004V146.877C41.1275 147.254 41.1275 148.277 41.1275 148.597C41.1275 149.364 41.3285 149.527 42.4589 149.527C42.8115 149.548 43.1651 149.504 43.5013 149.395C43.7902 149.263 43.9221 149.031 44.0037 148.572C44.0037 148.453 44.0477 148.409 44.1231 148.409C44.1984 148.409 44.211 148.497 44.211 148.61C44.1934 149.032 44.1451 149.451 44.0665 149.866C43.9912 150.155 43.8907 150.155 43.4385 150.155C42.6033 150.155 41.9941 150.155 41.5169 150.117C41.0396 150.08 40.7005 150.086 40.3676 150.086C40.242 150.086 40.0034 150.086 39.7396 150.086H38.9734C38.829 150.086 38.7536 150.054 38.7536 149.979C38.7536 149.904 38.7976 149.891 38.9295 149.891C39.0646 149.89 39.1992 149.875 39.3314 149.847C39.5512 149.797 39.6077 149.558 39.6517 149.219C39.7082 148.754 39.7082 147.882 39.7082 146.858L39.7208 144.924Z" fill="#435148"/>
<path id="Vector_12" d="M49.4485 149.954C49.2727 149.878 49.235 149.822 49.235 149.577C49.235 148.949 49.2789 148.321 49.2915 148.126C49.3041 147.932 49.3355 147.837 49.4234 147.837C49.5113 147.837 49.5364 147.938 49.5364 148.026C49.546 148.218 49.5798 148.408 49.6369 148.591C49.7305 148.932 49.9394 149.229 50.228 149.433C50.5166 149.637 50.867 149.735 51.2195 149.709C51.4005 149.729 51.5837 149.712 51.758 149.659C51.9322 149.605 52.0938 149.517 52.233 149.4C52.3722 149.283 52.4861 149.138 52.5677 148.975C52.6493 148.812 52.697 148.635 52.7078 148.453C52.7078 147.913 52.5383 147.398 51.6214 146.682L51.1127 146.28C49.8567 145.325 49.4673 144.553 49.4673 143.655C49.4673 142.399 50.491 141.557 52.0296 141.557C52.5278 141.553 53.0243 141.616 53.5054 141.746C53.6059 141.746 53.6624 141.802 53.6624 141.878C53.6624 141.953 53.6184 142.342 53.6184 143.209C53.6184 143.454 53.5807 143.542 53.4928 143.542C53.4049 143.542 53.3798 143.473 53.3798 143.341C53.3613 143.075 53.2628 142.821 53.0972 142.612C52.9559 142.428 52.7713 142.282 52.5598 142.187C52.3483 142.092 52.1166 142.05 51.8851 142.066C51.7217 142.045 51.5556 142.058 51.3977 142.106C51.2399 142.153 51.0939 142.234 50.9693 142.342C50.8447 142.45 50.7444 142.583 50.675 142.732C50.6055 142.882 50.5685 143.044 50.5663 143.209C50.5663 143.718 50.8238 144.107 51.7407 144.804L52.0547 145.036C53.3923 146.048 53.8696 146.814 53.8696 147.863C53.8765 148.247 53.7842 148.627 53.6016 148.966C53.419 149.305 53.1523 149.591 52.8271 149.797C52.2966 150.113 51.6861 150.27 51.0687 150.249C50.5135 150.271 49.9602 150.17 49.4485 149.954Z" fill="#435148"/>
<path id="Vector_13" d="M59.8419 144.924C59.8419 143.234 59.8419 142.927 59.8419 142.569C59.8419 142.211 59.71 142.003 59.4651 141.941C59.3334 141.909 59.1984 141.895 59.0632 141.897C58.9564 141.897 58.8873 141.897 58.8873 141.79C58.8873 141.683 58.9752 141.702 59.1574 141.702C59.5781 141.702 60.2752 141.702 60.5955 141.702C60.9158 141.702 61.5249 141.702 61.9457 141.702C62.0901 141.702 62.1781 141.702 62.1781 141.79C62.1781 141.878 62.1152 141.897 62.0022 141.897C61.8903 141.898 61.7788 141.911 61.6694 141.934C61.3742 141.991 61.2863 142.179 61.2612 142.562C61.2361 142.945 61.2612 143.228 61.2612 144.917V146.864C61.2612 147.944 61.2612 148.817 61.3114 149.294C61.3114 149.596 61.4182 149.791 61.751 149.841C61.9385 149.865 62.1272 149.88 62.3162 149.885C62.4418 149.885 62.4921 149.916 62.4921 149.973C62.4921 150.029 62.4041 150.079 62.2848 150.079C61.5501 150.079 60.853 150.048 60.5515 150.048C60.2501 150.048 59.6032 150.079 59.1574 150.079C59.0129 150.079 58.9376 150.048 58.9376 149.973C58.9376 149.897 58.9815 149.885 59.1134 149.885C59.2464 149.884 59.379 149.869 59.5091 149.841C59.7351 149.791 59.7979 149.602 59.8356 149.282C59.8921 148.817 59.8921 147.944 59.8921 146.864L59.8419 144.924Z" fill="#435148"/>
<path id="Vector_14" d="M68.1818 144.923C68.1818 143.234 68.1818 142.926 68.1818 142.568C68.1818 142.21 68.0687 142.016 67.7045 141.94C67.5618 141.912 67.4165 141.9 67.2712 141.903C67.1518 141.903 67.0828 141.903 67.0828 141.808C67.0828 141.714 67.1644 141.708 67.3277 141.708C67.918 141.708 68.6151 141.708 68.9228 141.708C69.2305 141.708 69.9653 141.708 70.631 141.708C72.0188 141.708 73.8714 141.708 75.0772 142.964C75.7914 143.724 76.1773 144.735 76.1511 145.777C76.1697 146.927 75.7368 148.039 74.9453 148.873C74.4464 149.33 73.8605 149.681 73.2228 149.905C72.585 150.13 71.9085 150.223 71.2338 150.18C70.8319 150.18 70.3798 150.148 69.9778 150.117C69.5759 150.086 69.1677 150.048 68.8914 150.048C68.7658 150.048 68.5209 150.048 68.2634 150.048C68.0059 150.048 67.717 150.048 67.4972 150.048C67.2774 150.048 67.2774 150.016 67.2774 149.941C67.2774 149.866 67.3214 149.853 67.4533 149.853C67.5884 149.852 67.723 149.837 67.8552 149.809C68.075 149.759 68.1315 149.52 68.1755 149.181C68.232 148.716 68.232 147.844 68.232 146.82L68.1818 144.923ZM69.5634 146.142C69.5634 147.316 69.5634 148.17 69.5634 148.377C69.5543 148.665 69.5947 148.951 69.6827 149.225C69.8271 149.432 70.2604 149.665 71.1396 149.665C72.0608 149.74 72.9751 149.454 73.6893 148.867C74.399 148.239 74.6188 147.247 74.6188 146.104C74.6376 145.594 74.5527 145.086 74.3691 144.61C74.1856 144.134 73.9073 143.7 73.5512 143.335C72.6899 142.569 71.5622 142.172 70.4112 142.229C70.1683 142.225 69.9258 142.251 69.689 142.305C69.6448 142.32 69.6075 142.351 69.5834 142.391C69.5594 142.431 69.55 142.478 69.5571 142.524C69.5571 142.901 69.5571 143.868 69.5571 144.741L69.5634 146.142Z" fill="#435148"/>
<path id="Vector_15" d="M81.7779 144.924C81.7779 143.234 81.7779 142.927 81.7779 142.569C81.7779 142.211 81.6711 142.016 81.3006 141.941C81.1601 141.913 81.0169 141.9 80.8736 141.903C80.748 141.903 80.6852 141.903 80.6852 141.809C80.6852 141.715 80.7605 141.708 80.9238 141.708H81.8219H82.5252C82.8769 141.708 85.0812 141.708 85.2947 141.708C85.4547 141.695 85.614 141.674 85.772 141.646C85.829 141.625 85.8879 141.61 85.9478 141.602C86.0043 141.602 86.0169 141.646 86.0169 141.696C85.975 141.935 85.9457 142.176 85.929 142.418C85.929 142.531 85.8913 143.046 85.8725 143.153C85.8536 143.259 85.8348 143.272 85.7594 143.272C85.6841 143.272 85.6589 143.216 85.6589 143.115C85.6586 142.981 85.6374 142.847 85.5961 142.719C85.5145 142.518 85.4077 142.387 84.8488 142.317C84.6604 142.317 83.4986 142.274 83.2788 142.274C83.2223 142.274 83.1972 142.311 83.1972 142.387V145.194C83.1972 145.269 83.1972 145.313 83.2788 145.313C83.5175 145.313 84.7923 145.313 85.0498 145.313C85.3073 145.313 85.4831 145.263 85.5836 145.15C85.6841 145.037 85.7029 145.005 85.7594 145.005C85.8159 145.005 85.8348 145.005 85.8348 145.093C85.8348 145.181 85.7908 145.338 85.7469 145.903C85.7469 146.123 85.7029 146.569 85.7029 146.644C85.7029 146.72 85.7029 146.858 85.6024 146.858C85.5887 146.86 85.5747 146.859 85.5616 146.855C85.5484 146.85 85.5364 146.843 85.5266 146.833C85.5168 146.823 85.5095 146.811 85.5052 146.798C85.5009 146.785 85.4998 146.771 85.5019 146.757C85.5012 146.622 85.4865 146.488 85.458 146.356C85.4077 146.136 85.2507 145.972 84.83 145.928C84.6165 145.928 83.5175 145.891 83.2537 145.891C83.1972 145.891 83.1846 145.935 83.1846 146.004V146.877C83.1846 147.254 83.1846 148.277 83.1846 148.597C83.1846 149.364 83.3856 149.527 84.516 149.527C84.8687 149.548 85.2222 149.504 85.5585 149.395C85.8473 149.263 85.9792 149.031 86.0546 148.572C86.0546 148.453 86.1048 148.409 86.1802 148.409C86.2555 148.409 86.2681 148.497 86.2681 148.61C86.2506 149.032 86.2023 149.451 86.1237 149.866C86.0483 150.155 85.9478 150.155 85.5271 150.155C84.6918 150.155 84.0827 150.155 83.6054 150.117C83.1281 150.08 82.789 150.086 82.4561 150.086C82.3305 150.086 82.0919 150.086 81.8281 150.086H81.062C80.9175 150.086 80.8422 150.054 80.8422 149.979C80.8422 149.904 80.8861 149.891 81.018 149.891C81.1531 149.89 81.2877 149.875 81.4199 149.847C81.6397 149.797 81.6963 149.558 81.7402 149.219C81.7967 148.754 81.7967 147.882 81.7967 146.858L81.7779 144.924Z" fill="#435148"/>
<path id="Vector_16" d="M92.7365 148.579C92.7365 149.445 92.8998 149.734 93.1196 149.835C93.3061 149.895 93.5015 149.922 93.6973 149.916C93.8229 149.916 93.8857 149.916 93.8857 150.004C93.8857 150.092 93.7853 150.111 93.6345 150.111C92.9123 150.111 92.4665 150.079 92.2592 150.079C92.1587 150.079 91.6312 150.111 91.0597 150.111C90.9153 150.111 90.8148 150.111 90.8148 150.004C90.8148 149.897 90.8839 149.916 90.9907 149.916C91.1598 149.918 91.3286 149.899 91.4931 149.86C91.7819 149.772 91.8259 149.445 91.8385 148.484L91.9389 141.922C91.9389 141.696 91.9703 141.545 92.0834 141.545C92.1964 141.545 92.3032 141.689 92.4916 141.884C92.68 142.079 94.3065 143.837 95.9267 145.445C96.6803 146.198 98.1813 147.794 98.3634 147.957H98.4199L98.3131 142.977C98.3131 142.299 98.2001 142.091 97.9363 141.978C97.7449 141.922 97.5453 141.899 97.346 141.909C97.2141 141.909 97.1702 141.878 97.1702 141.815C97.1702 141.752 97.2895 141.714 97.4591 141.714C98.0368 141.714 98.5643 141.714 98.7967 141.714C98.9223 141.714 99.3431 141.714 99.8831 141.714C100.028 141.714 100.141 141.714 100.141 141.815C100.141 141.915 100.072 141.909 99.9397 141.909C99.8274 141.904 99.7151 141.917 99.6068 141.947C99.2991 142.035 99.2112 142.267 99.1986 142.889L99.073 149.885C99.073 150.13 99.0291 150.224 98.9349 150.224C98.8407 150.224 98.6774 150.105 98.5518 149.985C97.8547 149.32 96.4354 147.863 95.2862 146.726C94.1369 145.589 92.8433 144.139 92.6486 143.931H92.6109L92.7365 148.579Z" fill="#435148"/>
<path id="Vector_17" d="M106 149.037C105.572 148.632 105.231 148.146 104.995 147.606C104.759 147.067 104.634 146.486 104.627 145.897C104.62 145.308 104.731 144.724 104.954 144.18C105.177 143.635 105.507 143.14 105.925 142.725C106.89 141.889 108.148 141.469 109.423 141.557C109.96 141.554 110.498 141.592 111.03 141.67C111.451 141.721 111.809 141.821 112.142 141.859C112.261 141.859 112.305 141.922 112.305 141.991C112.305 142.06 112.274 142.211 112.255 142.619C112.236 143.027 112.255 143.592 112.217 143.818C112.179 144.044 112.186 144.069 112.085 144.069C111.985 144.069 111.972 143.981 111.972 143.824C111.959 143.445 111.807 143.083 111.545 142.807C110.904 142.308 110.101 142.063 109.291 142.116C108.532 142.064 107.783 142.312 107.206 142.807C106.718 143.365 106.39 144.043 106.254 144.771C106.117 145.499 106.179 146.251 106.431 146.947C106.684 147.643 107.119 148.259 107.69 148.73C108.261 149.202 108.948 149.511 109.68 149.627C110.666 149.627 111.263 149.514 111.708 148.999C111.887 148.785 112.015 148.534 112.085 148.264C112.085 148.089 112.142 148.045 112.23 148.045C112.318 148.045 112.33 148.12 112.33 148.208C112.285 148.705 112.203 149.198 112.085 149.684C112.074 149.76 112.041 149.831 111.989 149.888C111.938 149.945 111.871 149.985 111.796 150.004C111.149 150.197 110.474 150.284 109.799 150.261C108.425 150.338 107.071 149.902 106 149.037Z" fill="#435148"/>
<path id="Vector_18" d="M118.032 144.924C118.032 143.234 118.032 142.927 118.032 142.569C118.032 142.211 117.894 142.003 117.656 141.941C117.524 141.91 117.389 141.895 117.254 141.897C117.141 141.897 117.078 141.897 117.078 141.79C117.078 141.683 117.166 141.702 117.342 141.702C117.762 141.702 118.459 141.702 118.786 141.702C119.113 141.702 119.715 141.702 120.136 141.702C120.281 141.702 120.369 141.702 120.369 141.79C120.369 141.878 120.306 141.897 120.193 141.897C120.081 141.898 119.969 141.91 119.86 141.934C119.558 141.991 119.471 142.179 119.452 142.562C119.433 142.945 119.452 143.228 119.452 144.917V146.864C119.452 147.944 119.452 148.817 119.496 149.294C119.527 149.596 119.609 149.791 119.942 149.841C120.129 149.866 120.318 149.88 120.507 149.885C120.626 149.885 120.683 149.916 120.683 149.973C120.683 150.029 120.595 150.079 120.469 150.079C119.741 150.079 119.044 150.048 118.742 150.048C118.441 150.048 117.788 150.079 117.348 150.079C117.203 150.079 117.122 150.048 117.122 149.973C117.122 149.897 117.166 149.885 117.298 149.885C117.433 149.883 117.567 149.869 117.7 149.841C117.919 149.791 117.988 149.602 118.02 149.282C118.076 148.817 118.076 147.944 118.076 146.864L118.032 144.924Z" fill="#435148"/>
<path id="Vector_19" d="M126.818 147.209C126.762 147.209 126.736 147.21 126.718 147.297L126.121 148.88C126.028 149.095 125.97 149.324 125.951 149.558C125.951 149.759 126.052 149.904 126.397 149.904H126.561C126.692 149.904 126.73 149.904 126.73 149.992C126.73 150.079 126.661 150.098 126.542 150.098C126.184 150.098 125.707 150.067 125.367 150.067C125.242 150.067 124.633 150.098 124.055 150.098C123.91 150.098 123.848 150.098 123.848 149.992C123.848 149.885 123.892 149.904 123.98 149.904C124.095 149.91 124.21 149.91 124.325 149.904C124.834 149.835 125.041 149.458 125.267 148.905L128.049 141.941C128.181 141.62 128.25 141.501 128.357 141.501C128.463 141.501 128.526 141.601 128.633 141.853C128.903 142.481 130.674 146.99 131.384 148.673C131.804 149.671 132.125 149.828 132.363 149.885C132.517 149.914 132.672 149.928 132.828 149.929C132.916 149.929 132.972 149.929 132.972 150.017C132.972 150.105 132.872 150.123 132.458 150.123C132.043 150.123 131.252 150.123 130.366 150.123C130.165 150.123 130.033 150.123 130.033 150.035C130.033 149.948 130.077 149.948 130.19 149.935C130.215 149.926 130.237 149.911 130.255 149.893C130.273 149.874 130.287 149.852 130.296 149.828C130.305 149.803 130.309 149.777 130.307 149.751C130.305 149.725 130.297 149.7 130.285 149.678L129.399 147.329C129.393 147.306 129.379 147.285 129.36 147.271C129.34 147.258 129.316 147.251 129.292 147.253L126.818 147.209ZM129.079 146.651C129.135 146.651 129.148 146.619 129.135 146.588L128.137 143.85C128.137 143.806 128.137 143.749 128.08 143.749C128.024 143.749 128.024 143.806 128.011 143.85L126.994 146.581C126.994 146.625 126.994 146.657 127.038 146.657L129.079 146.651Z" fill="#435148"/>
<path id="Vector_20" d="M138.876 146.87C138.876 148.29 138.876 149.056 139.108 149.257C139.34 149.458 139.585 149.502 140.452 149.502C141.036 149.502 141.469 149.502 141.746 149.188C141.9 148.996 142 148.766 142.035 148.522C142.035 148.428 142.035 148.359 142.16 148.359C142.286 148.359 142.248 148.415 142.248 148.547C142.221 148.969 142.165 149.389 142.079 149.803C142.016 150.048 141.959 150.105 141.381 150.105C140.584 150.105 140.006 150.105 139.497 150.067C138.989 150.029 138.599 150.036 138.141 150.036C138.022 150.036 137.777 150.036 137.513 150.036C137.249 150.036 136.967 150.036 136.747 150.036C136.527 150.036 136.521 150.004 136.521 149.929C136.521 149.853 136.565 149.841 136.703 149.841C136.836 149.839 136.968 149.824 137.098 149.797C137.325 149.747 137.375 149.508 137.419 149.169C137.475 148.704 137.475 147.831 137.475 146.808V144.861C137.475 143.172 137.475 142.864 137.475 142.506C137.475 142.148 137.362 141.953 136.998 141.878C136.879 141.85 136.756 141.837 136.634 141.84C136.508 141.84 136.439 141.84 136.439 141.746C136.439 141.652 136.521 141.646 136.684 141.646C137.205 141.646 137.909 141.646 138.204 141.646C138.499 141.646 139.278 141.646 139.711 141.646C139.868 141.646 139.943 141.646 139.943 141.746C139.943 141.846 139.881 141.84 139.749 141.84C139.603 141.841 139.458 141.853 139.315 141.878C139.014 141.934 138.926 142.123 138.901 142.506C138.876 142.889 138.901 143.172 138.901 144.861L138.876 146.87Z" fill="#435148"/>
</g>
<defs>
<clipPath id="clip0_273_29">
<rect width="169.007" height="150.243" fill="white" transform="translate(0.0562744)"/>
</clipPath>
</defs>
</svg>
