<?xml version="1.0" standalone="no"?>
<!DOCTYPE svg PUBLIC "-//W3C//DTD SVG 20010904//EN"
 "http://www.w3.org/TR/2001/REC-SVG-20010904/DTD/svg10.dtd">
<svg version="1.0" xmlns="http://www.w3.org/2000/svg"
 width="760.000000pt" height="760.000000pt" viewBox="0 0 760.000000 760.000000"
 preserveAspectRatio="xMidYMid meet">
<metadata>
Created by potrace 1.14, written by Peter Selinger 2001-2017
</metadata>
<g transform="translate(0.000000,760.000000) scale(0.100000,-0.100000)"
fill="#000000" stroke="none">
<path d="M3565 7156 c-112 -29 -182 -60 -277 -122 -67 -44 -174 -142 -223
-204 -97 -123 -173 -306 -193 -464 -9 -70 -7 -220 2 -266 3 -14 9 -41 12 -60
7 -42 41 -144 61 -182 17 -34 15 -34 -62 -4 -33 14 -74 27 -90 30 -17 3 -46
11 -65 17 -46 14 -272 20 -335 8 -80 -15 -90 -17 -90 -19 0 -1 -11 -3 -24 -6
-33 -6 -148 -53 -201 -82 -75 -41 -176 -120 -230 -179 -49 -54 -130 -165 -130
-178 0 -4 -8 -19 -19 -33 -20 -29 -79 -197 -86 -246 -15 -106 -18 -136 -18
-176 1 -48 9 -138 18 -180 3 -14 8 -41 11 -60 4 -19 10 -39 14 -45 4 -5 13
-28 20 -50 79 -248 357 -501 628 -570 34 -9 72 -19 84 -22 51 -13 289 -11 340
2 28 8 55 12 60 9 4 -3 8 0 8 7 0 7 3 10 6 6 3 -3 29 3 58 15 28 11 56 21 61
22 6 1 16 5 23 10 23 14 23 1 2 -48 -20 -47 -43 -123 -56 -181 -11 -53 -13
-278 -3 -335 34 -181 129 -366 260 -500 40 -42 134 -120 144 -120 3 0 21 -11
38 -24 18 -13 55 -34 82 -46 58 -26 185 -71 185 -65 0 2 18 -2 39 -10 63 -22
326 -13 420 14 206 60 376 178 508 351 53 69 123 205 144 280 15 55 12 41 34
150 6 28 6 187 1 240 -6 57 -33 162 -60 233 -14 37 -21 67 -17 67 5 0 28 -9
52 -19 24 -11 49 -21 54 -22 6 -1 20 -5 33 -10 13 -5 37 -11 55 -14 18 -4 50
-10 71 -15 42 -9 265 -7 306 3 25 7 80 20 90 22 66 14 218 89 295 145 114 84
211 196 278 320 37 69 82 191 91 250 3 19 8 49 12 65 8 40 8 178 1 240 -20
158 -91 333 -182 445 -225 276 -522 403 -857 367 -65 -7 -232 -50 -253 -66 -5
-4 -22 -12 -37 -19 -24 -10 -26 -9 -21 6 4 9 10 19 13 22 12 9 69 204 75 255
7 65 7 222 0 260 -30 158 -73 268 -147 383 -55 84 -176 210 -250 260 -70 48
-195 108 -263 126 -33 9 -69 20 -80 23 -11 3 -90 7 -175 9 -136 3 -166 0 -245
-20z m390 -91 c114 -25 254 -91 345 -163 63 -51 163 -152 198 -204 33 -48 104
-188 95 -188 -3 0 -1 -6 4 -12 9 -12 21 -57 39 -143 13 -66 6 -222 -15 -307
-52 -218 -193 -412 -388 -531 -13 -8 -153 122 -153 142 0 5 23 29 51 53 167
140 227 225 269 377 28 106 23 258 -13 357 -88 249 -312 412 -567 415 -100 1
-144 -5 -221 -32 -158 -53 -280 -151 -354 -284 -63 -113 -80 -184 -78 -325 2
-205 99 -379 281 -502 39 -27 72 -51 72 -54 0 -4 -34 -40 -75 -82 -74 -74 -75
-75 -102 -61 -31 16 -148 130 -204 199 -76 93 -152 266 -167 380 -18 129 1
339 38 425 84 197 185 323 337 421 85 55 186 97 283 118 66 13 267 14 325 1z
m-23 -314 c88 -21 160 -62 234 -136 166 -166 204 -390 102 -602 -42 -86 -140
-186 -225 -231 l-62 -32 -56 54 c-30 30 -55 57 -55 60 0 3 46 52 101 108 123
123 152 179 152 288 0 132 -95 256 -224 293 -53 16 -151 16 -199 0 -168 -55
-260 -224 -212 -388 20 -68 46 -103 157 -216 l94 -95 -54 -54 c-63 -62 -70
-62 -164 1 -280 187 -316 578 -75 814 78 75 200 135 304 148 45 5 134 -1 182
-12z m-25 -313 c126 -63 156 -240 59 -346 -52 -58 -162 -84 -240 -57 -52 18
-112 79 -130 130 -66 195 128 364 311 273z m-1172 -632 c108 -27 221 -80 309
-145 69 -52 166 -155 200 -213 l28 -48 -66 -65 c-36 -36 -68 -65 -72 -65 -3 0
-56 51 -118 114 -127 129 -187 166 -325 201 -211 54 -434 -7 -584 -159 -77
-79 -78 -80 -115 -152 -54 -105 -67 -158 -67 -284 0 -90 5 -130 22 -185 57
-179 199 -330 372 -396 237 -89 506 -28 671 154 30 33 75 81 100 108 l45 47
72 -72 72 -73 -36 -54 c-120 -182 -330 -324 -538 -364 -86 -16 -207 -21 -270
-10 -50 8 -99 18 -112 22 -31 8 -39 10 -58 18 -279 107 -470 316 -542 594 -25
100 -34 245 -20 326 4 22 10 52 12 67 17 93 93 250 163 338 175 215 402 321
682 315 59 -1 136 -10 175 -19z m2400 10 c335 -22 635 -273 732 -611 35 -126
37 -303 3 -415 -6 -19 -13 -44 -15 -54 -16 -73 -110 -230 -189 -315 -49 -52
-164 -141 -182 -141 -8 0 -14 -4 -14 -9 0 -9 -136 -69 -171 -76 -11 -2 -23 -6
-27 -9 -32 -19 -304 -28 -382 -12 -110 23 -250 85 -335 149 -60 45 -205 188
-220 218 -13 25 -11 28 61 100 l74 73 32 -34 c18 -19 44 -51 58 -70 77 -110
231 -208 371 -235 80 -15 209 -13 274 5 22 6 47 12 56 14 9 3 36 14 60 27 221
112 352 323 352 569 1 289 -182 531 -459 608 -79 22 -220 27 -280 10 -20 -5
-44 -11 -54 -13 -34 -7 -125 -49 -169 -78 -57 -39 -129 -111 -171 -173 -39
-56 -55 -74 -67 -74 -4 0 -41 33 -81 74 l-72 74 34 46 c154 201 384 332 621
353 33 3 62 7 63 8 2 2 9 2 15 0 7 -3 44 -6 82 -9z m-1264 -95 c38 -37 69 -72
69 -77 0 -5 -32 -41 -70 -79 l-70 -70 -75 76 -75 76 67 71 c38 39 72 71 77 72
5 0 40 -31 77 -69z m-192 -215 l65 -65 -79 -81 c-43 -44 -82 -80 -86 -80 -9 0
-149 136 -149 145 0 3 35 41 78 84 56 57 81 76 92 70 8 -4 44 -37 79 -73z
m414 -5 l77 -79 -70 -71 c-39 -39 -74 -71 -78 -71 -4 0 -43 36 -86 80 l-80 80
70 70 c38 38 74 70 79 70 6 0 45 -36 88 -79z m-1427 -10 c67 -18 130 -49 180
-87 75 -58 147 -136 171 -186 l22 -47 -61 -63 -60 -62 -97 100 c-122 126 -163
148 -281 148 -73 1 -93 -3 -141 -26 -67 -34 -120 -85 -151 -147 -32 -65 -32
-204 0 -274 47 -104 164 -178 282 -178 115 -1 181 33 301 154 42 42 81 77 87
77 6 0 33 -23 61 -51 41 -42 48 -54 42 -72 -53 -139 -192 -261 -341 -300 -69
-17 -169 -21 -240 -7 -59 11 -200 75 -200 91 0 5 -6 9 -12 9 -18 0 -80 65
-121 127 -231 345 22 816 433 808 47 -1 104 -7 126 -14z m2546 -19 c83 -30
144 -68 207 -132 54 -54 124 -167 135 -220 19 -83 22 -111 20 -160 -6 -137
-50 -236 -149 -335 -85 -85 -175 -133 -285 -151 -46 -8 -139 -8 -170 -1 -14 4
-41 10 -61 15 -75 19 -154 67 -226 139 -40 40 -73 78 -73 84 0 7 -6 20 -14 28
-7 9 -18 30 -23 47 -10 29 -8 33 44 83 l54 52 105 -104 c61 -61 124 -114 149
-126 125 -59 260 -36 355 59 67 67 93 133 93 230 0 74 -7 108 -32 159 -74 144
-232 208 -387 155 -66 -22 -90 -41 -201 -152 l-94 -95 -52 51 -51 51 13 38
c50 139 211 266 386 306 49 10 202 -2 257 -21z m-1328 -172 c90 -91 91 -73
-12 -176 -35 -36 -68 -64 -72 -62 -9 3 -114 103 -144 137 l-20 22 80 79 c43
44 81 80 84 80 3 0 41 -36 84 -80z m-430 -36 c62 -61 64 -52 -23 -138 l-79
-79 -72 72 c-39 39 -70 76 -68 81 2 5 35 43 73 84 l70 74 39 -36 c21 -20 48
-46 60 -58z m869 7 l77 -79 -70 -71 c-39 -39 -74 -71 -79 -71 -4 0 -42 36 -85
80 l-76 79 72 71 c40 38 75 70 78 70 3 0 40 -36 83 -79z m-1690 -84 c82 -35
137 -127 130 -220 -13 -182 -225 -272 -366 -156 -78 64 -101 184 -54 275 53
103 179 147 290 101z m2517 -10 c101 -45 151 -171 110 -279 -45 -118 -176
-172 -291 -120 -88 39 -133 110 -133 207 1 89 39 151 119 193 47 25 139 24
195 -1z m-1447 -163 l27 -32 -76 -76 c-42 -42 -78 -76 -81 -76 -2 0 -40 36
-84 80 l-81 80 78 80 78 80 55 -53 c31 -28 68 -66 84 -83z m487 -26 c0 -8
-148 -158 -156 -158 -3 0 -41 35 -85 79 l-79 78 82 82 82 81 78 -77 c43 -43
78 -81 78 -85z m342 73 l69 -70 -70 -70 c-38 -39 -73 -71 -78 -71 -5 0 -40 32
-78 70 l-69 70 69 70 c38 39 74 70 79 70 5 0 40 -31 78 -69z m-1321 -12 l71
-72 -73 -73 -74 -74 -74 75 -74 75 69 70 c38 38 72 69 77 70 4 0 39 -32 78
-71z m1117 -192 l72 -74 -77 -81 -78 -82 -78 76 -78 76 77 79 c43 43 80 79 84
79 3 0 38 -33 78 -73z m-907 -18 l81 -81 -78 -79 -78 -78 -25 27 c-14 15 -50
54 -79 86 l-53 58 73 74 c40 41 74 74 75 74 2 0 40 -37 84 -81z m462 -6 c66
-65 75 -78 64 -92 -13 -17 -64 -68 -115 -115 l-31 -29 -80 81 -81 80 76 76
c42 42 79 76 83 76 4 0 42 -34 84 -77z m212 -213 l75 -75 -79 -79 -80 -80 -77
77 -77 76 78 81 c43 44 80 79 81 77 2 -1 37 -36 79 -77z m-402 -52 l39 -37
-74 -75 c-41 -42 -77 -76 -81 -76 -7 0 -157 146 -157 154 0 2 34 39 76 80 l76
75 41 -42 c23 -23 59 -59 80 -79z m174 -174 l75 -77 -73 -73 c-41 -41 -77 -74
-82 -74 -5 0 -42 33 -82 73 l-73 72 76 78 c42 42 78 77 80 77 2 0 37 -34 79
-76z m-412 -4 l69 -69 -60 -58 c-33 -32 -71 -67 -85 -79 -82 -70 -160 -204
-186 -317 -16 -67 -9 -259 11 -317 43 -125 72 -171 168 -272 59 -61 193 -133
290 -155 18 -4 85 -7 148 -7 98 0 126 4 191 26 114 40 221 117 296 213 29 38
75 118 80 140 1 5 10 37 20 70 29 93 29 215 -1 345 -3 14 -22 59 -43 100 -31
61 -59 96 -157 193 l-119 118 68 69 69 69 40 -22 c59 -32 190 -161 240 -237
97 -146 137 -272 141 -450 2 -101 -2 -142 -20 -215 -21 -90 -91 -255 -107
-255 -4 0 -8 -5 -8 -11 0 -18 -103 -139 -151 -179 -94 -78 -200 -136 -303
-167 -48 -14 -59 -17 -121 -29 -60 -12 -231 -5 -305 11 -236 53 -439 205 -554
416 -33 60 -71 155 -81 204 -2 11 -8 43 -14 70 -5 28 -8 97 -7 155 7 232 89
420 259 589 62 62 134 117 157 120 3 1 37 -30 75 -69z m625 -218 c68 -50 150
-147 184 -217 166 -340 -97 -750 -479 -747 -401 2 -637 434 -431 786 46 79
152 172 234 205 33 14 34 14 88 -40 l54 -53 -100 -101 c-69 -71 -107 -119
-125 -157 -100 -218 74 -469 315 -452 173 12 290 138 292 314 1 124 -33 180
-200 330 -34 30 -61 59 -62 64 0 5 27 35 61 67 l60 57 37 -15 c20 -8 53 -27
72 -41z m-174 -256 c103 -53 139 -178 83 -291 -53 -107 -209 -152 -308 -89
-92 59 -125 141 -95 242 18 62 83 135 136 151 45 14 146 7 184 -13z"/>
<path d="M393 2213 c-15 -32 -27 -60 -27 -63 -2 -6 -80 -185 -118 -270 -17
-36 -34 -74 -38 -85 -5 -11 -17 -40 -28 -65 -11 -25 -27 -63 -37 -85 -20 -47
-49 -110 -100 -222 -21 -45 -38 -85 -39 -89 -1 -5 19 -8 43 -9 l43 0 65 170
c35 94 71 182 79 197 8 15 15 30 14 33 0 3 7 22 16 43 8 20 24 57 34 82 10 25
29 70 43 100 13 30 30 70 38 88 22 51 15 61 106 -148 57 -131 122 -294 128
-320 2 -9 14 -43 28 -78 14 -34 24 -62 21 -62 -2 0 2 -13 11 -30 9 -16 13 -30
10 -30 -3 0 -2 -8 4 -17 7 -14 24 -18 70 -18 34 -1 61 2 61 7 0 5 -8 25 -19
46 -10 20 -21 54 -25 74 -7 41 -43 128 -105 260 -22 48 -41 90 -41 93 0 4 -11
30 -24 58 -14 29 -48 106 -76 172 -81 187 -98 225 -105 225 -3 0 -18 -26 -32
-57z"/>
<path d="M3750 2225 c-12 -27 -48 -111 -80 -185 -32 -74 -76 -173 -98 -220
-72 -154 -86 -185 -88 -195 -1 -5 -32 -74 -67 -152 -39 -85 -61 -143 -54 -144
7 -1 27 -2 46 -3 l35 -1 83 215 c46 118 89 226 95 240 6 14 12 27 12 30 1 4
27 65 60 138 l58 132 30 -62 c69 -146 216 -507 255 -628 l18 -55 63 -1 c68 0
72 4 44 51 -10 17 -24 50 -31 75 -7 25 -24 66 -37 93 -14 26 -45 98 -70 160
-26 61 -59 140 -75 174 -16 34 -29 65 -29 68 0 3 -13 33 -29 67 -16 35 -43 97
-60 139 -18 42 -38 85 -46 95 -13 18 -15 16 -35 -31z"/>
<path d="M5104 1932 c-2 -338 -9 -509 -24 -569 -5 -18 -5 -33 -2 -34 4 0 26
-2 50 -4 l42 -3 0 107 c1 58 1 223 1 366 l-1 260 73 -75 c39 -42 119 -127 177
-189 58 -63 120 -130 138 -150 82 -88 103 -112 196 -218 54 -62 102 -113 107
-113 5 0 10 150 11 358 0 196 2 368 4 382 1 14 5 64 8 113 l7 87 -43 -2 -43
-3 3 -350 2 -350 -76 80 c-141 148 -317 335 -333 354 -9 10 -62 67 -117 127
-56 60 -113 121 -126 137 -53 57 -53 56 -54 -311z"/>
<path d="M7158 2253 c-8 -10 -22 -36 -31 -58 -8 -22 -22 -56 -30 -75 -8 -19
-15 -39 -15 -44 0 -5 -4 -12 -9 -15 -4 -3 -19 -33 -32 -66 -14 -33 -42 -98
-64 -145 -40 -87 -118 -260 -143 -317 -35 -82 -48 -111 -70 -155 -24 -52 -27
-49 40 -51 32 -1 33 0 66 88 13 33 28 74 35 90 7 17 23 59 36 95 12 36 30 83
40 105 10 22 42 99 73 170 30 72 63 147 72 167 l18 37 33 -70 c67 -142 235
-553 248 -609 2 -8 4 -16 5 -17 2 -2 3 -6 5 -10 10 -38 17 -42 78 -39 59 2 62
3 60 26 -1 14 -21 68 -46 120 -60 128 -82 177 -107 241 -18 44 -79 186 -146
337 -8 17 -20 47 -28 65 -44 101 -65 147 -69 147 -2 0 -11 -8 -19 -17z"/>
<path d="M1739 2250 c0 -3 -1 -212 -1 -465 l0 -460 213 1 c297 2 382 26 494
139 94 93 136 199 136 340 0 139 -44 276 -110 339 -29 28 -132 81 -177 92 -16
4 -121 8 -234 10 -113 3 -231 5 -263 7 -31 1 -57 0 -58 -3z m474 -74 c65 -15
101 -36 139 -79 37 -42 76 -116 83 -157 3 -18 8 -37 11 -41 6 -10 6 -175 0
-216 -9 -62 -65 -173 -111 -218 -80 -81 -206 -108 -432 -94 -38 2 -43 5 -45
28 -3 57 -5 757 -1 766 2 6 20 12 40 13 21 2 38 4 40 6 9 9 230 3 276 -8z"/>
<path d="M1229 810 c-16 -4 -20 -8 -11 -14 6 -4 12 -4 12 0 0 3 7 1 14 -6 12
-9 15 -43 13 -178 l-2 -167 57 -1 c48 0 54 1 35 11 -19 9 -22 19 -22 69 0 53
2 59 22 62 17 3 32 -11 68 -61 25 -36 54 -69 63 -74 27 -14 92 -22 92 -11 0 6
-6 10 -13 10 -7 0 -29 22 -50 48 -20 27 -48 61 -62 77 l-26 27 26 28 c64 67
37 178 -44 181 -103 4 -152 3 -172 -1z m171 -60 c22 -22 22 -22 24 -68 3 -46
-32 -83 -70 -76 -16 3 -31 7 -34 10 -2 3 -5 39 -5 80 l-1 74 33 0 c20 0 41 -8
53 -20z"/>
<path d="M1737 808 c-11 -7 -3 -12 15 -10 23 4 30 -38 31 -202 l2 -176 96 0
c103 0 110 3 108 53 l0 22 -9 -21 c-5 -12 -13 -25 -19 -29 -20 -12 -93 -8
-102 6 -4 8 -7 45 -6 83 l2 70 40 0 c32 0 42 -4 52 -24 14 -28 14 -28 18 18
l2 32 -58 0 -57 0 0 69 c0 63 3 70 22 73 32 6 81 -6 81 -19 0 -23 15 -25 16
-2 2 29 -1 52 -7 58 -8 8 -215 6 -227 -1z"/>
<path d="M2268 803 c-29 -18 -48 -52 -48 -86 0 -30 32 -81 66 -103 85 -59 109
-117 62 -148 -43 -28 -118 1 -118 46 0 10 -4 18 -10 18 -15 0 -12 -77 4 -93
30 -30 141 0 171 46 36 55 23 110 -38 162 -86 73 -97 85 -97 104 0 27 36 50
68 45 32 -6 62 -31 62 -52 0 -28 12 -3 15 30 2 18 -2 36 -8 40 -21 14 -102 8
-129 -9z"/>
<path d="M3023 809 c-15 -6 -13 -8 10 -14 31 -8 29 5 28 -193 0 -73 -2 -141
-6 -151 -4 -15 2 -17 45 -16 27 1 53 4 56 8 4 4 2 7 -4 7 -16 0 -25 36 -27
115 -2 38 -4 75 -5 80 -1 6 -2 36 -1 68 l1 57 50 0 c74 0 136 -36 169 -97 5
-11 9 -52 8 -91 -2 -58 -7 -76 -23 -93 -26 -26 -90 -48 -126 -43 -16 1 -28 -1
-28 -6 0 -10 62 -6 118 9 162 44 186 270 36 341 -34 16 -68 20 -163 23 -66 1
-128 0 -138 -4z"/>
<path d="M3647 812 c-15 -2 -25 -8 -21 -13 3 -5 9 -7 14 -4 24 15 31 -31 33
-200 l2 -176 100 3 100 3 2 35 c2 31 1 32 -7 12 -5 -12 -20 -26 -32 -31 -22
-8 -77 -6 -86 4 -10 9 -9 146 1 152 6 3 25 7 43 8 25 1 35 -3 40 -17 9 -30 23
-20 20 15 -2 25 -7 31 -22 29 -24 -5 -23 -5 -59 -3 l-30 1 -1 69 c0 67 1 69
26 73 39 6 72 -5 80 -27 6 -16 7 -17 13 -2 6 17 2 56 -8 65 -6 6 -162 9 -208
4z"/>
<path d="M4134 753 c0 -38 -2 -124 -4 -193 l-3 -124 24 -1 24 -2 -3 140 -4
139 133 -136 c73 -75 138 -136 145 -136 8 0 12 28 14 88 6 271 8 290 30 277 5
-3 11 -1 15 5 4 6 -17 10 -59 10 -38 0 -68 -5 -72 -12 -4 -6 -3 -8 2 -5 23 14
37 -13 41 -75 9 -165 9 -188 5 -188 -3 0 -66 63 -141 140 -75 77 -139 140
-142 140 -2 0 -5 -30 -5 -67z"/>
<path d="M4897 814 c-1 -1 -18 -4 -37 -7 -141 -18 -207 -178 -126 -302 9 -13
37 -36 63 -51 38 -23 61 -28 127 -31 45 -2 87 0 94 5 18 12 32 67 21 83 -7 11
-9 10 -9 -4 0 -29 -56 -56 -112 -52 -57 3 -113 41 -139 95 -19 40 -18 131 1
172 19 40 89 71 145 65 60 -8 81 -21 95 -59 10 -29 13 -30 19 -14 4 11 6 29 5
40 -1 12 -3 27 -3 34 -1 6 -4 11 -8 10 -5 -1 -19 2 -33 6 -25 7 -98 14 -103
10z"/>
<path d="M5757 808 c-61 -153 -142 -346 -150 -355 -5 -7 -13 -11 -17 -8 -5 3
-11 2 -13 -2 -3 -5 22 -8 54 -8 38 -1 54 2 44 8 -20 11 -19 25 4 73 19 39 20
39 79 40 l61 1 16 -44 c9 -24 18 -51 19 -60 2 -13 14 -17 49 -18 26 0 47 2 47
4 0 3 -8 14 -18 25 -11 12 -42 82 -71 156 -69 178 -79 200 -90 200 -5 0 -11
-6 -14 -12z m38 -206 c-7 -7 -66 -8 -70 -1 -3 4 5 31 17 60 l22 53 17 -54 c9
-30 15 -57 14 -58z"/>
<path d="M6123 807 c-3 -5 4 -11 16 -14 12 -3 22 -8 22 -12 1 -3 2 -75 3 -160
1 -134 -1 -156 -16 -170 -15 -15 -7 -16 100 -16 64 1 122 4 127 7 6 4 12 21
13 40 2 31 1 32 -13 14 -8 -11 -15 -23 -15 -28 0 -12 -108 -10 -115 3 -4 6 -9
80 -12 165 l-6 154 24 9 c30 12 29 12 -54 14 -38 1 -71 -1 -74 -6z"/>
<path d="M2666 790 c19 -8 21 -14 17 -82 -2 -40 -5 -118 -6 -172 -2 -89 -4
-100 -22 -107 -12 -5 11 -8 60 -8 58 0 74 3 58 9 -23 9 -23 12 -23 184 0 158
2 175 18 178 9 3 -14 5 -53 5 -45 1 -63 -2 -49 -7z"/>
<path d="M5282 793 c22 -5 28 -26 23 -88 -2 -27 -4 -99 -4 -158 -1 -102 -2
-108 -24 -117 -16 -6 1 -9 58 -9 56 0 73 3 58 9 -21 9 -22 14 -22 179 -1 109
3 171 9 171 5 0 10 4 10 8 0 4 -28 8 -62 8 -35 0 -55 -1 -46 -3z"/>
<path d="M4190 439 c0 -5 5 -7 10 -4 6 3 10 8 10 11 0 2 -4 4 -10 4 -5 0 -10
-5 -10 -11z"/>
</g>
</svg>
