<svg width="122" height="246" viewBox="0 0 122 246" fill="none" xmlns="http://www.w3.org/2000/svg">
<g id="Group">
<path id="Vector" d="M-59.89 131.84C-61.028 133.003 -62.3868 133.927 -63.8868 134.558C-65.3868 135.189 -66.9977 135.514 -68.625 135.514C-70.2523 135.514 -71.8632 135.189 -73.3632 134.558C-74.8632 133.927 -76.222 133.003 -77.36 131.84C-79.6733 129.465 -80.9678 126.28 -80.9678 122.965C-80.9678 119.649 -79.6733 116.465 -77.36 114.09C-76.2206 112.929 -74.8613 112.007 -73.3615 111.378C-71.8617 110.748 -70.2515 110.424 -68.625 110.424C-66.9985 110.424 -65.3883 110.748 -63.8885 111.378C-62.3887 112.007 -61.0294 112.929 -59.89 114.09C-57.5767 116.465 -56.2822 119.649 -56.2822 122.965C-56.2822 126.28 -57.5767 129.465 -59.89 131.84ZM-35.79 131.48L-39.99 127.21L-56.44 110.54C-58.0334 108.911 -59.9359 107.617 -62.0361 106.734C-64.1362 105.851 -66.3916 105.396 -68.67 105.396C-70.9484 105.396 -73.2038 105.851 -75.3039 106.734C-77.4041 107.617 -79.3066 108.911 -80.9 110.54C-84.1411 113.866 -85.955 118.326 -85.955 122.97C-85.955 127.614 -84.1411 132.074 -80.9 135.4C-79.3052 137.026 -77.4022 138.318 -75.3023 139.2C-73.2023 140.081 -70.9476 140.536 -68.67 140.536C-66.3924 140.536 -64.1377 140.081 -62.0377 139.2C-59.9378 138.318 -58.0348 137.026 -56.44 135.4C-54.8073 133.734 -53.5204 131.761 -52.6537 129.595C-51.787 127.429 -51.3575 125.113 -51.39 122.78L-41.39 132.91C-42.8201 136.984 -45.1317 140.692 -48.16 143.77C-50.8279 146.496 -54.0132 148.661 -57.5292 150.14C-61.0451 151.618 -64.8208 152.38 -68.635 152.38C-72.4492 152.38 -76.2249 151.618 -79.7409 150.14C-83.2568 148.661 -86.4421 146.496 -89.11 143.77C-94.5395 138.206 -97.5787 130.739 -97.5787 122.965C-97.5787 115.191 -94.5395 107.724 -89.11 102.16C-86.4407 99.4365 -83.2549 97.273 -79.7392 95.7961C-76.2234 94.3191 -72.4484 93.5584 -68.635 93.5584C-64.8216 93.5584 -61.0466 94.3191 -57.5308 95.7961C-54.0151 97.273 -50.8293 99.4365 -48.16 102.16L-47.94 102.38L-35.7 114.82L-22.5 128.23L-18.15 132.66L-8.98 142L-4.63 146.42L8.56 159.81L20.81 172.26L21.25 172.7C26.5799 178.285 29.5354 185.719 29.4943 193.439C29.4533 201.159 26.419 208.562 21.03 214.09C18.3616 216.813 15.1766 218.976 11.6617 220.453C8.14682 221.93 4.37257 222.691 0.559998 222.691C-3.25257 222.691 -7.02682 221.93 -10.5417 220.453C-14.0566 218.976 -17.2416 216.813 -19.91 214.09C-25.3378 208.523 -28.3757 201.055 -28.3757 193.28C-28.3757 185.505 -25.3378 178.037 -19.91 172.47C-16.9038 169.409 -13.2515 167.058 -9.22 165.59L0.779999 175.72L9.28 184.37C11.6134 186.725 12.9349 189.899 12.963 193.214C12.991 196.53 11.7233 199.725 9.42999 202.12C8.3006 203.29 6.94923 204.224 5.45483 204.867C3.96044 205.509 2.353 205.847 0.726471 205.861C-0.900063 205.875 -2.51306 205.564 -4.01826 204.948C-5.52347 204.331 -6.89068 203.421 -8.04 202.27C-10.3734 199.914 -11.6949 196.741 -11.7229 193.425C-11.751 190.11 -10.4833 186.915 -8.19 184.52C-7.06062 183.349 -5.70923 182.416 -4.21484 181.773C-2.72044 181.131 -1.11301 180.793 0.513519 180.779C2.14005 180.765 3.75305 181.075 5.25826 181.692C6.76346 182.308 8.13068 183.219 9.28 184.37L0.559998 175.72C-1.74675 175.722 -4.02927 176.19 -6.15005 177.098C-8.27082 178.005 -10.1859 179.333 -11.78 181C-14.9942 184.353 -16.7703 188.83 -16.7292 193.475C-16.6881 198.119 -14.833 202.564 -11.56 205.86C-9.95222 207.473 -8.03865 208.748 -5.93148 209.612C-3.82431 210.476 -1.56595 210.91 0.711243 210.889C2.98843 210.869 5.23862 210.394 7.3299 209.493C9.42119 208.591 11.3115 207.281 12.89 205.64C15.9416 202.455 17.7002 198.249 17.824 193.839C17.9478 189.43 16.4281 185.132 13.56 181.78L12.7 180.9L-3.62 164.18L-7.81001 159.91L-17.68 149.91L-21.43 146.11L-22.18 145.34L-25.92 141.54L-35.79 131.48ZM17.87 144.11L33.4 159.9C42.1079 168.829 46.9818 180.808 46.9818 193.28C46.9818 205.752 42.1079 217.731 33.4 226.66C29.1176 231.026 24.0075 234.494 18.3688 236.862C12.73 239.23 6.67569 240.449 0.559998 240.449C-5.55569 240.449 -11.61 239.23 -17.2488 236.862C-22.8875 234.494 -27.9976 231.026 -32.28 226.66C-40.9879 217.731 -45.8618 205.752 -45.8618 193.28C-45.8618 180.808 -40.9879 168.829 -32.28 159.9C-29.3345 156.907 -25.9975 154.327 -22.36 152.23L-13.02 161.73C-16.9165 163.447 -20.4522 165.886 -23.44 168.92C-29.7974 175.435 -33.3559 184.177 -33.3559 193.28C-33.3559 202.383 -29.7974 211.125 -23.44 217.64C-20.3153 220.829 -16.5859 223.362 -12.47 225.091C-8.35405 226.821 -3.93446 227.711 0.529999 227.711C4.99445 227.711 9.41405 226.821 13.53 225.091C17.6459 223.362 21.3753 220.829 24.5 217.64C30.7048 211.276 34.2468 202.783 34.4029 193.896C34.559 185.01 31.3175 176.398 25.34 169.82L24.7 169.17L24.49 168.94L24.26 168.72L2.1 146.13L-2.76 141.19L-17.38 126.34L-22.23 121.4L-44.44 98.8299L-44.66 98.6099C-47.7824 95.419 -51.5106 92.8838 -55.6259 91.153C-59.7411 89.4222 -64.1606 88.5307 -68.625 88.5307C-73.0894 88.5307 -77.5089 89.4222 -81.6242 91.153C-85.7394 92.8838 -89.4676 95.419 -92.59 98.6099C-98.9474 105.125 -102.506 113.867 -102.506 122.97C-102.506 132.073 -98.9474 140.815 -92.59 147.33C-89.4662 150.518 -85.7376 153.051 -81.6225 154.781C-77.5074 156.51 -73.0886 157.401 -68.625 157.401C-64.1614 157.401 -59.7426 156.51 -55.6275 154.781C-51.5124 153.051 -47.7838 150.518 -44.66 147.33C-41.6587 144.285 -39.2569 140.703 -37.58 136.77L-28.24 146.26C-30.2909 149.945 -32.8268 153.339 -35.78 156.35C-40.0626 160.717 -45.1732 164.187 -50.8129 166.556C-56.4526 168.924 -62.5081 170.144 -68.625 170.144C-74.7419 170.144 -80.7974 168.924 -86.4371 166.556C-92.0768 164.187 -97.1874 160.717 -101.47 156.35C-110.178 147.421 -115.052 135.442 -115.052 122.97C-115.052 110.498 -110.178 98.5191 -101.47 89.5899C-97.1874 85.2223 -92.0768 81.7527 -86.4371 79.3842C-80.7974 77.0156 -74.7419 75.7956 -68.625 75.7956C-62.5081 75.7956 -56.4526 77.0156 -50.8129 79.3842C-45.1732 81.7527 -40.0626 85.2223 -35.78 89.5899L-20.24 105.38L17.87 144.11ZM-104.97 85.9999C-114.601 95.8823 -119.991 109.136 -119.991 122.935C-119.991 136.734 -114.601 149.988 -104.97 159.87C-97.3387 167.659 -87.4064 172.79 -76.6378 174.506C-65.8692 176.221 -54.8342 174.432 -45.16 169.4C-50.1112 179.248 -51.8685 190.396 -50.1872 201.29C-48.506 212.184 -43.4699 222.282 -35.78 230.18C-31.0434 235.015 -25.3895 238.857 -19.1495 241.479C-12.9094 244.102 -6.20875 245.453 0.559998 245.453C7.32874 245.453 14.0294 244.102 20.2695 241.479C26.5095 238.857 32.1634 235.015 36.9 230.18C46.3898 220.449 51.7707 207.439 51.927 193.848C52.0834 180.257 47.0033 167.127 37.74 157.18L36.88 156.31L-32.28 85.9999C-37.0181 81.1655 -42.6731 77.3249 -48.9139 74.703C-55.1547 72.0811 -61.8558 70.7306 -68.625 70.7306C-75.3942 70.7306 -82.0953 72.0811 -88.3361 74.703C-94.5769 77.3249 -100.232 81.1655 -104.97 85.9999Z" fill="#EDECE5"/>
<path id="Vector_2" d="M-8.17 61.53C-10.488 59.1573 -11.7857 55.972 -11.7857 52.655C-11.7857 49.338 -10.488 46.1526 -8.17 43.78C-7.03287 42.6171 -5.67486 41.6931 -4.17571 41.0622C-2.67656 40.4314 -1.06647 40.1064 0.560001 40.1064C2.18647 40.1064 3.79656 40.4314 5.29571 41.0622C6.79486 41.6931 8.15287 42.6171 9.29 43.78C11.608 46.1526 12.9057 49.338 12.9057 52.655C12.9057 55.972 11.608 59.1573 9.29 61.53C8.15217 62.6916 6.79394 63.6146 5.29488 64.2446C3.79582 64.8747 2.18608 65.1992 0.560001 65.1992C-1.06608 65.1992 -2.67582 64.8747 -4.17487 64.2446C-5.67393 63.6146 -7.03217 62.6916 -8.17 61.53ZM18.83 96.05L22.56 99.86L23.31 100.62L27.05 104.42L36.92 114.42L41.12 118.69L57.56 135.39L58.42 136.27C61.6835 139.163 65.9289 140.7 70.2879 140.566C74.647 140.432 78.7901 138.638 81.87 135.55C85.1417 132.253 86.9949 127.807 87.0342 123.163C87.0734 118.518 85.2955 114.042 82.08 110.69C80.4993 109.05 78.6073 107.742 76.515 106.842C74.4226 105.942 72.1717 105.469 69.8941 105.449C67.6165 105.429 65.3578 105.864 63.2503 106.728C61.1428 107.592 59.2287 108.867 57.62 110.48C55.9794 112.125 54.6799 114.078 53.7961 116.226C52.9124 118.375 52.4617 120.677 52.47 123L60.94 131.76C58.639 129.367 57.3662 126.169 57.3942 122.849C57.4223 119.53 58.7489 116.353 61.09 114C62.2384 112.849 63.6051 111.938 65.11 111.322C66.6148 110.705 68.2275 110.396 69.8536 110.41C71.4797 110.425 73.0865 110.765 74.5798 111.409C76.0731 112.052 77.4229 112.988 78.55 114.16C80.848 116.552 82.1189 119.748 82.0909 123.066C82.0629 126.383 80.7381 129.557 78.4 131.91C77.2516 133.061 75.8849 133.972 74.38 134.588C72.8752 135.205 71.2625 135.514 69.6364 135.499C68.0103 135.485 66.4035 135.145 64.9102 134.501C63.4169 133.858 62.0671 132.922 60.94 131.75L52.44 123.11L42.5 113C43.93 108.923 46.2415 105.211 49.27 102.13C51.9393 99.4066 55.1251 97.2431 58.6408 95.7661C62.1566 94.2892 65.9316 93.5284 69.745 93.5284C73.5584 93.5284 77.3335 94.2892 80.8492 95.7661C84.3649 97.2431 87.5507 99.4066 90.22 102.13C95.6495 107.694 98.6887 115.161 98.6887 122.935C98.6887 130.709 95.6495 138.176 90.22 143.74C87.5705 146.445 84.4111 148.599 80.9242 150.075C77.4374 151.552 73.6925 152.323 69.9059 152.343C66.1193 152.364 62.3662 151.634 58.8637 150.195C55.3611 148.756 52.1786 146.637 49.5 143.96L49.06 143.51L36.82 131.1L23.62 117.69L19.27 113.27L10.1 104L5.75 99.58L-7.44 86.12L-19.69 73.67L-19.91 73.45C-25.3378 67.8828 -28.3757 60.4152 -28.3757 52.64C-28.3757 44.8647 -25.3378 37.3971 -19.91 31.83C-17.2416 29.1069 -14.0566 26.9436 -10.5417 25.4668C-7.02681 23.9899 -3.25256 23.2292 0.560001 23.2292C4.37257 23.2292 8.14682 23.9899 11.6617 25.4668C15.1766 26.9436 18.3616 29.1069 21.03 31.83C26.4578 37.3971 29.4957 44.8647 29.4957 52.64C29.4957 60.4152 26.4578 67.8828 21.03 73.45C18.0238 76.5112 14.3715 78.8618 10.34 80.33L0.34 70.2C2.64951 70.2291 4.94094 69.7895 7.0757 68.9077C9.21046 68.026 11.1442 66.7204 12.76 65.07C16.0011 61.7441 17.815 57.2839 17.815 52.64C17.815 47.9961 16.0011 43.5358 12.76 40.21C11.1652 38.5839 9.26223 37.2921 7.16227 36.4103C5.06231 35.5285 2.80759 35.0743 0.530003 35.0743C-1.74759 35.0743 -4.00231 35.5285 -6.10227 36.4103C-8.20222 37.2921 -10.1052 38.5839 -11.7 40.21C-14.9411 43.5358 -16.755 47.9961 -16.755 52.64C-16.755 57.2839 -14.9411 61.7441 -11.7 65.07L4.74 81.76L8.93 86L18.83 96.05ZM-16.72 101.82L-32.28 86C-40.9879 77.0708 -45.8618 65.0922 -45.8618 52.62C-45.8618 40.1477 -40.9879 28.1691 -32.28 19.24C-27.9976 14.8739 -22.8875 11.4056 -17.2488 9.03793C-11.61 6.67026 -5.55569 5.45074 0.560001 5.45074C6.67569 5.45074 12.73 6.67026 18.3688 9.03793C24.0075 11.4056 29.1176 14.8739 33.4 19.24C42.1079 28.1691 46.9818 40.1477 46.9818 52.62C46.9818 65.0922 42.1079 77.0708 33.4 86C30.4545 88.9924 27.1175 91.5725 23.48 93.67L14.14 84.18C18.0332 82.4619 21.5681 80.0261 24.56 77C30.9174 70.485 34.4759 61.7428 34.4759 52.64C34.4759 43.5372 30.9174 34.795 24.56 28.28C21.4353 25.0913 17.7059 22.558 13.59 20.8287C9.47405 19.0993 5.05446 18.2085 0.59 18.2085C-3.87446 18.2085 -8.29404 19.0993 -12.4099 20.8287C-16.5258 22.558 -20.2553 25.0913 -23.38 28.28C-29.7454 34.7871 -33.3147 43.5249 -33.3259 52.6277C-33.3371 61.7306 -29.7893 70.4771 -23.44 77C-23.37 77.08 -23.29 77.14 -23.22 77.22L-0.98 99.8L3.88 104.74L18.5 119.59L23.35 124.53L45.56 147.1C45.64 147.17 45.7 147.25 45.78 147.33L46 147.54L46.64 148.2C53.0246 154.262 61.5367 157.57 70.3391 157.411C79.1415 157.252 87.5285 153.638 93.69 147.35C100.048 140.833 103.607 132.089 103.607 122.985C103.607 113.88 100.048 105.137 93.69 98.62C90.5662 95.4316 86.8376 92.8986 82.7225 91.1693C78.6074 89.4401 74.1887 88.5493 69.725 88.5493C65.2614 88.5493 60.8426 89.4401 56.7275 91.1693C52.6124 92.8986 48.8838 95.4316 45.76 98.62C42.764 101.669 40.363 105.25 38.68 109.18L29.34 99.69C31.3885 96.0061 33.9248 92.6155 36.88 89.61C41.1626 85.2424 46.2732 81.7728 51.9129 79.4042C57.5527 77.0356 63.6081 75.8156 69.725 75.8156C75.8419 75.8156 81.8974 77.0356 87.5371 79.4042C93.1768 81.7728 98.2874 85.2424 102.57 89.61C111.278 98.5391 116.152 110.518 116.152 122.99C116.152 135.462 111.278 147.441 102.57 156.37C98.2874 160.738 93.1768 164.207 87.5371 166.576C81.8974 168.944 75.8419 170.164 69.725 170.164C63.6081 170.164 57.5527 168.944 51.9129 166.576C46.2732 164.207 41.1626 160.738 36.88 156.37L21.36 140.55L-16.72 101.82ZM-35.72 89.59L33.4 159.9L34.26 160.78C43.9036 170.17 56.8767 175.353 70.3357 175.194C83.7946 175.034 96.6414 169.545 106.06 159.93C115.691 150.048 121.081 136.794 121.081 122.995C121.081 109.196 115.691 95.9423 106.06 86.06C98.4287 78.2708 88.4964 73.14 77.7278 71.4242C66.9592 69.7083 55.9242 71.4983 46.25 76.53C51.2012 66.6815 52.9585 55.5344 51.2773 44.6404C49.596 33.7463 44.5599 23.6476 36.87 15.75C32.1341 10.9134 26.4805 7.07076 20.2403 4.44745C14.0002 1.82414 7.29913 0.4729 0.530003 0.4729C-6.23913 0.4729 -12.9402 1.82414 -19.1803 4.44745C-25.4204 7.07076 -31.0741 10.9134 -35.81 15.75C-45.4457 25.6299 -50.839 38.8842 -50.839 52.685C-50.839 66.4857 -45.4457 79.74 -35.81 89.62" fill="#EDECE5"/>
<path id="Vector_3" d="M61.01 114.09C62.1478 112.928 63.5061 112.005 65.0051 111.375C66.5042 110.745 68.1139 110.421 69.74 110.421C71.3661 110.421 72.9758 110.745 74.4749 111.375C75.9739 112.005 77.3322 112.928 78.47 114.09C80.788 116.463 82.0857 119.648 82.0857 122.965C82.0857 126.282 80.788 129.467 78.47 131.84C77.3329 133.003 75.9749 133.927 74.4757 134.558C72.9766 135.189 71.3665 135.514 69.74 135.514C68.1135 135.514 66.5034 135.189 65.0043 134.558C63.5051 133.927 62.1471 133.003 61.01 131.84C58.692 129.467 57.3943 126.282 57.3943 122.965C57.3943 119.648 58.692 116.463 61.01 114.09ZM27.01 141.51L23.26 145.31L22.51 146.08L18.77 149.88L8.90001 159.88L4.7 164.15L-11.7 180.82L-12.56 181.7C-15.4094 185.055 -16.9139 189.347 -16.7827 193.746C-16.6516 198.146 -14.8941 202.341 -11.85 205.52C-10.2699 207.161 -8.37853 208.469 -6.2865 209.37C-4.19447 210.271 -1.94381 210.745 0.333813 210.766C2.61143 210.786 4.87026 210.352 6.97816 209.49C9.08605 208.627 11.0007 207.352 12.61 205.74C15.8555 202.457 17.6989 198.042 17.7511 193.427C17.8034 188.811 16.0604 184.355 12.89 181C11.2964 179.335 9.38275 178.009 7.26396 177.101C5.14516 176.194 2.86489 175.724 0.560005 175.72L-8.05999 184.33C-6.91222 183.178 -5.54606 182.267 -4.04158 181.65C-2.53711 181.032 -0.924572 180.722 0.70153 180.736C2.32763 180.75 3.93459 181.088 5.42824 181.731C6.92189 182.374 8.27219 183.308 9.40001 184.48C11.698 186.872 12.9689 190.069 12.9409 193.386C12.9129 196.703 11.5881 199.877 9.25 202.23C8.10223 203.382 6.73608 204.293 5.2316 204.91C3.72712 205.528 2.11459 205.838 0.488483 205.824C-1.13762 205.81 -2.74458 205.472 -4.23823 204.829C-5.73188 204.186 -7.08218 203.252 -8.21 202.08C-10.5057 199.687 -11.7749 196.491 -11.7469 193.174C-11.7189 189.858 -10.3958 186.684 -8.05999 184.33L0.450005 175.68L10.45 165.55C14.4838 167.018 18.1368 169.373 21.14 172.44C26.5695 178.004 29.6087 185.471 29.6087 193.245C29.6087 201.019 26.5695 208.486 21.14 214.05C18.4707 216.773 15.2849 218.937 11.7692 220.414C8.25345 221.891 4.47839 222.652 0.665005 222.652C-3.14838 222.652 -6.92344 221.891 -10.4392 220.414C-13.9549 218.937 -17.1407 216.773 -19.81 214.05C-25.1976 208.521 -28.2301 201.117 -28.2693 193.397C-28.3085 185.678 -25.3512 178.243 -20.02 172.66L-19.58 172.22L-7.43999 159.81L5.75001 146.4L10.1 142L19.26 132.69L23.62 128.26L36.81 114.85L49.06 102.39L49.28 102.17C51.9484 99.4469 55.1334 97.2836 58.6483 95.8068C62.1632 94.33 65.9374 93.5693 69.75 93.5693C73.5626 93.5693 77.3368 94.33 80.8517 95.8068C84.3666 97.2836 87.5516 99.4469 90.22 102.17C95.6496 107.734 98.6888 115.201 98.6888 122.975C98.6888 130.749 95.6496 138.216 90.22 143.78C87.553 146.506 84.3685 148.671 80.8534 150.149C77.3383 151.628 73.5633 152.389 69.75 152.389C65.9367 152.389 62.1617 151.628 58.6466 150.149C55.1315 148.671 51.947 146.506 49.28 143.78C46.2483 140.705 43.9362 136.996 42.51 132.92L52.51 122.79C52.481 125.121 52.9122 127.434 53.7787 129.598C54.6453 131.762 55.9303 133.734 57.56 135.4C59.1548 137.026 61.0578 138.318 63.1577 139.2C65.2577 140.081 67.5124 140.536 69.79 140.536C72.0676 140.536 74.3223 140.081 76.4223 139.2C78.5222 138.318 80.4252 137.026 82.02 135.4C85.2634 132.075 87.0789 127.615 87.0789 122.97C87.0789 118.325 85.2634 113.865 82.02 110.54C80.4267 108.911 78.5241 107.618 76.4239 106.734C74.3238 105.851 72.0684 105.396 69.79 105.396C67.5116 105.396 65.2562 105.851 63.1561 106.734C61.0559 107.618 59.1534 108.911 57.56 110.54L41.1 127.21L36.91 131.48L27.01 141.51ZM21.36 105.38L36.9 89.59C41.1826 85.2224 46.2933 81.7528 51.933 79.3842C57.5727 77.0157 63.6281 75.7957 69.745 75.7957C75.8619 75.7957 81.9174 77.0157 87.5571 79.3842C93.1968 81.7528 98.3074 85.2224 102.59 89.59C111.298 98.5192 116.172 110.498 116.172 122.97C116.172 135.442 111.298 147.421 102.59 156.35C98.3074 160.718 93.1968 164.187 87.5571 166.556C81.9174 168.924 75.8619 170.144 69.745 170.144C63.6281 170.144 57.5727 168.924 51.933 166.556C46.2933 164.187 41.1826 160.718 36.9 156.35C33.9437 153.339 31.4044 149.946 29.35 146.26L38.69 136.77C40.3742 140.699 42.7751 144.28 45.77 147.33C48.8947 150.519 52.6242 153.052 56.7401 154.781C60.856 156.511 65.2756 157.401 69.74 157.401C74.2045 157.401 78.6241 156.511 82.74 154.781C86.8559 153.052 90.5853 150.519 93.71 147.33C100.067 140.815 103.626 132.073 103.626 122.97C103.626 113.867 100.067 105.125 93.71 98.61C90.5867 95.4188 86.8577 92.8835 82.7416 91.1525C78.6255 89.4216 74.2052 88.53 69.74 88.53C65.2748 88.53 60.8545 89.4216 56.7384 91.1525C52.6223 92.8835 48.8933 95.4188 45.77 98.61L45.56 98.83L23.35 121.41L18.49 126.34L3.88 141.19L-0.979996 146.13L-23.19 168.7L-23.41 168.92L-23.63 169.15L-24.27 169.8C-30.2569 176.377 -33.5053 184.992 -33.351 193.885C-33.1967 202.777 -29.6514 211.275 -23.44 217.64C-20.3153 220.829 -16.5858 223.362 -12.4699 225.091C-8.35404 226.821 -3.93445 227.711 0.530006 227.711C4.99446 227.711 9.41405 226.821 13.53 225.091C17.6459 223.362 21.3753 220.829 24.5 217.64C30.8527 211.123 34.408 202.381 34.408 193.28C34.408 184.179 30.8527 175.437 24.5 168.92C21.5193 165.892 17.9944 163.452 14.11 161.73L23.45 152.23C27.0875 154.327 30.4245 156.908 33.37 159.9C42.0779 168.829 46.9518 180.808 46.9518 193.28C46.9518 205.752 42.0779 217.731 33.37 226.66C29.0874 231.028 23.9768 234.497 18.3371 236.866C12.6974 239.234 6.6419 240.454 0.525005 240.454C-5.59189 240.454 -11.6473 239.234 -17.287 236.866C-22.9267 234.497 -28.0374 231.028 -32.32 226.66C-41.0279 217.731 -45.9018 205.752 -45.9018 193.28C-45.9018 180.808 -41.0279 168.829 -32.32 159.9L-16.78 144.11L21.36 105.38ZM33.36 86.03L-35.82 156.35L-36.69 157.22C-45.9533 167.167 -51.0334 180.297 -50.877 193.888C-50.7207 207.479 -45.3398 220.489 -35.85 230.22C-31.1134 235.055 -25.4595 238.897 -19.2195 241.519C-12.9794 244.142 -6.27874 245.493 0.490005 245.493C7.25875 245.493 13.9594 244.142 20.1995 241.519C26.4395 238.897 32.0935 235.055 36.83 230.22C44.5274 222.327 49.5679 212.227 51.2477 201.33C52.9276 190.434 51.1629 179.285 46.2 169.44C55.8742 174.472 66.9092 176.262 77.6778 174.546C88.4464 172.83 98.3787 167.699 106.01 159.91C115.646 150.03 121.039 136.776 121.039 122.975C121.039 109.174 115.646 95.9199 106.01 86.04C101.273 81.2058 95.6186 77.3654 89.3786 74.7437C83.1387 72.1219 76.4384 70.7715 69.67 70.7715C62.9016 70.7715 56.2013 72.1219 49.9614 74.7437C43.7214 77.3654 38.0673 81.2058 33.33 86.04" fill="#EDECE5"/>
<path id="Vector_4" d="M-59.89 131.84C-61.0294 133.001 -62.3887 133.923 -63.8885 134.552C-65.3883 135.182 -66.9985 135.506 -68.625 135.506C-70.2515 135.506 -71.8617 135.182 -73.3615 134.552C-74.8613 133.923 -76.2206 133.001 -77.36 131.84C-79.6733 129.465 -80.9678 126.28 -80.9678 122.965C-80.9678 119.65 -79.6733 116.465 -77.36 114.09C-76.2206 112.929 -74.8613 112.007 -73.3615 111.378C-71.8617 110.748 -70.2515 110.424 -68.625 110.424C-66.9985 110.424 -65.3883 110.748 -63.8885 111.378C-62.3887 112.007 -61.0294 112.929 -59.89 114.09C-57.5767 116.465 -56.2822 119.65 -56.2822 122.965C-56.2822 126.28 -57.5767 129.465 -59.89 131.84ZM-25.89 104.42L-22.15 100.62L-21.4 99.8599L-17.65 96.0499L-7.78 86.0499L-3.59 81.7899L12.82 65.1099L13.68 64.2399C16.5322 60.8844 18.0384 56.5903 17.9073 52.1884C17.7761 47.7865 16.0169 43.5897 12.97 40.4099C11.3908 38.7692 9.5 37.4601 7.40835 36.5596C5.3167 35.659 3.06633 35.1851 0.789139 35.1655C-1.48805 35.146 -3.74623 35.5812 -5.85303 36.4457C-7.95984 37.3102 -9.87288 38.5865 -11.48 40.2C-14.7483 43.4814 -16.6082 47.908 -16.6642 52.539C-16.7202 57.1701 -14.968 61.6404 -11.78 64.9999C-10.1803 66.6551 -8.26261 67.9698 -6.14204 68.8651C-4.02148 69.7604 -1.74181 70.2178 0.559998 70.2099L9.17999 61.5999C8.03136 62.7522 6.66436 63.6637 5.15906 64.281C3.65376 64.8984 2.0404 65.2092 0.413483 65.1952C-1.21343 65.1812 -2.82121 64.8428 -4.3157 64.1997C-5.81018 63.5566 -7.16132 62.6218 -8.29 61.45C-10.5833 59.0554 -11.851 55.86 -11.823 52.5445C-11.7949 49.229 -10.4734 46.0554 -8.14 43.7C-6.99068 42.5489 -5.62347 41.6385 -4.11826 41.0219C-2.61306 40.4054 -1.00006 40.095 0.626472 40.109C2.25301 40.1229 3.86044 40.4609 5.35484 41.1033C6.84923 41.7456 8.20061 42.6794 9.33 43.8499C11.6233 46.2445 12.891 49.4399 12.8629 52.7554C12.8349 56.0709 11.5134 59.2445 9.17999 61.5999L0.68 70.2399L-9.32 80.3699C-13.3527 78.9042 -17.0056 76.5533 -20.01 73.4899C-25.4395 67.9257 -28.4787 60.4593 -28.4787 52.6849C-28.4787 44.9106 -25.4395 37.4442 -20.01 31.8799C-17.3423 29.1556 -14.1576 26.9913 -10.6426 25.5136C-7.12756 24.036 -3.35295 23.2749 0.459999 23.2749C4.27295 23.2749 8.04755 24.036 11.5626 25.5136C15.0776 26.9913 18.2623 29.1556 20.93 31.8799C26.3199 37.4079 29.354 44.8119 29.3932 52.5325C29.4324 60.2531 26.4736 67.6876 21.14 73.2699L20.71 73.7099L8.56 86.1199L-4.63 99.5299L-8.98 104L-18.15 113.32L-22.5 117.74L-35.7 131.15L-47.94 143.54L-48.16 143.77C-50.8286 146.495 -54.0141 148.659 -57.53 150.137C-61.0458 151.615 -64.8212 152.376 -68.635 152.376C-72.4488 152.376 -76.2242 151.615 -79.74 150.137C-83.2559 148.659 -86.4414 146.495 -89.11 143.77C-94.5395 138.206 -97.5787 130.739 -97.5787 122.965C-97.5787 115.191 -94.5395 107.724 -89.11 102.16C-86.4407 99.4365 -83.2549 97.2731 -79.7392 95.7961C-76.2234 94.3192 -72.4484 93.5584 -68.635 93.5584C-64.8216 93.5584 -61.0466 94.3192 -57.5308 95.7961C-54.0151 97.2731 -50.8293 99.4365 -48.16 102.16C-45.1316 105.232 -42.8168 108.933 -41.38 113L-51.38 123.13C-51.3506 120.801 -51.7826 118.49 -52.651 116.329C-53.5195 114.168 -54.8073 112.201 -56.44 110.54C-58.0334 108.911 -59.9359 107.617 -62.0361 106.734C-64.1362 105.851 -66.3916 105.396 -68.67 105.396C-70.9484 105.396 -73.2038 105.851 -75.3039 106.734C-77.4041 107.617 -79.3066 108.911 -80.9 110.54C-84.1411 113.866 -85.955 118.326 -85.955 122.97C-85.955 127.614 -84.1411 132.074 -80.9 135.4C-79.3052 137.026 -77.4022 138.318 -75.3023 139.2C-73.2023 140.081 -70.9476 140.536 -68.67 140.536C-66.3924 140.536 -64.1377 140.081 -62.0377 139.2C-59.9378 138.318 -58.0348 137.026 -56.44 135.4L-40.03 118.72L-35.83 114.46L-25.89 104.42ZM-20.21 140.55L-35.75 156.35C-40.0326 160.718 -45.1432 164.187 -50.7829 166.556C-56.4226 168.924 -62.4781 170.144 -68.595 170.144C-74.7119 170.144 -80.7674 168.924 -86.4071 166.556C-92.0468 164.187 -97.1574 160.718 -101.44 156.35C-110.148 147.421 -115.022 135.442 -115.022 122.97C-115.022 110.498 -110.148 98.5191 -101.44 89.5899C-97.1574 85.2223 -92.0468 81.7528 -86.4071 79.3842C-80.7674 77.0156 -74.7119 75.7956 -68.595 75.7956C-62.4781 75.7956 -56.4226 77.0156 -50.7829 79.3842C-45.1432 81.7528 -40.0326 85.2223 -35.75 89.5899C-32.7948 92.5955 -30.2585 95.9861 -28.21 99.67L-37.55 109.16C-39.2307 105.232 -41.6321 101.654 -44.63 98.6099C-47.7524 95.4191 -51.4806 92.8839 -55.5959 91.1531C-59.7111 89.4223 -64.1306 88.5307 -68.595 88.5307C-73.0594 88.5307 -77.4789 89.4223 -81.5942 91.1531C-85.7094 92.8839 -89.4376 95.4191 -92.56 98.6099C-98.9174 105.125 -102.476 113.867 -102.476 122.97C-102.476 132.073 -98.9174 140.815 -92.56 147.33C-89.4362 150.518 -85.7076 153.051 -81.5925 154.781C-77.4774 156.51 -73.0586 157.401 -68.595 157.401C-64.1314 157.401 -59.7126 156.51 -55.5975 154.781C-51.4824 153.051 -47.7538 150.518 -44.63 147.33C-44.55 147.25 -44.49 147.17 -44.41 147.1L-22.21 124.53L-17.35 119.59L-2.73 104.74L2.13 99.7999L24.33 77.2299C24.41 77.1499 24.49 77.09 24.56 77.0099L24.77 76.7799L25.41 76.1299C31.392 69.5494 34.6353 60.933 34.4773 52.0413C34.3194 43.1496 30.772 34.6538 24.56 28.2899C21.4353 25.1012 17.7059 22.568 13.59 20.8387C9.47404 19.1093 5.05445 18.2185 0.589996 18.2185C-3.87446 18.2185 -8.29404 19.1093 -12.41 20.8387C-16.5259 22.568 -20.2553 25.1012 -23.38 28.2899C-29.7424 34.7967 -33.3099 43.5323 -33.3211 52.6327C-33.3323 61.7331 -29.7864 70.4776 -23.44 76.9999C-20.4587 80.0301 -16.9341 82.4726 -13.05 84.2L-22.39 93.6899C-26.0199 91.5866 -29.347 88.9996 -32.28 85.9999C-40.9879 77.0708 -45.8618 65.0922 -45.8618 52.6199C-45.8618 40.1477 -40.9879 28.1691 -32.28 19.2399C-27.9976 14.8739 -22.8875 11.4056 -17.2488 9.0379C-11.61 6.67023 -5.55569 5.45071 0.559998 5.45071C6.67569 5.45071 12.73 6.67023 18.3688 9.0379C24.0075 11.4056 29.1176 14.8739 33.4 19.2399C42.1079 28.1691 46.9818 40.1477 46.9818 52.6199C46.9818 65.0922 42.1079 77.0708 33.4 85.9999L17.87 101.82L-20.21 140.55ZM-32.21 159.9L36.97 89.5899L37.83 88.7099C47.0956 78.7644 52.1773 65.6338 52.0209 52.0418C51.8645 38.4498 46.482 25.4397 36.99 15.7099C32.2541 10.8733 26.6004 7.03075 20.3603 4.40744C14.1202 1.78413 7.41913 0.432861 0.649994 0.432861C-6.11914 0.432861 -12.8202 1.78413 -19.0603 4.40744C-25.3005 7.03075 -30.9541 10.8733 -35.69 15.7099C-43.3799 23.6075 -48.416 33.7063 -50.0972 44.6003C-51.7785 55.4943 -50.0212 66.6415 -45.07 76.4899C-54.7522 71.4342 -65.8046 69.6292 -76.5923 71.3419C-87.3799 73.0546 -97.3297 78.194 -104.97 85.9999C-114.603 95.8811 -119.995 109.135 -119.995 122.935C-119.995 136.735 -114.603 149.989 -104.97 159.87C-100.233 164.707 -94.5787 168.55 -88.3378 171.173C-82.0968 173.797 -75.3949 175.148 -68.625 175.148C-61.8551 175.148 -55.1532 173.797 -48.9122 171.173C-42.6713 168.55 -37.0167 164.707 -32.28 159.87" fill="#EDECE5"/>
</g>
</svg>
