<svg width="394" height="108" viewBox="0 0 394 108" fill="none" xmlns="http://www.w3.org/2000/svg">
<g clip-path="url(#clip0_273_28)">
<path d="M7.34302 38.3025C3.506 42.1405 1.16603 47.2228 0.744828 52.6335C0.323626 58.0442 1.84889 63.4274 5.04574 67.813C8.24259 72.1985 12.9008 75.298 18.1808 76.5528C23.4608 77.8076 29.0154 77.1352 33.8435 74.6568C31.9335 78.3746 31.0837 82.5463 31.3872 86.715C31.6907 90.8836 33.1358 94.8883 35.5642 98.2902C37.9925 101.692 41.3104 104.36 45.1543 106.001C48.9981 107.643 53.2197 108.195 57.3563 107.596C61.4929 106.998 65.385 105.272 68.606 102.609C71.8271 99.9451 74.2529 96.4464 75.6176 92.4958C76.9823 88.5452 77.2332 84.2951 76.3428 80.2114C75.4525 76.1276 73.4553 72.3678 70.57 69.3437L70.1885 68.9622L39.5474 38.2932C35.2723 34.03 29.4807 31.6367 23.4433 31.6385C17.4058 31.6402 11.6156 34.0368 7.34302 38.3025ZM61.7675 63.6119L68.6532 70.4975C71.7052 73.5438 73.7244 77.4711 74.4261 81.7258C75.1279 85.9805 74.4769 90.3481 72.5648 94.2132C70.6527 98.0783 67.5759 101.246 63.7681 103.27C59.9604 105.294 55.6135 106.071 51.3402 105.494C47.0669 104.916 43.0825 103.012 39.9487 100.05C36.8148 97.0881 34.6894 93.2173 33.872 88.9833C33.0547 84.7493 33.5865 80.3655 35.3926 76.4498C37.1987 72.5341 40.188 69.2838 43.9393 67.1571L48.1079 71.2977C46.3701 72.0344 44.7904 73.0991 43.4554 74.4335C41.3701 76.5169 39.9439 79.168 39.3547 82.0563C38.7655 84.9446 39.0394 87.9424 40.1421 90.6762C41.2449 93.4099 43.1278 95.7587 45.5561 97.4298C47.9845 99.1009 50.8509 100.02 53.7982 100.074C56.7455 100.127 59.6434 99.3118 62.1306 97.7296C64.6178 96.1474 66.5844 93.8683 67.7852 91.1762C68.9861 88.4841 69.3682 85.4981 68.8839 82.5904C68.3995 79.6827 67.0702 76.9818 65.0615 74.8243L64.773 74.5359L64.68 74.4428L64.5776 74.3498L54.7795 64.4958L52.6301 62.3371L46.1167 55.8237L43.9579 53.6742L34.1505 43.8761L34.0575 43.7831C31.7888 41.513 28.8525 40.0294 25.6791 39.5498C22.5058 39.0702 19.2622 39.6198 16.424 41.118C13.5858 42.6162 11.3022 44.9843 9.9079 47.875C8.51365 50.7657 8.08211 54.0271 8.67655 57.181C9.27098 60.3348 10.8601 63.2153 13.211 65.4002C15.5619 67.585 18.5509 68.9593 21.7398 69.3215C24.9287 69.6838 28.1497 69.0149 30.9308 67.413C33.7118 65.8111 35.9065 63.3605 37.1932 60.4203L41.3339 64.5517C39.2094 68.2959 35.9638 71.2792 32.0543 73.0817C28.1448 74.8841 23.7685 75.4147 19.5415 74.5988C15.3146 73.7829 11.4501 71.6616 8.49229 68.5337C5.5345 65.4057 3.63244 61.4287 3.05401 57.1628C2.47558 52.8969 3.24992 48.557 5.26798 44.7543C7.28603 40.9517 10.4461 37.8779 14.3032 35.9658C18.1602 34.0538 22.5199 33.3999 26.7682 34.0962C31.0164 34.7924 34.9393 36.8039 37.9842 39.8471L44.8698 46.7327L61.7675 63.6119ZM37.9935 58.1127L36.1325 56.2517L28.8653 48.9845C27.6087 47.7198 25.9514 46.9312 24.1774 46.754C22.4033 46.5767 20.6228 47.0216 19.1407 48.0127C17.6587 49.0038 16.5673 50.4793 16.0534 52.1865C15.5395 53.8937 15.6352 55.7265 16.324 57.371C17.0127 59.0155 18.2518 60.3693 19.829 61.2008C21.4062 62.0322 23.2233 62.2894 24.9693 61.9284C26.7153 61.5674 28.2814 60.6107 29.3996 59.222C30.5177 57.8333 31.1183 56.099 31.0985 54.3163L35.5183 58.7268C34.5807 61.3408 32.8196 63.5797 30.5001 65.1068C28.1806 66.634 25.428 67.3667 22.6562 67.195C19.8844 67.0232 17.2433 65.9562 15.1301 64.1544C13.0168 62.3527 11.5457 59.9135 10.9379 57.2037C10.3301 54.4939 10.6184 51.6601 11.7596 49.1283C12.9008 46.5965 14.8332 44.5037 17.266 43.1645C19.6989 41.8253 22.5008 41.3122 25.2504 41.7023C27.9999 42.0924 30.5485 43.3646 32.5129 45.3277L32.6152 45.4301L38.04 50.8548L43.8835 56.6983L45.8096 58.6151L49.8665 62.6814L51.8299 64.6168L57.6827 70.4603L63.1075 75.8851L63.3029 76.0805C65.2463 78.0628 66.4949 80.6215 66.8617 83.3732C67.2286 86.1249 66.6937 88.9213 65.3375 91.3435C63.9812 93.7657 61.8765 95.6831 59.3388 96.8084C56.801 97.9337 53.967 98.2063 51.2613 97.5853C48.5556 96.9644 46.124 95.4833 44.3309 93.3641C42.5378 91.2449 41.4797 88.6017 41.3153 85.8305C41.1509 83.0593 41.8889 80.3095 43.4188 77.9931C44.9487 75.6767 47.1881 73.9185 49.8014 72.9819L54.2212 77.3925L57.9432 81.1144C58.7142 81.8734 59.2428 82.8439 59.4624 83.9032C59.6819 84.9626 59.5824 86.0633 59.1766 87.0661C58.7707 88.0689 58.0766 88.9289 57.1821 89.5374C56.2876 90.1459 55.2327 90.4755 54.1509 90.4846C53.0691 90.4937 52.0089 90.1819 51.1042 89.5885C50.1996 88.9952 49.4912 88.147 49.0685 87.1511C48.6458 86.1553 48.5278 85.0564 48.7295 83.9935C48.9312 82.9307 49.4434 81.9514 50.2015 81.1796C50.7054 80.6666 51.3054 80.258 51.9672 79.9771C52.6291 79.6961 53.3399 79.5484 54.0589 79.5424C54.7779 79.5363 55.491 79.6721 56.1575 79.9418C56.824 80.2115 57.4308 80.61 57.9432 81.1144L54.1282 77.3925C52.3755 77.3868 50.6738 77.9818 49.3065 79.0784C47.9392 80.175 46.9889 81.7069 46.6138 83.419C46.2387 85.1311 46.4616 86.92 47.2452 88.4878C48.0289 90.0555 49.326 91.3075 50.9205 92.0351C52.5151 92.7627 54.3108 92.922 56.0085 92.4865C57.7062 92.051 59.2035 91.047 60.2509 89.6418C61.2984 88.2365 61.8327 86.5147 61.765 84.7633C61.6973 83.012 61.0315 81.3366 59.8786 80.0165L59.4971 79.635L52.23 72.3585L50.369 70.4975L45.9957 66.1242L44.3859 64.4679L44.051 64.1423L42.3947 62.4767L37.9935 58.1127ZM27.3114 58.2708C26.546 59.0354 25.5711 59.556 24.5099 59.7666C23.4488 59.9772 22.349 59.8685 21.3495 59.4543C20.3501 59.04 19.496 58.3387 18.895 57.4391C18.2941 56.5395 17.9734 55.4819 17.9734 54.4C17.9734 53.3181 18.2941 52.2605 18.895 51.3609C19.496 50.4613 20.3501 49.76 21.3495 49.3457C22.349 48.9315 23.4488 48.8228 24.5099 49.0334C25.5711 49.244 26.546 49.7646 27.3114 50.5292C27.8201 51.0373 28.2236 51.6407 28.4989 52.3049C28.7743 52.9691 28.916 53.681 28.916 54.4C28.916 55.119 28.7743 55.8309 28.4989 56.4951C28.2236 57.1593 27.8201 57.7627 27.3114 58.2708Z" fill="#435148"/>
<path d="M37.9935 39.8471L68.6997 70.4975L69.0812 70.879C72.1049 73.7606 75.8632 75.7546 79.9446 76.6426C84.026 77.5305 88.273 77.2783 92.2205 75.9134C96.1681 74.5485 99.6639 72.1236 102.325 68.9043C104.986 65.685 106.711 61.7955 107.309 57.6617C107.907 53.5278 107.355 49.3092 105.716 45.4677C104.076 41.6261 101.411 38.31 98.0117 35.8823C94.6128 33.4546 90.6114 32.009 86.4457 31.7039C82.28 31.3988 78.1107 32.2459 74.3943 34.1525C76.312 30.4141 77.1578 26.218 76.8383 22.0287C76.5187 17.8393 75.0463 13.8201 72.5838 10.4158C70.1214 7.01147 66.765 4.3549 62.8862 2.74007C59.0074 1.12524 54.7575 0.615139 50.6067 1.26622C46.4559 1.9173 42.5662 3.70417 39.3682 6.42906C36.1701 9.15396 33.7883 12.7106 32.4865 16.7053C31.1846 20.7001 31.0135 24.9772 31.992 29.0631C32.9705 33.1491 35.0605 36.8847 38.0307 39.8564L37.9935 39.8471ZM46.433 45.1788L39.5474 38.2932C36.5013 35.2475 34.4875 31.3229 33.7897 27.0723C33.0919 22.8217 33.7453 18.4593 35.6578 14.5996C37.5703 10.74 40.6455 7.57759 44.4502 5.55802C48.255 3.53844 52.5974 2.76345 56.8659 3.34222C61.1343 3.92099 65.1136 5.82436 68.2432 8.78418C71.3727 11.744 73.4948 15.6111 74.3105 19.8407C75.1261 24.0703 74.5942 28.4491 72.7897 32.3605C70.9853 36.2718 67.9991 39.5184 64.252 41.6429L60.1113 37.5022C61.8302 36.7562 63.3929 35.6923 64.7172 34.3665C66.8182 32.2664 68.2493 29.5905 68.8294 26.677C69.4094 23.7636 69.1124 20.7436 67.9759 17.999C66.8395 15.2544 64.9145 12.9084 62.4447 11.2579C59.9748 9.60736 57.0709 8.72638 54.1003 8.72638C51.1297 8.72638 48.2258 9.60736 45.7559 11.2579C43.286 12.9084 41.3611 15.2544 40.2246 17.999C39.0882 20.7436 38.7912 23.7636 39.3712 26.677C39.9513 29.5905 41.3823 32.2664 43.4834 34.3665L43.5764 34.4595L53.421 44.2948L55.5519 46.4536L62.0653 52.967L64.2147 55.1165L74.05 64.9518L74.1524 65.0541C74.181 65.0874 74.2121 65.1185 74.2455 65.1472L74.5339 65.4356C76.6913 67.4364 79.3892 68.7588 82.2921 69.2387C85.195 69.7185 88.1749 69.3345 90.8614 68.1344C93.5478 66.9343 95.8223 64.9711 97.4019 62.4888C98.9816 60.0065 99.7969 57.1146 99.7463 54.1728C99.6957 51.2309 98.7816 48.3688 97.1175 45.9422C95.4534 43.5157 93.1129 41.6318 90.3868 40.5248C87.6607 39.4177 84.6693 39.1364 81.7846 39.7157C78.8999 40.295 76.2491 41.7094 74.1617 43.7831C72.8253 45.1009 71.7517 46.6608 70.998 48.3797L66.8573 44.239C68.9841 40.4937 72.2323 37.5099 76.1443 35.7079C80.0564 33.906 84.4351 33.3766 88.6638 34.1945C92.8925 35.0123 96.7581 37.1362 99.7162 40.2668C102.674 43.3975 104.576 47.3773 105.152 51.6455C105.729 55.9138 104.953 60.2555 102.932 64.0591C100.911 67.8628 97.7483 70.9366 93.8884 72.8478C90.0286 74.7589 85.6664 75.4111 81.4164 74.7123C77.1664 74.0136 73.2426 71.9992 70.1978 68.9529L63.3122 62.0673L46.433 45.1788ZM62.177 42.6665L63.8425 44.3228L64.1682 44.6577L65.8338 46.314L70.2071 50.6873L72.0681 52.5483L79.3446 59.8155L79.7261 60.197C81.0481 61.3427 82.7226 62.0012 84.471 62.063C86.2193 62.1248 87.9361 61.5861 89.3358 60.5365C90.7354 59.4869 91.7335 57.9897 92.1639 56.2941C92.5944 54.5984 92.4312 52.8065 91.7017 51.2164C90.9722 49.6263 89.7202 48.334 88.1541 47.5543C86.5879 46.7747 84.8021 46.5548 83.0936 46.9312C81.3851 47.3077 79.8571 48.2577 78.7636 49.6233C77.6701 50.9889 77.0772 52.6878 77.0835 54.4372L80.8054 58.2522C80.0473 57.4804 79.5351 56.5012 79.3334 55.4383C79.1317 54.3754 79.2497 53.2766 79.6724 52.2807C80.0951 51.2848 80.8035 50.4366 81.7081 49.8433C82.6128 49.25 83.673 48.9381 84.7548 48.9472C85.8367 48.9563 86.8915 49.286 87.786 49.8944C88.6805 50.5029 89.3746 51.3629 89.7805 52.3657C90.1864 53.3686 90.2858 54.4692 90.0663 55.5286C89.8468 56.5879 89.3181 57.5584 88.5471 58.3174C87.5111 59.3338 86.1142 59.8978 84.6628 59.8856C83.2115 59.8734 81.8242 59.286 80.8054 58.2522L77.0835 54.5303L72.6729 50.1104C73.3054 48.3277 74.3292 46.7094 75.6691 45.3742C77.4587 43.5826 79.7384 42.3606 82.2212 41.862C84.7039 41.3635 87.2787 41.6107 89.6212 42.5725C91.9637 43.5344 93.9693 45.1679 95.3853 47.2673C96.8013 49.3667 97.5645 51.8381 97.5787 54.3704C97.5929 56.9026 96.8575 59.3825 95.4652 61.4977C94.0728 63.6128 92.0857 65.2687 89.7541 66.2568C87.4226 67.2449 84.8507 67.521 82.3626 67.0503C79.8744 66.5796 77.5811 65.3833 75.7715 63.6119L75.5761 63.4165L70.1513 57.9917L64.3171 52.1017L62.391 50.1663L58.3433 46.1093L56.4172 44.1832L50.5737 38.3397L45.1303 32.9149L45.028 32.8126C43.0622 30.8473 41.7878 28.2969 41.3964 25.545C41.005 22.7931 41.5178 19.9885 42.8576 17.5531C44.1975 15.1177 46.2919 13.1832 48.8258 12.0407C51.3598 10.8982 54.1962 10.6094 56.9084 11.2178C59.6207 11.8261 62.062 13.2988 63.8652 15.4141C65.6684 17.5295 66.7359 20.1732 66.9072 22.9475C67.0784 25.7219 66.3442 28.4768 64.8149 30.7979C63.2856 33.119 61.0439 34.8807 58.4271 35.8181L54.0165 31.3982C55.0362 31.4143 56.0486 31.2249 56.9934 30.8412C57.9382 30.4575 58.7961 29.8875 59.5158 29.165C60.5885 28.0929 61.3191 26.7267 61.6153 25.2393C61.9114 23.7519 61.7598 22.2101 61.1797 20.8088C60.5995 19.4076 59.6167 18.2099 58.3558 17.3672C57.0948 16.5245 55.6122 16.0747 54.0956 16.0747C52.579 16.0747 51.0965 16.5245 49.8355 17.3672C48.5745 18.2099 47.5918 19.4076 47.0116 20.8088C46.4314 22.2101 46.2798 23.7519 46.576 25.2393C46.8722 26.7267 47.6028 28.0929 48.6755 29.165L55.952 36.4322L57.813 38.2932L62.177 42.6665ZM50.2294 27.6111C49.4648 26.8457 48.9443 25.8708 48.7337 24.8096C48.5231 23.7485 48.6317 22.6487 49.046 21.6493C49.4603 20.6498 50.1616 19.7957 51.0612 19.1948C51.9608 18.5938 53.0184 18.2731 54.1003 18.2731C55.1822 18.2731 56.2397 18.5938 57.1394 19.1948C58.039 19.7957 58.7403 20.6498 59.1545 21.6493C59.5688 22.6487 59.6775 23.7485 59.4669 24.8096C59.2562 25.8708 58.7357 26.8457 57.9711 27.6111C57.463 28.1198 56.8596 28.5233 56.1954 28.7986C55.5312 29.074 54.8193 29.2157 54.1003 29.2157C53.3813 29.2157 52.6694 29.074 52.0052 28.7986C51.341 28.5233 50.7376 28.1198 50.2294 27.6111Z" fill="#435148"/>
<path d="M68.6439 38.3025L37.9934 68.9529L37.6119 69.3344C34.7267 72.3585 32.7294 76.1183 31.8391 80.2021C30.9488 84.2858 31.1997 88.5359 32.5644 92.4865C33.9291 96.4371 36.3548 99.9358 39.5759 102.599C42.797 105.263 46.6891 106.988 50.8257 107.587C54.9623 108.185 59.1838 107.634 63.0277 105.992C66.8716 104.351 70.1894 101.683 72.6178 98.2809C75.0461 94.879 76.4912 90.8743 76.7947 86.7057C77.0982 82.537 76.2485 78.3653 74.3385 74.6475C78.0769 76.5666 82.2734 77.4137 86.4635 77.095C90.6536 76.7763 94.6738 75.3043 98.0789 72.8419C101.484 70.3796 104.141 67.0229 105.757 63.1436C107.372 59.2642 107.882 55.0136 107.231 50.8622C106.579 46.7108 104.792 42.8206 102.066 39.6223C99.3405 36.4241 95.7829 34.0425 91.7872 32.7413C87.7916 31.4401 83.5138 31.2701 79.4274 32.2499C75.3411 33.2298 71.6056 35.3214 68.6346 38.2932L68.6439 38.3025ZM63.3122 46.7327L70.1978 39.8471C73.2453 36.7883 77.1761 34.7633 81.4358 34.0578C85.6956 33.3523 90.0693 34.0018 93.9403 35.9146C97.8112 37.8275 100.984 40.9073 103.011 44.7197C105.038 48.532 105.817 52.8845 105.239 57.1634C104.66 61.4422 102.753 65.4315 99.7863 68.5686C96.8195 71.7056 92.9428 73.8322 88.7028 74.6484C84.4629 75.4645 80.0737 74.9291 76.1543 73.1176C72.2349 71.3061 68.983 68.31 66.8573 64.5517L70.9887 60.4203C71.7542 62.1349 72.8299 63.6932 74.1617 65.0169C76.2617 67.118 78.9377 68.549 81.8512 69.1291C84.7646 69.7091 87.7846 69.4121 90.5292 68.2757C93.2738 67.1392 95.6198 65.2143 97.2703 62.7444C98.9208 60.2745 99.8018 57.3706 99.8018 54.4C99.8018 51.4294 98.9208 48.5255 97.2703 46.0556C95.6198 43.5858 93.2738 41.6608 90.5292 40.5244C87.7846 39.3879 84.7646 39.0909 81.8512 39.6709C78.9377 40.251 76.2617 41.682 74.1617 43.7831C74.1331 43.8164 74.102 43.8475 74.0687 43.8761L64.1961 53.7207L62.0653 55.8702L55.5518 62.3836L53.4117 64.4958L43.5764 74.3405L43.4554 74.4335L43.3624 74.5266L43.0832 74.815C41.0759 76.9729 39.7478 79.6738 39.2645 82.5811C38.7812 85.4884 39.1641 88.4737 40.3653 91.165C41.5665 93.8563 43.5331 96.1347 46.02 97.7163C48.5069 99.2979 51.4041 100.113 54.3509 100.06C57.2976 100.006 60.1635 99.0872 62.5916 97.4167C65.0197 95.7462 66.9026 93.3983 68.0058 90.6653C69.109 87.9323 69.3836 84.9352 68.7955 82.0472C68.2075 79.1593 66.7826 76.5082 64.6986 74.4242C63.3743 73.0984 61.8116 72.0345 60.0927 71.2885L64.2333 67.1478C67.9769 69.2736 70.9592 72.5202 72.7603 76.4304C74.5615 80.3405 75.0906 84.7172 74.2732 88.9439C73.4558 93.1706 71.3331 97.0344 68.204 99.9911C65.0749 102.948 61.0972 104.848 56.831 105.425C52.5648 106.002 48.2251 105.226 44.4231 103.207C40.6212 101.187 37.5486 98.0258 35.638 94.168C33.7275 90.3101 33.0752 85.9501 33.7732 81.7021C34.4712 77.454 36.4842 73.5319 39.5288 70.4882L46.4144 63.6026L63.3122 46.7327ZM65.8338 62.4767L64.1682 64.1423L63.8425 64.4679L62.177 66.1335L57.8036 70.5068L55.9427 72.3678L48.6662 79.6443L48.2847 80.0258C47.1413 81.3466 46.4845 83.019 46.4236 84.7649C46.3626 86.5108 46.9012 88.225 47.9496 89.6223C48.9981 91.0196 50.4933 92.0159 52.1866 92.4455C53.88 92.8752 55.6693 92.7122 57.2571 91.9837C58.8449 91.2552 60.1355 90.0051 60.9143 88.4413C61.693 86.8775 61.913 85.0943 61.5375 83.3881C61.1621 81.682 60.214 80.1557 58.8507 79.0633C57.4875 77.9708 55.7914 77.3779 54.0444 77.3832L50.2201 81.1051C50.9914 80.3457 51.9707 79.8322 53.0339 79.6295C54.0972 79.4267 55.1967 79.544 56.1933 79.9663C57.19 80.3886 58.0389 81.097 58.6329 82.002C59.2267 82.9069 59.5389 83.9677 59.5298 85.05C59.5207 86.1324 59.1907 87.1878 58.5816 88.0826C57.9726 88.9774 57.1118 89.6714 56.1082 90.0769C55.1046 90.4823 54.0033 90.581 52.9436 90.3604C51.8839 90.1398 50.9134 89.6098 50.155 88.8375C49.1391 87.8031 48.5754 86.4077 48.5876 84.9579C48.5998 83.508 49.187 82.1223 50.2201 81.1051L53.9421 77.3832L58.3526 72.9726C60.1346 73.6065 61.7527 74.6302 63.0888 75.9688C64.8818 77.7579 66.1051 80.0376 66.6048 82.5207C67.1044 85.0038 66.858 87.5792 65.8965 89.9225C64.935 92.2658 63.3016 94.2722 61.2019 95.6888C59.1022 97.1054 56.6303 97.8689 54.0974 97.8831C51.5646 97.8973 49.0842 97.1616 46.9688 95.7687C44.8533 94.3758 43.1974 92.3879 42.2097 90.0555C41.222 87.7232 40.9467 85.1507 41.4184 82.6621C41.8901 80.1736 43.0878 77.8803 44.8605 76.0712L45.0559 75.8758L50.4807 70.451L56.3242 64.6075L58.3433 62.6907L62.3817 58.6151L64.3171 56.689L70.1606 50.8455L75.5854 45.4207L75.6784 45.3184C77.4728 43.5236 79.7592 42.3013 82.2483 41.806C84.7374 41.3106 87.3176 41.5646 89.6624 42.5357C92.0072 43.5068 94.0113 45.1514 95.4214 47.2616C96.8315 49.3718 97.5841 51.8528 97.5841 54.3907C97.5841 56.9286 96.8315 59.4096 95.4214 61.5198C94.0113 63.63 92.0072 65.2746 89.6624 66.2457C87.3176 67.2168 84.7374 67.4708 82.2483 66.9755C79.7592 66.4801 77.4728 65.2578 75.6784 63.463C74.3383 62.1244 73.3146 60.503 72.6822 58.7175L77.0928 54.307C77.0756 56.0823 77.6759 57.8085 78.791 59.1901C79.906 60.5718 81.4664 61.5231 83.2054 61.8813C84.9443 62.2395 86.7537 61.9823 88.324 61.1538C89.8942 60.3253 91.1278 58.9769 91.8138 57.3393C92.4997 55.7017 92.5952 53.8766 92.0842 52.1763C91.5731 50.476 90.4871 49.0061 89.0119 48.0181C87.5368 47.0301 85.7642 46.5854 83.9973 46.7599C82.2305 46.9345 80.5792 47.7176 79.3259 48.9752L72.0588 56.2424L70.1978 58.1034L65.8338 62.4767ZM80.8799 50.5292C81.6453 49.7646 82.6202 49.244 83.6813 49.0334C84.7425 48.8228 85.8423 48.9315 86.8417 49.3457C87.8411 49.76 88.6953 50.4613 89.2962 51.3609C89.8972 52.2605 90.2179 53.3181 90.2179 54.4C90.2179 55.4819 89.8972 56.5395 89.2962 57.4391C88.6953 58.3387 87.8411 59.04 86.8417 59.4543C85.8423 59.8685 84.7425 59.9772 83.6813 59.7666C82.6202 59.556 81.6453 59.0354 80.8799 58.2709C80.3712 57.7627 79.9677 57.1593 79.6923 56.4951C79.417 55.8309 79.2753 55.119 79.2753 54.4C79.2753 53.681 79.417 52.9691 79.6923 52.3049C79.9677 51.6407 80.3712 51.0373 80.8799 50.5292Z" fill="#435148"/>
<path d="M39.5473 70.4974L70.1977 39.847L70.5792 39.4655C73.4634 36.4415 75.4597 32.682 76.3495 28.599C77.2393 24.5159 76.9883 20.2667 75.6239 16.3168C74.2595 12.3669 71.8344 8.86866 68.6142 6.20527C65.3941 3.54188 61.503 1.81607 57.3673 1.21687C53.2316 0.617674 49.0107 1.1682 45.167 2.80816C41.3234 4.44811 38.0052 7.11424 35.5759 10.5145C33.1466 13.9148 31.6999 17.918 31.3943 22.0857C31.0887 26.2534 31.936 30.4248 33.8433 34.1431C30.1049 32.224 25.9084 31.3769 21.7183 31.6956C17.5282 32.0143 13.5081 33.4863 10.1029 35.9487C6.69776 38.411 4.04045 41.7677 2.42519 45.647C0.809923 49.5264 0.29972 53.7771 0.951065 57.9285C1.60241 62.0798 3.38989 65.97 6.11562 69.1683C8.84134 72.3665 12.399 74.7481 16.3946 76.0493C20.3903 77.3505 24.6681 77.5205 28.7544 76.5407C32.8408 75.5608 36.5762 73.4692 39.5473 70.4974ZM44.879 62.0672L37.9933 68.9528C34.9488 71.9921 31.0278 74.0001 26.7823 74.6942C22.5367 75.3882 18.1804 74.7332 14.3266 72.8215C10.4728 70.9098 7.31553 67.8377 5.29931 64.0375C3.2831 60.2373 2.50943 55.9005 3.08724 51.6376C3.66505 47.3747 5.56522 43.4003 8.52028 40.2739C11.4753 37.1476 15.3365 35.0267 19.5601 34.2099C23.7837 33.393 28.1572 33.9213 32.0649 35.7204C35.9725 37.5195 39.2175 40.4988 41.3431 44.2389L37.2024 48.3796C36.4571 46.663 35.3931 45.1032 34.0667 43.783C31.9666 41.6819 29.2906 40.2509 26.3772 39.6708C23.4638 39.0908 20.4438 39.3878 17.6991 40.5243C14.9545 41.6607 12.6086 43.5857 10.9581 46.0555C9.30752 48.5254 8.42655 51.4293 8.42655 54.3999C8.42655 57.3705 9.30752 60.2744 10.9581 62.7443C12.6086 65.2142 14.9545 67.1391 17.6991 68.2756C20.4438 69.412 23.4638 69.709 26.3772 69.129C29.2906 68.5489 31.9666 67.1179 34.0667 65.0168L34.1597 64.9145L43.995 55.0792L46.1538 52.9297L52.6672 46.4163L54.8166 44.2575L64.6147 34.4222L64.7171 34.3292L64.8101 34.2268L65.0986 33.9477C67.0991 31.7858 68.4197 29.0833 68.896 26.1766C69.3724 23.2699 68.9835 20.2873 67.7777 17.5999C66.572 14.9126 64.6026 12.6391 62.1146 11.0624C59.6267 9.48572 56.73 8.67545 53.7851 8.73243C50.8402 8.7894 47.977 9.7111 45.5519 11.3828C43.1268 13.0546 41.2468 15.4025 40.1459 18.1345C39.045 20.8665 38.7717 23.8619 39.3602 26.748C39.9486 29.6341 41.3727 32.2835 43.4553 34.3664C44.7903 35.7008 46.3699 36.7655 48.1078 37.5022L43.9671 41.6429C40.2217 39.516 37.2379 36.2679 35.436 32.3559C33.634 28.4438 33.1047 24.0651 33.9226 19.8364C34.7404 15.6077 36.8643 11.7421 39.9949 8.78403C43.1256 5.82601 47.1053 3.92464 51.3736 3.34771C55.6419 2.77079 59.9836 3.54739 63.7872 5.56813C67.5908 7.58888 70.6647 10.7519 72.5759 14.6118C74.487 18.4716 75.1392 22.8338 74.4404 27.0838C73.7417 31.3338 71.7273 35.2576 68.681 38.3024L61.7953 45.1787L44.879 62.0672ZM42.3666 46.3139L44.0229 44.6576L44.3579 44.3227L46.0142 42.6664L50.3875 38.2931L52.2485 36.4321L59.5156 29.1649L59.8971 28.7834C61.0498 27.4606 61.7146 25.7828 61.7807 24.0294C61.8468 22.2761 61.3103 20.553 60.2604 19.1471C59.2106 17.7412 57.7108 16.7374 56.0109 16.3028C54.311 15.8683 52.5135 16.0292 50.9177 16.7587C49.322 17.4883 48.0243 18.7425 47.2408 20.3124C46.4574 21.8824 46.2353 23.6734 46.6118 25.3871C46.9882 27.1009 47.9403 28.634 49.3097 29.7311C50.679 30.8282 52.3828 31.4231 54.1374 31.4167L57.9524 27.6948C57.1811 28.4542 56.2018 28.9677 55.1386 29.1704C54.0753 29.3732 52.9758 29.256 51.9792 28.8336C50.9825 28.4113 50.1336 27.7029 49.5397 26.7979C48.9458 25.893 48.6336 24.8323 48.6428 23.7499C48.6519 22.6675 48.9818 21.6121 49.5909 20.7173C50.2 19.8225 51.0607 19.1285 52.0643 18.723C53.068 18.3176 54.1693 18.2189 55.229 18.4395C56.2887 18.6601 57.2591 19.1901 58.0175 19.9624C59.0289 20.9992 59.5895 22.3937 59.5773 23.842C59.5651 25.2903 58.9811 26.6751 57.9524 27.6948L54.2304 31.4167L49.7641 35.818C47.1564 34.8807 44.9225 33.1239 43.397 30.8106C41.8715 28.4974 41.1364 25.7522 41.3018 22.9861C41.4672 20.2201 42.5243 17.582 44.3146 15.4671C46.1049 13.3521 48.5323 11.8741 51.233 11.2543C53.9338 10.6344 56.7627 10.9062 59.2961 12.0289C61.8295 13.1516 63.931 15.0647 65.2859 17.4818C66.6409 19.899 67.1763 22.69 66.8121 25.4369C66.4479 28.1839 65.2035 30.7389 63.2655 32.7194L63.0701 32.9148L57.6453 38.3396L51.8298 44.1831L49.9036 46.1092L45.8467 50.1662L43.8833 52.1016L38.0399 57.9451L32.6151 63.3699L32.5127 63.4629C30.5482 65.4251 27.9997 66.6966 25.2506 67.0862C22.5014 67.4757 19.7001 66.9624 17.2677 65.6233C14.8353 64.2842 12.9033 62.1917 11.7622 59.6604C10.6211 57.129 10.3325 54.2957 10.9398 51.5863C11.5471 48.8769 13.0175 46.4378 15.1299 44.6358C17.2424 42.8338 19.8827 41.7661 22.654 41.5934C25.4252 41.4207 28.1777 42.1523 30.4975 43.6781C32.8173 45.2039 34.5792 47.4415 35.5182 50.0545L31.0984 54.4743C31.115 53.4547 30.9258 52.4421 30.5421 51.4972C30.1584 50.5523 29.5881 49.6945 28.8652 48.9751C27.7942 47.9043 26.4296 47.1751 24.9442 46.8797C23.4587 46.5843 21.919 46.7361 20.5198 47.3157C19.1206 47.8954 17.9246 48.8769 17.0832 50.1362C16.2418 51.3955 15.7927 52.8761 15.7927 54.3906C15.7927 55.9051 16.2418 57.3857 17.0832 58.645C17.9246 59.9043 19.1206 60.8859 20.5198 61.4655C21.919 62.0452 23.4587 62.1969 24.9442 61.9015C26.4296 61.6061 27.7942 60.8769 28.8652 59.8061L36.1323 52.5389L37.9933 50.6779L42.3666 46.3139ZM27.3113 58.2708C26.5459 59.0353 25.571 59.5559 24.5098 59.7665C23.4486 59.9771 22.3488 59.8684 21.3494 59.4542C20.35 59.0399 19.4959 58.3386 18.8949 57.439C18.294 56.5394 17.9732 55.4818 17.9732 54.3999C17.9732 53.318 18.294 52.2604 18.8949 51.3608C19.4959 50.4612 20.35 49.7599 21.3494 49.3456C22.3488 48.9314 23.4486 48.8227 24.5098 49.0333C25.571 49.2439 26.5459 49.7645 27.3113 50.5291C27.8199 51.0372 28.2235 51.6406 28.4988 52.3048C28.7741 52.969 28.9158 53.6809 28.9158 54.3999C28.9158 55.1189 28.7741 55.8308 28.4988 56.495C28.2235 57.1592 27.8199 57.7626 27.3113 58.2708Z" fill="#435148"/>
<path d="M225.385 29.0627C224.12 27.7531 222.564 26.7587 220.845 26.1596C218.698 25.4315 216.44 25.0851 214.173 25.136C213.044 25.136 211.927 25.1732 210.823 25.2477C209.719 25.3221 208.602 25.3593 207.473 25.3593C206.348 25.3593 205.231 25.3593 204.124 25.2942C203.016 25.2291 201.9 25.2011 200.774 25.136C200.867 27.09 200.951 29.0038 201.025 30.8771C201.1 32.7505 201.137 34.6674 201.137 36.6276V44.2483C201.137 46.2024 201.137 48.1192 201.025 50.0174C200.913 51.9156 200.867 53.7394 200.774 55.6003C201.779 55.5445 202.774 55.5166 203.751 55.5166H206.72C207.725 55.5166 208.711 55.5166 209.688 55.5166C210.665 55.5166 211.651 55.5631 212.666 55.5631C214.515 55.5464 216.355 55.2867 218.137 54.7908C220.044 54.2738 221.826 53.3747 223.376 52.1482C225.021 50.8248 226.352 49.1532 227.274 47.2538C228.356 44.9253 228.878 42.3762 228.8 39.8099C228.83 37.7337 228.554 35.6646 227.981 33.6686C227.488 31.9513 226.599 30.3737 225.385 29.0627ZM223.236 46.9747C222.545 48.6586 221.467 50.1567 220.091 51.348C218.822 52.402 217.325 53.1444 215.718 53.516C214.121 53.9009 212.484 54.0945 210.842 54.0929C209.716 54.0929 208.627 54.0929 207.566 53.9813C206.716 53.9342 205.87 53.8253 205.036 53.6556C204.862 50.554 204.772 47.4182 204.766 44.2483V36.6276C204.766 35.0272 204.766 33.4546 204.831 31.9007C204.896 30.3468 204.942 28.858 205.036 27.4436C205.966 27.3227 206.99 27.2203 208.143 27.1366C209.297 27.0528 210.535 26.997 211.865 26.997C213.566 26.9817 215.262 27.1691 216.918 27.5553C218.383 27.8912 219.745 28.5741 220.891 29.5465C222.073 30.6275 222.971 31.9823 223.506 33.4918C224.194 35.5343 224.509 37.6838 224.436 39.8378C224.529 42.2739 224.121 44.7031 223.236 46.9747Z" fill="#435148"/>
<path d="M334.793 25.1174C334.932 27.7228 335.035 30.4957 335.081 33.436C335.128 36.3764 335.146 39.4005 335.146 42.499V48.5379C333.779 47.1701 332.197 45.5231 330.373 43.5877L324.613 37.4278C322.585 35.2505 320.544 33.0483 318.49 30.8213L312.703 24.5405H311.996C312.052 25.5454 312.089 27.0714 312.107 29.1092C312.126 31.147 312.107 33.5849 312.107 36.4229C312.107 37.3534 312.107 38.5072 312.107 39.7541C312.107 41.0009 312.033 42.2664 311.996 43.5691C311.958 44.8718 311.884 46.1651 311.819 47.4678C311.754 48.7705 311.67 49.9709 311.614 51.0781C311.558 52.1854 311.437 53.1625 311.437 53.9627C311.397 54.5117 311.329 55.0583 311.233 55.6003C311.78 55.5422 312.33 55.5142 312.88 55.5166C313.396 55.5143 313.911 55.5423 314.424 55.6003C314.424 55.3677 314.368 54.9118 314.341 54.2511C314.313 53.5905 314.275 52.8089 314.247 51.9249C314.22 51.0409 314.192 50.0639 314.164 49.0404C314.136 48.0168 314.108 46.984 314.099 45.979C314.089 44.9741 314.099 44.0157 314.052 43.0945C314.006 42.1733 314.052 41.4103 314.052 40.7869C314.052 38.3924 314.068 36.5004 314.099 35.1109C314.099 33.7245 314.164 32.6172 314.192 31.789C318.031 35.8708 321.874 39.9712 325.72 44.0901C329.566 48.2091 333.186 52.2413 336.579 56.1866H337.203V54.7164C337.203 54.0092 337.203 53.1718 337.203 52.2134C337.203 51.2549 337.203 50.2128 337.156 49.1055C337.11 47.9982 337.156 46.9002 337.11 45.8023C337.063 44.7043 337.11 43.6621 337.11 42.6572V40.0053C337.11 39.1399 337.11 38.0047 337.193 36.5904C337.277 35.176 337.324 33.7245 337.398 32.245C337.473 30.7655 337.547 29.3791 337.621 28.0764C337.696 26.7737 337.761 25.7967 337.817 25.1453C337.356 25.2746 336.881 25.3495 336.402 25.3686C335.857 25.3551 335.316 25.2707 334.793 25.1174Z" fill="#435148"/>
<path d="M168.03 47.8028C167.273 46.0845 166.47 44.2235 165.62 42.2198L163.061 36.1716C162.205 34.137 161.368 32.1271 160.549 30.1421L158.25 24.5591H157.413C155.112 29.8257 152.829 35.0085 150.565 40.1076C148.3 45.2067 145.974 50.3306 143.586 55.4794C144.126 55.4132 144.67 55.3821 145.214 55.3863C145.761 55.3821 146.309 55.4132 146.852 55.4794C147.236 54.1208 147.81 52.4056 148.573 50.3337C149.169 48.7147 149.82 47.0398 150.518 45.2905C153.617 37.3906 156.79 30.5236 156.79 30.5236C158.102 33.222 159.581 36.6462 160.967 40.0797L161.693 41.736H161.628C162.81 44.6763 163.908 47.5423 164.792 49.8871L164.838 50.0081C165.266 51.0595 165.657 52.0552 166.011 53.0136C166.364 53.972 166.643 54.7908 166.848 55.4701C167.236 55.4089 167.628 55.3778 168.021 55.377H170.365C170.755 55.3775 171.144 55.4087 171.529 55.4701C171.147 54.7629 170.654 53.73 170.058 52.3715C169.463 51.013 168.784 49.5242 168.03 47.8028Z" fill="#435148"/>
<path d="M278.414 47.8028C277.67 46.0814 276.86 44.2204 276.013 42.2198C275.167 40.2193 274.301 38.2001 273.445 36.1716C272.589 34.1432 271.752 32.124 270.933 30.1421L268.635 24.5591H267.797C265.496 29.8257 263.213 35.0085 260.949 40.1076C258.685 45.2067 256.358 50.3306 253.97 55.4794C255.055 55.3553 256.151 55.3553 257.236 55.4794C257.621 54.1208 258.195 52.4056 258.958 50.3337C259.553 48.7147 260.204 47.0398 260.912 45.2905C264.01 37.3906 267.174 30.5236 267.174 30.5236C268.495 33.222 269.965 36.6462 271.352 40.0797L272.078 41.736H272.022C273.203 44.6763 274.301 47.5423 275.185 49.8871L275.241 50.0081C275.669 51.0595 276.051 52.0552 276.404 53.0136C276.758 53.972 277.037 54.7908 277.251 55.4701C277.636 55.4087 278.025 55.3775 278.414 55.377H280.731C281.124 55.3771 281.516 55.4082 281.904 55.4701C281.519 54.7629 281.026 53.73 280.424 52.3715C279.847 51.0688 279.168 49.5242 278.414 47.8028Z" fill="#435148"/>
<path d="M392.521 52.4181C391.916 51.0688 391.236 49.5242 390.492 47.7656C389.748 46.007 388.938 44.1832 388.082 42.1826C387.226 40.1821 386.379 38.1629 385.523 36.1344L383.002 30.1048C382.183 28.1136 381.41 26.2619 380.703 24.5219H379.866C377.564 29.7885 375.282 34.9713 373.017 40.0704C370.753 45.1695 368.427 50.2934 366.039 55.4422C367.127 55.3181 368.226 55.3181 369.314 55.4422C369.696 54.0836 370.245 52.3715 371.035 50.2965C371.631 48.6775 372.282 47.0026 372.98 45.2533C376.079 37.3534 379.252 30.4863 379.252 30.4863C380.564 33.1848 382.043 36.609 383.43 40.0425L384.155 41.6988H384.1C385.272 44.6391 386.37 47.5051 387.263 49.8499L387.31 49.9709C387.738 51.0223 388.129 52.0179 388.482 52.9764C388.836 53.9348 389.115 54.7536 389.32 55.4329C389.707 55.371 390.099 55.3399 390.492 55.3398H392.828C393.22 55.3399 393.612 55.371 394 55.4329C393.622 54.7815 393.128 53.7766 392.521 52.4181Z" fill="#435148"/>
<path d="M185.021 77.3553C185.021 74.8615 185.021 74.4056 185.021 73.8752C185.021 73.3448 184.853 73.0564 184.313 72.9447C184.1 72.9269 183.885 72.9269 183.671 72.9447C183.495 72.9447 183.392 72.9447 183.392 72.7958C183.392 72.647 183.513 72.647 183.755 72.647C184.63 72.647 185.616 72.7028 186.007 72.7028C186.565 72.7028 187.812 72.647 188.324 72.647C189.38 72.5751 190.433 72.8214 191.348 73.3541C191.692 73.6204 191.972 73.9615 192.165 74.3516C192.359 74.7416 192.461 75.1705 192.465 75.6059C192.465 76.8249 191.953 77.9415 190.297 79.3279C191.757 81.1889 192.893 82.6218 193.86 83.6454C194.335 84.2188 194.992 84.6128 195.721 84.762C195.873 84.7735 196.025 84.7735 196.177 84.762C196.308 84.762 196.373 84.762 196.373 84.8922C196.373 85.0225 196.261 85.0597 196.066 85.0597H194.502C193.898 85.1174 193.29 85.0079 192.744 84.7434C191.83 84.1091 191.063 83.2876 190.492 82.3334C189.841 81.4029 189.078 80.3142 188.864 80.063C188.828 80.0226 188.783 79.9913 188.733 79.9719C188.683 79.9524 188.629 79.9454 188.575 79.9513H187.142C187.124 79.948 187.106 79.9491 187.089 79.9544C187.071 79.9598 187.056 79.9693 187.043 79.9821C187.03 79.995 187.02 80.0107 187.015 80.0281C187.01 80.0454 187.009 80.0638 187.012 80.0816V80.3142C187.012 81.8402 187.012 83.1057 187.096 83.8315C187.142 84.306 187.245 84.6689 187.738 84.762C188.003 84.8003 188.27 84.8221 188.538 84.8271C188.668 84.8271 188.733 84.8271 188.733 84.9574C188.733 85.0876 188.622 85.1249 188.408 85.1249C187.477 85.1249 186.24 85.0783 185.988 85.0783C185.737 85.0783 184.648 85.1249 183.988 85.1249C183.774 85.1249 183.662 85.0783 183.662 84.9574C183.662 84.8364 183.727 84.8271 183.923 84.8271C184.123 84.8298 184.323 84.8079 184.518 84.762C184.844 84.6968 184.928 84.334 184.993 83.8315C185.076 83.1429 185.076 81.8402 185.076 80.3328L185.021 77.3553ZM186.956 78.6579C186.956 78.8347 186.956 78.8999 187.105 78.9464C187.51 79.0657 187.93 79.1222 188.352 79.1139C188.761 79.1727 189.177 79.0728 189.515 78.8347C189.863 78.5314 190.133 78.1493 190.303 77.7204C190.473 77.2914 190.537 76.8281 190.492 76.3689C190.492 74.0427 188.947 73.3634 187.97 73.3634C187.68 73.3513 187.39 73.3732 187.105 73.4286C186.984 73.4286 186.956 73.5309 186.956 73.6612V78.6579Z" fill="#435148"/>
<path d="M202.356 77.3553C202.356 74.8615 202.356 74.4056 202.356 73.8752C202.356 73.3448 202.198 73.0564 201.649 72.9447C201.438 72.9273 201.226 72.9273 201.016 72.9447C200.83 72.9447 200.737 72.9447 200.737 72.7958C200.737 72.647 200.848 72.647 201.09 72.647H202.421H203.463C203.984 72.647 207.25 72.647 207.566 72.647C207.804 72.6266 208.04 72.5924 208.274 72.5446C208.359 72.5185 208.446 72.4968 208.534 72.4795C208.618 72.4795 208.637 72.5446 208.637 72.6284C208.574 72.9824 208.53 73.3396 208.506 73.6984C208.506 73.8566 208.45 74.6289 208.423 74.7778C208.395 74.9267 208.376 74.9639 208.255 74.9639C208.134 74.9639 208.106 74.8801 208.106 74.7313C208.105 74.5292 208.074 74.3285 208.013 74.1358C207.892 73.8473 207.734 73.6519 206.906 73.5495C206.627 73.5495 204.905 73.4844 204.58 73.4844C204.496 73.4844 204.459 73.5309 204.459 73.6519V77.8019C204.459 77.9229 204.459 77.988 204.58 77.988C204.942 77.988 206.831 77.988 207.204 77.988C207.488 78.0061 207.769 77.9201 207.994 77.7461C208.106 77.6065 208.171 77.5321 208.255 77.5321C208.339 77.5321 208.376 77.5321 208.376 77.6623C208.376 77.7926 208.302 78.0252 208.236 78.8627C208.236 79.1883 208.171 79.849 208.171 79.9606C208.171 80.0723 208.171 80.2677 208.022 80.2677C208.003 80.2709 207.984 80.2696 207.965 80.2637C207.947 80.2579 207.93 80.2477 207.917 80.234C207.903 80.2203 207.893 80.2036 207.887 80.1852C207.881 80.1667 207.88 80.1472 207.883 80.1281C207.874 79.928 207.849 79.7289 207.808 79.5326C207.734 79.2069 207.501 78.9557 206.878 78.8906C206.562 78.8906 204.933 78.8906 204.542 78.8906C204.459 78.8906 204.44 78.9557 204.44 79.0488V80.3514C204.44 80.9097 204.44 82.4171 204.44 82.901C204.44 84.0269 204.738 84.2781 206.413 84.2781C206.935 84.3097 207.459 84.2434 207.957 84.0827C208.385 83.8873 208.581 83.543 208.702 82.8638C208.702 82.687 208.767 82.6218 208.878 82.6218C208.99 82.6218 209.009 82.7521 209.009 82.9103C208.984 83.5351 208.912 84.1572 208.795 84.7713C208.683 85.1993 208.534 85.1993 207.864 85.1993C206.627 85.1993 205.724 85.1993 205.017 85.1993C204.31 85.1993 203.807 85.1528 203.314 85.1528H202.384C202.011 85.1528 201.583 85.1528 201.248 85.1528C200.913 85.1528 200.923 85.1063 200.923 84.9853C200.923 84.8643 200.988 84.855 201.183 84.855C201.384 84.8577 201.584 84.8358 201.779 84.7899C202.104 84.7248 202.188 84.3619 202.253 83.8594C202.337 83.1708 202.337 81.8681 202.337 80.3608L202.356 77.3553Z" fill="#435148"/>
<path d="M216.769 84.8178C216.499 84.6969 216.453 84.6224 216.453 84.2595C216.453 83.329 216.518 82.3985 216.536 82.1008C216.555 81.803 216.602 81.6821 216.732 81.6821C216.862 81.6821 216.899 81.8216 216.899 81.9612C216.914 82.2455 216.964 82.5269 217.048 82.7986C217.188 83.3026 217.498 83.7426 217.926 84.0444C218.353 84.3462 218.871 84.4912 219.393 84.4549C219.661 84.4831 219.932 84.4567 220.19 84.3776C220.447 84.2984 220.686 84.168 220.892 83.9942C221.098 83.8204 221.267 83.6068 221.388 83.3662C221.509 83.1255 221.581 82.8629 221.598 82.5939C221.598 81.7844 221.347 81.0307 219.989 79.9606L219.226 79.3744C217.42 77.9601 216.797 76.8063 216.797 75.4757C216.797 73.6705 218.314 72.3771 220.593 72.3771C221.332 72.3653 222.068 72.4593 222.78 72.6563C222.929 72.6563 223.013 72.7307 223.013 72.8517C223.013 72.9726 222.948 73.5402 222.948 74.8243C222.948 75.1779 222.892 75.3175 222.761 75.3175C222.631 75.3175 222.594 75.2151 222.594 75.0197C222.567 74.6229 222.421 74.2434 222.175 73.931C221.963 73.6621 221.689 73.4487 221.376 73.3093C221.063 73.1698 220.721 73.1086 220.379 73.1308C220.137 73.0993 219.891 73.1194 219.657 73.1898C219.423 73.2601 219.207 73.3792 219.022 73.5392C218.838 73.6991 218.689 73.8963 218.586 74.1178C218.483 74.3393 218.429 74.5801 218.425 74.8243C218.425 75.578 218.807 76.1549 220.165 77.1878L220.631 77.5321C222.613 79.0302 223.32 80.156 223.32 81.7193C223.33 82.2881 223.193 82.85 222.923 83.3505C222.652 83.851 222.257 84.2731 221.775 84.5759C220.989 85.0529 220.08 85.289 219.16 85.2551C218.341 85.2814 217.526 85.1323 216.769 84.8178Z" fill="#435148"/>
<path d="M232.159 77.3553C232.159 74.8615 232.159 74.4056 232.159 73.8752C232.159 73.3448 231.964 73.0378 231.601 72.9447C231.406 72.8991 231.206 72.8772 231.006 72.8796C230.847 72.8796 230.745 72.8796 230.745 72.7121C230.745 72.5446 230.875 72.5818 231.136 72.5818C231.769 72.5818 232.801 72.6377 233.276 72.6377C233.751 72.6377 234.653 72.5818 235.277 72.5818C235.491 72.5818 235.621 72.5818 235.621 72.7121C235.621 72.8424 235.528 72.8796 235.36 72.8796C235.196 72.8675 235.031 72.8675 234.867 72.8796C234.43 72.9633 234.29 73.2425 234.262 73.8101C234.234 74.3777 234.262 74.7964 234.262 77.2901V80.184C234.262 81.7751 234.262 83.0778 234.327 83.785C234.383 84.2223 234.495 84.5201 234.988 84.5852C235.265 84.6257 235.545 84.6475 235.826 84.6503C236.012 84.6503 236.086 84.6503 236.086 84.7806C236.086 84.9109 235.956 84.9481 235.779 84.9481C234.69 84.9481 233.657 84.9016 233.211 84.9016C232.764 84.9016 231.806 84.9481 231.145 84.9481C230.931 84.9481 230.819 84.9016 230.819 84.7806C230.819 84.6596 230.885 84.6503 231.08 84.6503C231.277 84.6531 231.474 84.6312 231.666 84.5852C232.001 84.5201 232.094 84.2409 232.15 83.7664C232.225 83.0778 232.225 81.7751 232.225 80.184L232.159 77.3553Z" fill="#435148"/>
<path d="M244.526 77.3553C244.526 74.8615 244.526 74.4056 244.526 73.8752C244.526 73.3448 244.358 73.0564 243.818 72.9447C243.605 72.9269 243.39 72.9269 243.176 72.9447C243 72.9447 242.897 72.9447 242.897 72.7958C242.897 72.647 243.018 72.647 243.26 72.647C244.135 72.647 245.168 72.7028 245.624 72.7028C246.08 72.7028 247.168 72.647 248.155 72.647C250.211 72.647 252.956 72.647 254.742 74.508C255.802 75.6329 256.374 77.1314 256.334 78.6766C256.361 80.3805 255.72 82.0274 254.547 83.2639C253.805 83.9359 252.937 84.4532 251.992 84.7856C251.048 85.1179 250.047 85.2586 249.048 85.1993C248.452 85.1993 247.782 85.1993 247.187 85.097C246.591 84.9946 245.987 85.0039 245.577 85.0039H244.647C244.265 85.0039 243.837 85.0039 243.511 85.0039C243.186 85.0039 243.186 84.9574 243.186 84.8364C243.186 84.7155 243.251 84.7062 243.446 84.7062C243.647 84.7083 243.847 84.6864 244.042 84.641C244.367 84.5759 244.451 84.213 244.516 83.7105C244.6 83.022 244.6 81.7193 244.6 80.2119L244.526 77.3553ZM246.573 79.1604C246.573 80.9097 246.573 82.1752 246.573 82.4823C246.559 82.905 246.619 83.3269 246.75 83.7291C246.964 84.0455 247.606 84.3898 248.908 84.3898C250.273 84.5011 251.628 84.0773 252.686 83.2081C253.738 82.2776 254.063 80.8074 254.063 79.1139C254.091 78.3584 253.965 77.6052 253.693 76.8998C253.421 76.1945 253.009 75.5517 252.481 75.0104C251.207 73.8724 249.536 73.2809 247.829 73.3634C247.469 73.3598 247.109 73.4004 246.759 73.4844C246.693 73.5075 246.638 73.5526 246.602 73.612C246.567 73.6715 246.553 73.7415 246.563 73.8101C246.563 74.3684 246.563 75.8013 246.563 77.0947L246.573 79.1604Z" fill="#435148"/>
<path d="M264.671 77.3553C264.671 74.8615 264.671 74.4056 264.671 73.8752C264.671 73.3448 264.513 73.0564 263.964 72.9447C263.753 72.9273 263.541 72.9273 263.331 72.9447C263.145 72.9447 263.052 72.9447 263.052 72.7958C263.052 72.647 263.163 72.647 263.405 72.647H264.736H265.778C266.299 72.647 269.565 72.647 269.882 72.647C270.119 72.6258 270.355 72.5916 270.589 72.5446C270.674 72.5185 270.761 72.4968 270.849 72.4795C270.933 72.4795 270.952 72.5446 270.952 72.6284C270.952 72.7121 270.868 72.9447 270.812 73.6984C270.812 73.8566 270.766 74.6289 270.738 74.7778C270.71 74.9267 270.682 74.9639 270.57 74.9639C270.458 74.9639 270.421 74.8801 270.421 74.7313C270.42 74.5292 270.389 74.3285 270.328 74.1358C270.207 73.8473 270.049 73.6519 269.221 73.5495C268.942 73.5495 267.22 73.4844 266.895 73.4844C266.811 73.4844 266.774 73.5309 266.774 73.6519V77.8019C266.774 77.9229 266.774 77.988 266.895 77.988C267.248 77.988 269.137 77.988 269.519 77.988C269.803 78.0061 270.084 77.9201 270.31 77.7461C270.421 77.6065 270.486 77.5321 270.57 77.5321C270.654 77.5321 270.682 77.5321 270.682 77.6623C270.682 77.7926 270.617 78.0252 270.552 78.8627C270.552 79.1883 270.486 79.849 270.486 79.9606C270.486 80.0723 270.486 80.2677 270.338 80.2677C270.318 80.2706 270.298 80.269 270.28 80.2632C270.261 80.2573 270.244 80.2473 270.229 80.2339C270.215 80.2204 270.204 80.204 270.197 80.1857C270.19 80.1673 270.187 80.1477 270.189 80.1281C270.188 79.9279 270.166 79.7283 270.124 79.5326C270.049 79.2069 269.816 78.9557 269.193 78.8906C268.877 78.8906 267.248 78.8906 266.857 78.8906C266.774 78.8906 266.755 78.9557 266.755 79.0488V80.3514C266.755 80.9097 266.755 82.4171 266.755 82.901C266.755 84.0269 267.053 84.2781 268.728 84.2781C269.25 84.3097 269.774 84.2434 270.272 84.0827C270.7 83.8873 270.896 83.543 271.007 82.8638C271.007 82.687 271.082 82.6218 271.194 82.6218C271.305 82.6218 271.324 82.7521 271.324 82.9103C271.299 83.5351 271.227 84.1572 271.11 84.7713C270.998 85.1993 270.849 85.1993 270.226 85.1993C268.988 85.1993 268.086 85.1993 267.379 85.1993C266.671 85.1993 266.169 85.1528 265.676 85.1528H264.745C264.364 85.1528 263.945 85.1528 263.61 85.1528C263.275 85.1528 263.284 85.1063 263.284 84.9853C263.284 84.8643 263.35 84.855 263.545 84.855C263.745 84.8577 263.945 84.8358 264.14 84.7899C264.466 84.7248 264.55 84.3619 264.615 83.8594C264.699 83.1708 264.699 81.8681 264.699 80.3608L264.671 77.3553Z" fill="#435148"/>
<path d="M280.908 82.8079C280.908 84.092 281.15 84.5201 281.476 84.6689C281.753 84.7503 282.042 84.788 282.332 84.7806C282.518 84.7806 282.611 84.7806 282.611 84.9109C282.611 85.0411 282.462 85.0783 282.239 85.0783C281.168 85.0783 280.508 85.0318 280.201 85.0318C280.052 85.0318 279.27 85.0783 278.423 85.0783C278.209 85.0783 278.061 85.0783 278.061 84.9109C278.061 84.7434 278.163 84.7806 278.321 84.7806C278.572 84.7839 278.822 84.7558 279.066 84.6968C279.494 84.5666 279.559 84.092 279.577 82.6591L279.726 72.9354C279.726 72.6097 279.773 72.3771 279.931 72.3771C280.089 72.3771 280.266 72.5911 280.545 72.8889C280.824 73.1866 283.234 75.7827 285.635 78.1648C286.751 79.2814 288.966 81.6448 289.245 81.8868H289.329L289.171 74.5173C289.171 73.5123 289.003 73.196 288.612 73.0378C288.329 72.9544 288.033 72.9198 287.738 72.9354C287.542 72.9354 287.477 72.9354 287.477 72.7865C287.477 72.6377 287.654 72.6377 287.905 72.6377C288.761 72.6377 289.543 72.6935 289.887 72.6935C290.073 72.6935 290.697 72.6377 291.497 72.6377C291.711 72.6377 291.878 72.6377 291.878 72.7865C291.878 72.9354 291.776 72.9354 291.581 72.9354C291.417 72.9135 291.251 72.9135 291.088 72.9354C290.632 73.0657 290.501 73.4193 290.483 74.3312L290.297 84.6968C290.297 85.0597 290.231 85.2086 290.083 85.2086C289.934 85.2086 289.71 85.0318 289.524 84.8457C288.491 83.8594 286.389 81.71 284.686 80.0165C282.983 78.323 281.066 76.1921 280.778 75.8758H280.731L280.908 82.8079Z" fill="#435148"/>
<path d="M300.56 83.45C299.933 82.8516 299.432 82.1342 299.086 81.3396C298.74 80.5451 298.556 79.6895 298.544 78.8229C298.533 77.9564 298.695 77.0963 299.02 76.293C299.345 75.4898 299.828 74.7595 300.439 74.1451C301.871 72.9005 303.738 72.2747 305.631 72.405C306.428 72.4021 307.224 72.455 308.013 72.5632C308.637 72.647 309.167 72.7958 309.66 72.8424C309.837 72.8424 309.902 72.9447 309.902 73.0378C309.902 73.1308 309.856 73.3728 309.828 73.9683C309.8 74.5638 309.828 75.4105 309.772 75.7362C309.716 76.0619 309.772 76.1177 309.576 76.1177C309.381 76.1177 309.409 75.9874 309.409 75.7548C309.393 75.1912 309.167 74.6539 308.776 74.2474C307.826 73.5085 306.637 73.1442 305.436 73.2239C304.311 73.146 303.202 73.5137 302.346 74.2474C301.627 75.0742 301.142 76.0784 300.942 77.1558C300.741 78.2332 300.833 79.3447 301.207 80.3748C301.581 81.4049 302.224 82.3161 303.069 83.0139C303.914 83.7117 304.93 84.1707 306.013 84.3433C307.474 84.3433 308.357 84.1851 309.018 83.4128C309.285 83.1007 309.476 82.7313 309.576 82.3334C309.623 82.0729 309.66 82.0077 309.79 82.0077C309.921 82.0077 309.939 82.1194 309.939 82.2497C309.872 82.9864 309.75 83.7172 309.576 84.4363C309.56 84.5488 309.51 84.6538 309.434 84.7383C309.358 84.8227 309.259 84.8827 309.148 84.9109C308.188 85.192 307.19 85.3207 306.189 85.2924C304.149 85.4013 302.141 84.7443 300.56 83.45Z" fill="#435148"/>
<path d="M318.388 77.3553C318.388 74.8615 318.388 74.4056 318.388 73.8752C318.388 73.3448 318.183 73.0378 317.83 72.9447C317.635 72.8996 317.435 72.8777 317.234 72.8796C317.067 72.8796 316.974 72.8796 316.974 72.7121C316.974 72.5446 317.104 72.5818 317.365 72.5818C317.988 72.5818 319.021 72.6377 319.505 72.6377C319.989 72.6377 320.882 72.5818 321.505 72.5818C321.719 72.5818 321.85 72.5818 321.85 72.7121C321.85 72.8424 321.747 72.8796 321.589 72.8796C321.425 72.8671 321.26 72.8671 321.096 72.8796C320.649 72.9633 320.519 73.2425 320.491 73.8101C320.463 74.3777 320.491 74.7964 320.491 77.2901V80.184C320.491 81.7751 320.491 83.0778 320.556 83.785C320.556 84.2223 320.724 84.5201 321.217 84.5852C321.494 84.6265 321.774 84.6482 322.054 84.6503C322.231 84.6503 322.315 84.6503 322.315 84.7806C322.315 84.9109 322.185 84.9481 321.998 84.9481C320.919 84.9481 319.886 84.9016 319.44 84.9016C318.993 84.9016 318.025 84.9481 317.374 84.9481C317.16 84.9481 317.039 84.9016 317.039 84.7806C317.039 84.6596 317.104 84.6503 317.299 84.6503C317.5 84.653 317.7 84.6311 317.895 84.5852C318.221 84.5201 318.323 84.2409 318.37 83.7664C318.453 83.0778 318.453 81.7751 318.453 80.184L318.388 77.3553Z" fill="#435148"/>
<path d="M331.406 80.7236C331.322 80.7236 331.285 80.7236 331.257 80.8539L330.373 83.2081C330.235 83.5237 330.15 83.8602 330.122 84.2037C330.122 84.5014 330.271 84.7155 330.782 84.7155H331.024C331.22 84.7155 331.275 84.7155 331.275 84.8457C331.275 84.976 331.173 85.0132 330.996 85.0132C330.466 85.0132 329.759 84.9667 329.256 84.9667C329.07 84.9667 328.168 85.0132 327.312 85.0132C327.098 85.0132 327.005 85.0132 327.005 84.8457C327.005 84.6782 327.07 84.7155 327.2 84.7155H327.712C328.465 84.6131 328.772 84.0548 329.107 83.236L333.23 72.9168C333.425 72.4423 333.527 72.2562 333.685 72.2562C333.844 72.2562 333.937 72.405 334.095 72.7865C334.495 73.717 337.119 80.3887 338.17 82.8917C338.794 84.3712 339.268 84.5945 339.622 84.6782C339.849 84.7213 340.08 84.7431 340.311 84.7434C340.441 84.7434 340.525 84.7434 340.525 84.8736C340.525 85.0039 340.376 85.0411 339.762 85.0411C339.147 85.0411 337.975 85.0411 336.663 85.0411C336.365 85.0411 336.17 85.0411 336.17 84.9109C336.17 84.7806 336.235 84.7806 336.402 84.762C336.438 84.7492 336.47 84.7288 336.497 84.7023C336.524 84.6757 336.545 84.6436 336.558 84.6082C336.572 84.5728 336.577 84.5349 336.574 84.4972C336.572 84.4595 336.56 84.4228 336.542 84.3898L335.23 80.9097C335.221 80.8728 335.2 80.8403 335.169 80.8181C335.138 80.7959 335.1 80.7855 335.063 80.7888L331.406 80.7236ZM334.756 79.9048C334.839 79.9048 334.858 79.9048 334.839 79.8024L333.36 75.7455C333.36 75.6804 333.36 75.5966 333.276 75.5966C333.192 75.5966 333.192 75.6804 333.174 75.7455L331.666 79.7931C331.666 79.8583 331.666 79.9048 331.731 79.9048H334.756Z" fill="#435148"/>
<path d="M349.234 80.2491C349.234 82.352 349.234 83.4872 349.578 83.785C349.923 84.0827 350.285 84.1386 351.57 84.1386C352.435 84.1386 353.077 84.1386 353.486 83.6826C353.716 83.3986 353.863 83.0577 353.914 82.6963C353.914 82.5474 353.961 82.4544 354.091 82.4544C354.221 82.4544 354.231 82.5288 354.231 82.7335C354.19 83.3589 354.106 83.9808 353.979 84.5945C353.886 84.9481 353.803 85.0318 352.947 85.0318C351.765 85.0318 350.909 85.0318 350.155 85.0318C349.401 85.0318 348.825 84.9853 348.145 84.9853H347.215C346.833 84.9853 346.405 84.9853 346.08 84.9853C345.754 84.9853 345.745 84.9388 345.745 84.8178C345.745 84.6969 345.81 84.6875 346.014 84.6875C346.212 84.6897 346.409 84.6679 346.601 84.6224C346.936 84.5573 347.01 84.1944 347.075 83.6919C347.159 83.0033 347.159 81.7007 347.159 80.1933V77.2994C347.159 74.8057 347.159 74.3498 347.159 73.8194C347.159 73.289 346.991 73.0005 346.452 72.8889C346.272 72.8715 346.092 72.8715 345.912 72.8889C345.726 72.8889 345.624 72.8889 345.624 72.74C345.624 72.5911 345.745 72.5911 345.987 72.5911C346.759 72.5911 347.801 72.647 348.238 72.647C348.676 72.647 349.83 72.5911 350.472 72.5911C350.704 72.5911 350.816 72.5911 350.816 72.74C350.816 72.8889 350.723 72.8889 350.527 72.8889C350.314 72.8754 350.099 72.8754 349.885 72.8889C349.439 72.9726 349.308 73.2518 349.271 73.8194C349.234 74.387 349.271 74.8057 349.271 77.2994L349.234 80.2491Z" fill="#435148"/>
</g>
<defs>
<clipPath id="clip0_273_28">
<rect width="393.31" height="106.821" fill="white" transform="translate(0.690002 0.989716)"/>
</clipPath>
</defs>
</svg>
