<svg width="69" height="69" viewBox="0 0 69 69" fill="none" xmlns="http://www.w3.org/2000/svg">
<g id="Capa_1" clip-path="url(#clip0_58_117)">
<path id="Vector" d="M4.28504 24.0321C1.81373 26.5041 0.306628 29.7774 0.0353437 33.2623C-0.23594 36.7472 0.746441 40.2144 2.80544 43.039C4.86444 45.8636 7.86463 47.8599 11.2653 48.6681C14.666 49.4763 18.2436 49.0432 21.3532 47.4469C20.123 49.8414 19.5757 52.5283 19.7712 55.2132C19.9667 57.8981 20.8974 60.4774 22.4614 62.6684C24.0255 64.8595 26.1625 66.5778 28.6382 67.635C31.1139 68.6922 33.8328 69.0476 36.4971 68.6621C39.1614 68.2767 41.6681 67.1654 43.7427 65.4499C45.8173 63.7344 47.3797 61.4809 48.2587 58.9364C49.1376 56.392 49.2992 53.6547 48.7258 51.0244C48.1524 48.3942 46.866 45.9726 45.0077 44.0249L44.762 43.7792L25.0209 24.0381C22.2693 21.2926 18.5413 19.7501 14.6542 19.749C10.7671 19.7479 7.03823 21.2882 4.28504 24.0321ZM39.3383 40.3392L43.7671 44.774C45.7235 46.7342 47.0159 49.2585 47.4624 51.9917C47.9089 54.7248 47.4871 57.5293 46.2562 60.0101C45.0253 62.4909 43.0474 64.5233 40.6009 65.8211C38.1544 67.1189 35.3625 67.6168 32.6182 67.2447C29.874 66.8726 27.3154 65.6492 25.3029 63.7468C23.2903 61.8444 21.925 59.3587 21.3992 56.6396C20.8734 53.9206 21.2135 51.1051 22.3718 48.5896C23.53 46.074 25.4479 43.9849 27.8556 42.6165L30.5225 45.2834C29.4047 45.7606 28.3878 46.446 27.526 47.3031C26.1837 48.6453 25.2661 50.3528 24.8873 52.2128C24.5085 54.0729 24.6854 56.0032 25.3959 57.7635C26.1064 59.5237 27.3192 61.036 28.883 62.1119C30.4469 63.1878 32.2928 63.7798 34.1907 63.8141C36.0886 63.8484 37.9546 63.3235 39.5564 62.3048C41.1581 61.2862 42.4247 59.8187 43.1984 58.0853C43.9721 56.3519 44.2186 54.4292 43.9073 52.5567C43.5961 50.6842 42.7407 48.9446 41.4478 47.5548L41.2621 47.375L41.2021 47.3091L41.1362 47.2491L34.8015 40.9145L33.4112 39.5241L29.216 35.359L27.8916 33.9746L21.545 27.628L21.4851 27.562C20.1321 26.2097 18.4086 25.2888 16.5324 24.9159C14.6562 24.543 12.7115 24.7348 10.9442 25.467C9.177 26.1992 7.66655 27.439 6.60387 29.0296C5.54118 30.6202 4.974 32.4901 4.974 34.4031C4.974 36.316 5.54118 38.186 6.60387 39.7766C7.66655 41.3671 9.177 42.6069 10.9442 43.3392C12.7115 44.0714 14.6562 44.2632 16.5324 43.8903C18.4086 43.5173 20.1321 42.5965 21.4851 41.2441C22.339 40.3912 23.0242 39.3847 23.5047 38.2776L26.1716 40.9445C24.8026 43.3572 22.7112 45.2796 20.192 46.441C17.6729 47.6025 14.8528 47.9444 12.1291 47.4186C9.40532 46.8928 6.91517 45.5258 5.0093 43.5101C3.10343 41.4945 1.87788 38.9317 1.50529 36.1828C1.1327 33.434 1.63185 30.6374 2.9324 28.1872C4.23295 25.7369 6.26937 23.7564 8.75487 22.5245C11.2404 21.2926 14.0497 20.8715 16.7872 21.3205C19.5246 21.7694 22.0523 23.0658 24.0141 25.027L28.4489 29.4618L39.3383 40.3392ZM24.0261 36.7913L22.8275 35.5927L18.1469 30.9121C17.3368 30.096 16.2682 29.587 15.124 29.4722C13.9798 29.3574 12.8314 29.6441 11.8753 30.283C10.9193 30.922 10.2152 31.8736 9.88361 32.9746C9.55205 34.0757 9.61366 35.2578 10.0579 36.3184C10.5022 37.3791 11.3014 38.2522 12.3186 38.7883C13.3359 39.3244 14.508 39.4901 15.6341 39.257C16.7601 39.0239 17.77 38.4065 18.4909 37.5106C19.2117 36.6147 19.5986 35.496 19.5852 34.3461L22.4319 37.1928C21.828 38.8764 20.6938 40.3184 19.1998 41.302C17.7059 42.2856 15.933 42.7576 14.1478 42.6469C12.3626 42.5363 10.6615 41.8491 9.30044 40.6886C7.93936 39.5281 6.99187 37.9571 6.60039 36.2119C6.20892 34.4666 6.39463 32.6414 7.12965 31.0107C7.86466 29.3801 9.10922 28.0321 10.6762 27.1696C12.2431 26.3071 14.0477 25.9766 15.8186 26.2279C17.5895 26.4791 19.231 27.2985 20.4962 28.5629L20.5561 28.6228L24.05 32.1167L27.8197 35.8864L29.0602 37.1269L31.6732 39.7399L32.9137 40.9804L36.6834 44.75L40.1773 48.238L40.3032 48.3638C41.5514 49.6394 42.3528 51.285 42.5874 53.0543C42.822 54.8235 42.4771 56.6211 41.6044 58.1779C40.7318 59.7347 39.3782 60.9669 37.7466 61.69C36.1149 62.4131 34.2929 62.5881 32.5534 62.1889C30.8139 61.7897 29.2505 60.8378 28.0974 59.4756C26.9443 58.1134 26.2635 56.4143 26.157 54.6328C26.0504 52.8512 26.5239 51.0832 27.5064 49.5933C28.489 48.1034 29.9277 46.9718 31.6073 46.3682L34.4539 49.2148L36.8811 51.642C37.3777 52.1309 37.7182 52.7559 37.8596 53.4382C38.001 54.1205 37.9369 54.8294 37.6755 55.4753C37.4141 56.1212 36.9671 56.6751 36.3909 57.067C35.8148 57.4589 35.1354 57.6712 34.4386 57.677C33.7419 57.6829 33.059 57.4821 32.4764 57.0999C31.8937 56.7178 31.4374 56.1715 31.1652 55.5301C30.8929 54.8887 30.817 54.1809 30.9469 53.4964C31.0768 52.8118 31.4067 52.1811 31.8949 51.684C32.5519 51.0196 33.4451 50.6423 34.3794 50.6344C35.3137 50.6266 36.2131 50.9888 36.8811 51.642L34.418 49.2448C33.2914 49.2434 32.1982 49.6276 31.3203 50.3337C30.4424 51.0399 29.8327 52.0252 29.5926 53.126C29.3525 54.2267 29.4965 55.3765 30.0006 56.384C30.5047 57.3916 31.3386 58.1962 32.3635 58.664C33.3884 59.1318 34.5426 59.2347 35.6341 58.9554C36.7256 58.6762 37.6885 58.0317 38.3628 57.1292C39.0372 56.2266 39.3822 55.1204 39.3405 53.9945C39.2988 52.8687 38.8729 51.791 38.1337 50.9408L37.888 50.6951L33.2074 45.9606L32.0088 44.762L29.1921 41.9453L28.1373 40.8905L27.9216 40.6748L26.8548 39.608L24.0261 36.7913ZM17.1461 36.8932C16.6534 37.3865 16.0256 37.7226 15.3419 37.8589C14.6582 37.9953 13.9494 37.9258 13.3052 37.6592C12.661 37.3926 12.1104 36.9409 11.723 36.3613C11.3355 35.7817 11.1287 35.1002 11.1287 34.4031C11.1287 33.7059 11.3355 33.0244 11.723 32.4448C12.1104 31.8652 12.661 31.4135 13.3052 31.147C13.9494 30.8804 14.6582 30.8109 15.3419 30.9472C16.0256 31.0836 16.6534 31.4197 17.1461 31.913C17.8059 32.5737 18.1766 33.4693 18.1766 34.4031C18.1766 35.3369 17.8059 36.2325 17.1461 36.8932Z" fill="#5A695F"/>
<path id="Vector_2" d="M24.0261 25.0272L43.7672 44.7622L44.0129 45.0079C45.961 46.8659 48.3829 48.1518 51.0133 48.7247C53.6437 49.2976 56.3811 49.1354 58.9254 48.2559C61.4698 47.3763 63.7229 45.8134 65.438 43.7383C67.153 41.6633 68.2637 39.1562 68.6485 36.4918C69.0333 33.8273 68.6772 31.1084 67.6194 28.6329C66.5615 26.1574 64.8426 24.0209 62.6511 22.4574C60.4596 20.8939 57.88 19.9639 55.1949 19.7692C52.5099 19.5744 49.8231 20.1225 47.4289 21.3534C48.6657 18.946 49.2121 16.2432 49.0076 13.5444C48.8031 10.8455 47.8558 8.25593 46.2704 6.06228C44.685 3.86862 42.5235 2.15649 40.0251 1.11546C37.5268 0.0744369 34.7891 -0.254873 32.1151 0.163982C29.4411 0.582837 26.9353 1.73351 24.8749 3.48863C22.8145 5.24374 21.28 7.53482 20.4414 10.1082C19.6027 12.6815 19.4926 15.4368 20.1232 18.0689C20.7537 20.701 22.1004 23.1072 24.0141 25.0212L24.0261 25.0272ZM29.4618 28.4672L25.0269 24.0323C23.174 22.1791 21.9121 19.8181 21.401 17.2478C20.8898 14.6775 21.1523 12.0133 22.1552 9.59214C23.1582 7.171 24.8566 5.10162 27.0356 3.64569C29.2146 2.18977 31.7764 1.41268 34.3971 1.41268C37.0177 1.41268 39.5795 2.18977 41.7585 3.64569C43.9375 5.10162 45.6359 7.171 46.6389 9.59214C47.6418 12.0133 47.9043 14.6775 47.3932 17.2478C46.882 19.8181 45.6202 22.1791 43.7672 24.0323C42.9265 24.8748 41.9748 25.5987 40.9384 26.1838L38.2715 23.5169C39.3893 23.0397 40.4062 22.3543 41.268 21.4973C42.6204 20.1444 43.5413 18.4208 43.9142 16.5446C44.2871 14.6684 44.0953 12.7237 43.3631 10.9565C42.6309 9.18925 41.3911 7.67879 39.8005 6.61611C38.2099 5.55343 36.3399 4.98624 34.427 4.98624C32.5141 4.98624 30.6441 5.55343 29.0535 6.61611C27.4629 7.67879 26.2232 9.18925 25.4909 10.9565C24.7587 12.7237 24.5669 14.6684 24.9399 16.5446C25.3128 18.4208 26.2336 20.1444 27.586 21.4973C27.6094 21.5177 27.6315 21.5398 27.6519 21.5632L33.9925 27.8978L35.3769 29.2822L39.572 33.4774L40.9564 34.8617L47.2371 41.1664L47.303 41.2263L47.363 41.2923L47.5488 41.4721C48.9379 42.7637 50.6764 43.6182 52.5476 43.929C54.4189 44.2397 56.3402 43.9931 58.0723 43.2198C59.8044 42.4464 61.2707 41.1806 62.2885 39.58C63.3064 37.9793 63.8308 36.1146 63.7965 34.218C63.7622 32.3214 63.1707 30.4768 62.0956 28.914C61.0205 27.3512 59.5094 26.1393 57.7505 25.4291C55.9915 24.7189 54.0626 24.5419 52.2038 24.9202C50.345 25.2984 48.6386 26.2152 47.297 27.5562C46.4431 28.4092 45.7579 29.4156 45.2774 30.5228L42.6105 27.8559C43.9797 25.4448 46.0708 23.5239 48.5892 22.3639C51.1076 21.2039 53.9264 20.8631 56.6487 21.3895C59.371 21.916 61.8596 23.2832 63.764 25.2985C65.6683 27.3138 66.8924 29.8758 67.264 32.6235C67.6355 35.3713 67.1357 38.1663 65.835 40.6151C64.5343 43.0638 62.4982 45.0428 60.0134 46.2733C57.5287 47.5038 54.7206 47.9239 51.9845 47.4743C49.2485 47.0248 46.7224 45.7283 44.762 43.7674L40.3272 39.3325L29.4618 28.4672ZM39.602 26.8431L40.6747 27.9158L40.8845 28.1256L41.9573 29.1983L44.774 32.0151L45.9726 33.2137L50.6532 37.9002L50.8989 38.1459C51.7496 38.8823 52.8267 39.3054 53.9512 39.3446C55.0757 39.3839 56.1797 39.037 57.0797 38.3617C57.9797 37.6864 58.6214 36.7234 58.8981 35.6328C59.1748 34.5422 59.0698 33.3897 58.6006 32.367C58.1314 31.3444 57.3263 30.5132 56.3191 30.0116C55.3119 29.51 54.1633 29.3684 53.0645 29.6102C51.9656 29.852 50.9826 30.4626 50.279 31.3406C49.5753 32.2186 49.1935 33.3111 49.1969 34.4362L51.5941 36.8934C51.1064 36.3957 50.7772 35.7646 50.6482 35.0798C50.5191 34.3951 50.596 33.6875 50.869 33.0464C51.142 32.4053 51.5989 31.8596 52.182 31.4781C52.7651 31.0967 53.4482 30.8967 54.145 30.9034C54.8417 30.9101 55.5209 31.1232 56.0965 31.5158C56.6722 31.9084 57.1186 32.4628 57.3792 33.109C57.6398 33.7552 57.703 34.4642 57.5608 35.1463C57.4186 35.8284 57.0774 36.4531 56.5802 36.9413C56.2498 37.2658 55.8587 37.522 55.4293 37.6952C54.9998 37.8685 54.5403 37.9553 54.0772 37.9509C53.6142 37.9464 53.1565 37.8507 52.7304 37.6693C52.3043 37.4878 51.9182 37.2242 51.5941 36.8934L49.1669 34.4662L46.3262 31.6255C46.7321 30.4766 47.3917 29.434 48.2559 28.575C49.4082 27.4203 50.8765 26.6324 52.4758 26.3106C54.0751 25.9888 55.7339 26.1475 57.2431 26.7667C58.7524 27.386 60.0446 28.438 60.957 29.7904C61.8694 31.1427 62.3612 32.7348 62.3703 34.3662C62.3795 35.9975 61.9056 37.595 61.0084 38.9575C60.1113 40.32 58.831 41.3865 57.3288 42.0227C55.8266 42.6588 54.1697 42.8362 52.5669 42.5324C50.9641 42.2285 49.487 41.4572 48.3219 40.3154L48.196 40.1895L44.7021 36.6956L40.9384 32.932L39.6919 31.6914L37.1269 29.0665L35.8863 27.8199L32.1227 24.0563L28.6288 20.5624L28.5629 20.5024C27.406 19.347 26.6179 17.8745 26.2982 16.2711C25.9785 14.6677 26.1416 13.0055 26.7668 11.4947C27.392 9.98403 28.4513 8.69271 29.8105 7.78416C31.1698 6.8756 32.7681 6.39064 34.4031 6.39064C36.038 6.39064 37.6363 6.8756 38.9956 7.78416C40.3549 8.69271 41.4141 9.98403 42.0393 11.4947C42.6645 13.0055 42.8276 14.6677 42.5079 16.2711C42.1882 17.8745 41.4001 19.347 40.2433 20.5024C39.3844 21.3667 38.3417 22.0263 37.1928 22.4322L34.3461 19.5915C35.4892 19.6025 36.6006 19.2161 37.4904 18.4984C38.3802 17.7807 38.993 16.7762 39.2241 15.6566C39.4552 14.5371 39.2902 13.372 38.7574 12.3606C38.2246 11.3492 37.3571 10.5543 36.3031 10.1118C35.249 9.66924 34.074 9.60655 32.9789 9.93445C31.8838 10.2623 30.9366 10.9605 30.2992 11.9094C29.6619 12.8584 29.3739 13.9993 29.4846 15.1371C29.5953 16.2749 30.0978 17.3389 30.9061 18.1472L35.5927 22.8337L36.7913 24.0323L39.602 26.8431ZM31.9069 17.1523C31.4136 16.6597 31.0776 16.0318 30.9412 15.3481C30.8049 14.6644 30.8744 13.9556 31.1409 13.3114C31.4075 12.6672 31.8592 12.1166 32.4388 11.7292C33.0184 11.3418 33.6999 11.135 34.3971 11.135C35.0942 11.135 35.7757 11.3418 36.3553 11.7292C36.9349 12.1166 37.3866 12.6672 37.6532 13.3114C37.9198 13.9556 37.9892 14.6644 37.8529 15.3481C37.7165 16.0318 37.3804 16.6597 36.8871 17.1523C36.2249 17.8092 35.3299 18.1779 34.3971 18.1779C33.4642 18.1779 32.5692 17.8092 31.9069 17.1523Z" fill="#5A695F"/>
<path id="Vector_3" d="M43.767 24.032L24.026 43.7731L23.7803 44.0188C21.9219 45.9665 20.6356 48.3881 20.0622 51.0183C19.4887 53.6486 19.6503 56.3859 20.5293 58.9303C21.4082 61.4748 22.9706 63.7283 25.0452 65.4438C27.1198 67.1593 29.6266 68.2706 32.2909 68.656C34.9551 69.0415 37.6741 68.6861 40.1498 67.6289C42.6255 66.5717 44.7625 64.8534 46.3265 62.6623C47.8905 60.4713 48.8213 57.892 49.0168 55.2071C49.2123 52.5222 48.6649 49.8353 47.4348 47.4408C49.8426 48.6768 52.5454 49.2224 55.2441 49.0172C57.9428 48.8119 60.5322 47.8638 62.7253 46.2779C64.9185 44.6919 66.63 42.53 67.6703 40.0314C68.7106 37.5329 69.0392 34.7951 68.6197 32.1213C68.2002 29.4475 67.0489 26.942 65.2934 24.8821C63.5378 22.8222 61.2465 21.2883 58.673 20.4503C56.0995 19.6122 53.3443 19.5027 50.7124 20.1338C48.0805 20.7649 45.6746 22.112 43.7611 24.026L43.767 24.032ZM40.333 29.4617L44.7679 25.0269C46.6214 23.1747 48.9824 21.9137 51.5525 21.4033C54.1226 20.8928 56.7864 21.1558 59.207 22.159C61.6277 23.1622 63.6965 24.8605 65.1521 27.0394C66.6076 29.2182 67.3845 31.7797 67.3845 34.4C67.3845 37.0203 66.6076 39.5817 65.1521 41.7606C63.6965 43.9394 61.6277 45.6378 59.207 46.641C56.7864 47.6442 54.1226 47.9071 51.5525 47.3967C48.9824 46.8862 46.6214 45.6252 44.7679 43.7731C43.9249 42.9328 43.201 41.9811 42.6164 40.9444L45.2773 38.2775C46.1032 40.1722 47.5144 41.7525 49.3039 42.7867C51.0935 43.821 53.1672 44.2548 55.2213 44.0246C57.2753 43.7945 59.2017 42.9124 60.7179 41.5077C62.2341 40.103 63.2605 38.2495 63.6466 36.219C64.0327 34.1885 63.7582 32.0877 62.8634 30.2245C61.9686 28.3613 60.5005 26.8338 58.6743 25.8658C56.8481 24.8977 54.7598 24.5401 52.7156 24.8454C50.6714 25.1506 48.7787 26.1026 47.3149 27.5619L47.255 27.6278L40.9024 33.9745L39.524 35.3529L35.3289 39.518L33.9385 40.9084L27.6038 47.243L27.5379 47.303L27.478 47.3689L27.2982 47.5487C26.0053 48.9385 25.15 50.6781 24.8387 52.5506C24.5274 54.4231 24.774 56.3458 25.5476 58.0792C26.3213 59.8126 27.5879 61.2801 29.1897 62.2987C30.7914 63.3174 32.6574 63.8423 34.5553 63.808C36.4532 63.7737 38.2991 63.1817 39.863 62.1058C41.4268 61.0299 42.6396 59.5176 43.3501 57.7574C44.0606 55.9971 44.2375 54.0668 43.8587 52.2067C43.4799 50.3467 42.5623 48.6392 41.22 47.297C40.3582 46.4399 39.3413 45.7545 38.2235 45.2773L40.8904 42.6104C43.3019 43.9788 45.2234 46.0692 46.3843 48.5871C47.5452 51.1051 47.8869 53.9238 47.3614 56.6463C46.8359 59.3687 45.4697 61.8577 43.4551 63.7628C41.4404 65.6678 38.879 66.8928 36.1314 67.2654C33.3839 67.6379 30.5887 67.1392 28.1395 65.8394C25.6903 64.5397 23.7106 62.5044 22.4791 60.0202C21.2476 57.5359 20.8264 54.728 21.2749 51.9918C21.7233 49.2556 23.0188 46.729 24.9789 44.7679L29.4137 40.3331L40.333 29.4617ZM41.9511 39.6079L40.8844 40.6747L40.6686 40.8904L39.6019 41.9572L36.7852 44.7739L35.5865 45.9725L30.906 50.6531L30.6603 50.8988C29.9194 51.75 29.4924 52.8293 29.4503 53.957C29.4083 55.0847 29.7537 56.1928 30.4292 57.0968C31.1046 58.0008 32.0693 58.6462 33.1627 58.9255C34.256 59.2049 35.4121 59.1014 36.4384 58.6321C37.4647 58.1629 38.2994 57.3563 38.8034 56.3467C39.3075 55.337 39.4505 54.1852 39.2087 53.0829C38.9669 51.9806 38.3549 50.9944 37.4745 50.2884C36.5941 49.5824 35.4985 49.1993 34.37 49.2028L31.9068 51.6C32.4039 51.1117 33.0346 50.7818 33.7192 50.6519C34.4038 50.522 35.1115 50.598 35.7529 50.8702C36.3944 51.1425 36.9406 51.5987 37.3228 52.1814C37.7049 52.764 37.9058 53.4469 37.8999 54.1437C37.8941 54.8404 37.6818 55.5198 37.2899 56.096C36.898 56.6721 36.344 57.1191 35.6982 57.3805C35.0523 57.6419 34.3433 57.706 33.6611 57.5646C32.9788 57.4232 32.3537 57.0827 31.8649 56.5862C31.2117 55.9181 30.8494 55.0187 30.8573 54.0844C30.8652 53.1501 31.2425 52.2569 31.9068 51.6L34.334 49.1728L37.1747 46.3261C38.8577 46.9214 40.3025 48.0461 41.2926 49.5316C42.2827 51.017 42.7647 52.7833 42.6666 54.5658C42.5684 56.3483 41.8953 58.051 40.7481 59.4188C39.6009 60.7866 38.0414 61.7458 36.3032 62.1527C34.565 62.5597 32.7418 62.3924 31.1066 61.676C29.4715 60.9596 28.1125 59.7327 27.2333 58.179C26.3541 56.6253 26.002 54.8286 26.2298 53.058C26.4576 51.2874 27.253 49.6383 28.4968 48.3577L28.6167 48.2379L32.1106 44.7439L35.8802 40.9743L37.1208 39.7338L39.7337 37.1208L40.9743 35.8802L44.7439 32.1106L48.2378 28.6167L48.2978 28.5568C49.5624 27.2941 51.2027 26.4762 52.9721 26.2257C54.7415 25.9753 56.5444 26.306 58.1097 27.1681C59.675 28.0302 60.9182 29.3772 61.6523 31.0064C62.3865 32.6357 62.5719 34.4592 62.1808 36.2029C61.7897 37.9466 60.8431 39.5162 59.4834 40.6758C58.1237 41.8354 56.4243 42.5223 54.6407 42.6332C52.8571 42.7441 51.0858 42.2731 49.5929 41.2909C48.1 40.3088 46.9662 38.8685 46.362 37.1867L49.2087 34.34C49.1977 35.4835 49.5843 36.5953 50.3025 37.4851C51.0206 38.375 52.0257 38.9877 53.1457 39.2184C54.2657 39.4491 55.4311 39.2835 56.4424 38.7499C57.4538 38.2163 58.2483 37.3478 58.69 36.2931C59.1318 35.2383 59.1934 34.0629 58.8642 32.9678C58.535 31.8726 57.8356 30.926 56.8855 30.2896C55.9354 29.6532 54.7937 29.3668 53.6557 29.4792C52.5178 29.5917 51.4542 30.096 50.647 30.906L45.9665 35.5866L44.7679 36.7852L41.9511 39.6079ZM51.6479 31.9129C52.1405 31.4196 52.7684 31.0835 53.4521 30.9471C54.1358 30.8108 54.8446 30.8803 55.4888 31.1469C56.1329 31.4134 56.6836 31.8651 57.071 32.4447C57.4584 33.0243 57.6653 33.7058 57.6653 34.403C57.6653 35.1001 57.4584 35.7816 57.071 36.3612C56.6836 36.9408 56.1329 37.3925 55.4888 37.6591C54.8446 37.9257 54.1358 37.9952 53.4521 37.8588C52.7684 37.7225 52.1405 37.3864 51.6479 36.8931C51.3204 36.5663 51.0607 36.1782 50.8834 35.7509C50.7062 35.3236 50.6149 34.8656 50.6149 34.403C50.6149 33.9404 50.7062 33.4823 50.8834 33.055C51.0607 32.6278 51.3204 32.2396 51.6479 31.9129Z" fill="#5A695F"/>
<path id="Vector_4" d="M25.0269 44.7623L44.7679 25.0212L45.0136 24.7755C46.8716 22.8274 48.1575 20.4055 48.7304 17.7751C49.3033 15.1446 49.1411 12.4073 48.2616 9.86296C47.3821 7.31863 45.8191 5.06549 43.7441 3.35044C41.669 1.6354 39.1619 0.524612 36.4975 0.139833C33.833 -0.244947 31.1141 0.111121 28.6386 1.16901C26.1631 2.22689 24.0266 3.94577 22.4631 6.13731C20.8996 8.32884 19.9696 10.9085 19.7749 13.5935C19.5802 16.2785 20.1283 18.9653 21.3592 21.3595C18.9517 20.1209 16.2483 19.5729 13.5485 19.7762C10.8488 19.9796 8.25799 20.9264 6.06322 22.5117C3.86846 24.097 2.15536 26.2589 1.11378 28.7579C0.0721895 31.257 -0.25723 33.9956 0.161966 36.6704C0.581163 39.3451 1.73264 41.8517 3.48882 43.9122C5.245 45.9728 7.53732 47.507 10.1118 48.3448C12.6864 49.1827 15.4426 49.2914 18.0751 48.6591C20.7077 48.0268 23.1138 46.678 25.0269 44.7623ZM28.4609 39.3266L24.0261 43.7614C22.0645 45.7233 19.5368 47.0204 16.7991 47.4698C14.0614 47.9192 11.2517 47.4984 8.76576 46.2666C6.27986 45.0348 4.24305 43.0542 2.9423 40.6037C1.64155 38.1531 1.14242 35.3563 1.51519 32.6071C1.88796 29.8579 3.11385 27.295 5.02018 25.2793C6.92652 23.2637 9.41722 21.8969 12.1414 21.3715C14.8655 20.8462 17.6858 21.1888 20.205 22.351C22.7242 23.5132 24.8152 25.4365 26.1836 27.8499L23.5166 30.5168C23.0361 29.4097 22.3509 28.4032 21.497 27.5503C20.1441 26.1979 18.4206 25.2771 16.5443 24.9042C14.6681 24.5312 12.7235 24.723 10.9562 25.4553C9.18899 26.1875 7.67853 27.4272 6.61585 29.0178C5.55317 30.6084 4.98595 32.4784 4.98595 34.3913C4.98595 36.3043 5.55317 38.1742 6.61585 39.7648C7.67853 41.3554 9.18899 42.5952 10.9562 43.3274C12.7235 44.0596 14.6681 44.2514 16.5443 43.8785C18.4206 43.5056 20.1441 42.5847 21.497 41.2324L21.5569 41.1665L27.8916 34.8258L29.2819 33.4414L33.4771 29.2463L34.8674 27.8619L41.2021 21.5273L41.268 21.4614L41.328 21.4014L41.5137 21.2157C42.8066 19.8258 43.662 18.0863 43.9732 16.2137C44.2845 14.3412 44.038 12.4185 43.2643 10.6851C42.4906 8.95171 41.224 7.48427 39.6223 6.4656C38.0205 5.44693 36.1545 4.92206 34.2566 4.95637C32.3587 4.99068 30.5128 5.58267 28.949 6.65857C27.3851 7.73448 26.1724 9.24673 25.4619 11.007C24.7513 12.7672 24.5744 14.6976 24.9532 16.5576C25.332 18.4177 26.2497 20.1252 27.5919 21.4674C28.4537 22.3244 29.4706 23.0098 30.5885 23.487L27.8556 26.1839C25.4445 24.8147 23.5237 22.7236 22.3636 20.2052C21.2036 17.6868 20.8628 14.868 21.3892 12.1456C21.9157 9.42334 23.2829 6.93477 25.2982 5.03044C27.3136 3.12611 29.8755 1.90196 32.6233 1.53042C35.371 1.15888 38.1661 1.65866 40.6148 2.95938C43.0635 4.2601 45.0425 6.2962 46.273 8.78093C47.5035 11.2657 47.9236 14.0738 47.4741 16.8099C47.0245 19.5459 45.728 22.072 43.7671 24.0324L39.3383 28.4672L28.4609 39.3266ZM26.8428 29.1804L27.9095 28.1076L28.1253 27.8979L29.1921 26.8251L32.0088 24.0084L33.2074 22.8098L37.888 18.1232L38.1337 17.8775C38.8714 17.0262 39.2956 15.948 39.3355 14.8222C39.3755 13.6964 39.0288 12.5909 38.3533 11.6894C37.6777 10.7879 36.7139 10.1449 35.6221 9.86722C34.5304 9.58954 33.3765 9.69397 32.3523 10.1631C31.3281 10.6322 30.4954 11.4378 29.9926 12.4459C29.4898 13.454 29.3473 14.6038 29.5886 15.7042C29.83 16.8045 30.4408 17.7891 31.3194 18.4941C32.198 19.1992 33.2915 19.5822 34.418 19.5796L36.8811 17.1824C36.384 17.6706 35.7533 18.0005 35.0687 18.1304C34.3842 18.2603 33.6764 18.1843 33.035 17.9121C32.3936 17.6399 31.8473 17.1836 31.4652 16.6009C31.083 16.0183 30.8822 15.3354 30.888 14.6386C30.8939 13.9419 31.1062 13.2625 31.4981 12.6864C31.89 12.1102 32.4439 11.6632 33.0898 11.4018C33.7357 11.1404 34.4446 11.0763 35.1269 11.2177C35.8092 11.3591 36.4342 11.6996 36.9231 12.1961C37.5777 12.8634 37.941 13.7631 37.9331 14.6979C37.9253 15.6327 37.5469 16.5262 36.8811 17.1824L34.4539 19.5915L31.6072 22.4322C30.4591 22.0249 29.4167 21.3655 28.5568 20.5025C27.4029 19.3498 26.6158 17.8815 26.2947 16.2825C25.9736 14.6834 26.1328 13.0251 26.7523 11.5163C27.3718 10.0076 28.4239 8.71588 29.776 7.80386C31.1282 6.89185 32.72 6.4003 34.351 6.39115C35.9819 6.38199 37.5791 6.85564 38.9414 7.75242C40.3037 8.6492 41.3702 9.92903 42.0066 11.4307C42.643 12.9324 42.8209 14.5889 42.5177 16.1914C42.2146 17.794 41.444 19.271 40.3031 20.4366L40.1773 20.5624L36.6834 24.0564L32.9317 27.82L31.6911 29.0665L29.0782 31.6795L27.8376 32.92L24.068 36.6837L20.5741 40.1776L20.5142 40.2435C19.2496 41.5061 17.6092 42.3242 15.8398 42.5746C14.0704 42.825 12.2676 42.4943 10.7023 41.6322C9.13694 40.7701 7.89375 39.4231 7.15959 37.7939C6.42543 36.1646 6.23998 34.3411 6.6311 32.5974C7.02222 30.8537 7.96881 29.2841 9.32852 28.1245C10.6882 26.9649 12.3876 26.278 14.1712 26.1671C15.9548 26.0562 17.7262 26.5272 19.2191 27.5094C20.712 28.4915 21.8457 29.9318 22.4499 31.6136L19.6032 34.4543C19.6136 33.7975 19.4916 33.1455 19.2445 32.537C18.9973 31.9284 18.6302 31.3759 18.1649 30.9124C17.4743 30.2215 16.5945 29.7509 15.6365 29.5602C14.6785 29.3694 13.6854 29.467 12.7829 29.8407C11.8804 30.2144 11.109 30.8474 10.5662 31.6595C10.0235 32.4717 9.73381 33.4265 9.73381 34.4033C9.73381 35.3801 10.0235 36.335 10.5662 37.1471C11.109 37.9593 11.8804 38.5922 12.7829 38.9659C13.6854 39.3396 14.6785 39.4373 15.6365 39.2465C16.5945 39.0557 17.4743 38.5852 18.1649 37.8943L22.8454 33.2077L24.044 32.0091L26.8428 29.1804ZM17.146 36.8754C16.6534 37.3687 16.0255 37.7048 15.3418 37.8412C14.6581 37.9775 13.9494 37.908 13.3052 37.6415C12.661 37.3749 12.1104 36.9232 11.7229 36.3436C11.3355 35.764 11.1287 35.0825 11.1287 34.3853C11.1287 33.6882 11.3355 33.0067 11.7229 32.4271C12.1104 31.8475 12.661 31.3958 13.3052 31.1292C13.9494 30.8626 14.6581 30.7931 15.3418 30.9295C16.0255 31.0658 16.6534 31.4019 17.146 31.8952C17.4755 32.2227 17.7369 32.6121 17.9153 33.041C18.0937 33.4699 18.1855 33.9298 18.1855 34.3943C18.1855 34.8588 18.0937 35.3188 17.9153 35.7477C17.7369 36.1765 17.4755 36.5659 17.146 36.8934V36.8754Z" fill="#5A695F"/>
</g>
<defs>
<clipPath id="clip0_58_117">
<rect width="68.8" height="68.8" fill="white"/>
</clipPath>
</defs>
</svg>
