<?xml version="1.0" encoding="utf-8"?>
<!-- Generator: Adobe Illustrator 23.0.5, SVG Export Plug-In . SVG Version: 6.00 Build 0)  -->
<svg version="1.1" id="Capa_1" xmlns="http://www.w3.org/2000/svg"
	xmlns:xlink="http://www.w3.org/1999/xlink" x="0px" y="0px"
	viewBox="0 0 1920 1040" style="enable-background:new 0 0 1920 1040;" xml:space="preserve">
<style type="text/css">
	.st0{fill:#606060;}
</style>
<g id="_x32_4">
	<polygon class="st0" points="1291,125.1 1288.3,174.3 1265,174.9 1267.7,126 	"/>
</g>
<g id="_x32_5">
	<polygon class="st0" points="1265.6,126 1262.9,174.9 1239.5,175.6 1242.1,126.9 	"/>
</g>
<g id="_x32_6">
	<polygon class="st0" points="1240,127 1237.3,175.6 1213.7,176.2 1216.4,127.8 	"/>
</g>
<g id="_x32_7">
	<polygon class="st0" points="1288.2,176.5 1286.9,200 1212.3,201.8 1213.6,178.4 	"/>
</g>
<g id="_x32_8">
	<polygon class="st0" points="1286.7,202.2 1285.5,225.5 1210.9,227.4 1212.2,204 	"/>
</g>
<g id="_x32_9">
	<polygon class="st0" points="1285.3,227.7 1285.3,227.8 1284.1,250.5 1209.5,252.4 1210.8,229.6 	"/>
</g>
<g id="_x33_0">
	<polygon class="st0" points="1284,252.7 1282.6,276.8 1208,278.7 1209.4,254.6 	"/>
</g>
<g id="_x33_1">
	<polygon class="st0" points="1282.5,279 1281.2,302 1206.7,303.9 1206.7,303.9 1207.9,280.9 	"/>
</g>
<g id="_x33_6">
	<polygon class="st0" points="1271.1,482.9 1269.8,506.4 1269.8,506.4 1195.3,508.3 1196.6,484.8 	"/>
</g>
<g id="_x33_7">
	<polygon class="st0" points="1269.7,508.6 1268.4,531.8 1268.4,531.8 1193.9,533.7 1195.2,510.5 1195.2,510.5 	"/>
</g>
<g id="_x33_8">
	<polygon class="st0" points="1268.3,533.9 1267,557.1 1192.5,559 1193.8,535.8 	"/>
</g>
<g id="_x33_9">
	<polygon class="st0" points="1266.9,559.3 1265.6,583.5 1191.1,585.4 1192.4,561.2 1192.4,561.2 	"/>
</g>
<g id="_x34_0">
	<polygon class="st0" points="1265.4,585.6 1264.2,608.2 1189.7,610.2 1190.9,587.5 	"/>
</g>
<g id="_x33_2">
	<polygon class="st0" points="1281.1,304.1 1281.1,304.1 1279.8,327.2 1205.2,329.6 1206.5,306 	"/>
</g>
<g id="_x33_3">
	<polygon class="st0" points="1279.7,329.3 1276.9,378 1202.4,380.5 1205.1,331.8 	"/>
</g>
<g id="_x33_4">
	<polygon class="st0" points="1275.4,405.6 1272.7,454.6 1198.1,457.1 1200.9,408.1 	"/>
</g>
<g id="_x33_5">
	<polygon class="st0" points="1272.6,456.8 1271.3,480.7 1196.7,482.6 1198,459.3 	"/>
</g>
<g id="_x31_51">
	<polygon class="st0" points="1178.9,332.4 1176.2,381 1104.5,383.4 1101.8,380.1 1104.3,334.9 	"/>
</g>
<g id="_x34_3">
	<polygon class="st0" points="1213.4,611.7 1210.6,660.4 1186.9,661.3 1189.6,612.3 1189.6,612.3 	"/>
</g>
<g id="_x34_2">
	<polygon class="st0" points="1239.4,611.1 1236.5,659.7 1212.7,660.4 1215.5,611.6 	"/>
</g>
<g id="_x34_1">
	<polygon class="st0" points="1264,610.4 1264,610.5 1261.4,658.9 1238.7,659.6 1241.5,611 	"/>
</g>
<g id="_x31_52">
	<polygon class="st0" points="1174.6,408.6 1171.9,457.8 1097.4,460.3 1099.7,417.1 1104.6,411 	"/>
</g>
<g id="_x31_42">
	<polygon class="st0" points="1190.2,128.7 1187.4,177.8 1164.2,178.4 1167,129.5 1167,129.5 	"/>
</g>
<g id="_x31_43">
	<polygon class="st0" points="1164.7,129.6 1162.1,178.5 1138.6,179.1 1141.4,130.4 	"/>
</g>
<g id="_x31_44">
	<polygon class="st0" points="1139.2,130.5 1136.5,179.1 1112.9,179.7 1115.6,131.2 	"/>
</g>
<g id="_x31_45">
	<polygon class="st0" points="1187.4,180 1186,203.5 1111.5,205.4 1112.8,181.9 	"/>
</g>
<g id="_x31_46">
	<polygon class="st0" points="1185.9,205.6 1184.6,229.1 1110.1,231 1111.4,207.6 	"/>
</g>
<g id="_x31_47">
	<polygon class="st0" points="1184.5,231.2 1184.5,231.2 1183.2,254.1 1108.6,255.9 1110,233.2 	"/>
</g>
<g id="_x31_48">
	<polygon class="st0" points="1183.1,256.3 1181.8,280.4 1107.2,282.3 1108.6,258.1 	"/>
</g>
<g id="_x31_50">
	<polygon class="st0" points="1180.2,307.7 1180.2,307.7 1179,330.2 1104.4,332.7 1105.7,309.6 	"/>
</g>
<g id="_x31_49">
	<polygon class="st0" points="1181.6,282.5 1180.4,305.6 1105.8,307.5 1105.8,307.5 1107.1,284.4 	"/>
</g>
<g id="_x31_53">
	<polygon class="st0" points="1171.8,459.9 1170.4,484.4 1096,486.3 1097.2,462.4 	"/>
</g>
<g id="_x31_54">
	<polygon class="st0" points="1170.3,486.5 1169,510.1 1094.5,511.9 1095.8,488.4 	"/>
</g>
<g id="_x31_55">
	<polygon class="st0" points="1168.9,512.2 1167.6,535.4 1093.1,537.2 1094.4,514 	"/>
</g>
<g id="_x31_56">
	<polygon class="st0" points="1167.4,537.6 1166.2,560.7 1091.7,562.6 1093,539.4 	"/>
</g>
<g id="_x31_57">
	<polygon class="st0" points="1166,562.9 1164.7,587.1 1090.2,588.9 1091.6,564.7 	"/>
</g>
<g id="_x31_58">
	<polygon class="st0" points="1164.5,589.2 1163.3,611.9 1088.8,613.8 1090.1,591.1 	"/>
</g>
<g id="_x31_61">
	<polygon class="st0" points="1112.6,615.3 1109.7,664 1086,664.8 1088.8,615.9 1088.8,615.9 	"/>
</g>
<g id="_x31_59">
	<polygon class="st0" points="1163.2,614 1163.2,614 1160.5,662.5 1137.9,663.1 1140.7,614.6 	"/>
</g>
<g id="_x31_60">
	<polygon class="st0" points="1138.5,614.7 1135.7,663.2 1111.9,664 1114.8,615.2 	"/>
</g>
<g id="_x32_69">
	<polygon class="st0" points="1018,619.1 1018,619.7 1015.3,667.5 940.8,669.9 943.5,621 	"/>
</g>
<g id="_x32_54">
	<polygon class="st0" points="1045,133.8 1042.3,183 967.7,184.6 970.3,136.3 	"/>
</g>
<g id="_x32_55">
	<polygon class="st0" points="1042.1,185.1 1040.8,208.6 966.1,210.5 967.6,187 	"/>
</g>
<g id="_x32_56">
	<polygon class="st0" points="1040.7,210.7 1039.4,234.2 964.8,236.1 966.1,212.6 	"/>
</g>
<g id="_x32_57">
	<polygon class="st0" points="1039.3,236.4 1038.1,259.1 963.5,261 964.7,238.3 964.7,238.3 	"/>
</g>
<g id="_x32_58">
	<polygon class="st0" points="1037.9,261.3 1036.6,285.4 962,287.3 963.3,263.2 	"/>
</g>
<g id="_x32_59">
	<polygon class="st0" points="1036.5,287.6 1035.2,310.7 960.6,312.5 961.9,289.5 	"/>
</g>
<g id="_x32_64">
	<polygon class="st0" points="1025.1,491.5 1023.8,515.1 949.3,517 950.5,493.4 	"/>
</g>
<g id="_x32_65">
	<polygon class="st0" points="1023.7,517.2 1023.7,517.5 1022.4,540.4 947.9,542.3 949.2,519.2 	"/>
</g>
<g id="_x32_66">
	<polygon class="st0" points="1022.3,542.6 1021,565.8 946.5,567.7 947.8,544.6 	"/>
</g>
<g id="_x32_68">
	<polygon class="st0" points="1019.4,594.3 1018.1,616.9 943.6,618.8 944.9,596.3 	"/>
</g>
<g id="_x32_67">
	<polygon class="st0" points="1020.9,567.9 1020.8,568.3 1019.5,592.1 945,594 946.3,570.1 	"/>
</g>
<g id="_x32_61">
	<polygon class="st0" points="1033.6,338.7 1031.4,378.8 1025.1,386.7 956.4,388.3 959,340.8 	"/>
</g>
<g id="_x32_60">
	<polygon class="st0" points="1034.8,312.8 1035.1,312.8 1033.7,336.5 959.2,338.4 960.5,314.7 	"/>
</g>
<g id="_x32_62">
	<polygon class="st0" points="1029.1,420.7 1026.7,463.7 952.1,465.6 954.8,416.7 1024.6,415 	"/>
</g>
<g id="_x32_63">
	<polygon class="st0" points="1026.5,465.9 1025.2,489.4 950.6,491.2 951.9,467.8 	"/>
</g>
<g id="_x32_70">
	<polygon class="st0" points="1011.8,695.5 1011.7,698.1 1011.5,701.3 1009.1,744.3 934.6,746.2 937.3,697.3 937.3,697.3 
		1007,695.6 1007,695.6 1009.7,695.5 	"/>
</g>
<g id="_x32_77">
	<polygon class="st0" points="1000.5,899.7 997.8,948.2 923.3,950.5 926.1,901.6 926.1,901.6 	"/>
</g>
<g id="_x32_76">
	<polygon class="st0" points="1001.8,874.9 1000.6,897.6 926.1,899.4 927.4,876.8 	"/>
</g>
<g id="_x32_75">
	<polygon class="st0" points="1003.4,848.6 1003.4,848.6 1002,872.7 927.5,874.6 928.8,850.5 	"/>
</g>
<g id="_x32_74">
	<polygon class="st0" points="1004.7,823.2 1004.7,823.2 1003.5,846.4 1003.5,846.4 928.9,848.4 930.3,825.1 	"/>
</g>
<g id="_x32_73">
	<polygon class="st0" points="1006.2,797.8 1006.2,797.9 1004.9,821 1004.9,821 930.4,823 930.4,823 931.6,799.8 	"/>
</g>
<g id="_x32_72">
	<polygon class="st0" points="1007.6,772.2 1006.2,795.7 1006.2,795.7 931.8,797.6 933.1,774.1 	"/>
</g>
<g id="_x32_71">
	<polygon class="st0" points="1009,746.5 1007.7,770 933.2,771.9 934.5,748.4 	"/>
</g>
</svg>