<?xml version="1.0" encoding="utf-8"?>
<!-- Generator: Adobe Illustrator 23.0.5, SVG Export Plug-In . SVG Version: 6.00 Build 0)  -->
<svg version="1.1" id="Dividido" xmlns="http://www.w3.org/2000/svg" xmlns:xlink="http://www.w3.org/1999/xlink" x="0px" y="0px"
	 viewBox="0 0 1125 2436" style="enable-background:new 0 0 1125 2436;" xml:space="preserve">
<style type="text/css">
	.st0{fill:#606060;}
</style>
<g id="_x32_4">
	<polygon class="st0" points="833.6,1077.3 829.6,1150.5 795,1151.4 799,1078.6 	"/>
</g>
<g id="_x32_5">
	<polygon class="st0" points="795.8,1078.6 791.8,1151.4 757,1152.4 760.9,1080 	"/>
</g>
<g id="_x32_6">
	<polygon class="st0" points="757.8,1080.1 753.7,1152.4 718.6,1153.3 722.7,1081.3 	"/>
</g>
<g id="_x32_7">
	<polygon class="st0" points="829.5,1153.7 827.5,1188.7 716.6,1191.4 718.5,1156.6 	"/>
</g>
<g id="_x32_8">
	<polygon class="st0" points="827.2,1192 825.4,1226.6 714.5,1229.4 716.4,1194.6 	"/>
</g>
<g id="_x32_9">
	<polygon class="st0" points="825.1,1229.9 825.1,1230 823.4,1263.8 712.4,1266.6 714.3,1232.7 	"/>
</g>
<g id="_x33_0">
	<polygon class="st0" points="823.2,1267.1 821.1,1302.9 710.2,1305.8 712.2,1269.9 	"/>
</g>
<g id="_x33_1">
	<polygon class="st0" points="821,1306.2 819,1340.4 708.2,1343.2 708.2,1343.2 710,1309 	"/>
</g>
<g id="_x33_6">
	<polygon class="st0" points="804,1609.5 802.1,1644.4 802.1,1644.4 691.3,1647.3 693.2,1612.3 	"/>
</g>
<g id="_x33_7">
	<polygon class="st0" points="801.9,1647.7 800,1682.2 800,1682.2 689.2,1685.1 691.1,1650.5 691.1,1650.5 	"/>
</g>
<g id="_x33_8">
	<polygon class="st0" points="799.9,1685.4 797.9,1719.9 687.1,1722.7 689,1688.2 	"/>
</g>
<g id="_x33_9">
	<polygon class="st0" points="797.8,1723.1 795.8,1759.1 685,1762 687,1726 687,1726 	"/>
</g>
<g id="_x34_0">
	<polygon class="st0" points="795.5,1762.3 793.8,1795.9 682.9,1798.8 684.7,1765.1 	"/>
</g>
<g id="_x33_2">
	<polygon class="st0" points="818.9,1343.5 818.9,1343.5 817,1377.9 706,1381.5 707.9,1346.4 	"/>
</g>
<g id="_x33_3">
	<polygon class="st0" points="816.8,1381 812.7,1453.5 701.8,1457.2 705.9,1384.7 	"/>
</g>
<g id="_x33_4">
	<polygon class="st0" points="810.4,1494.5 806.4,1567.4 695.4,1571.1 699.6,1498.2 	"/>
</g>
<g id="_x33_5">
	<polygon class="st0" points="806.3,1570.7 804.3,1606.2 693.4,1609 695.3,1574.4 	"/>
</g>
<g id="_x31_51">
	<polygon class="st0" points="666.9,1385.6 662.9,1457.9 556.2,1461.5 552.2,1456.6 555.9,1389.3 	"/>
</g>
<g id="_x34_3">
	<polygon class="st0" points="718.2,1801.1 714,1873.5 678.8,1874.9 682.8,1802 682.8,1802 	"/>
</g>
<g id="_x34_2">
	<polygon class="st0" points="756.9,1800.2 752.6,1872.5 717.2,1873.5 721.3,1800.9 	"/>
</g>
<g id="_x34_1">
	<polygon class="st0" points="793.5,1799.1 793.5,1799.3 789.6,1871.3 755.8,1872.3 760,1800 	"/>
</g>
<g id="_x31_52">
	<polygon class="st0" points="660.5,1499 656.5,1572.2 545.7,1575.9 549.1,1511.6 556.4,1502.5 	"/>
</g>
<g id="_x31_42">
	<polygon class="st0" points="683.7,1082.6 679.5,1155.7 645,1156.6 649.2,1083.8 649.2,1083.8 	"/>
</g>
<g id="_x31_43">
	<polygon class="st0" points="645.8,1084 641.9,1156.7 606.9,1157.6 611.1,1085.2 	"/>
</g>
<g id="_x31_44">
	<polygon class="st0" points="607.8,1085.3 603.8,1157.6 568.7,1158.5 572.7,1086.4 	"/>
</g>
<g id="_x31_45">
	<polygon class="st0" points="679.5,1158.9 677.4,1193.9 566.6,1196.7 568.6,1161.8 	"/>
</g>
<g id="_x31_46">
	<polygon class="st0" points="677.3,1197 675.4,1232 564.5,1234.8 566.5,1200 	"/>
</g>
<g id="_x31_47">
	<polygon class="st0" points="675.2,1235.1 675.2,1235.1 673.3,1269.2 562.3,1271.8 564.4,1238.1 	"/>
</g>
<g id="_x31_48">
	<polygon class="st0" points="673.1,1272.4 671.2,1308.3 560.2,1311.1 562.3,1275.1 	"/>
</g>
<g id="_x31_50">
	<polygon class="st0" points="668.8,1348.9 668.8,1348.9 667,1382.4 556.1,1386.1 558,1351.7 	"/>
</g>
<g id="_x31_49">
	<polygon class="st0" points="670.9,1311.4 669.1,1345.8 558.1,1348.6 558.1,1348.6 560.1,1314.2 	"/>
</g>
<g id="_x31_53">
	<polygon class="st0" points="656.3,1575.3 654.2,1611.7 543.6,1614.6 545.4,1579 	"/>
</g>
<g id="_x31_54">
	<polygon class="st0" points="654.1,1614.8 652.2,1650 541.3,1652.6 543.3,1617.7 	"/>
</g>
<g id="_x31_55">
	<polygon class="st0" points="652,1653.1 650.1,1687.6 539.3,1690.3 541.2,1655.8 	"/>
</g>
<g id="_x31_56">
	<polygon class="st0" points="649.8,1690.9 648,1725.2 537.2,1728 539.1,1693.5 	"/>
</g>
<g id="_x31_57">
	<polygon class="st0" points="647.7,1728.5 645.8,1764.5 534.9,1767.2 537,1731.2 	"/>
</g>
<g id="_x31_58">
	<polygon class="st0" points="645.5,1767.6 643.7,1801.4 532.9,1804.2 534.8,1770.4 	"/>
</g>
<g id="_x31_61">
	<polygon class="st0" points="568.3,1806.4 563.9,1878.9 528.7,1880.1 532.9,1807.3 532.9,1807.3 	"/>
</g>
<g id="_x31_59">
	<polygon class="st0" points="643.5,1804.5 643.5,1804.5 639.5,1876.6 605.9,1877.5 610.1,1805.4 	"/>
</g>
<g id="_x31_60">
	<polygon class="st0" points="606.8,1805.5 602.6,1877.7 567.2,1878.9 571.5,1806.3 	"/>
</g>
<g id="_x32_69">
	<polygon class="st0" points="427.5,1812.1 427.5,1813 423.5,1884.1 312.7,1887.6 316.7,1814.9 	"/>
</g>
<g id="_x32_54">
	<polygon class="st0" points="467.7,1090.2 463.7,1163.4 352.7,1165.8 356.6,1093.9 	"/>
</g>
<g id="_x32_55">
	<polygon class="st0" points="463.4,1166.5 461.5,1201.5 350.3,1204.3 352.6,1169.4 	"/>
</g>
<g id="_x32_56">
	<polygon class="st0" points="461.3,1204.6 459.4,1239.6 348.4,1242.4 350.3,1207.4 	"/>
</g>
<g id="_x32_57">
	<polygon class="st0" points="459.2,1242.8 457.4,1276.6 346.5,1279.4 348.3,1245.7 348.3,1245.7 	"/>
</g>
<g id="_x32_58">
	<polygon class="st0" points="457.1,1279.9 455.2,1315.7 344.2,1318.5 346.2,1282.7 	"/>
</g>
<g id="_x32_59">
	<polygon class="st0" points="455.1,1319 453.1,1353.4 342.2,1356 344.1,1321.8 	"/>
</g>
<g id="_x32_64">
	<polygon class="st0" points="438.1,1622.3 436.2,1657.4 325.4,1660.2 327.1,1625.1 	"/>
</g>
<g id="_x32_65">
	<polygon class="st0" points="436,1660.5 436,1661 434.1,1695 323.3,1697.8 325.2,1663.5 	"/>
</g>
<g id="_x32_66">
	<polygon class="st0" points="433.9,1698.3 432,1732.8 321.2,1735.6 323.1,1701.3 	"/>
</g>
<g id="_x32_68">
	<polygon class="st0" points="429.6,1775.2 427.7,1808.8 316.9,1811.6 318.8,1778.2 	"/>
</g>
<g id="_x32_67">
	<polygon class="st0" points="431.9,1735.9 431.7,1736.5 429.8,1771.9 319,1774.8 320.9,1739.2 	"/>
</g>
<g id="_x32_61">
	<polygon class="st0" points="450.8,1395 447.5,1454.6 438.1,1466.4 335.9,1468.8 339.8,1398.1 	"/>
</g>
<g id="_x32_60">
	<polygon class="st0" points="452.5,1356.5 453,1356.5 450.9,1391.7 340.1,1394.6 342,1359.3 	"/>
</g>
<g id="_x32_62">
	<polygon class="st0" points="444.1,1517 440.5,1580.9 329.5,1583.8 333.5,1511 437.4,1508.5 	"/>
</g>
<g id="_x32_63">
	<polygon class="st0" points="440.2,1584.2 438.3,1619.2 327.3,1621.8 329.2,1587 	"/>
</g>
<g id="_x32_70">
	<polygon class="st0" points="418.3,1925.7 418.2,1929.6 417.9,1934.4 414.3,1998.3 303.5,2001.1 307.5,1928.4 307.5,1928.4 
		411.2,1925.9 411.2,1925.9 415.2,1925.7 	"/>
</g>
<g id="_x32_77">
	<polygon class="st0" points="401.5,2229.5 397.5,2301.6 286.7,2305 290.8,2232.3 290.8,2232.3 	"/>
</g>
<g id="_x32_76">
	<polygon class="st0" points="403.4,2192.6 401.7,2226.3 290.8,2229 292.8,2195.4 	"/>
</g>
<g id="_x32_75">
	<polygon class="st0" points="405.8,2153.5 405.8,2153.5 403.7,2189.3 292.9,2192.1 294.9,2156.3 	"/>
</g>
<g id="_x32_74">
	<polygon class="st0" points="407.8,2115.7 407.8,2115.7 406,2150.2 406,2150.2 295,2153.2 297.1,2118.5 	"/>
</g>
<g id="_x32_73">
	<polygon class="st0" points="410,2077.9 410,2078 408.1,2112.4 408.1,2112.4 297.2,2115.4 297.2,2115.4 299,2080.9 	"/>
</g>
<g id="_x32_72">
	<polygon class="st0" points="412.1,2039.8 410,2074.8 410,2074.8 299.3,2077.6 301.3,2042.6 	"/>
</g>
<g id="_x32_71">
	<polygon class="st0" points="414.2,2001.6 412.2,2036.5 301.4,2039.4 303.3,2004.4 	"/>
</g>
</svg>
